<svg width="410" height="184" viewBox="0 0 410 184" fill="none" xmlns="http://www.w3.org/2000/svg">
<path d="M67.5696 144.257H0.814941V117.82L64.0126 18.9653H94.1792V120.268H117.082V144.257H94.1792V176.243H67.5696V144.257ZM67.5696 56.731H67.1216L27.8725 120.268H67.5696V56.731Z" fill="#C026D3"/>
<path d="M360.383 144.257H293.642V117.82L356.84 18.9653H387.006V120.268H409.842V144.257H387.006V176.243H360.383V144.257ZM365.026 56.731H364.578L325.329 120.268H365.026V56.731Z" fill="#C026D3"/>
<path d="M200.549 26.8125C186.602 26.8098 172.968 30.9493 161.369 38.7077C149.77 46.4661 140.728 57.4951 135.386 70.4003C130.044 83.3056 128.641 97.5077 131.355 111.211C134.07 124.915 140.779 137.505 150.636 147.389C160.492 157.274 173.053 164.009 186.73 166.744C200.407 169.479 214.586 168.09 227.476 162.754C240.365 157.417 251.386 148.373 259.144 136.763C266.903 125.154 271.051 111.5 271.065 97.5297C271.075 88.2468 269.259 79.0529 265.72 70.4736C262.181 61.8942 256.989 54.0978 250.44 47.53C243.891 40.9623 236.114 35.752 227.553 32.1971C218.993 28.6422 209.816 26.8125 200.549 26.8125Z" fill="white" stroke="#231F20" stroke-width="1.04545" stroke-linecap="round" stroke-linejoin="round"/>
<path d="M237.518 79.3336C239.317 79.3336 240.776 77.1599 240.776 74.4786C240.776 71.7972 239.317 69.6235 237.518 69.6235C235.718 69.6235 234.259 71.7972 234.259 74.4786C234.259 77.1599 235.718 79.3336 237.518 79.3336Z" fill="#231F20"/>
<path d="M117.707 76.5319L283.338 39.8133L250.755 30.2937C250.755 30.2937 233.106 0.98686 228.395 0.374884C223.684 -0.237092 138.071 18.0542 138.071 18.0542L132.641 59.3422L117.707 76.5319Z" fill="#231F20"/>
<path d="M173.112 112.176C173.112 112.176 215.198 95.3264 233.608 126.714Z" fill="white"/>
<path d="M233.608 127.421C233.486 127.42 233.367 127.387 233.262 127.325C233.157 127.263 233.07 127.174 233.011 127.068C215.103 96.5641 173.777 112.666 173.37 112.829C173.19 112.899 172.989 112.895 172.812 112.817C172.635 112.74 172.496 112.595 172.426 112.414C172.356 112.234 172.36 112.033 172.438 111.856C172.516 111.679 172.66 111.539 172.84 111.469C173.275 111.306 215.701 94.7553 234.219 126.306C234.31 126.468 234.335 126.658 234.29 126.838C234.244 127.018 234.131 127.173 233.974 127.272C233.868 127.354 233.741 127.406 233.608 127.421Z" fill="#231F20"/>
<path d="M152.191 175.944L133.469 146.297L215.307 132.276L220.928 160.685L229.236 134.52L271.106 142.802L262.593 175.944H152.191Z" fill="#231F20"/>
<path d="M257.058 111.657L264.602 110.611L268.5 138.819C268.63 139.762 268.381 140.719 267.807 141.478C267.233 142.237 266.382 142.737 265.441 142.868L264.997 142.929C264.055 143.06 263.1 142.81 262.342 142.236C261.585 141.661 261.085 140.808 260.955 139.865L257.058 111.657Z" fill="white"/>
<path d="M264.508 143.659C263.479 143.656 262.486 143.281 261.71 142.605C260.935 141.928 260.429 140.993 260.285 139.973L256.389 111.754C256.366 111.576 256.414 111.395 256.524 111.253C256.633 111.11 256.795 111.016 256.973 110.993L264.508 109.946C264.596 109.934 264.686 109.94 264.772 109.963C264.858 109.987 264.939 110.027 265.01 110.082C265.082 110.134 265.142 110.201 265.186 110.279C265.231 110.356 265.258 110.442 265.268 110.53L269.137 138.736C269.217 139.292 269.187 139.858 269.047 140.402C268.907 140.946 268.661 141.456 268.322 141.904C267.984 142.352 267.56 142.728 267.075 143.011C266.59 143.293 266.055 143.476 265.499 143.55L265.064 143.618C264.88 143.644 264.694 143.657 264.508 143.659ZM257.828 112.244L261.629 139.783C261.737 140.546 262.142 141.235 262.754 141.701C263.367 142.167 264.139 142.372 264.901 142.272H265.349C266.11 142.164 266.797 141.758 267.26 141.144C267.723 140.53 267.925 139.757 267.82 138.994L264.019 111.455L257.828 112.244Z" fill="#231F20"/>
<path d="M263.434 85.0714L251.263 86.7588L255.075 114.347L267.246 112.66L263.434 85.0714Z" fill="white"/>
<path d="M255.072 115.045C254.925 115.042 254.784 114.995 254.664 114.909C254.591 114.858 254.53 114.791 254.486 114.714C254.441 114.636 254.414 114.55 254.406 114.461L250.592 86.8538C250.577 86.766 250.581 86.6762 250.602 86.5898C250.623 86.5034 250.661 86.4221 250.714 86.3506C250.826 86.2119 250.986 86.1198 251.162 86.0922L263.38 84.4059C263.469 84.3925 263.559 84.3972 263.646 84.4196C263.733 84.442 263.814 84.4817 263.885 84.5363C263.956 84.5909 264.015 84.6593 264.059 84.7373C264.103 84.8154 264.131 84.9016 264.141 84.9907L267.956 112.584C267.979 112.762 267.93 112.943 267.821 113.086C267.711 113.228 267.55 113.322 267.372 113.346L255.153 115.032L255.072 115.045ZM252.031 87.3434L255.656 113.59L266.517 112.094L262.892 85.8474L252.031 87.3434Z" fill="#231F20"/>
<path d="M265.586 132.372L262.022 132.866C259.645 133.195 257.985 135.392 258.314 137.773L263.753 177.136C264.082 179.516 266.275 181.179 268.652 180.85L272.216 180.356C274.593 180.026 276.253 177.829 275.924 175.448L270.485 136.086C270.156 133.705 267.963 132.042 265.586 132.372Z" fill="white"/>
<path d="M268.038 181.588C266.826 181.586 265.656 181.146 264.743 180.349C263.83 179.552 263.236 178.451 263.069 177.25L257.638 137.879C257.545 137.225 257.583 136.559 257.748 135.919C257.914 135.28 258.204 134.68 258.602 134.153C259.408 133.093 260.598 132.394 261.915 132.208L265.499 131.719C266.815 131.537 268.149 131.886 269.208 132.689C270.267 133.492 270.965 134.684 271.147 136.002L276.577 175.441C276.755 176.758 276.405 178.093 275.604 179.153C274.803 180.213 273.615 180.913 272.301 181.098L268.716 181.601L268.038 181.588ZM266.191 133.024C266.024 133.011 265.856 133.011 265.689 133.024L262.105 133.514C261.627 133.579 261.168 133.739 260.753 133.984C260.338 134.229 259.976 134.555 259.688 134.942C259.393 135.324 259.179 135.762 259.057 136.229C258.936 136.697 258.91 137.184 258.982 137.662L264.413 177.1C264.551 178.05 265.054 178.909 265.815 179.493C266.575 180.077 267.534 180.341 268.486 180.228L272.07 179.725C273.02 179.589 273.879 179.086 274.463 178.323C275.046 177.561 275.308 176.599 275.192 175.645L269.762 136.206C269.641 135.331 269.209 134.529 268.546 133.947C267.883 133.365 267.032 133.042 266.15 133.038L266.191 133.024Z" fill="#231F20"/>
<path d="M256.375 111.564C274.393 111.564 288.999 96.933 288.999 78.8846C288.999 60.8362 274.393 46.2051 256.375 46.2051C238.358 46.2051 223.751 60.8362 223.751 78.8846C223.751 96.933 238.358 111.564 256.375 111.564Z" fill="white"/>
<path d="M256.348 112.244C249.954 112.241 243.696 110.395 238.321 106.927C232.946 103.458 228.68 98.5137 226.034 92.6831C223.388 86.8525 222.472 80.3823 223.397 74.0448C224.322 67.7073 227.047 61.7701 231.249 56.9421C235.45 52.114 240.95 48.5989 247.091 46.8165C253.233 45.034 259.756 45.0594 265.884 46.8897C272.011 48.7199 277.483 52.2777 281.647 57.1383C285.811 61.999 288.49 67.9572 289.366 74.3017C290.566 83.0578 288.254 91.9336 282.936 98.9861C277.618 106.039 269.727 110.693 260.991 111.931C259.452 112.139 257.901 112.244 256.348 112.244ZM256.348 46.8716C254.872 46.8701 253.398 46.9701 251.936 47.1708C245.674 48.0376 239.81 50.745 235.084 54.9505C230.359 59.1561 226.984 64.671 225.388 70.7977C223.792 76.9244 224.045 83.3877 226.116 89.3702C228.187 95.3527 231.982 100.586 237.022 104.407C242.062 108.229 248.12 110.468 254.43 110.84C260.741 111.213 267.019 109.702 272.473 106.5C277.926 103.298 282.309 98.5479 285.067 92.8504C287.825 87.153 288.834 80.7642 287.967 74.4921C286.9 66.856 283.122 59.8609 277.324 54.7882C271.527 49.7155 264.1 46.905 256.402 46.8716H256.348Z" fill="#231F20"/>
<path d="M256.375 105.431C271.012 105.431 282.876 93.5456 282.876 78.8845C282.876 64.2235 271.012 52.3384 256.375 52.3384C241.739 52.3384 229.875 64.2235 229.875 78.8845C229.875 93.5456 241.739 105.431 256.375 105.431Z" fill="white"/>
<path d="M256.362 106.111C249.323 106.111 242.559 103.373 237.496 98.4734C232.433 93.5742 229.468 86.897 229.225 79.85C228.982 72.8029 231.481 65.9368 236.195 60.6997C240.908 55.4625 247.468 52.2636 254.49 51.7776C261.513 51.2916 268.449 53.5564 273.837 58.0945C279.224 62.6326 282.642 69.0892 283.369 76.1027C284.096 83.1162 282.076 90.1385 277.734 95.6886C273.392 101.239 267.068 104.883 260.095 105.852C258.859 106.026 257.611 106.112 256.362 106.111ZM256.362 53.0729C255.159 53.0736 253.957 53.1554 252.764 53.3177C246.143 54.2374 240.136 57.6962 236.01 62.9653C231.885 68.2344 229.962 74.9022 230.648 81.5633C231.334 88.2244 234.575 94.3586 239.688 98.673C244.8 102.987 251.385 105.145 258.055 104.691C264.725 104.238 270.958 101.208 275.441 96.2404C279.924 91.273 282.307 84.7562 282.088 78.0633C281.868 71.3705 279.064 65.0244 274.264 60.3625C269.465 55.7006 263.047 53.0872 256.362 53.0729Z" fill="#231F20"/>
<path d="M287.533 152.553C285.74 150.274 283.469 148.417 280.88 147.113C273.101 143.033 264.182 143.169 255.995 145.753C253.09 146.678 247.456 147.997 247.157 151.859C247.168 152.63 247.426 153.376 247.893 153.989C248.36 154.601 249.011 155.046 249.75 155.259C251.236 155.645 252.787 155.705 254.298 155.436C252.145 155.378 250.017 155.914 248.148 156.986C246.397 158.224 245.433 160.93 246.872 162.576C247.508 163.26 248.336 163.734 249.248 163.936C251.229 164.482 253.324 164.453 255.289 163.854C253.162 164.262 251.09 164.915 249.112 165.799C247.917 166.329 246.587 167.268 246.723 168.519C246.858 169.77 248.08 170.341 249.193 170.722C251.536 171.527 253.982 171.985 256.457 172.082C254.321 172.47 252.302 173.34 250.551 174.625C247.836 176.91 247.836 181.248 251.515 182.485C252.695 182.831 253.925 182.974 255.153 182.907C266.014 182.907 279.021 181.547 286.379 172.49C288.163 170.402 289.411 167.91 290.017 165.23C290.623 162.55 290.567 159.762 289.854 157.109C289.352 155.466 288.566 153.924 287.533 152.553Z" fill="white"/>
<path d="M255.072 183.546C253.798 183.608 252.522 183.457 251.298 183.097C250.486 182.85 249.757 182.387 249.188 181.757C248.619 181.127 248.231 180.354 248.066 179.521C247.911 178.515 248.017 177.487 248.374 176.534C248.731 175.581 249.326 174.737 250.103 174.081C250.978 173.353 251.969 172.779 253.035 172.381C251.651 172.146 250.289 171.796 248.962 171.334C247.157 170.708 246.247 169.784 246.044 168.614C245.84 167.445 246.885 166.03 248.759 165.146L249.723 164.738C249.475 164.692 249.231 164.633 248.99 164.561C247.945 164.341 246.996 163.799 246.274 163.011C245.943 162.605 245.701 162.133 245.563 161.627C245.425 161.121 245.395 160.592 245.473 160.074C245.578 159.352 245.827 158.658 246.205 158.034C246.582 157.41 247.082 156.869 247.673 156.443C248.095 156.146 248.551 155.899 249.03 155.708C248.258 155.392 247.598 154.852 247.135 154.156C246.673 153.46 246.43 152.641 246.437 151.805C246.749 147.834 251.651 146.365 254.882 145.373L255.751 145.114C264.82 142.245 273.848 142.748 281.152 146.474C283.837 147.836 286.188 149.778 288.035 152.159C289.119 153.583 289.951 155.184 290.492 156.891C291.244 159.653 291.309 162.557 290.682 165.349C290.055 168.142 288.754 170.738 286.895 172.911C279.197 182.336 265.865 183.56 255.112 183.573L255.072 183.546ZM253.782 164.793C252.274 165.176 250.802 165.69 249.383 166.329C248.745 166.615 247.293 167.39 247.401 168.396C247.51 169.403 248.542 169.756 249.41 170.042C251.689 170.841 254.072 171.299 256.484 171.402C256.647 171.404 256.803 171.467 256.923 171.577C257.043 171.687 257.119 171.838 257.135 172C257.154 172.163 257.113 172.326 257.021 172.461C256.929 172.596 256.791 172.693 256.633 172.735C254.597 173.113 252.669 173.934 250.985 175.142C250.383 175.638 249.92 176.282 249.641 177.012C249.363 177.741 249.278 178.531 249.397 179.303C249.515 179.901 249.796 180.455 250.208 180.903C250.62 181.352 251.147 181.678 251.732 181.846C252.837 182.173 253.99 182.302 255.14 182.227C265.607 182.227 278.545 181.058 285.876 172.068C287.596 170.07 288.801 167.681 289.388 165.109C289.975 162.537 289.925 159.861 289.243 157.313C288.744 155.757 287.982 154.299 286.99 153.002C285.27 150.777 283.076 148.964 280.568 147.698C273.576 144.094 264.928 143.618 256.199 146.338L255.316 146.61C252.438 147.48 248.066 148.8 247.822 151.846C247.847 152.468 248.069 153.066 248.454 153.555C248.839 154.043 249.369 154.397 249.967 154.566C250.751 154.817 251.576 154.918 252.397 154.865C253.035 154.797 253.66 154.756 254.257 154.715C254.433 154.711 254.605 154.772 254.738 154.888C254.871 155.004 254.956 155.166 254.977 155.341C254.988 155.519 254.931 155.694 254.818 155.83C254.704 155.967 254.542 156.055 254.366 156.075C253.755 156.075 253.117 156.211 252.465 156.225C251.071 156.316 249.722 156.755 248.542 157.503C248.1 157.823 247.727 158.229 247.445 158.696C247.163 159.164 246.977 159.683 246.899 160.223C246.846 160.555 246.862 160.894 246.946 161.22C247.03 161.545 247.18 161.849 247.388 162.114C247.94 162.681 248.649 163.07 249.424 163.229C250.75 163.587 252.135 163.68 253.497 163.501C254.04 163.365 254.597 163.242 255.14 163.133C255.31 163.1 255.487 163.134 255.633 163.228C255.78 163.321 255.885 163.468 255.927 163.637C255.966 163.806 255.94 163.984 255.855 164.135C255.769 164.286 255.63 164.399 255.465 164.453C254.915 164.612 254.352 164.726 253.782 164.793Z" fill="#231F20"/>
<path d="M211.831 79.4014C211.831 79.4014 228.367 104.288 218.362 104.642C208.356 104.996 207.5 102.371 207.5 102.371" fill="white"/>
<path d="M216.57 105.431C208.18 105.431 206.971 103.132 206.808 102.711C206.752 102.532 206.767 102.339 206.851 102.171C206.934 102.004 207.08 101.875 207.256 101.813C207.433 101.757 207.624 101.773 207.789 101.857C207.954 101.941 208.08 102.086 208.139 102.262C208.139 102.262 209.361 104.37 218.335 104.044C218.772 104.084 219.212 103.998 219.602 103.795C219.991 103.593 220.315 103.283 220.534 102.901C222.679 98.7262 214.56 84.882 211.248 79.9046C211.159 79.7496 211.132 79.5666 211.172 79.3925C211.213 79.2184 211.317 79.066 211.465 78.9661C211.613 78.8661 211.793 78.826 211.97 78.8538C212.146 78.8816 212.305 78.9752 212.415 79.1158C213.678 81.0197 224.634 97.8831 221.783 103.595C221.457 104.204 220.965 104.708 220.364 105.047C219.763 105.387 219.078 105.548 218.389 105.512L216.57 105.431Z" fill="#231F20"/>
<path d="M257.882 88.2952C261.196 88.2952 263.883 83.7105 263.883 78.0548C263.883 72.3992 261.196 67.8145 257.882 67.8145C254.568 67.8145 251.881 72.3992 251.881 78.0548C251.881 83.7105 254.568 88.2952 257.882 88.2952Z" fill="#D1D3D4"/>
<path d="M184.448 86.3371C186.975 86.3371 189.023 82.6291 189.023 78.055C189.023 73.481 186.975 69.7729 184.448 69.7729C181.921 69.7729 179.873 73.481 179.873 78.055C179.873 82.6291 181.921 86.3371 184.448 86.3371Z" fill="#231F20"/>
</svg>
