<svg width="420" height="395" viewBox="0 0 420 395" fill="none" xmlns="http://www.w3.org/2000/svg">
<path d="M418.846 319.431H0.83602C0.614293 319.431 0.401648 319.342 0.244864 319.185C0.0880798 319.028 0 318.814 0 318.592C0 318.369 0.0880798 318.156 0.244864 317.998C0.401648 317.841 0.614293 317.752 0.83602 317.752H418.846C419.068 317.752 419.28 317.841 419.437 317.998C419.594 318.156 419.682 318.369 419.682 318.592C419.682 318.814 419.594 319.028 419.437 319.185C419.28 319.342 419.068 319.431 418.846 319.431Z" fill="#D1D3D4"/>
<path d="M418.846 221.54H0.83602C0.614293 221.54 0.401648 221.452 0.244864 221.294C0.0880798 221.137 0 220.924 0 220.701V0.855706C0 0.633162 0.0880798 0.419732 0.244864 0.262369C0.401648 0.105006 0.614293 0.0166016 0.83602 0.0166016H418.846C419.068 0.0166016 419.28 0.105006 419.437 0.262369C419.594 0.419732 419.682 0.633162 419.682 0.855706V220.701C419.682 220.924 419.594 221.137 419.437 221.294C419.28 221.452 419.068 221.54 418.846 221.54ZM1.6386 219.862H417.976V1.69481H1.6386V219.862Z" fill="#D1D3D4"/>
<path d="M209.841 219.443C209.619 219.443 209.407 219.354 209.25 219.197C209.093 219.04 209.005 218.826 209.005 218.604V0.839105C209.005 0.61656 209.093 0.40313 209.25 0.245767C209.407 0.0884048 209.619 0 209.841 0C210.063 0 210.275 0.0884048 210.432 0.245767C210.589 0.40313 210.677 0.61656 210.677 0.839105V218.604C210.677 218.826 210.589 219.04 210.432 219.197C210.275 219.354 210.063 219.443 209.841 219.443Z" fill="#D1D3D4"/>
<path d="M103.399 219.443C103.177 219.443 102.965 219.354 102.808 219.197C102.651 219.04 102.563 218.826 102.563 218.604V0.839105C102.563 0.61656 102.651 0.40313 102.808 0.245767C102.965 0.0884048 103.177 0 103.399 0C103.621 0 103.833 0.0884048 103.99 0.245767C104.147 0.40313 104.235 0.61656 104.235 0.839105V218.604C104.231 218.825 104.141 219.036 103.985 219.192C103.83 219.349 103.619 219.438 103.399 219.443Z" fill="#D1D3D4"/>
<path d="M311.953 219.443C311.731 219.443 311.518 219.354 311.362 219.197C311.205 219.04 311.117 218.826 311.117 218.604V0.839105C311.117 0.61656 311.205 0.40313 311.362 0.245767C311.518 0.0884048 311.731 0 311.953 0C312.174 0 312.387 0.0884048 312.544 0.245767C312.701 0.40313 312.789 0.61656 312.789 0.839105V218.604C312.789 218.826 312.701 219.04 312.544 219.197C312.387 219.354 312.174 219.443 311.953 219.443Z" fill="#D1D3D4"/>
<path d="M418.846 75.6367H0.83602C0.614293 75.6367 0.401648 75.5483 0.244864 75.3909C0.0880798 75.2336 0 75.0201 0 74.7976C0 74.5751 0.0880798 74.3616 0.244864 74.2043C0.401648 74.0469 0.614293 73.9585 0.83602 73.9585H418.846C419.068 73.9585 419.28 74.0469 419.437 74.2043C419.594 74.3616 419.682 74.5751 419.682 74.7976C419.682 75.0201 419.594 75.2336 419.437 75.3909C419.28 75.5483 419.068 75.6367 418.846 75.6367Z" fill="#D1D3D4"/>
<path d="M418.846 147.582H0.83602C0.614293 147.582 0.401648 147.493 0.244864 147.336C0.0880798 147.178 0 146.965 0 146.742C0 146.52 0.0880798 146.306 0.244864 146.149C0.401648 145.992 0.614293 145.903 0.83602 145.903H418.846C419.068 145.903 419.28 145.992 419.437 146.149C419.594 146.306 419.682 146.52 419.682 146.742C419.682 146.965 419.594 147.178 419.437 147.336C419.28 147.493 419.068 147.582 418.846 147.582Z" fill="#D1D3D4"/>
<path d="M274.382 44.5232C274.198 44.5209 274.021 44.4558 273.88 44.3386L263.564 36.4678C263.389 36.3318 263.275 36.1318 263.247 35.9116C263.218 35.6914 263.278 35.469 263.413 35.293C263.549 35.1186 263.746 35.0038 263.965 34.9725C264.183 34.9412 264.405 34.9959 264.584 35.1252L274.883 43.0967C275.024 43.2024 275.127 43.3497 275.18 43.5178C275.232 43.6859 275.23 43.8663 275.175 44.0333C275.119 44.2004 275.013 44.3457 274.87 44.4487C274.728 44.5517 274.557 44.6071 274.382 44.6071V44.5232Z" fill="#D1D3D4"/>
<path d="M375.49 33.4974C375.293 33.4969 375.103 33.4255 374.954 33.2961L366.477 26.0462C366.394 25.9746 366.325 25.8872 366.275 25.7889C366.226 25.6907 366.196 25.5836 366.187 25.4737C366.17 25.2519 366.241 25.0322 366.385 24.8631C366.529 24.6939 366.735 24.5892 366.956 24.5719C367.177 24.5546 367.395 24.6261 367.564 24.7708L376.041 32.0038C376.207 32.1523 376.309 32.36 376.324 32.5826C376.34 32.8051 376.268 33.025 376.125 33.1954C376.048 33.2899 375.951 33.366 375.841 33.4183C375.731 33.4705 375.611 33.4976 375.49 33.4974Z" fill="#D1D3D4"/>
<path d="M389.769 182.287C389.557 182.282 389.354 182.199 389.201 182.052L381.911 175.222C381.822 175.149 381.748 175.059 381.695 174.957C381.643 174.855 381.611 174.743 381.603 174.629C381.595 174.514 381.611 174.399 381.649 174.29C381.687 174.182 381.747 174.082 381.825 173.998C381.904 173.914 381.998 173.847 382.103 173.801C382.208 173.755 382.321 173.731 382.436 173.731C382.551 173.731 382.664 173.754 382.769 173.8C382.875 173.846 382.969 173.913 383.048 173.997L390.338 180.827C390.416 180.905 390.478 180.998 390.521 181.1C390.563 181.202 390.585 181.312 390.585 181.423C390.585 181.534 390.563 181.643 390.521 181.746C390.478 181.848 390.416 181.941 390.338 182.019C390.265 182.099 390.178 182.164 390.08 182.21C389.982 182.256 389.877 182.282 389.769 182.287Z" fill="#D1D3D4"/>
<path d="M382.479 186.432C382.267 186.431 382.063 186.347 381.911 186.197L377.43 182.069C377.266 181.917 377.168 181.707 377.159 181.483C377.15 181.26 377.229 181.042 377.38 180.877C377.531 180.713 377.74 180.615 377.963 180.605C378.186 180.596 378.403 180.676 378.567 180.827L383.048 184.972C383.202 185.132 383.288 185.345 383.288 185.568C383.288 185.79 383.202 186.004 383.048 186.164C382.897 186.318 382.695 186.414 382.479 186.432Z" fill="#D1D3D4"/>
<path d="M56.2306 35.4604C56.1003 35.4632 55.9713 35.434 55.8548 35.3755C55.7383 35.3171 55.6377 35.231 55.5618 35.1248L51.5489 29.6706C51.4158 29.4903 51.3596 29.2644 51.3925 29.0425C51.4254 28.8206 51.5448 28.621 51.7244 28.4874C51.904 28.3539 52.1291 28.2975 52.3502 28.3305C52.5712 28.3636 52.7702 28.4834 52.9032 28.6637L56.8994 34.1011C56.9644 34.1902 57.0112 34.2914 57.0371 34.3988C57.0631 34.5062 57.0676 34.6176 57.0505 34.7268C57.0335 34.8359 56.995 34.9406 56.9375 35.0348C56.88 35.1291 56.8046 35.2109 56.7155 35.2758C56.5807 35.3931 56.4089 35.4585 56.2306 35.4604Z" fill="#D1D3D4"/>
<path d="M52.2176 46.8051C52.072 46.8026 51.9295 46.7627 51.8037 46.6893C51.6778 46.6158 51.5728 46.5113 51.4986 46.3855L47.5024 39.5384C47.3919 39.3442 47.3615 39.1143 47.4178 38.8979C47.474 38.6815 47.6124 38.4958 47.8034 38.3805C47.8974 38.3237 48.0017 38.2864 48.1103 38.2709C48.2189 38.2554 48.3295 38.2619 48.4356 38.2901C48.5416 38.3182 48.6409 38.3675 48.7276 38.4349C48.8143 38.5023 48.8867 38.5865 48.9404 38.6826L52.9533 45.5297C53.0638 45.7239 53.0942 45.9538 53.0379 46.1702C52.9817 46.3866 52.8433 46.5723 52.6523 46.6876C52.5183 46.7599 52.3696 46.8001 52.2176 46.8051Z" fill="#D1D3D4"/>
<path d="M57.0668 204.439C57.0668 204.439 53.0539 245.304 61.063 257.236L78.6194 251.949C78.6194 251.949 72.9512 217.714 78.6194 198.817L57.0668 204.439Z" fill="#231F20"/>
<path d="M61.0293 258.075C60.8935 258.075 60.7597 258.042 60.64 257.977C60.5204 257.913 60.4186 257.82 60.3437 257.706C52.2511 245.673 56.0299 206.05 56.1971 204.372C56.212 204.2 56.2794 204.037 56.3901 203.905C56.5008 203.773 56.6494 203.678 56.8157 203.634L78.385 198.012C78.5259 197.971 78.6752 197.97 78.8167 198.008C78.9581 198.047 79.0864 198.124 79.1876 198.23C79.2921 198.34 79.3658 198.475 79.401 198.622C79.4363 198.77 79.4319 198.924 79.3883 199.069C73.8371 217.529 79.3883 251.48 79.3883 251.815C79.4297 252.015 79.3941 252.223 79.2886 252.398C79.1831 252.572 79.0155 252.7 78.8198 252.755L61.2634 258.041L61.0293 258.075ZM57.8022 205.111C57.3675 210.045 54.5752 244.884 61.3971 256.246L77.7497 251.362C76.9638 246.327 72.8339 217.798 77.4821 199.992L57.8022 205.111Z" fill="#231F20"/>
<path d="M325.262 209.155H311.953V331.111H325.262V209.155Z" fill="white"/>
<path d="M325.211 331.95H311.835C311.613 331.95 311.401 331.862 311.244 331.704C311.087 331.547 310.999 331.334 310.999 331.111V209.239C310.999 209.017 311.087 208.804 311.244 208.646C311.401 208.489 311.613 208.4 311.835 208.4H325.211C325.433 208.4 325.646 208.489 325.803 208.646C325.959 208.804 326.047 209.017 326.047 209.239V331.195C326.027 331.403 325.929 331.595 325.775 331.735C325.62 331.874 325.419 331.951 325.211 331.95ZM312.738 330.272H324.442V209.995H312.738V330.272Z" fill="#231F20"/>
<path d="M205.577 154.026L183.272 208.87H365.491L308.609 154.026H205.577Z" fill="white"/>
<path d="M365.491 209.709H183.239C183.101 209.709 182.965 209.675 182.843 209.611C182.72 209.547 182.615 209.453 182.537 209.339C182.471 209.218 182.437 209.083 182.437 208.945C182.437 208.807 182.471 208.672 182.537 208.551L204.825 153.707C204.886 153.552 204.992 153.42 205.129 153.327C205.267 153.234 205.429 153.185 205.594 153.187H308.625C308.838 153.188 309.042 153.272 309.194 153.422L366.043 208.265C366.164 208.382 366.246 208.532 366.281 208.696C366.316 208.86 366.3 209.031 366.237 209.186C366.174 209.341 366.066 209.474 365.928 209.567C365.789 209.66 365.625 209.71 365.458 209.709H365.491ZM184.51 208.03H363.418L308.241 154.865H206.129L184.51 208.03Z" fill="#231F20"/>
<path d="M181.801 151.844C181.801 151.844 188.991 163.256 189.593 162.434C190.195 161.611 229.253 146.357 233.467 148.169C237.68 149.981 250.087 159.346 249.485 160.688C248.883 162.031 236.46 165.052 232.062 163.843C227.665 162.635 215.844 165.169 211.998 168.526C208.152 171.882 172.855 193.179 171.1 191.366C169.344 189.554 156.57 166.445 156.57 166.445" fill="white"/>
<path d="M171.384 192.323C171.22 192.339 171.054 192.314 170.903 192.249C170.751 192.185 170.617 192.083 170.515 191.954C168.726 190.124 157.138 169.231 155.851 166.865C155.79 166.768 155.749 166.661 155.731 166.548C155.712 166.436 155.717 166.32 155.745 166.21C155.772 166.099 155.822 165.995 155.891 165.905C155.96 165.814 156.046 165.738 156.145 165.682C156.244 165.626 156.354 165.591 156.467 165.579C156.58 165.567 156.694 165.578 156.803 165.612C156.911 165.645 157.012 165.701 157.098 165.775C157.185 165.849 157.255 165.94 157.306 166.042C162.322 175.021 170.013 188.698 171.585 190.645C175.347 190.527 207.701 171.211 211.446 167.888C215.61 164.246 227.749 161.796 232.246 163.021C236.259 164.129 246.626 161.578 248.515 160.42C247.161 158.373 237.196 150.687 233.099 148.941C229.554 147.414 192.552 161.511 190.128 163.055C189.94 163.226 189.696 163.321 189.442 163.323C188.991 163.323 187.971 163.323 181.082 152.298C180.976 152.111 180.945 151.891 180.996 151.682C181.047 151.473 181.176 151.292 181.356 151.176C181.536 151.06 181.754 151.017 181.964 151.057C182.174 151.098 182.361 151.217 182.486 151.391C184.614 154.901 186.971 158.264 189.542 161.461C192.502 159.883 204.775 155.285 209.891 153.456C230.758 146.021 233.032 146.995 233.768 147.33C237.497 148.924 249.218 157.399 250.221 160.001C250.289 160.154 250.324 160.32 250.324 160.487C250.324 160.655 250.289 160.821 250.221 160.974C249.251 163.122 236.025 165.723 231.828 164.582C227.632 163.441 216.228 165.874 212.566 169.097C205.687 173.941 198.56 178.423 191.215 182.522C177.153 190.779 172.922 192.323 171.384 192.323ZM189.225 161.696C189.099 161.743 188.989 161.824 188.907 161.931C189.01 161.833 189.129 161.753 189.258 161.696H189.225Z" fill="#231F20"/>
<path d="M164.044 119.522L186.215 151.861C186.215 151.861 161.586 169.801 161.134 166.965C160.683 164.129 140.301 133.972 143.11 125.967C145.919 117.962 164.044 119.522 164.044 119.522Z" fill="#D946EF"/>
<path d="M45.6965 127.007C45.6965 127.007 103.516 116.031 106.191 122.476C108.866 128.92 107.545 175.557 103.399 184.385C99.2519 193.212 41.3325 222.665 37.2694 211.068C33.2063 199.472 45.6965 127.007 45.6965 127.007Z" fill="white"/>
<path d="M42.9212 214.593H42.1353C39.0755 214.425 37.1192 213.334 36.4838 211.354C32.3873 199.607 44.3591 129.827 44.844 126.856C44.8727 126.689 44.9524 126.534 45.0722 126.414C45.192 126.294 45.3459 126.214 45.5129 126.185C55.2776 124.322 104.135 115.428 106.927 122.14C109.719 128.853 108.365 175.692 104.118 184.738C100.222 193.095 58.3541 214.593 42.9212 214.593ZM46.4158 127.712C45.262 134.559 34.2935 200.009 38.0556 210.783C38.5014 212.059 39.8892 212.764 42.2189 212.898C57.2673 213.737 99.2689 191.182 102.63 184.016C106.643 175.491 108.064 129.155 105.405 122.778C103.917 119.17 74.4057 122.442 46.4158 127.712Z" fill="#231F20"/>
<path d="M109.686 278.516H97.1118V343.11H109.686V278.516Z" fill="#231F20"/>
<path d="M109.669 343.949H97.1124C96.8907 343.949 96.678 343.861 96.5212 343.703C96.3644 343.546 96.2764 343.333 96.2764 343.11V278.516C96.2764 278.293 96.3644 278.08 96.5212 277.923C96.678 277.765 96.8907 277.677 97.1124 277.677H109.669C109.891 277.677 110.104 277.765 110.261 277.923C110.417 278.08 110.505 278.293 110.505 278.516V343.11C110.505 343.333 110.417 343.546 110.261 343.703C110.104 343.861 109.891 343.949 109.669 343.949ZM97.9651 342.271H108.85V279.355H97.9651V342.271Z" fill="#231F20"/>
<path d="M86.8962 289.323C101.387 290.442 115.951 290.878 130.587 290.632C138.027 290.514 145.752 290.128 152.323 286.621C156.154 284.427 159.554 281.549 162.355 278.129C168 271.671 172.389 264.208 175.297 256.128C176.449 253.563 176.821 250.714 176.367 247.938C175.498 244.448 172.438 241.997 169.428 240.034C144.347 223.604 62.1166 238.524 54.9937 245.975C47.8708 253.426 47.1016 258.528 47.9711 268.161C48.8907 278.112 51.4657 281.704 61.013 284.943C69.3899 287.745 78.2016 288.652 86.8962 289.323Z" fill="white"/>
<path d="M122.895 291.472C110.873 291.472 98.7843 291.002 86.8459 290.096C78.3687 289.441 69.3731 288.569 60.8122 285.665C51.0977 282.309 48.1716 278.617 47.2186 268.161C46.3157 258.344 47.1182 253.058 54.4585 245.321C58.3543 241.243 81.7295 235.671 105.472 233.154C123.213 231.274 155.182 229.563 169.963 239.263C173.04 241.277 176.3 243.844 177.253 247.654C177.746 250.592 177.362 253.611 176.15 256.33C173.211 264.542 168.759 272.126 163.024 278.684C160.136 282.19 156.634 285.136 152.691 287.377C146.003 290.935 138.428 291.338 130.586 291.472C128.028 291.472 125.453 291.472 122.895 291.472ZM130.77 233.389C122.391 233.428 114.02 233.904 105.69 234.815C80.2246 237.517 58.8727 243.207 55.7125 246.479C48.924 253.595 48.0211 258.31 48.9073 268.01C49.7935 277.711 52.2514 280.983 61.3807 284.071C69.7409 286.907 78.6362 287.78 86.9964 288.417C101.46 289.525 116.123 289.961 130.62 289.726C138.261 289.592 145.668 289.206 151.972 285.816C155.739 283.683 159.078 280.867 161.82 277.509C167.398 271.13 171.737 263.758 174.611 255.776C175.695 253.364 176.056 250.688 175.648 248.073C174.845 244.818 171.886 242.502 169.077 240.656C161.737 235.94 148.31 233.456 130.754 233.456L130.77 233.389Z" fill="#231F20"/>
<path d="M62.2501 241.998C59.5479 242.681 57.0663 244.051 55.0436 245.975C50.0274 251.329 53.9066 258.058 59.3742 261.079C62.8302 262.723 66.5287 263.794 70.326 264.251C93.8418 268.297 117.663 270.29 141.521 270.208C146.186 270.208 151.086 270.041 155.149 267.741C157.871 266.002 160.275 263.805 162.255 261.247C164.646 258.495 167.271 255.172 166.535 251.58C165.799 247.553 161.519 245.388 157.657 243.995C133.862 235.399 108.245 233.178 83.3345 237.55C76.2223 238.598 69.1809 240.084 62.2501 241.998Z" fill="white"/>
<path d="M140.1 270.981C116.671 270.974 93.2853 268.975 70.1925 265.006C66.3065 264.541 62.5224 263.441 58.9898 261.751C57.2321 260.882 55.6906 259.629 54.4783 258.084C53.2661 256.539 52.4137 254.741 51.9839 252.823C51.7745 251.476 51.8883 250.1 52.3158 248.807C52.7433 247.514 53.4722 246.342 54.4418 245.388C56.5668 243.37 59.1672 241.927 61.9995 241.193C68.3923 239.375 74.8927 237.963 81.462 236.964L83.134 236.645C91.4166 235.198 99.8076 234.468 108.215 234.463H108.516C125.39 234.444 142.139 237.38 158.008 243.139C161.653 244.448 166.586 246.747 167.422 251.363C168.124 255.155 165.75 258.596 162.957 261.734C160.91 264.369 158.434 266.639 155.634 268.447C151.47 270.779 146.621 270.981 141.589 271.014L140.1 270.981ZM62.5011 242.804C59.9437 243.453 57.5913 244.74 55.6624 246.546C54.8652 247.308 54.2644 248.253 53.9119 249.299C53.5595 250.346 53.4659 251.463 53.6393 252.554C54.0351 254.214 54.79 255.766 55.8505 257.1C56.911 258.434 58.2511 259.518 59.7756 260.274C63.1563 261.868 66.7687 262.91 70.4767 263.362C93.9424 267.402 117.713 269.39 141.522 269.303C146.32 269.303 150.935 269.084 154.747 266.936C157.375 265.242 159.698 263.114 161.62 260.643C163.91 257.991 166.301 254.92 165.716 251.665C165.014 247.889 160.616 245.892 157.356 244.717C141.746 239.033 125.271 236.115 108.666 236.091C100.226 236.083 91.801 236.808 83.4852 238.256L81.8131 238.558C75.318 239.557 68.8907 240.958 62.5679 242.753L62.5011 242.804Z" fill="#231F20"/>
<path d="M219.99 161.36L215.542 176.715H280.25L267.443 162.988L219.99 161.36Z" fill="#231F20"/>
<path d="M280.251 177.555H215.543C215.413 177.553 215.286 177.522 215.17 177.464C215.054 177.406 214.953 177.322 214.874 177.219C214.799 177.113 214.749 176.992 214.726 176.865C214.703 176.737 214.708 176.606 214.74 176.48L219.188 161.125C219.234 160.942 219.344 160.781 219.497 160.67C219.649 160.56 219.836 160.507 220.024 160.521L267.46 162.199C267.68 162.204 267.889 162.294 268.045 162.451L280.853 176.178C280.968 176.295 281.045 176.444 281.075 176.606C281.104 176.767 281.085 176.934 281.02 177.085C280.948 177.227 280.838 177.347 280.702 177.43C280.566 177.513 280.41 177.556 280.251 177.555ZM216.713 175.876H278.395L267.125 163.827L220.693 162.149L216.713 175.876Z" fill="#231F20"/>
<path d="M236.995 335.206C236.133 335.879 235.425 336.732 234.92 337.705C234.415 338.678 234.125 339.749 234.069 340.844C234.259 344 234.723 347.134 235.457 350.209C247.525 356.013 260.733 359.035 274.115 359.053C295.467 358.784 310.682 354.774 304.813 349.403C298.944 344.033 264.484 336.951 259.668 330.389C254.853 323.827 236.995 335.206 236.995 335.206Z" fill="#231F20"/>
<path d="M273.195 359.908C259.989 359.71 246.981 356.659 235.055 350.964C234.952 350.905 234.861 350.825 234.789 350.73C234.717 350.635 234.666 350.526 234.637 350.41C233.893 347.268 233.423 344.067 233.233 340.844C233.293 339.61 233.624 338.404 234.202 337.314C234.78 336.223 235.591 335.274 236.577 334.534C237.329 334.047 255.187 322.786 260.387 329.919C262.845 333.275 274.566 337.118 284.899 340.492C293.995 343.462 302.589 346.265 305.398 348.883C306.011 349.299 306.473 349.903 306.717 350.604C306.961 351.306 306.973 352.067 306.752 352.776C304.846 357.811 287.992 359.824 274.131 359.992L273.195 359.908ZM236.176 349.638C248.04 355.242 260.985 358.17 274.098 358.213C293.058 357.978 304.077 354.958 305.164 352.088C305.248 351.853 305.515 351.182 304.244 350.024C301.72 347.725 292.891 344.838 284.364 342.052C273.278 338.427 261.808 334.685 259.016 330.875C255.471 326.025 242.295 332.839 237.48 335.91C236.727 336.507 236.109 337.256 235.665 338.109C235.221 338.962 234.962 339.9 234.905 340.861C235.072 343.818 235.497 346.755 236.176 349.638Z" fill="#231F20"/>
<path d="M230.323 316.191L235.991 337.891C235.991 337.891 245.806 341.633 256.491 333.594L251.642 304.125L230.323 316.191Z" fill="white"/>
<path d="M241.877 339.619C239.778 339.649 237.688 339.332 235.691 338.68C235.567 338.631 235.455 338.554 235.365 338.455C235.275 338.356 235.209 338.238 235.172 338.109L229.521 316.393C229.472 316.214 229.486 316.024 229.558 315.853C229.631 315.682 229.76 315.541 229.922 315.453L251.274 303.387C251.394 303.329 251.526 303.299 251.659 303.299C251.792 303.299 251.923 303.329 252.043 303.387C252.165 303.446 252.271 303.533 252.352 303.641C252.433 303.749 252.488 303.875 252.512 304.008L257.31 333.427C257.337 333.578 257.322 333.733 257.266 333.875C257.21 334.017 257.115 334.141 256.993 334.232C252.684 337.653 247.37 339.547 241.877 339.619ZM236.677 337.236C239.927 338.044 243.316 338.103 246.591 337.408C249.866 336.714 252.942 335.284 255.588 333.226L251.057 305.451L231.293 316.645L236.677 337.236Z" fill="#231F20"/>
<path d="M147.975 208.87C147.975 208.87 235.941 221.272 238.081 225.182C240.222 229.093 257.577 313.506 257.577 313.506C257.577 313.506 240.757 339.77 219.672 314.581C198.588 289.391 206.58 242.418 206.58 242.418L127.543 232.734L147.975 208.87Z" fill="#231F20"/>
<path d="M238.382 326.344C231.694 326.344 225.24 322.568 219.004 315.117C199.491 291.824 204.657 249.785 205.627 243.223L127.459 233.573C127.309 233.549 127.168 233.487 127.048 233.393C126.928 233.299 126.834 233.176 126.774 233.036C126.722 232.893 126.709 232.738 126.735 232.588C126.762 232.438 126.827 232.297 126.924 232.18L147.34 208.316C147.432 208.21 147.549 208.128 147.681 208.079C147.812 208.029 147.953 208.012 148.092 208.031C168.826 210.968 236.71 220.802 238.817 224.813C240.924 228.824 257.661 309.932 258.33 313.288C258.368 313.502 258.326 313.723 258.213 313.909C257.912 314.379 250.639 325.539 239.453 326.26L238.382 326.344ZM129.198 232.096L206.664 241.662C206.776 241.676 206.885 241.713 206.983 241.771C207.08 241.829 207.165 241.906 207.232 241.998C207.301 242.087 207.349 242.191 207.375 242.3C207.401 242.41 207.404 242.524 207.383 242.635C207.383 243.105 199.691 289.441 220.291 314.043C226.511 321.478 232.948 325.019 239.386 324.633C248.799 324.028 255.487 314.966 256.658 313.288C251.776 289.592 239.018 228.656 237.312 225.551C234.771 222.832 181.55 214.425 148.276 209.726L129.198 232.096Z" fill="#231F20"/>
<path d="M213.185 349.671C212.322 350.345 211.614 351.198 211.109 352.171C210.604 353.144 210.314 354.215 210.259 355.31C210.449 358.472 210.913 361.611 211.647 364.691C223.717 370.486 236.924 373.502 250.304 373.519C271.656 373.25 286.872 369.239 281.003 363.886C275.134 358.532 240.673 351.417 235.858 344.855C231.042 338.293 213.185 349.671 213.185 349.671Z" fill="#231F20"/>
<path d="M249.435 374.375C236.229 374.176 223.221 371.126 211.296 365.43C211.192 365.371 211.101 365.292 211.029 365.197C210.957 365.101 210.906 364.992 210.878 364.876C210.132 361.735 209.662 358.534 209.473 355.31C209.533 354.076 209.864 352.871 210.442 351.78C211.02 350.689 211.831 349.74 212.817 349C213.57 348.514 231.427 337.253 236.627 344.385C239.085 347.742 250.806 351.585 261.139 354.958C270.235 357.928 278.829 360.748 281.622 363.349C282.246 363.751 282.72 364.35 282.968 365.052C283.216 365.753 283.225 366.518 282.993 367.226C281.087 372.26 264.232 374.274 250.371 374.442L249.435 374.375ZM212.416 364.104C224.279 369.713 237.224 372.641 250.338 372.68C269.299 372.445 280.317 369.424 281.404 366.554C281.404 366.319 281.755 365.648 280.485 364.507C277.96 362.191 269.132 359.304 260.604 356.519C249.502 352.894 238.048 349.151 235.256 345.358C231.711 340.492 218.536 347.305 213.72 350.393C212.964 350.983 212.343 351.728 211.899 352.579C211.455 353.431 211.198 354.368 211.145 355.327C211.312 358.284 211.737 361.221 212.416 364.104Z" fill="#231F20"/>
<path d="M206.497 330.658L212.165 352.357C212.165 352.357 221.98 356.116 232.664 348.077L227.849 318.591L206.497 330.658Z" fill="white"/>
<path d="M218.201 354.086C216.101 354.116 214.011 353.798 212.014 353.146C211.89 353.097 211.778 353.02 211.689 352.921C211.599 352.822 211.533 352.704 211.496 352.575L205.844 330.859C205.796 330.68 205.809 330.49 205.882 330.319C205.955 330.149 206.083 330.008 206.246 329.919L227.597 317.87C227.716 317.808 227.848 317.776 227.982 317.776C228.116 317.776 228.248 317.808 228.367 317.87C228.488 317.929 228.594 318.016 228.675 318.124C228.757 318.232 228.811 318.358 228.835 318.491L233.634 347.977C233.659 348.128 233.642 348.282 233.586 348.424C233.53 348.566 233.437 348.69 233.316 348.783C228.994 352.168 223.683 354.032 218.201 354.086ZM213.001 351.703C216.25 352.514 219.64 352.575 222.915 351.88C226.191 351.185 229.267 349.753 231.911 347.692L227.297 320.001L207.533 331.145L213.001 351.703Z" fill="#231F20"/>
<path d="M66.6807 240.286C66.6807 240.286 68.8042 253.208 104.586 260.71C140.367 268.212 190.98 266.08 190.98 266.08L203.403 338.696C203.403 338.696 223.117 340.375 232.196 330.121C232.196 330.121 227.397 233.053 219.906 225.182C212.416 217.312 148.009 208.87 148.009 208.87C148.009 208.87 76.8132 234.412 66.6807 240.286Z" fill="#231F20"/>
<path d="M206.497 339.636C204.658 339.636 203.47 339.636 203.287 339.536C203.099 339.52 202.921 339.442 202.782 339.315C202.643 339.187 202.55 339.017 202.517 338.831L190.228 266.936C183.841 267.171 137.492 268.48 104.369 261.533C68.4365 253.997 65.9118 240.975 65.7947 240.421C65.7681 240.254 65.7922 240.083 65.8638 239.931C65.9353 239.778 66.0511 239.65 66.196 239.565C76.2282 233.624 144.782 209.122 147.624 208.082C147.751 208.05 147.883 208.05 148.009 208.082C150.667 208.434 212.884 216.657 220.475 224.662C228.066 232.667 232.781 326.144 232.982 330.121C232.988 330.231 232.972 330.341 232.934 330.445C232.897 330.549 232.839 330.644 232.765 330.725C225.709 338.646 212.617 339.636 206.497 339.636ZM204.056 337.958C207.4 338.109 223.418 338.361 231.293 329.886C229.939 302.716 225.19 232.08 219.255 225.837C213.319 219.594 170.314 212.596 147.975 209.726C143.963 211.169 79.1209 234.446 67.6005 240.689C68.5536 243.173 74.2887 253.511 104.686 259.905C139.95 267.289 190.378 265.258 190.88 265.241C191.082 265.23 191.28 265.295 191.438 265.422C191.595 265.549 191.7 265.729 191.733 265.929L204.056 337.958Z" fill="#231F20"/>
<path d="M148.962 173.896C148.962 173.896 160.265 199.623 166.736 202.425C173.206 205.228 213.101 179.518 222.582 167.183C226.775 168.776 231.295 169.306 235.741 168.727C235.741 168.727 246.542 176.967 248.147 174.953C249.752 172.939 244.335 167.586 244.335 167.586C244.335 167.586 255.153 175.356 255.688 172C256.223 168.643 249 164.632 249 164.632C249 164.632 261.273 173.476 259.551 169.331C257.828 165.186 255.27 160.084 244.853 157.584C234.437 155.083 226.979 153.237 223.635 154.311C221.01 155.15 180.38 170.254 180.38 170.254L176.885 163.541L148.962 173.896Z" fill="white"/>
<path d="M167.873 203.466C167.37 203.482 166.87 203.397 166.401 203.215C159.713 200.294 148.678 175.306 148.209 174.232C148.164 174.129 148.14 174.017 148.14 173.905C148.14 173.792 148.164 173.68 148.209 173.577C148.303 173.363 148.477 173.194 148.694 173.107L176.617 162.736C176.809 162.664 177.021 162.665 177.212 162.74C177.403 162.814 177.56 162.956 177.654 163.139L180.814 169.231C186.349 167.183 220.943 154.328 223.418 153.54C227.013 152.382 234.587 154.244 245.154 156.896C255.721 159.548 258.531 164.565 260.42 169.164C260.888 170.288 260.554 170.842 260.186 171.161C259.818 171.48 259.283 171.882 256.34 170.422C256.595 171.014 256.682 171.664 256.591 172.302C256.558 172.604 256.445 172.892 256.262 173.134C256.08 173.376 255.835 173.564 255.554 173.678C254.066 174.299 251.056 172.906 248.398 171.345C249.301 172.906 249.786 174.517 248.883 175.642C247.077 177.907 239.904 173.04 235.507 169.768C231.235 170.258 226.909 169.776 222.849 168.358C213.302 179.988 177.788 203.466 167.873 203.466ZM150.099 174.383C153.443 181.985 162.188 199.556 167.07 201.671C172.905 204.205 212.382 179.082 221.93 166.747C222.043 166.602 222.202 166.499 222.38 166.453C222.559 166.408 222.747 166.422 222.916 166.495C226.972 168.007 231.331 168.513 235.624 167.972C235.733 167.958 235.843 167.965 235.95 167.994C236.056 168.023 236.155 168.073 236.242 168.14C241.258 172 246.592 174.97 247.528 174.484C248.164 173.678 246.057 170.557 243.75 168.257C243.607 168.105 243.528 167.904 243.528 167.695C243.528 167.486 243.607 167.285 243.75 167.133C243.887 166.97 244.079 166.865 244.289 166.837C244.499 166.809 244.712 166.861 244.887 166.982C249.351 170.204 254.133 172.621 254.919 172.017C255.12 170.792 253.849 169.248 252.244 167.888C251.19 167.183 249.986 166.361 248.615 165.371C248.456 165.242 248.349 165.058 248.316 164.855C248.282 164.652 248.324 164.444 248.434 164.27C248.543 164.096 248.712 163.969 248.909 163.912C249.106 163.855 249.317 163.872 249.501 163.961C250.775 164.67 251.983 165.49 253.113 166.411C254.9 167.658 256.811 168.715 258.815 169.566C257.36 166.093 255.086 160.924 244.77 158.406C234.921 155.99 227.146 154.093 223.986 155.05C221.411 155.889 181.182 170.842 180.764 170.993C180.58 171.065 180.376 171.068 180.19 171.004C180.003 170.939 179.845 170.811 179.744 170.641L176.584 164.532L150.099 174.383Z" fill="#231F20"/>
<path d="M158.091 105.744C156.929 104.167 156.414 102.203 156.653 100.256C157.501 92.5601 159.339 85.0068 162.121 77.7849C162.976 74.9117 164.28 72.1928 165.983 69.7295C168.525 66.5074 170.197 66.5409 173.424 68.5548C170.883 66.8765 179.427 62.6475 179.878 62.4796C185.847 60.3819 192.067 60.8014 198.271 61.8587C202.852 62.6475 211.062 66.0039 215.493 63.5369C215.885 63.3496 216.236 63.0847 216.524 62.7581C216.811 62.4315 217.031 62.0498 217.168 61.6361C217.306 61.2224 217.358 60.7851 217.323 60.3504C217.288 59.9157 217.166 59.4926 216.964 59.1064C222.816 67.4975 224.99 78.0199 219.422 87.1493C216.362 92.1839 209.808 98.1416 203.471 96.4298C200.26 95.5739 198.003 93.9125 194.542 95.0705C191.833 96.213 189.486 98.0755 187.753 100.458C186.044 102.793 184.018 104.878 181.734 106.65C176.885 110.007 170.147 109.167 164.596 108.731C163.363 108.72 162.147 108.449 161.026 107.934C159.905 107.419 158.905 106.673 158.091 105.744Z" fill="white"/>
<path d="M171.735 110.007C169.662 110.007 167.588 109.839 165.599 109.671H164.462C163.122 109.637 161.804 109.321 160.594 108.743C159.385 108.165 158.309 107.337 157.439 106.314C156.116 104.584 155.517 102.406 155.767 100.239C156.655 92.4514 158.532 84.8094 161.352 77.4996C162.242 74.5428 163.591 71.7451 165.348 69.2093C167.856 66.0207 169.829 65.7521 172.354 66.9772C173.558 64.5103 179.544 61.7077 179.61 61.6909C186.299 59.3582 193.12 60.1134 198.354 61.0196C199.541 61.2378 200.946 61.5902 202.417 61.993C206.697 63.1006 211.998 64.4935 215.041 62.8321C215.388 62.6322 215.691 62.3642 215.932 62.0442C216.173 61.7241 216.348 61.3585 216.445 60.9692C216.51 60.7376 216.523 60.4949 216.486 60.2575C216.448 60.02 216.36 59.7935 216.228 59.5931C216.115 59.4104 216.076 59.1912 216.12 58.9807C216.163 58.7701 216.285 58.5843 216.461 58.4616C216.637 58.3389 216.853 58.2887 217.065 58.3212C217.277 58.3537 217.468 58.4666 217.599 58.6365C224.287 68.2527 225.291 79.0939 220.09 87.6024C216.496 93.4762 209.674 99.0143 203.203 97.2689C202.333 97.034 201.531 96.7487 200.778 96.4634C198.915 95.5205 196.768 95.311 194.759 95.876C192.202 96.9771 189.99 98.7515 188.355 101.011L187.82 101.666C186.203 103.817 184.296 105.732 182.152 107.355C179.034 109.292 175.396 110.218 171.735 110.007ZM158.743 105.19C159.48 106.021 160.38 106.689 161.388 107.151C162.395 107.614 163.488 107.86 164.595 107.875H165.732C170.983 108.312 176.918 108.798 181.199 105.861C183.205 104.326 184.989 102.519 186.499 100.491L187.051 99.8198C188.873 97.3105 191.349 95.3537 194.207 94.1642C196.575 93.481 199.11 93.696 201.33 94.7684C202.049 95.0369 202.802 95.3054 203.621 95.5236C209.657 97.2018 215.91 91.0763 218.669 86.5955C223.067 79.396 222.716 70.3672 217.833 61.9762C217.428 62.9083 216.729 63.6809 215.844 64.1746C212.232 66.1717 206.564 64.6781 201.999 63.4866C200.561 63.1174 199.19 62.7481 198.07 62.5635C193.054 61.6741 186.365 60.8853 180.162 63.1509C178.774 63.7215 173.909 66.6248 173.808 67.6653H173.892C174.077 67.7859 174.209 67.9741 174.259 68.1901C174.309 68.4061 174.273 68.6331 174.16 68.8233C174.103 68.9188 174.028 69.0019 173.939 69.0675C173.849 69.1331 173.748 69.1799 173.64 69.205C173.532 69.2301 173.42 69.233 173.311 69.2135C173.202 69.1941 173.098 69.1526 173.006 69.0918C170.113 67.2793 168.926 67.1954 166.669 70.0819C165.017 72.4679 163.753 75.1019 162.923 77.8856C160.181 85.0474 158.361 92.5311 157.506 100.155C157.271 101.891 157.721 103.649 158.76 105.056L158.743 105.19Z" fill="#231F20"/>
<path d="M199.291 103.512C199.291 103.512 200.06 116.115 197.719 117.29C195.378 118.465 191.984 114.823 191.984 114.823" fill="white"/>
<path d="M196.699 118.381C194.241 118.381 191.683 115.763 191.365 115.411C191.281 115.332 191.215 115.237 191.169 115.132C191.123 115.026 191.1 114.912 191.1 114.797C191.1 114.682 191.124 114.568 191.17 114.463C191.215 114.358 191.282 114.263 191.366 114.184C191.45 114.106 191.549 114.046 191.657 114.007C191.765 113.969 191.88 113.953 191.994 113.961C192.109 113.969 192.22 114.001 192.322 114.054C192.424 114.107 192.513 114.18 192.585 114.27C193.355 115.092 195.93 117.29 197.351 116.569C198.337 116.065 198.839 110.007 198.454 103.58C198.445 103.469 198.459 103.357 198.494 103.252C198.529 103.147 198.584 103.049 198.658 102.966C198.731 102.883 198.821 102.816 198.921 102.768C199.021 102.721 199.13 102.694 199.24 102.69C199.35 102.683 199.46 102.698 199.564 102.734C199.668 102.77 199.764 102.826 199.846 102.9C199.929 102.973 199.996 103.062 200.044 103.161C200.092 103.261 200.12 103.369 200.126 103.479C200.36 107.423 200.645 116.787 198.103 118.062C197.668 118.283 197.186 118.392 196.699 118.381Z" fill="#231F20"/>
<path d="M208.971 82.3328C211.011 87.6863 202.049 102.052 199.541 106.348C195.996 112.39 192.323 118.347 188.522 124.221C186.114 127.947 176.132 122.274 175.046 120.109L162.355 134.76L156.486 126.369C153.004 121.449 150.14 116.117 147.958 110.493L162.371 98.9136C162.371 98.9136 168.909 102.757 177.286 97.2354C185.663 91.714 192.418 79.4967 192.418 79.4967C192.418 79.4967 206.998 77.0968 208.971 82.3328Z" fill="white"/>
<path d="M162.355 135.599C162.229 135.594 162.106 135.559 161.996 135.498C161.886 135.437 161.791 135.351 161.719 135.247L155.85 126.856C152.313 121.882 149.414 116.48 147.223 110.779C147.164 110.614 147.158 110.434 147.206 110.266C147.254 110.097 147.353 109.948 147.49 109.839L161.903 98.2592C162.041 98.1654 162.204 98.1153 162.371 98.1153C162.538 98.1153 162.701 98.1654 162.839 98.2592C163.107 98.4103 169.059 101.75 176.868 96.581C184.977 91.1772 191.682 79.2619 191.749 79.1444C191.81 79.0359 191.894 78.9422 191.995 78.8697C192.097 78.7972 192.212 78.7478 192.334 78.7249C193.906 78.4731 207.65 76.4089 209.807 82.0813C211.579 86.7635 206.346 96.6314 200.995 105.576L200.31 106.734C196.782 112.759 193.07 118.784 189.274 124.641C188.85 125.258 188.261 125.742 187.575 126.039C186.889 126.336 186.134 126.433 185.395 126.319C181.544 125.768 177.946 124.073 175.062 121.452L163.023 135.398C162.932 135.476 162.825 135.534 162.71 135.569C162.595 135.604 162.474 135.614 162.355 135.599ZM148.978 110.812C151.127 116.147 153.882 121.215 157.188 125.916L162.438 133.384L174.427 119.556C174.518 119.453 174.633 119.374 174.761 119.326C174.89 119.277 175.028 119.26 175.164 119.277C175.3 119.293 175.431 119.342 175.544 119.42C175.657 119.498 175.75 119.602 175.814 119.724C176.4 120.898 181.75 124.389 185.462 124.59C185.898 124.678 186.35 124.645 186.768 124.494C187.186 124.343 187.556 124.081 187.836 123.734C191.615 117.911 195.31 111.987 198.838 105.895L199.524 104.737C202.366 99.9374 209.941 87.1663 208.219 82.6015C206.848 78.9934 196.899 79.6479 192.97 80.2185C191.749 82.3162 185.512 92.7211 177.771 97.89C170.314 102.925 164.277 100.743 162.488 99.9206L148.978 110.812Z" fill="#231F20"/>
<path d="M190.98 119.606C188.967 118.703 187.253 117.24 186.041 115.391C184.829 113.541 184.17 111.382 184.142 109.168" fill="white"/>
<path d="M190.98 120.445C190.876 120.469 190.767 120.469 190.663 120.445C188.502 119.47 186.663 117.898 185.361 115.913C184.058 113.928 183.345 111.611 183.306 109.235C183.306 109.012 183.394 108.799 183.551 108.641C183.707 108.484 183.92 108.396 184.142 108.396C184.363 108.396 184.576 108.484 184.733 108.641C184.89 108.799 184.978 109.012 184.978 109.235C184.993 111.285 185.597 113.288 186.718 115.003C187.839 116.718 189.429 118.071 191.298 118.901C191.4 118.942 191.493 119.002 191.571 119.079C191.65 119.157 191.712 119.249 191.754 119.351C191.796 119.452 191.817 119.562 191.817 119.672C191.816 119.782 191.793 119.891 191.749 119.992C191.677 120.133 191.566 120.25 191.43 120.33C191.294 120.41 191.138 120.45 190.98 120.445Z" fill="#231F20"/>
<path d="M185.462 100.693C186.166 99.0793 186.41 97.3013 186.165 95.5573C186.162 94.1911 185.954 92.8331 185.546 91.5296C185.341 90.8794 184.995 90.2832 184.532 89.7839C184.07 89.2847 183.502 88.895 182.871 88.643C182.29 88.4822 181.682 88.4454 181.085 88.5351C180.489 88.6247 179.918 88.8387 179.41 89.1633C178.4 89.8325 177.555 90.7217 176.935 91.7645C175.514 94.0026 174.705 96.5771 174.591 99.2287C174.476 101.88 175.06 104.515 176.283 106.868L176.149 106.315" fill="white"/>
<path d="M176.283 107.59C176.131 107.589 175.982 107.546 175.853 107.466C175.723 107.386 175.618 107.272 175.548 107.137C174.272 104.664 173.664 101.898 173.784 99.1156C173.904 96.3332 174.749 93.6309 176.233 91.2778C176.91 90.1126 177.856 89.1282 178.992 88.4081C179.598 88.0185 180.281 87.7644 180.993 87.6631C181.706 87.5617 182.432 87.6155 183.122 87.8207C183.875 88.0995 184.556 88.5465 185.112 89.128C185.668 89.7094 186.085 90.4101 186.332 91.1771C186.768 92.556 186.993 93.9932 187.001 95.4398C187.257 97.3467 186.979 99.2875 186.198 101.045C186.09 101.238 185.909 101.38 185.696 101.44C185.482 101.5 185.254 101.473 185.061 101.364C184.869 101.254 184.727 101.074 184.664 100.861C184.602 100.648 184.624 100.419 184.727 100.223C185.352 98.7411 185.56 97.1158 185.329 95.5237C185.326 94.2492 185.135 92.9823 184.76 91.7645C184.599 91.2337 184.322 90.7459 183.949 90.3365C183.576 89.9271 183.116 89.6065 182.604 89.3982C182.14 89.267 181.653 89.2381 181.177 89.3135C180.7 89.3888 180.246 89.5665 179.845 89.8345C178.945 90.4232 178.19 91.2094 177.638 92.1337C176.401 94.0971 175.659 96.3331 175.475 98.6488C175.291 100.964 175.672 103.29 176.584 105.425C176.683 105.482 176.768 105.56 176.834 105.652C176.9 105.745 176.946 105.85 176.969 105.962L177.103 106.516C177.146 106.714 177.116 106.92 177.017 107.097C176.918 107.273 176.758 107.407 176.568 107.473C176.486 107.538 176.387 107.579 176.283 107.59Z" fill="#231F20"/>
<path d="M175.046 120.109C175.046 120.109 170.832 115.528 170.464 110.611C170.464 110.611 163.576 118.8 169.913 126.034L175.046 120.109Z" fill="#231F20"/>
<path d="M169.913 126.872C169.795 126.873 169.679 126.848 169.572 126.799C169.465 126.75 169.37 126.677 169.294 126.587C162.606 118.901 169.746 110.158 169.829 110.074C169.933 109.944 170.073 109.85 170.231 109.802C170.389 109.754 170.558 109.755 170.715 109.805C170.873 109.859 171.012 109.957 171.116 110.088C171.22 110.219 171.284 110.377 171.301 110.544C171.635 115.108 175.614 119.505 175.665 119.539C175.803 119.693 175.88 119.893 175.88 120.101C175.88 120.309 175.803 120.509 175.665 120.663L170.531 126.587C170.453 126.679 170.355 126.752 170.245 126.801C170.136 126.85 170.016 126.875 169.896 126.872H169.913ZM169.913 112.759C168.458 115.226 166.452 120.109 169.913 124.724L173.909 120.109C172.114 117.954 170.777 115.452 169.98 112.759H169.913Z" fill="#231F20"/>
<path d="M199.014 97.9644C199.891 96.9 200.261 95.7547 199.841 95.4063C199.421 95.0578 198.37 95.6382 197.494 96.7026C196.617 97.767 196.247 98.9123 196.667 99.2608C197.086 99.6092 198.138 99.0288 199.014 97.9644Z" fill="#231F20"/>
<path d="M201.063 97.5044C200.929 97.5038 200.797 97.4716 200.678 97.4104C200.559 97.3491 200.456 97.2606 200.377 97.152L197.284 92.7551C197.22 92.6649 197.174 92.5629 197.15 92.4549C197.125 92.3468 197.122 92.235 197.14 92.1258C197.159 92.0165 197.199 91.9121 197.258 91.8185C197.317 91.7249 197.394 91.644 197.485 91.5804C197.668 91.4547 197.892 91.4054 198.111 91.443C198.329 91.4806 198.524 91.6021 198.655 91.7818L201.748 96.1787C201.813 96.2688 201.858 96.3709 201.883 96.4789C201.908 96.5869 201.911 96.6988 201.892 96.808C201.873 96.9172 201.833 97.0217 201.774 97.1153C201.715 97.2089 201.638 97.2898 201.548 97.3534C201.405 97.4511 201.236 97.5036 201.063 97.5044Z" fill="#231F20"/>
<path d="M164.111 144.678C171.468 136.287 162.79 103.713 144.765 97.6886C126.741 91.6638 56.2642 117.827 66.681 240.336L147.976 208.87C147.976 208.87 143.177 186.097 149.179 170.422C155.182 154.748 156.754 153.12 164.111 144.678Z" fill="#D946EF"/>
<path d="M164.044 119.522L179.009 163.004L153.192 184.368C153.192 184.368 137.174 161.242 134.382 152.667C131.589 144.091 164.044 119.522 164.044 119.522Z" fill="#D946EF"/>
<path d="M153.192 185.207C153.058 185.211 152.924 185.181 152.805 185.119C152.685 185.058 152.582 184.967 152.507 184.855C151.671 183.647 132.074 155.235 126.757 140.836C126.719 140.732 126.701 140.622 126.705 140.511C126.709 140.401 126.735 140.292 126.781 140.192C126.826 140.091 126.891 140.001 126.972 139.926C127.053 139.85 127.147 139.792 127.251 139.753C127.354 139.715 127.464 139.697 127.574 139.701C127.684 139.705 127.792 139.73 127.892 139.776C127.992 139.822 128.082 139.888 128.157 139.969C128.232 140.05 128.291 140.145 128.329 140.248C133.562 154.446 153.677 183.596 153.878 183.882C153.941 183.971 153.985 184.073 154.008 184.18C154.031 184.288 154.033 184.399 154.013 184.507C153.992 184.615 153.951 184.717 153.89 184.809C153.83 184.9 153.752 184.979 153.66 185.04C153.527 185.145 153.362 185.204 153.192 185.207Z" fill="#231F20"/>
<path d="M232.731 325.372C232.526 325.365 232.328 325.286 232.175 325.148C232.022 325.01 231.923 324.821 231.895 324.616C229.086 295.382 222.616 238.474 218.168 232.315C213.72 226.156 169.043 218.503 152.256 216.17C152.148 216.156 152.044 216.12 151.95 216.065C151.856 216.01 151.774 215.936 151.708 215.849C151.643 215.761 151.596 215.661 151.569 215.555C151.543 215.449 151.537 215.339 151.554 215.231C151.566 215.121 151.6 215.015 151.655 214.92C151.709 214.824 151.782 214.741 151.87 214.675C151.958 214.609 152.058 214.561 152.165 214.536C152.271 214.51 152.382 214.507 152.49 214.526C154.982 214.861 213.637 223.101 219.522 231.308C225.408 239.514 233.216 320.991 233.551 324.465C233.562 324.573 233.552 324.683 233.522 324.787C233.491 324.891 233.44 324.988 233.371 325.072C233.303 325.157 233.218 325.227 233.123 325.278C233.027 325.329 232.923 325.361 232.815 325.372H232.731Z" fill="white"/>
<path d="M268.764 359.892C268.686 359.908 268.607 359.908 268.529 359.892C260.169 357.358 236.577 346.114 235.574 345.644C235.39 345.539 235.252 345.368 235.189 345.166C235.126 344.963 235.141 344.744 235.233 344.553C235.324 344.362 235.484 344.212 235.68 344.134C235.877 344.056 236.096 344.056 236.293 344.134C236.527 344.251 260.721 355.797 269.014 358.298C269.236 358.331 269.435 358.452 269.569 358.633C269.702 358.814 269.758 359.04 269.725 359.263C269.692 359.485 269.572 359.686 269.391 359.819C269.211 359.953 268.985 360.009 268.764 359.976V359.892Z" fill="white"/>
<path d="M190.98 266.919C190.836 266.917 190.696 266.879 190.57 266.808C190.445 266.738 190.339 266.638 190.261 266.516C190.149 266.324 190.116 266.096 190.169 265.879C190.222 265.663 190.357 265.476 190.545 265.358C193.827 263.254 196.51 260.335 198.337 256.883C198.428 256.683 198.594 256.527 198.8 256.45C199.005 256.373 199.233 256.381 199.432 256.472C199.632 256.563 199.787 256.73 199.864 256.937C199.941 257.143 199.933 257.371 199.842 257.571C197.923 261.335 195.037 264.516 191.482 266.785C191.333 266.882 191.157 266.929 190.98 266.919Z" fill="white"/>
<path d="M215.542 176.715L217.566 180.189H278.645L280.25 176.715H215.542Z" fill="white"/>
<path d="M278.645 181.028H217.566C217.422 181.029 217.279 180.992 217.153 180.922C217.028 180.851 216.922 180.749 216.847 180.625L214.857 177.135C214.784 177.007 214.745 176.863 214.745 176.715C214.745 176.568 214.784 176.423 214.857 176.296C214.927 176.166 215.032 176.059 215.158 175.985C215.285 175.911 215.429 175.873 215.576 175.876H280.284C280.424 175.877 280.561 175.913 280.683 175.982C280.806 176.05 280.909 176.147 280.984 176.266C281.059 176.385 281.103 176.52 281.112 176.66C281.121 176.8 281.095 176.94 281.036 177.068L279.448 180.542C279.376 180.692 279.262 180.819 279.119 180.906C278.977 180.992 278.812 181.035 278.645 181.028ZM218.051 179.35H278.11L278.946 177.554H216.997L218.051 179.35Z" fill="#231F20"/>
<path d="M280.251 176.716L300.533 127.007L282.123 126.034L267.443 162.988L280.251 176.716Z" fill="white"/>
<path d="M280.25 177.555C280.134 177.553 280.02 177.529 279.914 177.483C279.808 177.437 279.712 177.37 279.632 177.286L266.824 163.575C266.716 163.457 266.643 163.312 266.613 163.154C266.584 162.997 266.599 162.835 266.657 162.686L281.337 125.765C281.402 125.602 281.516 125.463 281.662 125.367C281.809 125.271 281.981 125.222 282.156 125.228L300.549 126.201C300.683 126.207 300.814 126.246 300.93 126.313C301.046 126.38 301.144 126.475 301.216 126.588C301.289 126.702 301.332 126.831 301.344 126.966C301.356 127.1 301.336 127.235 301.284 127.359L280.986 177.068C280.935 177.199 280.852 177.314 280.743 177.402C280.635 177.49 280.505 177.549 280.367 177.571L280.25 177.555ZM268.362 162.803L279.916 175.188L299.261 127.779L282.625 126.906L268.362 162.803Z" fill="#231F20"/>
<path d="M33.2067 199.405C33.6916 203.819 34.6112 208.635 37.2697 211.153C39.9283 213.67 43.7572 212.646 46.2987 209.81C48.8402 206.974 50.3451 202.711 51.4319 198.415C54.0403 188.027 54.6255 176.884 54.9432 165.875C55.194 157.114 51.8165 111.685 39.1591 132.31C34.9121 139.241 34.2768 155.302 33.3739 164.045C32.075 175.793 32.019 187.646 33.2067 199.405Z" fill="white"/>
<path d="M40.8314 213.317C39.2915 213.309 37.8135 212.708 36.7014 211.639C33.7586 208.954 32.839 203.718 32.3708 199.455C31.1845 187.638 31.263 175.728 32.6049 163.928C32.7387 162.484 32.8892 160.84 33.0397 159.078C33.8088 150.099 34.8455 137.798 38.4905 131.84C41.2494 127.343 43.8076 125.513 46.2822 126.252C54.6424 128.735 55.9299 162.098 55.8296 165.807C55.5286 176.011 54.9935 187.808 52.3015 198.532C50.897 204.07 49.2083 207.813 46.9677 210.28C45.5062 212.006 43.4299 213.09 41.1825 213.3L40.8314 213.317ZM45.1954 127.729C43.306 127.729 41.2828 130.347 39.8616 132.663C36.5175 138.285 35.3972 150.351 34.6448 159.178C34.4943 160.957 34.3606 162.535 34.2101 164.045C32.9017 175.753 32.8457 187.568 34.0429 199.287C34.4776 203.248 35.2969 208.098 37.8217 210.414C38.2533 210.818 38.7612 211.132 39.3154 211.337C39.8695 211.541 40.4589 211.633 41.0487 211.605C42.8546 211.423 44.5173 210.537 45.6803 209.139C47.7202 206.856 49.2919 203.349 50.6964 198.079C53.3549 187.523 53.89 175.843 54.1742 165.723C54.425 156.997 51.8668 129.642 45.814 127.829C45.6112 127.784 45.4029 127.767 45.1954 127.779V127.729Z" fill="#231F20"/>
<path d="M97.1121 343.11C97.1121 343.11 74.69 351.015 72.2823 355.848C70.8221 358.933 70.1772 362.342 70.4096 365.749H76.546C76.2042 364.13 76.2698 362.45 76.7369 360.862C77.2039 359.274 78.0578 357.827 79.2213 356.653C83.2174 352.626 95.2561 348.262 103.399 348.162C111.542 348.061 127.008 352.357 127.543 355.311C128.078 358.265 128.881 365.749 128.881 365.749L135.017 364.155C135.017 364.155 136.355 356.385 132.342 351.015C128.329 345.644 109.669 343.11 109.669 343.11H97.1121Z" fill="#231F20"/>
<path d="M76.5458 366.588H70.4094C70.204 366.589 70.0053 366.515 69.8511 366.379C69.6969 366.243 69.598 366.054 69.5734 365.85C69.3289 362.276 70.0025 358.699 71.5297 355.461C74.021 350.427 94.5035 343.143 96.8276 342.321C96.9217 342.305 97.0178 342.305 97.1119 342.321H109.669C110.572 342.439 128.847 344.989 133.077 350.561C137.308 356.133 135.97 363.987 135.903 364.339C135.879 364.498 135.809 364.646 135.702 364.765C135.595 364.884 135.456 364.97 135.301 365.01L129.148 366.689C129.032 366.721 128.91 366.728 128.792 366.708C128.673 366.687 128.56 366.641 128.461 366.572C128.362 366.503 128.279 366.413 128.219 366.309C128.158 366.204 128.122 366.087 128.111 365.967C128.111 365.967 127.309 358.449 126.791 355.579C126.439 353.632 112.227 349.084 103.466 349.118C95.7575 349.202 83.8526 353.364 79.8731 357.358C78.809 358.429 78.0284 359.75 77.602 361.2C77.1757 362.651 77.1172 364.186 77.432 365.665C77.462 365.789 77.4641 365.918 77.4381 366.043C77.4121 366.168 77.3586 366.285 77.2815 366.387C77.1828 366.475 77.065 366.539 76.9373 366.574C76.8096 366.609 76.6756 366.614 76.5458 366.588ZM71.1953 364.91H75.5593C75.3669 363.295 75.544 361.658 76.0771 360.122C76.6103 358.587 77.4854 357.194 78.6358 356.049C82.933 351.736 95.189 347.423 103.382 347.322H103.599C110.923 347.322 127.66 351.249 128.362 355.159C128.797 357.492 129.366 362.56 129.6 364.692L134.265 363.483C134.465 361.688 134.833 355.747 131.673 351.518C128.513 347.289 114.652 344.637 109.569 343.949H97.2456C91.0089 346.164 74.857 352.541 73.0345 356.217C71.7531 358.93 71.1231 361.908 71.1953 364.91Z" fill="#231F20"/>
<path d="M72.5498 380.634C77.8596 380.634 82.164 376.314 82.164 370.985C82.164 365.655 77.8596 361.335 72.5498 361.335C67.24 361.335 62.9355 365.655 62.9355 370.985C62.9355 376.314 67.24 380.634 72.5498 380.634Z" fill="#231F20"/>
<path d="M72.5499 381.474C70.483 381.474 68.4625 380.859 66.744 379.706C65.0255 378.554 63.686 376.915 62.8951 374.999C62.1041 373.082 61.8972 370.973 62.3004 368.939C62.7036 366.904 63.6989 365.035 65.1604 363.568C66.6219 362.101 68.484 361.102 70.5111 360.698C72.5383 360.293 74.6395 360.501 76.549 361.295C78.4585 362.088 80.0906 363.433 81.2389 365.158C82.3872 366.883 83.0001 368.91 83.0001 370.985C82.9957 373.765 81.8933 376.431 79.9344 378.397C77.9756 380.363 75.3201 381.469 72.5499 381.474ZM72.5499 362.174C70.8137 362.174 69.1165 362.691 67.673 363.659C66.2294 364.627 65.1043 366.003 64.4399 367.613C63.7755 369.223 63.6016 370.995 63.9403 372.704C64.279 374.413 65.1151 375.983 66.3427 377.215C67.5704 378.447 69.1345 379.286 70.8373 379.626C72.5401 379.966 74.3051 379.792 75.9091 379.125C77.5131 378.458 78.8841 377.329 79.8487 375.88C80.8132 374.431 81.3281 372.727 81.3281 370.985C81.3236 368.65 80.3974 366.411 78.7521 364.76C77.1068 363.108 74.8766 362.179 72.5499 362.174Z" fill="#231F20"/>
<path d="M134.198 380.634C139.508 380.634 143.812 376.314 143.812 370.985C143.812 365.655 139.508 361.335 134.198 361.335C128.888 361.335 124.584 365.655 124.584 370.985C124.584 376.314 128.888 380.634 134.198 380.634Z" fill="#231F20"/>
<path d="M134.198 381.474C132.131 381.474 130.11 380.859 128.392 379.706C126.673 378.554 125.334 376.915 124.543 374.999C123.752 373.082 123.545 370.973 123.948 368.939C124.352 366.904 125.347 365.035 126.808 363.568C128.27 362.101 130.132 361.102 132.159 360.698C134.186 360.293 136.287 360.501 138.197 361.295C140.106 362.088 141.739 363.433 142.887 365.158C144.035 366.883 144.648 368.91 144.648 370.985C144.644 373.765 143.541 376.431 141.582 378.397C139.624 380.363 136.968 381.469 134.198 381.474ZM134.198 362.174C132.462 362.174 130.764 362.691 129.321 363.659C127.877 364.627 126.752 366.003 126.088 367.613C125.423 369.223 125.25 370.995 125.588 372.704C125.927 374.413 126.763 375.983 127.991 377.215C129.218 378.447 130.782 379.286 132.485 379.626C134.188 379.966 135.953 379.792 137.557 379.125C139.161 378.458 140.532 377.329 141.497 375.88C142.461 374.431 142.976 372.727 142.976 370.985C142.976 368.648 142.051 366.407 140.405 364.755C138.759 363.103 136.526 362.174 134.198 362.174Z" fill="#231F20"/>
<path d="M364.973 246.328H351.663V391.56H364.973V246.328Z" fill="white"/>
<path d="M364.973 392.399H351.597C351.375 392.399 351.162 392.31 351.006 392.153C350.849 391.996 350.761 391.782 350.761 391.56V246.327C350.765 246.106 350.854 245.895 351.01 245.739C351.166 245.582 351.376 245.493 351.597 245.488H364.973C365.195 245.488 365.407 245.577 365.564 245.734C365.721 245.891 365.809 246.105 365.809 246.327V391.56C365.809 391.782 365.721 391.996 365.564 392.153C365.407 392.31 365.195 392.399 364.973 392.399ZM352.5 390.721H364.204V247.166H352.5V390.721Z" fill="#231F20"/>
<path d="M365.491 208.87H183.272V248.929H365.491V208.87Z" fill="white"/>
<path d="M365.491 249.768H183.239C183.017 249.768 182.804 249.679 182.648 249.522C182.491 249.365 182.403 249.151 182.403 248.929V208.87C182.403 208.647 182.491 208.434 182.648 208.277C182.804 208.119 183.017 208.031 183.239 208.031H365.491C365.713 208.031 365.926 208.119 366.082 208.277C366.239 208.434 366.327 208.647 366.327 208.87V248.929C366.327 249.151 366.239 249.365 366.082 249.522C365.926 249.679 365.713 249.768 365.491 249.768ZM184.108 248.09H364.689V209.709H184.108V248.09Z" fill="#231F20"/>
<path d="M202.133 248.929H188.823V394.161H202.133V248.929Z" fill="white"/>
<path d="M202.149 395H188.773C188.551 395 188.339 394.912 188.182 394.755C188.025 394.597 187.937 394.384 187.937 394.161V248.929C187.937 248.706 188.025 248.493 188.182 248.336C188.339 248.178 188.551 248.09 188.773 248.09H202.149C202.371 248.09 202.584 248.178 202.741 248.336C202.897 248.493 202.985 248.706 202.985 248.929V394.161C202.985 394.384 202.897 394.597 202.741 394.755C202.584 394.912 202.371 395 202.149 395ZM189.659 393.322H201.363V249.768H189.659V393.322Z" fill="#231F20"/>
<path d="M179.009 163.827C178.832 163.83 178.658 163.774 178.516 163.667C178.374 163.561 178.271 163.411 178.223 163.239C178.072 162.769 163.509 115.343 157.055 108.563C156.977 108.485 156.914 108.393 156.872 108.29C156.829 108.188 156.808 108.078 156.808 107.968C156.808 107.857 156.829 107.747 156.872 107.645C156.914 107.543 156.977 107.45 157.055 107.372C157.131 107.294 157.222 107.232 157.323 107.189C157.423 107.147 157.531 107.125 157.64 107.125C157.749 107.125 157.857 107.147 157.958 107.189C158.058 107.232 158.149 107.294 158.225 107.372C164.913 114.437 179.176 160.756 179.778 162.753C179.841 162.964 179.818 163.192 179.715 163.387C179.611 163.581 179.436 163.727 179.226 163.793C179.156 163.817 179.083 163.828 179.009 163.827Z" fill="#231F20"/>
<path d="M311.953 271.971L325.262 281.217V248.929H311.953V271.971Z" fill="#231F20"/>
<path d="M325.211 282.057C325.043 282.058 324.879 282.005 324.743 281.906L311.367 272.659C311.254 272.584 311.161 272.482 311.096 272.361C311.032 272.241 310.999 272.107 310.999 271.971V248.929C310.999 248.706 311.087 248.493 311.244 248.336C311.401 248.178 311.613 248.09 311.835 248.09H325.211C325.433 248.09 325.646 248.178 325.802 248.336C325.959 248.493 326.047 248.706 326.047 248.929V281.218C326.05 281.369 326.01 281.518 325.934 281.648C325.857 281.779 325.746 281.885 325.613 281.956C325.489 282.021 325.351 282.055 325.211 282.057ZM312.738 271.534L324.442 279.623V249.768H312.738V271.534Z" fill="#231F20"/>
<path d="M136.255 354.438C140.429 354.438 143.812 350.471 143.812 345.577C143.812 340.683 140.429 336.716 136.255 336.716C132.081 336.716 128.697 340.683 128.697 345.577C128.697 350.471 132.081 354.438 136.255 354.438Z" fill="#231F20"/>
<path d="M136.271 355.243C131.64 355.243 127.911 350.897 127.911 345.543C127.911 340.19 131.673 335.86 136.271 335.86C140.869 335.86 144.632 340.206 144.632 345.543C144.632 350.88 140.886 355.243 136.271 355.243ZM136.271 337.538C132.559 337.538 129.583 341.129 129.583 345.543C129.583 349.957 132.593 353.565 136.271 353.565C139.95 353.565 142.959 349.974 142.959 345.543C142.959 341.113 139.967 337.572 136.271 337.572V337.538Z" fill="#231F20"/>
<path d="M104.987 344.318C104.987 344.318 128.613 333.46 130.068 335.474C131.269 337.891 132.141 340.459 132.66 343.11L137.676 340.961C137.676 340.961 135.435 330.12 131.238 330.389C127.041 330.657 103.482 338.78 103.482 338.78L104.987 344.318Z" fill="#231F20"/>
<path d="M104.987 345.174C104.871 345.198 104.752 345.198 104.636 345.174C104.529 345.12 104.433 345.045 104.355 344.952C104.278 344.86 104.22 344.753 104.185 344.637L102.513 339.099C102.458 338.892 102.483 338.673 102.582 338.483C102.681 338.294 102.847 338.148 103.048 338.076C104.018 337.74 126.757 329.903 131.021 329.684C135.803 329.399 138.094 339.754 138.344 340.928C138.377 341.117 138.348 341.311 138.26 341.481C138.173 341.65 138.032 341.787 137.86 341.868L132.843 344.016C132.731 344.07 132.608 344.098 132.484 344.098C132.36 344.098 132.237 344.07 132.124 344.016C131.91 343.891 131.754 343.686 131.69 343.446C131.214 340.942 130.416 338.51 129.315 336.213C127.426 335.793 115.688 340.425 105.238 345.241C105.152 345.232 105.067 345.209 104.987 345.174ZM104.419 339.334L105.522 343.161C121.056 336.062 129.533 333.326 130.703 335.004C131.862 337.196 132.707 339.54 133.211 341.969L136.555 340.475C135.652 336.565 133.512 331.061 131.138 331.245C128.061 331.43 112.729 336.464 104.502 339.317L104.419 339.334Z" fill="#231F20"/>
</svg>
