<svg width="419" height="387" viewBox="0 0 419 387" fill="none" xmlns="http://www.w3.org/2000/svg">
<path d="M364.004 360.852H58.2422L112.272 0.808594H418.034L364.004 360.852Z" fill="white"/>
<path d="M364.004 361.679H58.2427C58.1236 361.677 58.0062 361.651 57.8978 361.601C57.7895 361.552 57.6926 361.48 57.6132 361.392C57.5405 361.302 57.4871 361.198 57.4561 361.086C57.4252 360.975 57.4174 360.859 57.4333 360.744L111.391 0.700812C111.414 0.503734 111.509 0.322278 111.659 0.19237C111.809 0.0624622 112.002 -0.00642308 112.201 -0.00063982H417.962C418.079 -0.000796092 418.194 0.0249318 418.3 0.0746883C418.406 0.124445 418.499 0.196995 418.574 0.287136C418.653 0.373708 418.711 0.476693 418.745 0.58866C418.78 0.700628 418.789 0.81879 418.772 0.934632L364.814 360.978C364.787 361.173 364.691 361.352 364.542 361.482C364.393 361.611 364.201 361.681 364.004 361.679ZM59.1959 360.043H363.303L417.081 1.63608H112.974L59.1959 360.043Z" fill="#231F20"/>
<path d="M413.897 28.2912H108.154L112.273 0.808594H418.034L413.897 28.2912Z" fill="white"/>
<path d="M413.897 29.1187H108.135C108.016 29.119 107.898 29.0934 107.789 29.0438C107.68 28.9941 107.584 28.9215 107.506 28.8309C107.429 28.74 107.373 28.6333 107.342 28.5182C107.31 28.4032 107.305 28.2827 107.326 28.1654L111.445 0.700812C111.467 0.503734 111.563 0.322278 111.713 0.19237C111.863 0.0624622 112.056 -0.00642308 112.254 -0.00063982H418.016C418.133 -0.000796092 418.248 0.0249318 418.354 0.0746883C418.459 0.124445 418.553 0.196995 418.627 0.287136C418.706 0.373708 418.765 0.476693 418.799 0.58866C418.833 0.700628 418.842 0.81879 418.825 0.934632L414.706 28.4172C414.673 28.6096 414.574 28.7846 414.427 28.9125C414.279 29.0403 414.092 29.1132 413.897 29.1187ZM109.107 27.4639H413.195L417.08 1.63608H112.974L109.107 27.4639Z" fill="#231F20"/>
<path d="M346.216 284.501H250.89C250.704 284.508 250.52 284.472 250.35 284.397C250.18 284.322 250.029 284.209 249.91 284.066C249.79 283.924 249.705 283.757 249.659 283.576C249.614 283.396 249.611 283.208 249.649 283.026C249.722 282.625 249.929 282.261 250.236 281.993C250.543 281.725 250.932 281.569 251.34 281.551H346.773C346.959 281.545 347.144 281.581 347.315 281.657C347.485 281.732 347.636 281.844 347.757 281.986C347.878 282.128 347.966 282.295 348.013 282.475C348.061 282.655 348.067 282.843 348.032 283.026C347.955 283.448 347.73 283.829 347.397 284.099C347.063 284.37 346.645 284.512 346.216 284.501Z" fill="#E6E7E8"/>
<path d="M344.256 298.279H256.79C256.613 298.285 256.436 298.25 256.274 298.179C256.111 298.108 255.967 298.001 255.852 297.866C255.736 297.731 255.652 297.573 255.606 297.401C255.56 297.23 255.552 297.051 255.585 296.876V296.75C255.666 296.368 255.87 296.022 256.165 295.765C256.46 295.509 256.831 295.356 257.222 295.329H344.687C344.866 295.326 345.042 295.363 345.204 295.437C345.367 295.51 345.511 295.619 345.626 295.755C345.741 295.891 345.825 296.05 345.871 296.222C345.917 296.395 345.924 296.575 345.892 296.75V296.876C345.808 297.255 345.603 297.597 345.308 297.85C345.012 298.103 344.643 298.253 344.256 298.279Z" fill="#E6E7E8"/>
<path d="M342.169 312.128H250.89C250.71 312.131 250.531 312.094 250.366 312.02C250.202 311.945 250.056 311.835 249.939 311.698C249.822 311.56 249.737 311.398 249.69 311.224C249.643 311.05 249.635 310.867 249.667 310.69C249.746 310.301 249.951 309.949 250.25 309.689C250.549 309.429 250.926 309.275 251.322 309.251H342.619C342.8 309.245 342.981 309.279 343.147 309.353C343.313 309.426 343.46 309.536 343.578 309.675C343.695 309.813 343.78 309.976 343.826 310.152C343.872 310.328 343.877 310.511 343.842 310.69C343.762 311.081 343.555 311.435 343.252 311.696C342.949 311.956 342.568 312.108 342.169 312.128Z" fill="#E6E7E8"/>
<path d="M340.065 325.833H244.631C244.445 325.839 244.26 325.803 244.089 325.728C243.919 325.653 243.768 325.54 243.647 325.399C243.526 325.257 243.438 325.09 243.391 324.91C243.343 324.73 243.337 324.541 243.372 324.358C243.445 323.957 243.652 323.593 243.959 323.325C244.266 323.057 244.655 322.901 245.063 322.883H340.496C340.683 322.874 340.87 322.907 341.042 322.982C341.214 323.056 341.367 323.168 341.489 323.311C341.611 323.453 341.698 323.622 341.744 323.804C341.79 323.985 341.794 324.175 341.755 324.358C341.682 324.759 341.475 325.124 341.168 325.392C340.861 325.66 340.472 325.815 340.065 325.833Z" fill="#C026D3"/>
<path d="M115.348 326.985H104.214L116.876 242.685H127.992L115.348 326.985Z" fill="#E6E7E8"/>
<path d="M115.348 326.984H104.214L109.646 290.851H120.779L115.348 326.984Z" fill="#C026D3"/>
<path d="M137.614 326.985H126.481L139.125 242.685H150.258L137.614 326.985Z" fill="#E6E7E8"/>
<path d="M137.614 326.984H126.481L134.107 276.12H145.24L137.614 326.984Z" fill="#C026D3"/>
<path d="M159.881 326.985H148.748L161.392 242.685H172.525L159.881 326.985Z" fill="#E6E7E8"/>
<path d="M159.881 326.984H148.748L153.532 295.059H164.666L159.881 326.984Z" fill="#C026D3"/>
<path d="M182.148 326.985H171.015L183.659 242.685H194.792L182.148 326.985Z" fill="#E6E7E8"/>
<path d="M182.148 326.984H171.015L177.076 286.605H188.209L182.148 326.984Z" fill="#C026D3"/>
<path d="M204.415 326.985H193.281L205.925 242.685H217.059L204.415 326.985Z" fill="#E6E7E8"/>
<path d="M204.415 326.984H193.281L200.871 276.371H212.005L204.415 326.984Z" fill="#C026D3"/>
<path d="M226.681 326.985H215.547L228.192 242.685H239.325L226.681 326.985Z" fill="#E6E7E8"/>
<path d="M226.681 326.985H215.547L226.177 256.048H237.31L226.681 326.985Z" fill="#C026D3"/>
<path d="M194.9 73.1484C228.354 73.1484 251.484 100.361 246.466 133.815C241.448 167.269 210.152 194.482 176.698 194.482C143.244 194.482 120.096 167.269 125.114 133.815C130.132 100.361 161.446 73.1484 194.9 73.1484ZM191.303 96.8719C170.943 96.8719 151.877 113.455 148.82 133.815C145.762 154.175 159.845 170.758 180.223 170.758C200.602 170.758 219.649 154.175 222.706 133.815C225.764 113.455 211.699 96.8719 191.339 96.8719H191.303Z" fill="#E6E7E8"/>
<path d="M246.466 133.815C241.466 167.179 210.314 194.32 176.968 194.482L180.565 170.741C200.836 170.597 219.721 154.086 222.761 133.815H246.466Z" fill="#C026D3"/>
<path d="M298.638 95.1723C304.755 89.4977 305.755 80.6291 300.87 75.3639C295.986 70.0986 287.068 70.4304 280.95 76.1051C274.833 81.7797 273.833 90.6482 278.718 95.9135C283.602 101.179 292.52 100.847 298.638 95.1723Z" fill="#E6E7E8"/>
<path d="M362.925 78.9577H318.319C318.133 78.9638 317.948 78.9278 317.778 78.8526C317.607 78.7774 317.456 78.6647 317.335 78.5231C317.214 78.3814 317.127 78.2144 317.079 78.0343C317.032 77.8542 317.025 77.6658 317.06 77.4829C317.134 77.0789 317.344 76.7123 317.655 76.444C317.965 76.1757 318.359 76.0219 318.769 76.008H363.374C363.559 76.0047 363.742 76.0426 363.91 76.1191C364.078 76.1955 364.227 76.3085 364.346 76.4498C364.465 76.5911 364.551 76.7572 364.598 76.9359C364.644 77.1146 364.65 77.3015 364.615 77.4829C364.542 77.8839 364.335 78.2483 364.028 78.5162C363.721 78.7842 363.332 78.9398 362.925 78.9577Z" fill="#E6E7E8"/>
<path d="M361.702 87.087H317.097C316.912 87.0903 316.729 87.0524 316.561 86.976C316.393 86.8995 316.244 86.7865 316.125 86.6452C316.006 86.5039 315.92 86.3378 315.874 86.1591C315.827 85.9804 315.821 85.7935 315.856 85.6122C315.925 85.2078 316.131 84.8393 316.438 84.5678C316.746 84.2963 317.137 84.138 317.546 84.1193H362.152C362.339 84.1161 362.524 84.1545 362.694 84.2319C362.865 84.3092 363.015 84.4235 363.136 84.5665C363.257 84.7094 363.344 84.8774 363.391 85.0583C363.439 85.2392 363.445 85.4284 363.411 85.6122C363.337 86.0161 363.127 86.3827 362.817 86.651C362.506 86.9193 362.112 87.0731 361.702 87.087Z" fill="#E6E7E8"/>
<path d="M360.496 95.1994H315.891C315.705 95.2054 315.52 95.1695 315.35 95.0943C315.179 95.019 315.028 94.9064 314.907 94.7648C314.786 94.6231 314.699 94.456 314.651 94.276C314.603 94.0959 314.597 93.9074 314.632 93.7245C314.705 93.3235 314.912 92.9591 315.219 92.6912C315.527 92.4232 315.916 92.2676 316.323 92.2497H360.928C361.114 92.2436 361.299 92.2796 361.47 92.3548C361.64 92.43 361.791 92.5426 361.912 92.6843C362.033 92.826 362.121 92.993 362.168 93.1731C362.216 93.3532 362.222 93.5416 362.187 93.7245C362.114 94.1256 361.907 94.4899 361.6 94.7579C361.293 95.0258 360.904 95.1815 360.496 95.1994Z" fill="#E6E7E8"/>
<path d="M289.97 152.914C296.087 147.24 297.087 138.371 292.203 133.106C287.318 127.841 278.4 128.173 272.282 133.847C266.165 139.522 265.166 148.39 270.05 153.656C274.934 158.921 283.853 158.589 289.97 152.914Z" fill="#C026D3"/>
<path d="M354.256 136.675H309.669C309.482 136.685 309.295 136.651 309.123 136.577C308.951 136.503 308.798 136.39 308.676 136.248C308.554 136.105 308.467 135.936 308.421 135.755C308.375 135.573 308.371 135.383 308.41 135.2C308.483 134.799 308.69 134.435 308.997 134.167C309.304 133.899 309.693 133.743 310.101 133.725H354.706C354.892 133.719 355.077 133.755 355.247 133.83C355.418 133.906 355.569 134.018 355.69 134.16C355.811 134.302 355.898 134.469 355.946 134.649C355.994 134.829 356 135.017 355.965 135.2C355.891 135.604 355.681 135.971 355.371 136.239C355.06 136.507 354.666 136.661 354.256 136.675Z" fill="#C026D3"/>
<path d="M353.051 144.859H308.445C308.259 144.865 308.074 144.829 307.904 144.753C307.733 144.678 307.582 144.566 307.461 144.424C307.34 144.282 307.253 144.115 307.205 143.935C307.158 143.755 307.151 143.567 307.186 143.384C307.259 142.983 307.466 142.618 307.774 142.35C308.081 142.082 308.47 141.927 308.877 141.909H353.41C353.598 141.899 353.784 141.933 353.957 142.007C354.129 142.081 354.281 142.194 354.403 142.336C354.525 142.479 354.612 142.647 354.658 142.829C354.704 143.011 354.708 143.2 354.669 143.384C354.6 143.773 354.403 144.129 354.11 144.396C353.818 144.663 353.445 144.825 353.051 144.859Z" fill="#E6E7E8"/>
<path d="M351.828 152.916H307.223C307.037 152.918 306.854 152.88 306.685 152.804C306.516 152.728 306.367 152.615 306.246 152.474C306.126 152.333 306.038 152.168 305.989 151.989C305.941 151.811 305.932 151.623 305.963 151.441C306.037 151.037 306.247 150.67 306.558 150.402C306.868 150.134 307.262 149.98 307.672 149.966H352.277C352.462 149.963 352.645 150.001 352.813 150.077C352.981 150.154 353.13 150.267 353.249 150.408C353.368 150.549 353.454 150.715 353.501 150.894C353.547 151.073 353.553 151.26 353.518 151.441C353.445 151.842 353.238 152.206 352.931 152.474C352.624 152.742 352.235 152.898 351.828 152.916Z" fill="#E6E7E8"/>
<path d="M232.293 106.836C232.175 106.863 232.053 106.867 231.933 106.847C231.814 106.827 231.699 106.783 231.597 106.719C231.494 106.654 231.405 106.571 231.335 106.472C231.264 106.373 231.214 106.262 231.187 106.143C231.16 106.025 231.156 105.903 231.176 105.784C231.196 105.664 231.24 105.55 231.304 105.447C231.368 105.344 231.452 105.255 231.551 105.185C231.65 105.115 231.761 105.064 231.88 105.037L265.927 87.9866C266.033 87.9344 266.149 87.9038 266.267 87.8963C266.385 87.8889 266.503 87.9048 266.615 87.9433C266.727 87.9817 266.831 88.0418 266.919 88.1203C267.008 88.1987 267.08 88.2939 267.132 88.4003C267.234 88.6135 267.25 88.8577 267.176 89.0822C267.102 89.3067 266.945 89.4941 266.736 89.6054L232.689 106.656C232.571 106.743 232.436 106.804 232.293 106.836Z" fill="#231F20"/>
<path d="M225.134 150.128C224.899 150.128 224.673 150.036 224.505 149.871C224.337 149.706 224.24 149.482 224.235 149.247C224.23 149.128 224.249 149.01 224.292 148.899C224.334 148.787 224.398 148.686 224.48 148.6C224.563 148.515 224.661 148.446 224.771 148.4C224.88 148.353 224.998 148.329 225.116 148.33L259.973 147.664C260.209 147.664 260.435 147.756 260.603 147.921C260.771 148.086 260.868 148.31 260.873 148.545C260.877 148.664 260.858 148.783 260.816 148.894C260.774 149.005 260.71 149.106 260.627 149.192C260.545 149.278 260.446 149.346 260.337 149.392C260.228 149.439 260.11 149.463 259.991 149.463L225.134 150.128Z" fill="#231F20"/>
<path d="M202.112 60.0189H148.37C147.998 60.031 147.628 59.9591 147.287 59.8087C146.946 59.6582 146.644 59.4329 146.402 59.1496C146.16 58.8663 145.985 58.5322 145.89 58.1721C145.795 57.8119 145.782 57.435 145.852 57.0692C145.999 56.2642 146.416 55.5333 147.034 54.997C147.652 54.4608 148.434 54.1512 149.252 54.1195H203.03C203.402 54.1074 203.772 54.1792 204.113 54.3297C204.454 54.4802 204.756 54.7054 204.998 54.9887C205.24 55.272 205.415 55.6061 205.51 55.9663C205.605 56.3264 205.618 56.7034 205.548 57.0692C205.4 57.88 204.978 58.6154 204.352 59.1523C203.727 59.6893 202.936 59.9952 202.112 60.0189Z" fill="#E6E7E8"/>
<path d="M130.924 18.0153C133.138 15.9616 133.503 12.7559 131.74 10.8552C129.977 8.95443 126.753 9.0784 124.539 11.1321C122.325 13.1857 121.96 16.3914 123.723 18.2922C125.486 20.1929 128.71 20.0689 130.924 18.0153Z" fill="#C026D3"/>
<path d="M148.386 18.0094C150.6 15.9557 150.965 12.75 149.202 10.8493C147.439 8.94857 144.215 9.07255 142.001 11.1262C139.787 13.1799 139.422 16.3856 141.185 18.2863C142.948 20.1871 146.172 20.0631 148.386 18.0094Z" fill="#E6E7E8"/>
<path d="M165.848 18.0211C168.062 15.9674 168.427 12.7618 166.664 10.861C164.901 8.96029 161.677 9.08426 159.463 11.1379C157.249 13.1916 156.883 16.3973 158.647 18.298C160.41 20.1988 163.634 20.0748 165.848 18.0211Z" fill="#E6E7E8"/>
<path d="M86.2467 370.277C86.2467 370.277 83.8366 382.076 87.5597 384.666C91.2828 387.256 123.388 376.411 122.452 372.741C121.517 369.072 103.405 367.22 103.405 367.22C103.405 367.22 89.0166 371.482 86.2467 370.277Z" fill="#231F20"/>
<path d="M89.6456 385.87C88.7423 385.948 87.8359 385.76 87.0376 385.33C82.9548 382.489 85.0951 371.283 85.3649 370.024C85.389 369.89 85.4437 369.764 85.5248 369.655C85.606 369.546 85.7113 369.457 85.8325 369.395C85.9502 369.338 86.0794 369.308 86.2102 369.308C86.3411 369.308 86.4703 369.338 86.5879 369.395C88.2966 370.132 97.2536 368.028 103.081 366.301C103.194 366.284 103.31 366.284 103.423 366.301C107.847 366.751 122.326 368.532 123.333 372.506C123.657 373.783 122.308 374.881 121.247 375.6C115.617 379.521 97.0738 385.87 89.6456 385.87ZM86.9477 371.265C86.1923 375.672 85.8685 382.327 88.0628 383.856C89.5556 384.899 99.8436 382.794 110.905 378.46C119.34 375.204 121.463 373.226 121.589 372.74C121.121 370.942 111.822 368.855 103.423 367.992C100.887 368.873 90.9586 371.697 86.9477 371.337V371.265Z" fill="#231F20"/>
<path d="M39.6634 370.276C39.6634 370.276 39.2857 383.928 40.7606 385.6C42.2354 387.273 75.2937 383.802 73.639 379.287C71.9842 374.773 58.7825 370.294 58.7825 370.294L39.6634 370.276Z" fill="#231F20"/>
<path d="M44.6087 386.931C43.0641 387.134 41.4939 386.878 40.0942 386.194C38.4934 384.395 38.6733 373.604 38.7632 370.24C38.7725 370.008 38.8714 369.788 39.039 369.627C39.2067 369.467 39.4301 369.377 39.6625 369.377H58.7816H59.0694C60.4543 369.863 72.7028 374.215 74.4654 378.928C74.7532 379.665 74.6992 380.726 72.9186 381.841C68.7818 384.377 52.6664 386.931 44.6087 386.931ZM40.5438 371.176C40.4179 377.309 40.7057 384.107 41.4431 385.007C43.2417 385.87 65.7242 383.802 71.7855 380.456C72.7207 379.935 72.7927 379.611 72.7927 379.611C71.5517 376.32 62.2889 372.417 58.6197 371.176H40.5438Z" fill="#231F20"/>
<path d="M38.1704 325.257L39.6632 370.222C39.6632 370.222 53.7642 375.779 58.7823 370.222L62.6853 320.742L38.1704 325.257Z" fill="white"/>
<path d="M51.5695 373.64C47.3811 373.471 43.249 372.615 39.339 371.104C39.1742 371.04 39.0317 370.93 38.9294 370.786C38.827 370.642 38.7693 370.471 38.7634 370.294L37.2706 325.329C37.2628 325.113 37.333 324.902 37.4684 324.733C37.6038 324.565 37.7954 324.451 38.008 324.412L62.5229 319.952C62.6569 319.932 62.7936 319.941 62.9239 319.978C63.0541 320.015 63.175 320.08 63.2783 320.167C63.3828 320.258 63.4637 320.372 63.5139 320.5C63.564 320.629 63.582 320.768 63.5661 320.905L59.6811 370.384C59.6607 370.579 59.5788 370.761 59.4473 370.906C58.3984 371.887 57.1553 372.637 55.7983 373.108C54.4414 373.579 53.0007 373.76 51.5695 373.64ZM40.5441 369.683C43.0801 370.6 53.7458 374.071 57.9005 369.935L61.6956 321.948L39.0872 326.067L40.5441 369.683Z" fill="#231F20"/>
<path d="M103.406 318.944V367.219C100.959 368.956 98.1582 370.131 95.2044 370.66C92.2505 371.188 89.2162 371.057 86.3188 370.276L75.7251 312.271L103.406 318.944Z" fill="white"/>
<path d="M91.5883 371.895C89.6985 371.893 87.8174 371.639 85.9947 371.139C85.8331 371.096 85.6875 371.007 85.5758 370.882C85.464 370.758 85.3909 370.603 85.3652 370.438L74.7535 312.433C74.725 312.285 74.7342 312.132 74.7803 311.989C74.8263 311.845 74.9077 311.716 75.0169 311.612C75.1262 311.508 75.2598 311.433 75.4054 311.394C75.5511 311.356 75.7042 311.354 75.8506 311.39L103.549 318.081C103.744 318.126 103.918 318.236 104.042 318.393C104.166 318.55 104.234 318.744 104.232 318.944V367.219C104.233 367.354 104.203 367.488 104.143 367.609C104.084 367.731 103.998 367.837 103.891 367.92C100.306 370.499 96.0039 371.889 91.5883 371.895ZM87.0199 369.539C89.643 370.155 92.3649 370.226 95.0165 369.746C97.6681 369.267 100.193 368.247 102.434 366.751V319.664L76.7859 313.458L87.0199 369.539Z" fill="#231F20"/>
<path d="M30.868 199.752L27.4507 332.506C27.4507 332.506 80.869 347.543 115.402 325.312L90.8153 212.756L30.868 199.752Z" fill="#231F20"/>
<path d="M66.642 338.298C53.3497 338.25 40.1119 336.595 27.2168 333.37C27.0252 333.309 26.8577 333.189 26.7382 333.028C26.6187 332.866 26.5533 332.671 26.5513 332.47L29.9686 199.734C29.9679 199.601 29.9985 199.47 30.0578 199.351C30.1172 199.233 30.2037 199.129 30.3103 199.05C30.4133 198.97 30.5324 198.912 30.6596 198.881C30.7868 198.85 30.9191 198.846 31.0478 198.871L91.031 211.874C91.1991 211.909 91.3534 211.993 91.4748 212.114C91.5962 212.236 91.6795 212.39 91.7145 212.558L116.283 325.078C116.322 325.256 116.305 325.441 116.234 325.608C116.163 325.776 116.042 325.917 115.888 326.013C101.103 335.51 82.7754 338.298 66.642 338.298ZM28.3679 331.805C34.627 333.424 82.6675 344.845 114.395 324.844L90.0777 213.511L31.7312 200.921L28.3679 331.805Z" fill="#231F20"/>
<path d="M95.5449 174.913C95.5449 174.913 104.736 141.657 109.178 138.491C113.621 135.326 122.272 131.423 122.272 135.883C122.272 140.344 115.869 176.028 105.833 174.895C95.7967 173.762 95.5449 174.913 95.5449 174.913Z" fill="white"/>
<path d="M106.319 175.812H105.744C98.3155 174.966 96.4989 175.434 96.1931 175.56C96.0834 175.679 95.9432 175.765 95.7878 175.809C95.6323 175.854 95.4677 175.855 95.3118 175.812C95.0866 175.748 94.8942 175.601 94.7738 175.401C94.6534 175.2 94.6143 174.961 94.6643 174.733C94.6643 174.733 94.6643 174.625 94.6643 174.571C95.7794 170.578 104.089 140.991 108.621 137.771C110.996 136.099 118.478 131.674 121.733 133.365C122.194 133.593 122.578 133.952 122.837 134.396C123.096 134.84 123.219 135.351 123.19 135.865C123.19 139.912 118.46 166.891 110.6 173.977C109.462 175.116 107.929 175.774 106.319 175.812ZM98.8011 173.491C101.206 173.531 103.608 173.699 105.995 173.995C106.619 174.031 107.243 173.93 107.824 173.701C108.405 173.471 108.929 173.117 109.359 172.664C116.805 165.955 121.391 139.462 121.391 135.865C121.391 135.145 121.104 135.001 120.96 134.93C119.161 134.03 113.604 136.458 109.719 139.21C106.769 141.315 100.582 160.326 96.8586 173.563C97.5044 173.506 98.1528 173.482 98.8011 173.491Z" fill="#231F20"/>
<path d="M143.712 167.071C142.885 167.071 107.021 161.513 107.021 161.513L127.291 109.479L166.86 113.472L143.712 167.071Z" fill="white"/>
<path d="M143.712 167.97C142.884 167.97 115.312 163.707 106.877 162.394C106.745 162.376 106.62 162.328 106.51 162.253C106.401 162.178 106.311 162.079 106.247 161.962C106.19 161.841 106.16 161.709 106.16 161.576C106.16 161.442 106.19 161.31 106.247 161.189L126.517 109.155C126.59 108.971 126.721 108.816 126.889 108.712C127.058 108.609 127.255 108.562 127.453 108.58L167.022 112.573C167.165 112.591 167.302 112.641 167.423 112.719C167.544 112.796 167.647 112.9 167.723 113.022C167.789 113.147 167.824 113.286 167.824 113.427C167.824 113.568 167.789 113.707 167.723 113.832L144.611 167.43C144.534 167.601 144.407 167.745 144.246 167.841C144.085 167.937 143.899 167.982 143.712 167.97ZM108.261 160.775C121.283 162.79 139.557 165.595 143.154 166.081L165.529 114.281L127.884 110.486L108.261 160.775Z" fill="#231F20"/>
<path d="M142.327 163.528H142.183L111.445 158.725C111.312 158.699 111.186 158.645 111.074 158.568C110.963 158.49 110.869 158.391 110.797 158.276C110.739 158.152 110.709 158.017 110.709 157.88C110.709 157.743 110.739 157.608 110.797 157.484L129.467 112.519C129.54 112.337 129.671 112.184 129.84 112.083C130.009 111.982 130.207 111.94 130.402 111.962L160.798 115.559C160.935 115.574 161.067 115.621 161.182 115.696C161.298 115.771 161.394 115.872 161.464 115.991C161.525 116.113 161.558 116.249 161.558 116.386C161.558 116.524 161.525 116.659 161.464 116.782L143.154 162.952C143.089 163.12 142.976 163.264 142.829 163.367C142.681 163.469 142.506 163.525 142.327 163.528ZM112.848 157.107L141.751 161.621L159.377 117.178L130.834 113.886L112.848 157.107Z" fill="#D1D3D4"/>
<path d="M28.3855 79.192C24.8829 78.6574 21.3079 78.8472 17.8817 79.7496C11.9643 81.1345 5.903 84.2281 3.49288 89.7857C1.47845 94.2822 2.21587 99.5341 3.49288 104.282C4.76988 109.031 6.73036 113.707 6.98216 118.671C7.23397 123.635 5.3994 129.049 1.02881 131.369C6.42432 130.559 11.6536 128.883 16.5147 126.405C19.3913 124.954 21.6186 122.477 22.7559 119.463C23.3016 116.893 23.2338 114.231 22.558 111.693C21.5833 107.92 21.2609 104.009 21.6048 100.128C22.1983 96.2787 24.5365 92.4297 28.2236 91.2426C31.4611 90.1994 40.8138 92.4297 40.508 86.836C40.2382 82.4295 31.7489 79.8035 28.3855 79.192Z" fill="white"/>
<path d="M1.01109 132.268C0.827471 132.263 0.649392 132.204 0.49906 132.099C0.348728 131.993 0.232796 131.845 0.165747 131.674C0.0935082 131.47 0.097394 131.247 0.176698 131.045C0.256001 130.844 0.40539 130.678 0.597407 130.577C4.968 128.257 6.28097 122.735 5.9932 118.725C5.65389 115.151 4.86839 111.635 3.65503 108.257C3.25934 107.016 2.88163 105.793 2.5399 104.66C0.741298 98.3105 0.741298 93.5082 2.5399 89.5333C5.57953 82.7166 13.3315 80.0007 17.6301 78.9935C21.1507 78.0677 24.8244 77.8779 28.4217 78.436C31.893 79.0475 41.0119 81.7993 41.2457 86.8714C41.3021 87.4287 41.2417 87.9917 41.0683 88.5244C40.8948 89.057 40.6122 89.5477 40.2385 89.965C38.5478 91.7636 35.1665 91.7636 32.1808 91.8715C30.9015 91.8308 29.6219 91.9394 28.3678 92.1952C24.6626 93.3823 22.8101 97.3212 22.3425 100.343C22.0201 103.963 22.312 107.612 23.2058 111.134V111.62C23.9228 114.301 23.9783 117.115 23.3677 119.822C22.1919 123.067 19.8167 125.739 16.7308 127.286C11.8531 129.773 6.6055 131.455 1.19095 132.268H1.01109ZM24.7346 79.8029C22.4975 79.8325 20.2709 80.1161 18.0978 80.6482C14.0869 81.5835 6.96445 84.0656 4.23058 90.1808C2.64782 93.778 2.68378 98.1666 4.33849 104.084C4.68023 105.289 5.05793 106.512 5.43564 107.681C6.69692 111.199 7.51264 114.86 7.86374 118.581C8.13612 122.569 6.93268 126.519 4.48238 129.678C8.51601 128.91 12.4095 127.533 16.0294 125.595C18.6962 124.237 20.7703 121.945 21.8568 119.156C22.3644 116.727 22.2905 114.213 21.641 111.818L21.5331 111.314C20.5927 107.585 20.3006 103.722 20.6698 99.8932C20.8787 97.7905 21.6598 95.7853 22.9281 94.0952C24.1965 92.4052 25.9036 91.0949 27.8642 90.3067C29.2907 89.9794 30.754 89.8403 32.2168 89.893C34.6988 89.893 37.8104 89.893 38.9795 88.5621C39.1888 88.3158 39.3449 88.0289 39.4378 87.7193C39.5306 87.4097 39.5583 87.0843 39.5191 86.7635C39.3212 83.1663 31.6232 80.6303 28.1519 80.0007C27.0217 79.8242 25.8783 79.7459 24.7346 79.7669V79.8029Z" fill="#231F20"/>
<path d="M32.3065 81.2957C30.7539 83.023 29.8233 85.2198 29.6626 87.5368C29.4458 89.0743 29.6769 90.6418 30.3281 92.0513C30.794 92.8674 31.4423 93.5648 32.2223 94.0889C33.0023 94.6131 33.8929 94.9499 34.8246 95.073C35.6513 95.2497 36.5143 95.1016 37.2347 94.6593C37.7889 94.2178 38.2119 93.6331 38.4577 92.9686C40.4542 88.4541 40.2024 73.3639 32.3065 81.2957Z" fill="#231F20"/>
<path d="M35.4902 96.0258H34.6629C33.5906 95.8779 32.5669 95.4845 31.6716 94.8762C30.7762 94.2678 30.0334 93.461 29.5009 92.5186C28.7478 90.9607 28.4844 89.2111 28.7455 87.5005C28.9197 84.9718 29.9543 82.5789 31.6772 80.7198C34.7528 77.6262 36.7852 77.932 37.9363 78.7233C41.1918 80.9716 40.8141 89.9466 39.2313 93.3999C38.9246 94.2086 38.4021 94.9178 37.7205 95.4503C37.0537 95.8664 36.2751 96.0673 35.4902 96.0258ZM36.1917 79.9464C34.9205 80.2223 33.7797 80.9195 32.9542 81.9248C31.5336 83.5026 30.6793 85.5088 30.5261 87.6264C30.3172 88.9832 30.5111 90.3716 31.0837 91.6193C31.4822 92.3131 32.035 92.906 32.6993 93.352C33.3636 93.7979 34.1216 94.0851 34.9147 94.1913C35.5271 94.3217 36.1661 94.2259 36.7133 93.9215C37.1182 93.566 37.4274 93.1145 37.6126 92.6085C38.9795 89.5869 39.1054 81.655 36.9291 80.1622C36.7146 80.0092 36.4548 79.9332 36.1917 79.9464Z" fill="#231F20"/>
<path d="M56.2458 118.994C54.4472 120.307 52.217 120.793 48.7817 119.642C46.0112 118.588 43.541 116.871 41.5873 114.642C37.7025 110.38 35.0838 105.119 34.0257 99.4506C32.9676 93.7821 33.5121 87.9307 35.5979 82.5547C39.9865 71.7631 53.5839 63.0039 64.8072 69.9645C66.6738 71.1529 68.2588 72.7341 69.4517 74.5979C70.6445 76.4617 71.4165 78.5633 71.7138 80.7561C72.594 80.665 73.4817 80.8305 74.27 81.2326C75.0582 81.6347 75.7134 82.2563 76.1563 83.0223C78.6024 86.8353 77.7391 90.1268 75.239 93.5081C71.1202 99.0298 66.4439 104.138 62.6488 109.857C60.2387 113.257 58.8178 117.052 56.2458 118.994Z" fill="white"/>
<path d="M52.3074 121.171C51.0084 121.144 49.7218 120.913 48.4944 120.487C45.5492 119.408 42.9212 117.609 40.8503 115.253C36.8273 110.879 34.1156 105.461 33.0247 99.6184C31.9339 93.7761 32.5078 87.7447 34.6811 82.213C36.0983 78.8123 38.2139 75.7471 40.8908 73.2157C43.5677 70.6844 46.7464 68.7435 50.221 67.5185C52.6815 66.6544 55.3055 66.3576 57.8968 66.6504C60.4881 66.9432 62.9797 67.8179 65.1853 69.2092C67.0459 70.3969 68.6439 71.9525 69.8811 73.7805C71.1184 75.6085 71.9686 77.6702 72.3797 79.8389C73.2801 79.9153 74.1498 80.2026 74.9184 80.6775C75.6871 81.1525 76.3332 81.8017 76.8043 82.5728C79.9518 87.4829 77.7575 91.5657 75.851 94.0658C73.9445 96.5658 72.2538 98.5983 70.5631 100.775C68.0631 103.868 65.4731 107.052 63.2249 110.397C62.4875 111.476 61.84 112.609 61.2104 113.724C60.1441 115.992 58.6334 118.023 56.7679 119.696C55.488 120.673 53.9174 121.192 52.3074 121.171ZM56.1204 68.3818C54.2882 68.3908 52.4682 68.682 50.7246 69.2451C47.5054 70.3887 44.5617 72.1944 42.0833 74.5458C39.605 76.8971 37.647 79.7419 36.3358 82.8965C34.3409 88.1156 33.8293 93.785 34.8578 99.2769C35.8864 104.769 38.4149 109.869 42.1633 114.012C44.0284 116.156 46.4037 117.795 49.0699 118.779C52.775 120.002 54.6276 119.084 55.7067 118.275C57.3601 116.747 58.7036 114.915 59.6637 112.879C60.3111 111.728 60.9766 110.559 61.75 109.426C64.0522 106.026 66.6602 102.789 69.1962 99.6774C70.9948 97.5191 72.7934 95.2888 74.4122 93.0406C77.0381 89.4434 77.3079 86.6915 75.3115 83.58C74.9522 82.9835 74.4335 82.4991 73.8139 82.1813C73.1943 81.8636 72.4983 81.7251 71.8042 81.7814C71.6841 81.8128 71.5583 81.8162 71.4367 81.7912C71.315 81.7663 71.2008 81.7137 71.1027 81.6375C70.9072 81.4888 70.7779 81.2691 70.743 81.026C70.4728 78.9524 69.7493 76.9638 68.6241 75.2013C67.4988 73.4388 65.9993 71.9457 64.2321 70.8279C61.8186 69.2519 59.0029 68.4028 56.1204 68.3818Z" fill="#231F20"/>
<path d="M71.0303 95.001C71.0303 95.001 76.9836 102.843 75.9584 104.623C74.9332 106.404 71.1562 105.505 71.1562 105.505" fill="white"/>
<path d="M73.0982 106.621C72.3537 106.619 71.6117 106.534 70.8859 106.369C70.6474 106.314 70.4405 106.167 70.3106 105.959C70.1807 105.752 70.1386 105.501 70.1935 105.263C70.2483 105.024 70.3957 104.817 70.6031 104.687C70.8106 104.558 71.0611 104.515 71.2996 104.57C72.5766 104.858 74.663 104.93 75.1306 104.121C75.5982 103.311 73.1162 99.2464 70.2564 95.4874C70.1179 95.2949 70.0592 95.0563 70.0927 94.8216C70.1263 94.5869 70.2494 94.3743 70.4363 94.2283C70.5298 94.1551 70.6372 94.1016 70.752 94.0709C70.8667 94.0402 70.9865 94.0331 71.1041 94.0499C71.2217 94.0667 71.3347 94.1071 71.4363 94.1687C71.5379 94.2302 71.626 94.3117 71.6953 94.4082C74.0515 97.5018 77.8285 103.023 76.6954 105.02C76.2877 105.577 75.7411 106.019 75.11 106.299C74.4789 106.58 73.7853 106.691 73.0982 106.621Z" fill="#231F20"/>
<path d="M65.6348 137.916C57.2713 136.729 45.0588 125.325 45.0228 125.02C44.6989 119.354 44.6629 113.675 44.9149 108.005C44.9149 108.005 50.8323 107.663 53.9079 100.415C56.9835 93.1666 64.1779 93.5443 69.1061 84.2275C72.7033 86.8175 72.1097 92.8248 72.3256 96.7098C72.6313 102.106 72.8112 107.609 72.8651 113.059C72.8651 116.512 63.9621 117.16 62.3254 116.225C63.1707 121.476 63.1707 121.476 65.6348 137.916Z" fill="white"/>
<path d="M65.6347 138.816C57.3432 137.646 44.3753 126.387 44.2494 125.128C43.9175 119.42 43.8815 113.699 44.1415 107.988C44.15 107.764 44.2413 107.552 44.3976 107.393C44.5538 107.233 44.7638 107.137 44.9868 107.124C45.2026 107.124 50.3826 106.693 53.1704 100.092C54.6438 96.9332 57.064 94.3119 60.095 92.5916C63.5839 90.4497 66.4493 87.4292 68.4045 83.8324C68.4618 83.7199 68.543 83.6214 68.6424 83.5437C68.7419 83.466 68.8571 83.4111 68.9801 83.3827C69.1063 83.3555 69.2368 83.3542 69.3636 83.379C69.4903 83.4037 69.6108 83.4539 69.7175 83.5266C73.0989 85.9547 73.1888 90.721 73.3147 94.606C73.3147 95.3434 73.3147 96.0449 73.3147 96.6924C73.6205 102.088 73.8003 107.646 73.8543 113.078C73.8346 113.698 73.6425 114.301 73.2994 114.819C72.9563 115.337 72.4758 115.749 71.9118 116.009C69.3011 117.263 66.3916 117.762 63.5124 117.448C64.1239 121.567 64.3397 122.844 66.6419 137.79C66.6701 137.93 66.6617 138.075 66.6176 138.21C66.5735 138.346 66.4951 138.467 66.3901 138.564C66.2946 138.665 66.1757 138.74 66.0439 138.784C65.9122 138.828 65.7716 138.839 65.6347 138.816ZM45.8501 124.679C47.1451 126.01 57.0014 134.949 64.5196 136.783C62.1634 121.675 62.1454 121.549 61.354 116.387C61.3355 116.218 61.3624 116.047 61.432 115.893C61.5015 115.738 61.6112 115.604 61.7497 115.506C61.8911 115.412 62.0568 115.362 62.2264 115.362C62.3959 115.362 62.5616 115.412 62.703 115.506C65.4527 116.045 68.303 115.686 70.8326 114.48C71.5341 114.067 71.8938 113.599 71.8938 113.114C71.8938 107.718 71.66 102.214 71.3542 96.8003C71.3542 96.1348 71.3542 95.4154 71.3542 94.6599C71.3542 91.5664 71.2463 87.8073 69.3398 85.667C67.2624 89.0761 64.4169 91.9525 61.0303 94.0664C58.2872 95.6043 56.088 97.9543 54.7352 100.793C54.0408 102.766 52.8615 104.534 51.3058 105.932C49.7502 107.331 47.8679 108.316 45.8321 108.797C45.8501 111.333 45.5264 119.858 45.958 124.679H45.8501Z" fill="#231F20"/>
<path d="M72.5057 109.031C71.9992 109.419 71.4152 109.693 70.7933 109.835C70.1713 109.977 69.5261 109.983 68.9016 109.854C68.277 109.724 67.6876 109.461 67.1736 109.083C66.6596 108.706 66.233 108.221 65.9229 107.664" fill="white"/>
<path d="M69.5377 110.866C69.2088 110.901 68.8773 110.901 68.5484 110.866C67.8276 110.689 67.1522 110.363 66.5664 109.907C65.9806 109.451 65.4976 108.877 65.1491 108.222C65.0302 108.014 64.9975 107.767 65.058 107.535C65.1185 107.303 65.2674 107.104 65.4728 106.981C65.6783 106.863 65.9219 106.831 66.1509 106.891C66.3799 106.952 66.5758 107.1 66.6959 107.305C66.9226 107.739 67.2358 108.123 67.6162 108.432C67.9967 108.742 68.4363 108.97 68.9082 109.103C69.9863 109.237 71.0767 108.982 71.9838 108.384C72.1805 108.249 72.422 108.196 72.657 108.236C72.892 108.277 73.1021 108.407 73.2428 108.6C73.3113 108.695 73.3602 108.803 73.3864 108.917C73.4127 109.031 73.4159 109.15 73.3958 109.265C73.3757 109.381 73.3327 109.491 73.2694 109.59C73.206 109.689 73.1236 109.774 73.027 109.841C71.982 110.501 70.7735 110.856 69.5377 110.866Z" fill="#231F20"/>
<path d="M62.361 116.243C61.0593 116.252 59.7697 115.993 58.5723 115.482C57.3749 114.972 56.2953 114.221 55.4004 113.275C55.4004 113.275 56.2278 121.603 63.4761 123.545L62.361 116.243Z" fill="#231F20"/>
<path d="M63.4768 124.443H63.243C55.4731 122.357 54.5378 113.76 54.5018 113.382C54.4805 113.185 54.5246 112.987 54.6273 112.818C54.73 112.649 54.8856 112.519 55.0699 112.447C55.2543 112.375 55.4571 112.366 55.6471 112.422C55.837 112.477 56.0034 112.593 56.1206 112.753C56.929 113.584 57.8969 114.243 58.9662 114.691C60.0355 115.139 61.1843 115.367 62.3437 115.36C62.5593 115.358 62.7687 115.432 62.9337 115.571C63.0988 115.71 63.2085 115.903 63.243 116.116L64.3761 123.436C64.3941 123.586 64.3757 123.737 64.3225 123.878C64.2692 124.019 64.1827 124.145 64.0704 124.246C63.9026 124.38 63.692 124.451 63.4768 124.443ZM56.876 115.72C57.2844 117.126 57.9838 118.431 58.9288 119.55C59.8739 120.668 61.0434 121.576 62.3617 122.213L61.5883 117.105C59.9352 116.994 58.3266 116.521 56.876 115.72Z" fill="#231F20"/>
<path d="M69.737 92.4679C69.744 91.3951 69.4033 90.5232 68.9762 90.5205C68.5491 90.5177 68.1972 91.3852 68.1903 92.4579C68.1834 93.5307 68.524 94.4026 68.9511 94.4054C69.3782 94.4081 69.7301 93.5407 69.737 92.4679Z" fill="#231F20"/>
<path d="M60.0588 98.4904C59.8033 97.1482 59.1807 95.903 58.2602 94.8932C57.6746 94.0061 56.9592 93.2119 56.1379 92.5371C55.7227 92.2073 55.2397 91.9735 54.7236 91.8522C54.2074 91.7309 53.6708 91.7253 53.1522 91.8356C52.705 91.9737 52.2925 92.2055 51.942 92.5157C51.5915 92.8258 51.3112 93.2071 51.1198 93.6342C50.7459 94.5016 50.5737 95.4425 50.6162 96.3861C50.6547 98.4396 51.2336 100.447 52.2945 102.206C53.3554 103.964 54.8609 105.412 56.6595 106.404L56.3357 106.098" fill="white"/>
<path d="M56.6411 107.286C56.4907 107.284 56.3428 107.247 56.2094 107.178C54.2716 106.11 52.6494 104.55 51.5064 102.655C50.3633 100.761 49.7398 98.5983 49.6985 96.386C49.6498 95.3108 49.853 94.2391 50.292 93.2565C50.5275 92.6904 50.8875 92.1847 51.3452 91.7768C51.8029 91.3689 52.3466 91.0693 52.936 90.9003C53.5854 90.7432 54.2623 90.7378 54.9141 90.8844C55.566 91.031 56.1754 91.3257 56.695 91.7456C57.5979 92.4627 58.3811 93.3187 59.0152 94.2817C60.0439 95.4331 60.7184 96.8571 60.9577 98.3825C60.9675 98.5006 60.9539 98.6196 60.9176 98.7325C60.8813 98.8453 60.823 98.9499 60.7461 99.0402C60.6692 99.1305 60.5752 99.2046 60.4695 99.2584C60.3638 99.3123 60.2486 99.3446 60.1304 99.3537C59.8938 99.3644 59.662 99.2849 59.4817 99.1313C59.3015 98.9778 59.1862 98.7616 59.1591 98.5263C58.9362 97.3392 58.3883 96.2372 57.5763 95.3428C57.0405 94.5355 56.3856 93.8139 55.6339 93.2025C55.331 92.9483 54.9753 92.7647 54.5926 92.6652C54.21 92.5656 53.8099 92.5525 53.4216 92.6269C53.0974 92.7364 52.8 92.9132 52.549 93.1457C52.2979 93.3782 52.0988 93.6611 51.9647 93.9759C51.6495 94.7133 51.508 95.5133 51.551 96.3141C51.5827 98.0718 52.0434 99.7951 52.8928 101.334C53.7423 102.873 54.9549 104.182 56.4252 105.145C56.5302 105.148 56.6336 105.172 56.7293 105.215C56.8251 105.258 56.9112 105.32 56.9828 105.397L57.3066 105.703C57.465 105.85 57.5636 106.051 57.5835 106.267C57.6034 106.482 57.5432 106.698 57.4145 106.872C57.3316 107.001 57.217 107.107 57.0816 107.179C56.9462 107.252 56.7946 107.288 56.6411 107.286Z" fill="#231F20"/>
<path d="M75.6529 125.865C75.6529 125.865 46.7674 114.192 37.7384 124.372C28.7095 134.553 22.3964 173.978 26.2094 225.094C58.2604 235.346 96.6605 213.403 96.6605 213.403C96.6605 213.403 89.6819 132.142 75.6529 125.865Z" fill="#C026D3"/>
<path d="M136.158 159.248C136.158 159.248 145.151 139.463 146.787 141.459C148.424 143.456 145.385 152.593 145.385 152.593C145.385 152.593 154.377 140.344 156.176 141.316C157.975 142.287 156.734 151.963 152.273 159.302C147.813 166.64 142.255 174.949 142.255 174.949L136.158 159.248Z" fill="white"/>
<path d="M142.327 175.794C142.16 175.778 142 175.716 141.867 175.614C141.733 175.513 141.631 175.376 141.571 175.219L135.42 159.571C135.371 159.461 135.346 159.341 135.346 159.22C135.346 159.099 135.371 158.98 135.42 158.87C138.478 152.125 143.963 140.776 146.374 140.434C146.589 140.4 146.81 140.422 147.014 140.497C147.219 140.573 147.401 140.7 147.543 140.866C148.64 142.161 148.262 145.38 147.543 148.24C152.129 142.376 155.187 139.768 156.644 140.524C156.928 140.684 157.175 140.904 157.367 141.167C157.559 141.431 157.693 141.733 157.759 142.053C158.694 145.29 156.895 153.528 153.118 159.715C148.712 166.909 143.136 175.309 143.082 175.399C142.997 175.52 142.884 175.619 142.752 175.688C142.621 175.756 142.475 175.793 142.327 175.794ZM137.147 159.247L142.543 172.935C144.341 170.219 148.298 164.157 151.536 158.762C156.05 151.351 156.752 142.88 155.78 142.107C154.719 142.269 149.845 147.916 146.068 153.114C145.939 153.288 145.752 153.41 145.542 153.459C145.331 153.509 145.11 153.482 144.917 153.384C144.725 153.284 144.575 153.117 144.496 152.916C144.417 152.714 144.413 152.491 144.485 152.287C145.744 148.51 146.643 143.977 146.284 142.43C144.647 144.031 140.456 152.053 137.147 159.247Z" fill="#231F20"/>
<path d="M63.4765 141.261C63.4765 141.261 82.7035 198.079 102.758 196.406C122.812 194.733 146.572 173.941 146.572 173.941L135.007 156.495C135.007 156.495 105.761 174.895 99.916 167.826C92.388 157.37 86.302 145.949 81.8221 133.869C77.8832 123.275 60.7246 123.077 63.4765 141.261Z" fill="#C026D3"/>
<path d="M105.563 150.813C106.911 147.953 108.695 145.32 110.851 143.007C113.639 140.507 122.002 135.668 120.887 140.039C119.772 144.41 113.279 148.582 113.279 148.582C113.279 148.582 111.822 151.37 109.25 155.273" fill="white"/>
<path d="M109.25 156.172C109.073 156.168 108.899 156.118 108.747 156.028C108.548 155.893 108.411 155.685 108.364 155.45C108.317 155.214 108.364 154.97 108.495 154.769C109.93 152.637 111.257 150.434 112.47 148.168C112.543 148.026 112.655 147.907 112.793 147.826C112.793 147.826 118.999 143.797 119.988 139.822C120.05 139.611 120.05 139.386 119.988 139.175C119.125 138.689 113.963 141.369 111.391 143.689C109.327 145.919 107.611 148.448 106.301 151.189C106.185 151.377 106.004 151.515 105.793 151.578C105.582 151.641 105.355 151.625 105.155 151.532C104.956 151.438 104.797 151.275 104.71 151.073C104.622 150.871 104.613 150.643 104.682 150.434C106.072 147.459 107.93 144.727 110.186 142.34C111.696 140.991 118.477 136.189 120.977 137.682C121.427 137.952 122.11 138.635 121.697 140.254C120.617 144.517 115.06 148.438 113.909 149.247C113.513 149.966 112.11 152.466 109.952 155.794C109.871 155.906 109.766 155.997 109.644 156.063C109.523 156.128 109.388 156.165 109.25 156.172Z" fill="#231F20"/>
<path d="M103.136 195.974C98.943 196.007 94.8225 194.88 91.2294 192.719C78.7291 185.201 61.4446 146.441 60.6532 144.786C60.5619 144.566 60.5596 144.32 60.6468 144.098C60.7341 143.877 60.9041 143.698 61.1208 143.599C61.2294 143.552 61.3464 143.526 61.4649 143.524C61.5835 143.521 61.7013 143.543 61.8117 143.586C61.922 143.629 62.0226 143.694 62.1078 143.777C62.193 143.859 62.261 143.958 62.3079 144.067C62.4878 144.462 80.0961 183.96 92.0927 191.172C104.377 198.546 119.072 190.956 131.878 182.575C131.975 182.508 132.085 182.461 132.201 182.438C132.316 182.414 132.436 182.414 132.552 182.438C132.667 182.461 132.777 182.508 132.875 182.575C132.972 182.641 133.055 182.727 133.119 182.827C133.249 183.025 133.295 183.266 133.248 183.499C133.201 183.731 133.064 183.936 132.867 184.068C123.532 190.237 113.1 195.974 103.136 195.974Z" fill="#231F20"/>
<path d="M138.981 108.221L136.158 114.911L153.712 116.872L157.111 109.552L138.981 108.221Z" fill="#231F20"/>
<path d="M153.766 117.772H153.676L136.122 115.793C135.981 115.784 135.845 115.74 135.725 115.664C135.606 115.589 135.507 115.485 135.438 115.362C135.376 115.236 135.344 115.097 135.344 114.957C135.344 114.817 135.376 114.678 135.438 114.552L138.262 107.879C138.331 107.702 138.457 107.551 138.619 107.451C138.781 107.35 138.971 107.305 139.161 107.322L157.291 108.653C157.435 108.662 157.573 108.706 157.696 108.782C157.818 108.857 157.92 108.961 157.993 109.084C158.059 109.215 158.094 109.36 158.094 109.507C158.094 109.654 158.059 109.799 157.993 109.93L154.593 117.25C154.522 117.409 154.406 117.543 154.259 117.636C154.111 117.729 153.94 117.776 153.766 117.772ZM137.579 114.175L153.298 115.973L155.87 110.397L139.683 109.228L137.579 114.175Z" fill="#231F20"/>
</svg>
