<svg width="471" height="390" viewBox="0 0 471 390" fill="none" xmlns="http://www.w3.org/2000/svg">
<path d="M298.692 141.607L301.909 201.06L217.46 205.202L164.597 202.127C164.597 202.127 174.498 143.562 180.008 139.064C185.518 134.566 298.692 141.607 298.692 141.607Z" fill="#231F20"/>
<path d="M217.495 206.109L164.544 203.033C164.42 203.028 164.3 202.997 164.189 202.942C164.079 202.887 163.982 202.809 163.904 202.713C163.826 202.614 163.769 202.499 163.735 202.377C163.701 202.255 163.692 202.128 163.708 202.002C164.739 195.975 173.84 142.958 179.457 138.389C185.074 133.819 287.138 140.007 298.745 140.735C298.964 140.744 299.171 140.835 299.326 140.99C299.481 141.145 299.572 141.352 299.58 141.571L302.798 201.042C302.804 201.159 302.787 201.276 302.747 201.386C302.707 201.496 302.646 201.596 302.567 201.682C302.49 201.772 302.394 201.843 302.287 201.893C302.179 201.942 302.063 201.967 301.944 201.967L217.495 206.109ZM165.628 201.327L217.513 204.331L300.896 200.278L297.785 142.496C252.423 139.687 184.345 136.682 180.47 139.793C176.595 142.905 169.627 177.894 165.628 201.327Z" fill="#231F20"/>
<path d="M52.3483 168.915C172.002 201.664 298.255 201.664 417.909 168.915L469.368 357.018C316.025 398.977 154.232 398.977 0.889648 357.018L52.3483 168.915Z" fill="white"/>
<path d="M235.128 389.358C155.919 389.364 77.0643 378.78 0.658364 357.889C0.544893 357.859 0.438962 357.805 0.347201 357.732C0.25544 357.658 0.179836 357.567 0.125122 357.463C0.0626175 357.363 0.022327 357.251 0.0069896 357.134C-0.00834781 357.018 0.00162316 356.899 0.0362412 356.787L51.4771 168.684C51.5434 168.457 51.6957 168.265 51.9016 168.149C52.1075 168.033 52.3506 168.001 52.5792 168.062C172.086 200.74 298.171 200.74 417.678 168.062C417.906 168.001 418.149 168.033 418.355 168.149C418.561 168.265 418.713 168.457 418.78 168.684L470.221 356.734C470.255 356.846 470.265 356.964 470.25 357.081C470.234 357.198 470.194 357.31 470.132 357.409C470.077 357.513 470.001 357.605 469.91 357.678C469.818 357.752 469.712 357.805 469.598 357.836C393.195 378.745 314.34 389.346 235.128 389.358ZM1.99149 356.396C154.636 397.981 315.621 397.981 468.265 356.396L417.287 170.053C297.992 202.513 172.194 202.513 52.8991 170.053L1.99149 356.396Z" fill="#231F20"/>
<path d="M111.983 158.141C111.326 158.143 110.681 157.962 110.12 157.62C109.56 157.277 109.105 156.785 108.806 156.2C108.508 155.614 108.378 154.957 108.43 154.301C108.483 153.646 108.716 153.018 109.104 152.488C122.097 134.708 136.193 113.036 136.708 108.395C135.286 105.124 121.902 94.8122 110.046 87.0605C109.596 86.8364 109.199 86.5195 108.88 86.1308C108.562 85.742 108.33 85.2901 108.199 84.8049C108.068 84.3197 108.041 83.8123 108.12 83.316C108.2 82.8198 108.383 82.346 108.659 81.9259C108.935 81.5058 109.297 81.149 109.72 80.8789C110.144 80.6088 110.62 80.4316 111.117 80.359C111.614 80.2865 112.121 80.3201 112.605 80.4578C113.088 80.5955 113.536 80.8341 113.921 81.1578C139.072 97.5679 143.107 104.608 143.676 106.884C145.276 113.338 128.887 137.553 114.845 156.666C114.518 157.119 114.088 157.49 113.591 157.746C113.093 158.002 112.543 158.138 111.983 158.141Z" fill="#231F20"/>
<path d="M94.7769 161.288C94.7769 168.338 100.491 174.053 107.539 174.053C114.588 174.053 120.302 168.338 120.302 161.288L120.302 88.945C120.302 81.8948 114.588 76.1796 107.539 76.1796C100.491 76.1796 94.7769 81.8948 94.7769 88.945L94.7769 161.288Z" fill="#231F20"/>
<path d="M107.522 174.942C103.901 174.933 100.432 173.489 97.8731 170.927C95.3145 168.364 93.8753 164.892 93.8706 161.27V88.945C93.9982 85.4066 95.4933 82.0557 98.0411 79.5976C100.589 77.1395 103.991 75.7659 107.531 75.7659C111.071 75.7659 114.472 77.1395 117.02 79.5976C119.568 82.0557 121.063 85.4066 121.191 88.945V161.27C121.186 164.895 119.744 168.37 117.182 170.933C114.62 173.496 111.146 174.938 107.522 174.942ZM107.522 77.1575C104.374 77.1622 101.357 78.415 99.131 80.6412C96.9053 82.8675 95.6528 85.8856 95.6481 89.0339V161.359C95.5862 162.959 95.8478 164.554 96.4171 166.05C96.9864 167.546 97.8517 168.912 98.9612 170.065C100.071 171.219 101.402 172.137 102.874 172.763C104.347 173.39 105.93 173.713 107.531 173.713C109.131 173.713 110.715 173.39 112.187 172.763C113.66 172.137 114.991 171.219 116.1 170.065C117.21 168.912 118.075 167.546 118.644 166.05C119.214 164.554 119.475 162.959 119.413 161.359V88.945C119.409 85.7936 118.154 82.7728 115.924 80.5461C113.694 78.3193 110.673 77.0686 107.522 77.0686V77.1575Z" fill="#231F20"/>
<path d="M358.274 158.141C357.716 158.14 357.166 158.007 356.669 157.754C356.172 157.501 355.741 157.134 355.412 156.683C341.37 137.5 324.981 113.285 326.581 106.902C327.15 104.626 331.184 97.5857 356.336 81.1756C356.727 80.9199 357.165 80.7438 357.624 80.6573C358.083 80.5707 358.554 80.5755 359.011 80.6712C359.469 80.767 359.903 80.9519 360.288 81.2153C360.674 81.4788 361.004 81.8157 361.26 82.2068C361.515 82.5979 361.691 83.0355 361.778 83.4946C361.864 83.9537 361.86 84.4254 361.764 84.8828C361.668 85.3401 361.483 85.774 361.22 86.1599C360.957 86.5457 360.62 86.8759 360.229 87.1316C348.373 94.8655 335.042 105.142 333.566 108.466C334.1 113.125 348.177 134.815 361.171 152.559C361.559 153.089 361.792 153.717 361.844 154.373C361.897 155.028 361.767 155.685 361.468 156.271C361.17 156.856 360.715 157.348 360.154 157.691C359.593 158.034 358.949 158.214 358.291 158.212L358.274 158.141Z" fill="#231F20"/>
<path d="M375.48 88.9451C375.48 81.8949 369.766 76.1797 362.718 76.1797C355.669 76.1797 349.955 81.8949 349.955 88.9451V161.288C349.955 168.338 355.669 174.054 362.718 174.054C369.766 174.054 375.48 168.338 375.48 161.288V88.9451Z" fill="#231F20"/>
<path d="M362.735 174.942C359.111 174.938 355.637 173.496 353.075 170.933C350.512 168.37 349.071 164.895 349.066 161.27V88.945C349.194 85.4066 350.689 82.0557 353.236 79.5976C355.784 77.1395 359.186 75.7659 362.726 75.7659C366.266 75.7659 369.668 77.1395 372.216 79.5976C374.763 82.0557 376.258 85.4066 376.386 88.945V161.27C376.381 164.892 374.942 168.364 372.384 170.927C369.825 173.489 366.356 174.933 362.735 174.942ZM362.735 77.1575C359.584 77.1575 356.562 78.4082 354.333 80.6349C352.103 82.8617 350.848 85.8825 350.843 89.0339V161.359C350.782 162.959 351.043 164.554 351.612 166.05C352.182 167.546 353.047 168.912 354.156 170.065C355.266 171.219 356.597 172.137 358.069 172.763C359.542 173.39 361.126 173.713 362.726 173.713C364.326 173.713 365.91 173.39 367.383 172.763C368.855 172.137 370.186 171.219 371.296 170.065C372.405 168.912 373.27 167.546 373.84 166.05C374.409 164.554 374.67 162.959 374.609 161.359V88.945C374.604 85.7967 373.351 82.7786 371.126 80.5523C368.9 78.3261 365.883 77.0733 362.735 77.0686V77.1575Z" fill="#231F20"/>
<path d="M153.577 1.40063H316.68C330.296 1.40063 340.943 11.6947 339.61 23.5889L328.838 120.272H141.419L130.647 23.6423C129.314 11.6947 139.961 1.40063 153.577 1.40063Z" fill="#231F20"/>
<path d="M328.838 121.107H141.418C141.2 121.109 140.989 121.03 140.825 120.886C140.661 120.741 140.556 120.542 140.53 120.325L129.758 23.6956C129.468 20.958 129.767 18.19 130.635 15.5775C131.503 12.9649 132.919 10.5681 134.788 8.54783C137.179 5.96173 140.088 3.90923 143.325 2.52446C146.563 1.13969 150.056 0.453827 153.577 0.511679H316.68C320.201 0.453827 323.694 1.13969 326.931 2.52446C330.169 3.90923 333.078 5.96173 335.468 8.54783C337.338 10.5681 338.754 12.9649 339.621 15.5775C340.489 18.19 340.788 20.958 340.498 23.6956L329.727 120.272C329.713 120.498 329.614 120.711 329.448 120.866C329.283 121.021 329.065 121.108 328.838 121.107ZM142.201 119.329H328.056L338.721 23.5C338.98 21.0119 338.705 18.4971 337.914 16.1239C337.124 13.7507 335.835 11.5739 334.135 9.73903C331.91 7.33886 329.203 5.4349 326.193 4.15132C323.182 2.86774 319.934 2.23337 316.662 2.28959H153.577C150.304 2.23337 147.057 2.86774 144.046 4.15132C141.036 5.4349 138.329 7.33886 136.104 9.73903C134.404 11.5739 133.115 13.7507 132.324 16.1239C131.533 18.4971 131.258 21.0119 131.518 23.5L142.201 119.329Z" fill="#231F20"/>
<path d="M157.293 359.721L355.95 341.917L344.334 212.241L145.676 230.044L157.293 359.721Z" fill="white"/>
<path d="M157.31 360.574C157.087 360.579 156.872 360.499 156.706 360.351C156.541 360.202 156.439 359.996 156.421 359.774L144.814 230.093C144.794 229.857 144.864 229.622 145.009 229.435C145.163 229.255 145.379 229.141 145.614 229.115L344.267 211.336C344.384 211.324 344.502 211.335 344.615 211.369C344.727 211.402 344.832 211.458 344.923 211.532C345.014 211.607 345.089 211.699 345.144 211.802C345.199 211.906 345.234 212.019 345.245 212.136L356.852 341.817C356.862 341.935 356.848 342.055 356.812 342.168C356.775 342.281 356.716 342.385 356.639 342.475C356.564 342.565 356.472 342.638 356.368 342.69C356.264 342.742 356.15 342.772 356.034 342.777L157.381 360.556L157.31 360.574ZM146.645 230.787L158.092 358.796L354.985 341.159L343.556 213.185L146.645 230.787Z" fill="#D1D3D4"/>
<path d="M327.772 18.3443H142.485C142.249 18.3443 142.023 18.2507 141.856 18.0839C141.69 17.9172 141.596 17.6911 141.596 17.4554C141.596 17.2196 141.69 16.9935 141.856 16.8268C142.023 16.6601 142.249 16.5664 142.485 16.5664H327.772C328.007 16.5664 328.233 16.6601 328.4 16.8268C328.567 16.9935 328.66 17.2196 328.66 17.4554C328.66 17.6911 328.567 17.9172 328.4 18.0839C328.233 18.2507 328.007 18.3443 327.772 18.3443Z" fill="white"/>
<path d="M121.137 326.687H316.769V205.203L121.137 205.203L121.137 326.687Z" fill="white"/>
<path d="M316.787 327.576H121.155C120.92 327.576 120.694 327.482 120.527 327.315C120.36 327.149 120.267 326.923 120.267 326.687V205.22C120.267 204.984 120.36 204.758 120.527 204.591C120.694 204.425 120.92 204.331 121.155 204.331H316.787C317.023 204.331 317.249 204.425 317.415 204.591C317.582 204.758 317.676 204.984 317.676 205.22V326.687C317.676 326.923 317.582 327.149 317.415 327.315C317.249 327.482 317.023 327.576 316.787 327.576ZM122.044 325.798H315.898V206.109H122.044V325.798Z" fill="#231F20"/>
<path d="M281.273 278.719H304.327V255.66H281.273V278.719Z" fill="white"/>
<path d="M304.326 279.59H281.343C281.108 279.59 280.882 279.497 280.715 279.33C280.548 279.163 280.455 278.937 280.455 278.701V255.589C280.455 255.353 280.548 255.127 280.715 254.96C280.882 254.793 281.108 254.7 281.343 254.7H304.451C304.687 254.7 304.913 254.793 305.079 254.96C305.246 255.127 305.34 255.353 305.34 255.589V278.701C305.341 278.829 305.314 278.956 305.262 279.073C305.21 279.19 305.133 279.294 305.037 279.379C304.941 279.463 304.827 279.526 304.705 279.562C304.582 279.599 304.453 279.608 304.326 279.59ZM282.161 277.813H303.491V256.478H282.161V277.813Z" fill="#D1D3D4"/>
<path d="M243.589 298.312H266.644V255.659H243.589V298.312Z" fill="white"/>
<path d="M266.661 299.2H243.554C243.318 299.2 243.092 299.107 242.925 298.94C242.759 298.773 242.665 298.547 242.665 298.311V255.641C242.665 255.406 242.759 255.18 242.925 255.013C243.092 254.846 243.318 254.752 243.554 254.752H266.661C266.896 254.757 267.119 254.852 267.285 255.018C267.45 255.184 267.545 255.407 267.55 255.641V298.311C267.545 298.546 267.45 298.769 267.285 298.935C267.119 299.1 266.896 299.196 266.661 299.2ZM244.496 297.422H265.826V256.53H244.496V297.422Z" fill="#D1D3D4"/>
<path d="M205.924 315.219H228.978V255.659H205.924V315.219Z" fill="#D946EF"/>
<path d="M188.078 303.609H141.116C140.881 303.609 140.655 303.516 140.488 303.349C140.321 303.182 140.228 302.956 140.228 302.72C140.228 302.485 140.321 302.259 140.488 302.092C140.655 301.925 140.881 301.832 141.116 301.832H188.078C188.312 301.836 188.536 301.931 188.701 302.097C188.867 302.263 188.962 302.486 188.967 302.72C188.967 302.837 188.944 302.953 188.899 303.061C188.854 303.169 188.789 303.267 188.706 303.349C188.624 303.432 188.526 303.497 188.418 303.542C188.31 303.586 188.195 303.609 188.078 303.609Z" fill="#D1D3D4"/>
<path d="M188.078 290.737H141.116C140.881 290.737 140.655 290.644 140.488 290.477C140.321 290.31 140.228 290.084 140.228 289.848C140.228 289.613 140.321 289.387 140.488 289.22C140.655 289.053 140.881 288.959 141.116 288.959H188.078C188.312 288.964 188.536 289.059 188.701 289.225C188.867 289.391 188.962 289.614 188.967 289.848C188.967 289.965 188.944 290.081 188.899 290.189C188.854 290.296 188.789 290.394 188.706 290.477C188.624 290.56 188.526 290.625 188.418 290.67C188.31 290.714 188.195 290.737 188.078 290.737Z" fill="#D1D3D4"/>
<path d="M188.078 277.865H153.221C152.986 277.865 152.76 277.772 152.593 277.605C152.426 277.438 152.333 277.212 152.333 276.976C152.333 276.741 152.426 276.514 152.593 276.348C152.76 276.181 152.986 276.087 153.221 276.087H188.078C188.314 276.087 188.54 276.181 188.707 276.348C188.873 276.514 188.967 276.741 188.967 276.976C188.967 277.212 188.873 277.438 188.707 277.605C188.54 277.772 188.314 277.865 188.078 277.865Z" fill="#D1D3D4"/>
<path d="M302.673 236.458H208.466C208.23 236.458 208.004 236.364 207.837 236.198C207.671 236.031 207.577 235.805 207.577 235.569C207.577 235.333 207.671 235.107 207.837 234.941C208.004 234.774 208.23 234.68 208.466 234.68H302.673C302.909 234.68 303.135 234.774 303.302 234.941C303.468 235.107 303.562 235.333 303.562 235.569C303.562 235.805 303.468 236.031 303.302 236.198C303.135 236.364 302.909 236.458 302.673 236.458Z" fill="#D1D3D4"/>
<path d="M302.673 223.977H225.405C225.17 223.977 224.944 223.883 224.777 223.717C224.61 223.55 224.517 223.324 224.517 223.088C224.517 222.852 224.61 222.626 224.777 222.46C224.944 222.293 225.17 222.199 225.405 222.199H302.673C302.909 222.199 303.135 222.293 303.302 222.46C303.468 222.626 303.562 222.852 303.562 223.088C303.562 223.324 303.468 223.55 303.302 223.717C303.135 223.883 302.909 223.977 302.673 223.977Z" fill="#D1D3D4"/>
<path d="M138.646 261.687H169.841V216.99H138.646V261.687Z" fill="#D1D3D4"/>
<path d="M195.069 244.55L189.162 247.443L178.367 225.392C178.006 224.655 177.953 223.805 178.219 223.029C178.484 222.253 179.048 221.614 179.784 221.253L180.12 221.089C180.856 220.728 181.706 220.675 182.482 220.941C183.258 221.207 183.897 221.77 184.257 222.507L195.053 244.558L195.069 244.55Z" fill="white"/>
<path d="M189.18 248.37C189.013 248.373 188.849 248.327 188.707 248.239C188.565 248.15 188.452 248.023 188.38 247.872L177.573 225.826C177.342 225.354 177.208 224.84 177.177 224.315C177.147 223.79 177.221 223.264 177.395 222.768C177.561 222.274 177.824 221.817 178.169 221.426C178.514 221.036 178.934 220.718 179.404 220.492L179.742 220.315C180.686 219.85 181.775 219.776 182.773 220.109C183.771 220.441 184.598 221.154 185.074 222.093L195.881 244.156C195.93 244.263 195.954 244.378 195.954 244.494C195.954 244.611 195.93 244.726 195.881 244.832C195.806 245.055 195.646 245.24 195.437 245.348L189.571 248.281C189.451 248.344 189.316 248.375 189.18 248.37ZM181.501 221.701C181.162 221.7 180.827 221.779 180.524 221.933L180.186 222.093C179.924 222.221 179.69 222.4 179.498 222.62C179.306 222.84 179.159 223.096 179.066 223.373C178.966 223.661 178.923 223.967 178.941 224.272C178.96 224.578 179.038 224.876 179.173 225.151L189.589 246.397L193.891 244.299L183.492 222.964C183.323 222.572 183.046 222.237 182.694 221.998C182.341 221.759 181.927 221.625 181.501 221.613V221.701Z" fill="#231F20"/>
<path d="M197.024 268.082L206.554 263.414L195.993 241.842L186.463 246.51L197.024 268.082Z" fill="white"/>
<path d="M197.019 268.976H196.735C196.51 268.893 196.326 268.727 196.219 268.513L185.661 246.947C185.609 246.842 185.579 246.728 185.572 246.611C185.564 246.495 185.58 246.378 185.618 246.267C185.656 246.156 185.715 246.054 185.793 245.967C185.87 245.879 185.964 245.807 186.07 245.756L195.597 241.08C195.703 241.032 195.818 241.007 195.935 241.007C196.051 241.007 196.166 241.032 196.273 241.08C196.384 241.115 196.488 241.172 196.576 241.249C196.665 241.325 196.737 241.419 196.788 241.525L207.346 263.109C207.446 263.321 207.459 263.565 207.382 263.787C207.306 264.009 207.147 264.193 206.938 264.3L197.41 268.958C197.282 268.988 197.149 268.994 197.019 268.976ZM187.652 246.93L197.428 266.896L205.356 263.02L195.579 243.036L187.652 246.93Z" fill="#231F20"/>
<path d="M182.5 229.903L185.293 228.535C187.154 227.623 187.923 225.376 187.012 223.516L171.941 192.73C171.03 190.87 168.783 190.1 166.923 191.011L164.129 192.379C162.269 193.29 161.499 195.538 162.41 197.398L177.482 228.184C178.393 230.044 180.639 230.814 182.5 229.903Z" fill="white"/>
<path d="M180.861 231.195C180.346 231.195 179.835 231.105 179.351 230.929C178.772 230.735 178.238 230.428 177.78 230.025C177.322 229.622 176.95 229.131 176.684 228.582L161.611 197.806C161.076 196.7 161.001 195.427 161.4 194.264C161.8 193.102 162.642 192.145 163.744 191.601L166.535 190.232C167.638 189.691 168.911 189.61 170.074 190.007C171.237 190.404 172.195 191.246 172.738 192.348L187.811 223.142C188.347 224.246 188.426 225.517 188.03 226.679C187.634 227.841 186.795 228.8 185.696 229.346L182.888 230.715C182.259 231.031 181.565 231.195 180.861 231.195ZM168.579 191.53C168.14 191.526 167.707 191.63 167.317 191.833L164.526 193.202C164.188 193.365 163.885 193.594 163.635 193.874C163.385 194.155 163.192 194.482 163.069 194.837C162.83 195.557 162.881 196.341 163.211 197.024L178.249 227.8C178.412 228.138 178.641 228.441 178.921 228.691C179.202 228.941 179.529 229.134 179.884 229.258C180.239 229.381 180.616 229.431 180.991 229.407C181.367 229.383 181.734 229.283 182.07 229.115L184.879 227.746C185.556 227.41 186.073 226.819 186.316 226.103C186.559 225.387 186.509 224.603 186.176 223.924L171.139 193.166C170.912 192.678 170.55 192.265 170.097 191.975C169.644 191.685 169.117 191.531 168.579 191.53Z" fill="#231F20"/>
<path d="M204.484 299.449C220.044 299.449 232.658 286.832 232.658 271.269C232.658 255.706 220.044 243.089 204.484 243.089C188.925 243.089 176.311 255.706 176.311 271.269C176.311 286.832 188.925 299.449 204.484 299.449Z" fill="white"/>
<path d="M204.502 300.356C201.291 300.348 198.102 299.814 195.064 298.774C191.448 297.543 188.112 295.609 185.247 293.082C182.382 290.556 180.046 287.487 178.373 284.053C175.84 278.886 174.896 273.084 175.662 267.381C176.428 261.678 178.869 256.33 182.676 252.016C186.483 247.702 191.485 244.615 197.047 243.146C202.61 241.677 208.483 241.893 213.923 243.765C217.539 244.991 220.875 246.924 223.738 249.451C226.6 251.978 228.931 255.05 230.596 258.486C232.763 262.917 233.769 267.827 233.517 272.754C233.265 277.68 231.765 282.462 229.158 286.649C226.55 290.836 222.92 294.291 218.611 296.689C214.301 299.086 209.452 300.349 204.52 300.356H204.502ZM180.026 283.27C182.406 288.116 186.168 292.147 190.838 294.853C195.509 297.559 200.876 298.819 206.262 298.474C211.649 298.128 216.811 296.192 221.098 292.912C225.384 289.631 228.601 285.152 230.342 280.042C232.083 274.932 232.27 269.421 230.879 264.205C229.488 258.988 226.581 254.302 222.527 250.739C218.472 247.175 213.453 244.894 208.102 244.185C202.752 243.475 197.311 244.369 192.469 246.752C189.237 248.314 186.348 250.502 183.97 253.19C181.591 255.877 179.77 259.011 178.612 262.409C177.455 265.806 176.984 269.4 177.226 272.982C177.469 276.563 178.421 280.06 180.026 283.27Z" fill="#231F20"/>
<path d="M204.485 294.169C217.129 294.169 227.379 283.917 227.379 271.27C227.379 258.623 217.129 248.37 204.485 248.37C191.84 248.37 181.59 258.623 181.59 271.27C181.59 283.917 191.84 294.169 204.485 294.169Z" fill="white"/>
<path d="M204.52 295.04C198.687 295.046 193.057 292.904 188.702 289.024C184.347 285.144 181.571 279.796 180.905 274.001C180.239 268.205 181.728 262.367 185.089 257.6C188.45 252.832 193.447 249.468 199.128 248.149C204.81 246.83 210.777 247.649 215.894 250.449C221.011 253.248 224.919 257.834 226.872 263.33C228.826 268.827 228.689 274.85 226.488 280.253C224.286 285.655 220.174 290.058 214.936 292.622C211.696 294.218 208.131 295.045 204.52 295.04ZM204.52 249.259C200.788 249.265 197.119 250.22 193.858 252.035C190.597 253.85 187.851 256.464 185.878 259.632C183.905 262.8 182.77 266.418 182.58 270.146C182.389 273.873 183.15 277.588 184.789 280.941C186.516 284.471 189.155 287.474 192.434 289.638C195.712 291.803 199.51 293.051 203.433 293.251C207.357 293.452 211.262 292.598 214.744 290.779C218.226 288.96 221.158 286.242 223.235 282.907C225.312 279.571 226.458 275.741 226.555 271.813C226.652 267.885 225.696 264.002 223.786 260.569C221.877 257.135 219.083 254.275 215.695 252.286C212.307 250.298 208.448 249.252 204.52 249.259Z" fill="#231F20"/>
<path d="M175.458 188.881C175.458 188.881 174.711 203.78 178.461 207.656C182.212 211.532 198.281 226.804 197.303 229.702C196.325 232.6 182.799 227 182.799 227C182.799 227 182.212 239.445 182.799 241.312C183.385 243.179 181.021 247.89 178.461 246.93C175.902 245.97 166.161 236.476 162.464 230.093C158.445 222.38 155.918 213.978 155.016 205.327C154.536 198.215 153.239 186.943 153.239 186.943L175.458 188.881Z" fill="white"/>
<path d="M179.191 247.943C178.84 247.935 178.493 247.875 178.16 247.765C175.351 246.716 165.468 237.098 161.718 230.538C157.615 222.712 155.05 214.172 154.163 205.38C153.683 198.268 152.386 187.157 152.386 187.05C152.369 186.919 152.381 186.786 152.421 186.66C152.461 186.534 152.528 186.418 152.617 186.321C152.809 186.142 153.065 186.046 153.328 186.054L175.582 187.992C175.808 188.015 176.018 188.123 176.166 188.295C176.315 188.467 176.392 188.689 176.382 188.917C176.187 192.953 176.382 204.082 179.155 207.034L181.679 209.558C194.601 222.448 198.939 227.782 198.21 229.986C198.118 230.238 197.976 230.469 197.793 230.664C197.609 230.86 197.389 231.016 197.143 231.124C194.53 232.298 186.94 229.56 183.688 228.28C183.397 232.536 183.397 236.807 183.688 241.063C183.837 242.125 183.729 243.207 183.373 244.219C183.018 245.23 182.424 246.142 181.644 246.876C180.996 247.538 180.116 247.921 179.191 247.943ZM154.217 187.921C154.572 190.926 155.532 199.46 155.994 205.273C156.893 213.787 159.383 222.055 163.335 229.649C167.068 236.138 176.56 245.241 178.853 246.094C179.143 246.173 179.451 246.166 179.738 246.075C180.025 245.984 180.279 245.811 180.47 245.579C181.004 245.061 181.419 244.434 181.686 243.74C181.953 243.046 182.066 242.302 182.017 241.561C181.412 239.552 181.928 228.244 182.017 226.946C182.026 226.807 182.067 226.671 182.138 226.551C182.209 226.43 182.308 226.328 182.426 226.253C182.55 226.183 182.691 226.146 182.834 226.146C182.978 226.146 183.118 226.183 183.243 226.253C187.705 228.031 194.744 230.342 196.45 229.577C196.912 227.248 184.541 214.945 180.453 210.892L177.911 208.331C174.356 204.776 174.498 193.237 174.622 189.77L154.217 187.921Z" fill="#231F20"/>
<path d="M312.645 192.295V208.296C309.887 210.746 307.493 213.578 305.535 216.705C302.247 221.932 290.746 241.08 296.061 242.823C301.376 244.565 312.698 227.159 312.698 227.159L318.493 249.792C318.493 249.792 328.358 243.996 331.842 234.129C335.326 224.261 333.868 187.103 333.868 187.103L312.645 192.295Z" fill="white"/>
<path d="M318.44 250.646C318.329 250.671 318.213 250.671 318.102 250.646C317.977 250.594 317.866 250.514 317.777 250.412C317.687 250.31 317.622 250.19 317.587 250.059L312.254 229.346C308.93 234.2 300.665 245.348 295.706 243.712C295.29 243.578 294.912 243.347 294.602 243.038C294.293 242.728 294.062 242.35 293.928 241.934C292.151 236.974 300.861 222.377 304.593 216.225C306.564 213.123 308.957 210.311 311.703 207.869V192.313C311.702 192.115 311.769 191.922 311.891 191.767C312.014 191.612 312.186 191.504 312.379 191.459L333.549 186.232C333.679 186.196 333.815 186.191 333.947 186.215C334.08 186.24 334.205 186.294 334.313 186.374C334.418 186.453 334.504 186.554 334.563 186.672C334.621 186.789 334.652 186.919 334.651 187.05C334.651 188.579 336.073 224.493 332.571 234.396C329.069 244.299 319.258 250.308 318.849 250.539C318.724 250.608 318.583 250.645 318.44 250.646ZM312.645 226.235H312.788C312.958 226.262 313.116 226.339 313.243 226.456C313.369 226.573 313.458 226.725 313.499 226.893L318.991 248.281C321.551 246.503 328.27 241.347 330.954 233.738C334.011 225.079 333.175 194.339 332.98 188.152L313.534 192.935V208.207C313.532 208.339 313.503 208.468 313.447 208.588C313.392 208.707 313.313 208.814 313.214 208.9C310.506 211.285 308.154 214.045 306.229 217.097C300.132 226.804 294.497 238.023 295.652 241.258C295.698 241.409 295.781 241.547 295.892 241.659C296.004 241.77 296.141 241.853 296.292 241.898C299.705 243.036 307.668 233.098 311.899 226.591C311.983 226.473 312.096 226.379 312.226 226.316C312.357 226.254 312.501 226.226 312.645 226.235Z" fill="#231F20"/>
<path d="M266.021 43.4483C266.021 43.4483 321.728 65.5122 333.922 94.5276C346.115 123.543 337.334 199.584 337.334 199.584L303.473 201.078L285.947 159.795C285.947 159.795 220.766 168.773 183.634 154.585L180.079 197.842L151.639 196.971C151.639 196.971 141.987 174.196 138.29 160.239C130.753 131.686 132.495 109.035 143.516 81.1755C154.536 53.3157 191.171 29.5984 266.021 43.4483Z" fill="#D946EF"/>
<path d="M280.153 113.871C280.153 113.871 273.949 138.637 258.094 151.029C242.238 163.421 220.18 161.857 210.901 155.279C201.623 148.7 184.594 128.966 188.078 97.2477C191.562 65.5299 280.153 113.871 280.153 113.871Z" fill="white"/>
<path d="M230.294 161.164C222.028 161.164 214.723 159.048 210.386 155.972C200.165 148.718 183.777 128.219 187.136 97.159C187.258 95.1673 187.895 93.2414 188.986 91.5707C190.077 89.8999 191.583 88.5417 193.357 87.6294C213.816 76.9619 277.806 111.631 280.455 113.125C280.63 113.216 280.768 113.364 280.846 113.546C280.924 113.728 280.936 113.931 280.881 114.12C280.633 115.134 274.447 139.313 258.52 151.741C250.413 157.918 240.486 161.232 230.294 161.164ZM203.631 87.2916C200.4 87.1317 197.178 87.741 194.228 89.0695C192.694 89.8281 191.391 90.9831 190.454 92.4148C189.516 93.8465 188.978 95.5028 188.896 97.2123C187.332 111.436 190.3 139.527 211.346 154.425C220.073 160.613 241.563 162.657 257.561 150.194C271.567 139.278 278.002 118.192 279.122 114.209C273.274 111.204 227.787 87.3271 203.631 87.3271V87.2916Z" fill="#231F20"/>
<path d="M254.894 119.027C244.336 126.69 230.578 126.583 218.26 124.628C207.773 122.974 193.784 120.752 186.994 111.88C182.497 105.977 180.559 98.5279 179.599 91.1852C177.822 78.1531 178.195 63.7876 183.528 51.5733C187.811 41.7771 197.748 36.9767 206.991 32.2475C228.321 21.2422 255.819 24.9047 273.878 40.6392C283.299 48.8354 288.845 60.9074 290.604 73.2638C292.364 85.6203 291.44 101.461 285.272 112.751C278.162 125.694 266.359 132.717 254.894 119.027Z" fill="white"/>
<path d="M267.906 127.383C263.337 127.383 258.911 125.001 254.734 120.272C245.936 126.334 233.938 128.059 218.118 125.605C207.631 123.952 193.233 121.694 186.301 112.52C182.337 107.329 179.919 100.626 178.711 91.3985C176.649 75.6107 178 62.1341 182.728 51.3245C186.958 41.6349 196.379 36.7989 205.498 32.123L206.689 31.3763C228.179 20.3177 256.103 23.8202 274.553 39.8925C283.601 47.7686 289.644 59.5562 291.564 73.0683C293.697 88.0383 291.653 103.008 286.125 113.107C281.486 121.57 275.46 126.583 269.328 127.206C268.83 127.324 268.356 127.383 267.906 127.383ZM254.894 118.192C255.023 118.196 255.149 118.227 255.265 118.282C255.381 118.337 255.485 118.415 255.57 118.512C259.889 123.65 264.457 126.032 269.061 125.623C274.571 125.072 280.188 120.29 284.472 112.449C289.804 102.67 291.795 88.1094 289.804 73.5127C288.335 61.2232 282.507 49.8685 273.38 41.5104C255.463 25.9004 228.356 22.4868 207.488 33.2253L206.386 33.7943C197.499 38.3279 188.416 43.0216 184.434 52.1245C179.848 62.6319 178.551 75.7885 180.559 91.2385C181.732 100.128 184.025 106.582 187.794 111.507C194.37 120.112 208.306 122.316 218.473 123.952C234.222 126.441 245.971 124.663 254.45 118.512C254.556 118.344 254.711 118.214 254.894 118.138V118.192Z" fill="#231F20"/>
<path d="M223.966 144.149C223.966 144.149 223.379 162.728 226.561 164.755C229.743 166.782 236.142 155.616 236.142 155.616" fill="white"/>
<path d="M227.432 165.893C226.961 165.898 226.499 165.768 226.099 165.519C222.651 163.315 222.971 147.314 223.059 144.185C223.069 143.947 223.171 143.723 223.344 143.56C223.516 143.397 223.746 143.309 223.984 143.313C224.1 143.318 224.215 143.346 224.321 143.395C224.427 143.443 224.523 143.513 224.602 143.599C224.681 143.685 224.743 143.785 224.783 143.895C224.823 144.005 224.842 144.121 224.837 144.238C224.57 153.127 225.317 162.959 227.041 164.062C227.146 164.113 227.262 164.14 227.379 164.14C227.496 164.14 227.611 164.113 227.716 164.062C229.885 163.528 233.564 158.319 235.377 155.172C235.429 155.059 235.503 154.957 235.596 154.875C235.689 154.792 235.798 154.729 235.916 154.692C236.035 154.654 236.16 154.641 236.283 154.654C236.407 154.668 236.527 154.707 236.634 154.77C236.742 154.832 236.835 154.917 236.908 155.017C236.98 155.118 237.031 155.233 237.057 155.355C237.083 155.477 237.082 155.602 237.056 155.724C237.03 155.846 236.979 155.96 236.906 156.061C236.391 156.968 231.769 164.951 228.143 165.804C227.91 165.859 227.672 165.889 227.432 165.893Z" fill="#231F20"/>
<path d="M247.82 151.492C249.223 151.492 250.361 150.354 250.361 148.949C250.361 147.545 249.223 146.407 247.82 146.407C246.416 146.407 245.278 147.545 245.278 148.949C245.278 150.354 246.416 151.492 247.82 151.492Z" fill="#231F20"/>
<path d="M210.972 148.292C212.376 148.292 213.514 147.153 213.514 145.749C213.514 144.345 212.376 143.207 210.972 143.207C209.568 143.207 208.43 144.345 208.43 145.749C208.43 147.153 209.568 148.292 210.972 148.292Z" fill="#231F20"/>
<path d="M285.147 159.083C284.943 159.08 284.746 159.008 284.588 158.879C284.43 158.75 284.32 158.571 284.276 158.372C284.25 158.258 284.248 158.139 284.269 158.023C284.29 157.908 284.335 157.798 284.399 157.7C284.464 157.602 284.548 157.518 284.646 157.453C284.744 157.389 284.854 157.344 284.969 157.323C285.112 157.323 298.958 154.407 303.349 147.296C303.409 147.195 303.489 147.107 303.584 147.037C303.679 146.968 303.787 146.918 303.901 146.891C304.016 146.865 304.135 146.862 304.251 146.882C304.366 146.903 304.477 146.947 304.575 147.011C304.675 147.073 304.761 147.154 304.829 147.249C304.897 147.344 304.946 147.452 304.972 147.566C304.999 147.68 305.002 147.798 304.983 147.913C304.964 148.028 304.922 148.139 304.86 148.238C300.078 155.99 285.929 158.906 285.307 159.066L285.147 159.083Z" fill="#231F20"/>
<path d="M178 156.025C172.845 156.171 167.789 154.588 163.637 151.527C163.545 151.456 163.467 151.367 163.41 151.265C163.352 151.164 163.316 151.051 163.303 150.935C163.289 150.819 163.299 150.701 163.333 150.589C163.366 150.477 163.421 150.373 163.495 150.283C163.642 150.101 163.853 149.983 164.085 149.953C164.317 149.923 164.551 149.984 164.74 150.123C172.436 156.185 183.314 153.679 183.421 153.679C183.657 153.624 183.904 153.666 184.109 153.794C184.314 153.923 184.46 154.127 184.514 154.363C184.568 154.599 184.527 154.846 184.398 155.052C184.27 155.257 184.066 155.402 183.83 155.456C181.91 155.84 179.957 156.031 178 156.025Z" fill="#231F20"/>
<path d="M159.105 170.622H157.754C157.637 170.615 157.523 170.585 157.418 170.534C157.313 170.483 157.219 170.411 157.141 170.324C157.064 170.236 157.004 170.134 156.966 170.024C156.928 169.913 156.912 169.796 156.919 169.68C156.926 169.563 156.956 169.449 157.007 169.344C157.058 169.238 157.129 169.144 157.217 169.067C157.304 168.989 157.406 168.929 157.517 168.891C157.627 168.853 157.744 168.837 157.861 168.844C170.303 169.697 181.11 157.377 181.217 157.252C181.293 157.163 181.385 157.09 181.49 157.038C181.594 156.985 181.707 156.953 181.823 156.944C181.94 156.935 182.057 156.948 182.168 156.985C182.279 157.021 182.381 157.078 182.47 157.154C182.559 157.23 182.632 157.323 182.685 157.427C182.738 157.531 182.769 157.644 182.779 157.761C182.788 157.877 182.774 157.994 182.738 158.105C182.701 158.216 182.644 158.319 182.568 158.408C182.106 158.888 171.832 170.622 159.105 170.622Z" fill="#231F20"/>
<path d="M292.613 161.163C290.757 161.215 288.901 161.048 287.085 160.666C286.968 160.636 286.858 160.585 286.761 160.513C286.665 160.441 286.583 160.351 286.521 160.248C286.459 160.145 286.418 160.031 286.401 159.912C286.383 159.793 286.389 159.671 286.418 159.554C286.447 159.438 286.499 159.328 286.571 159.231C286.642 159.135 286.732 159.053 286.835 158.991C286.939 158.929 287.053 158.888 287.172 158.87C287.291 158.853 287.412 158.859 287.529 158.888C295.599 160.968 323.985 155.332 324.27 155.332C324.384 155.309 324.502 155.308 324.617 155.33C324.731 155.352 324.84 155.397 324.938 155.461C325.035 155.526 325.119 155.609 325.184 155.705C325.25 155.802 325.295 155.911 325.319 156.025C325.36 156.258 325.31 156.499 325.177 156.695C325.044 156.891 324.84 157.027 324.608 157.074C323.63 157.217 303.971 161.163 292.613 161.163Z" fill="#231F20"/>
<path d="M218.971 265.954L206.653 276.194L201.374 265.954L188.078 278.701" fill="white"/>
<path d="M188.078 279.59C187.901 279.591 187.727 279.539 187.579 279.44C187.431 279.342 187.317 279.201 187.25 279.036C187.183 278.872 187.167 278.691 187.203 278.517C187.24 278.343 187.328 278.184 187.456 278.061L200.77 265.314C200.868 265.214 200.989 265.141 201.122 265.101C201.256 265.06 201.397 265.054 201.534 265.082C201.669 265.105 201.797 265.158 201.908 265.239C202.019 265.319 202.11 265.424 202.174 265.545L206.92 274.808L218.402 265.278C218.49 265.202 218.593 265.144 218.703 265.108C218.814 265.072 218.931 265.058 219.047 265.068C219.163 265.078 219.276 265.111 219.379 265.166C219.482 265.22 219.573 265.295 219.647 265.385C219.797 265.567 219.87 265.802 219.85 266.038C219.83 266.273 219.719 266.492 219.54 266.647L207.204 276.888C207.103 276.969 206.985 277.027 206.859 277.057C206.733 277.088 206.602 277.091 206.475 277.065C206.343 277.042 206.218 276.988 206.11 276.907C206.002 276.827 205.914 276.723 205.853 276.603L201.143 267.429L188.7 279.341C188.621 279.425 188.524 279.491 188.417 279.534C188.309 279.577 188.194 279.596 188.078 279.59Z" fill="#D1D3D4"/>
<path d="M72.3821 299.843L124.273 304.073L130.143 232.04L78.2523 227.809L72.3821 299.843Z" fill="white"/>
<path d="M124.266 304.978L72.3805 300.747C72.1463 300.724 71.9301 300.612 71.7775 300.432C71.6249 300.253 71.5479 300.022 71.5629 299.787L77.4286 227.746C77.4477 227.513 77.5559 227.297 77.7308 227.142C77.822 227.067 77.9271 227.011 78.04 226.978C78.1529 226.944 78.2713 226.933 78.3885 226.946L130.256 231.16C130.373 231.17 130.486 231.204 130.59 231.259C130.694 231.314 130.786 231.389 130.86 231.48C130.937 231.566 130.996 231.668 131.033 231.778C131.07 231.888 131.083 232.004 131.074 232.12L125.208 304.161C125.19 304.393 125.081 304.61 124.904 304.763C124.728 304.916 124.499 304.993 124.266 304.978ZM73.3759 299.04L123.484 303.129L129.207 232.866L79.0639 228.724L73.3759 299.04Z" fill="#D1D3D4"/>
<path d="M112.303 290.471C114.388 288.934 116.146 286.999 117.476 284.777C118.807 282.555 119.683 280.091 120.053 277.528L111.504 276.834C111.09 278.864 110.124 280.741 108.713 282.257C108.129 282.884 107.472 283.439 106.758 283.911C105.036 285.074 103.022 285.727 100.945 285.795L100.252 294.365C104.588 294.431 108.825 293.062 112.303 290.471Z" fill="#D1D3D4"/>
<path d="M80.8592 274.328C80.7866 278.671 82.1556 282.917 84.7519 286.4L91.2931 280.835C90.1767 279.104 89.5614 277.098 89.5156 275.039C89.4893 274.607 89.4893 274.173 89.5156 273.741C89.5475 273.317 89.6068 272.895 89.6934 272.479C90.2802 269.577 91.9849 267.022 94.4393 265.367C96.1602 264.219 98.1666 263.572 100.234 263.5C100.666 263.474 101.099 263.474 101.532 263.5C101.958 263.5 102.385 263.607 102.794 263.678C104.794 264.099 106.64 265.065 108.126 266.469C108.753 267.058 109.313 267.714 109.797 268.425C110.947 270.152 111.593 272.165 111.663 274.239L120.231 274.932C120.31 270.587 118.941 266.34 116.338 262.86C115.82 262.176 115.263 261.523 114.667 260.904C111.663 257.778 107.705 255.739 103.416 255.108L102.136 254.966C101.709 254.966 101.265 254.966 100.856 254.966C96.5122 254.887 92.2657 256.257 88.7868 258.86C88.0955 259.362 87.442 259.915 86.8316 260.513C83.7026 263.523 81.6639 267.489 81.0369 271.785C81.0369 272.212 80.9303 272.639 80.8947 273.065C80.8592 273.492 80.877 273.901 80.8592 274.328Z" fill="#D1D3D4"/>
<path d="M86.4229 288.355C89.4319 291.485 93.3966 293.524 97.6922 294.151L98.3854 285.582C96.3837 285.163 94.5376 284.197 93.0529 282.791L86.4229 288.355Z" fill="#D946EF"/>
<path d="M119.182 251.339L86.6003 248.69C86.3646 248.671 86.146 248.559 85.9927 248.379C85.8393 248.199 85.7638 247.966 85.7826 247.73C85.8015 247.494 85.9132 247.275 86.0932 247.122C86.2732 246.969 86.5068 246.893 86.7425 246.912L119.324 249.561C119.557 249.588 119.77 249.702 119.922 249.88C120.074 250.058 120.152 250.287 120.142 250.521C120.133 250.638 120.101 250.752 120.048 250.856C119.994 250.961 119.921 251.054 119.832 251.13C119.743 251.206 119.639 251.263 119.528 251.299C119.416 251.335 119.299 251.349 119.182 251.339Z" fill="#D1D3D4"/>
<path d="M119.875 242.948L96.2166 241.028C95.9838 241.005 95.7693 240.892 95.6196 240.712C95.4698 240.532 95.397 240.301 95.4168 240.067C95.4235 239.951 95.4534 239.838 95.5046 239.733C95.5559 239.629 95.6276 239.536 95.7154 239.46C95.8032 239.384 95.9054 239.326 96.0159 239.29C96.1264 239.254 96.243 239.24 96.3588 239.25L119.946 241.17C120.179 241.197 120.392 241.31 120.544 241.489C120.696 241.667 120.774 241.896 120.764 242.13C120.746 242.353 120.645 242.561 120.48 242.713C120.315 242.865 120.099 242.948 119.875 242.948Z" fill="#D1D3D4"/>
<path d="M383.461 303.734C398.235 303.734 410.212 291.755 410.212 276.977C410.212 262.199 398.235 250.219 383.461 250.219C368.687 250.219 356.709 262.199 356.709 276.977C356.709 291.755 368.687 303.734 383.461 303.734Z" fill="white"/>
<path d="M383.461 304.605C377.993 304.605 372.649 302.983 368.103 299.944C363.557 296.906 360.015 292.587 357.923 287.534C355.832 282.481 355.285 276.922 356.353 271.558C357.421 266.195 360.055 261.269 363.923 257.403C367.79 253.537 372.717 250.906 378.08 249.841C383.442 248.776 389 249.326 394.051 251.422C399.101 253.517 403.416 257.063 406.451 261.612C409.486 266.161 411.105 271.508 411.101 276.976C411.092 284.304 408.176 291.329 402.994 296.509C397.812 301.688 390.787 304.6 383.461 304.605ZM383.461 251.108C378.346 251.108 373.346 252.625 369.092 255.467C364.839 258.31 361.524 262.35 359.567 267.077C357.609 271.804 357.097 277.005 358.095 282.023C359.093 287.041 361.556 291.65 365.173 295.268C368.79 298.886 373.399 301.35 378.415 302.348C383.432 303.346 388.632 302.834 393.358 300.876C398.084 298.918 402.123 295.602 404.965 291.348C407.807 287.094 409.324 282.093 409.324 276.976C409.314 270.118 406.586 263.544 401.738 258.695C396.89 253.846 390.317 251.117 383.461 251.108Z" fill="#D1D3D4"/>
<path d="M388.393 263.944C387.664 265.201 388.091 266.811 389.348 267.54C390.605 268.27 392.215 267.842 392.944 266.585L396.164 261.033C396.893 259.776 396.465 258.166 395.208 257.437C393.952 256.708 392.342 257.135 391.613 258.392L388.393 263.944Z" fill="white"/>
<path d="M390.66 268.798C390.039 268.791 389.431 268.622 388.896 268.307C388.361 267.992 387.918 267.542 387.611 267.003C387.303 266.464 387.142 265.853 387.144 265.232C387.146 264.611 387.31 264.002 387.62 263.464L390.838 257.917C391.311 257.11 392.084 256.522 392.988 256.281C393.434 256.158 393.9 256.126 394.358 256.187C394.816 256.248 395.257 256.401 395.655 256.637C396.457 257.112 397.041 257.883 397.28 258.784C397.52 259.685 397.395 260.644 396.935 261.455L393.717 267.002C393.409 267.543 392.965 267.993 392.428 268.308C391.892 268.623 391.282 268.792 390.66 268.798ZM393.895 257.97C393.747 257.952 393.598 257.952 393.451 257.97C393.002 258.093 392.619 258.386 392.384 258.788L389.167 264.335C389.046 264.533 388.969 264.754 388.938 264.983C388.907 265.213 388.925 265.446 388.989 265.669C389.111 266.108 389.398 266.484 389.789 266.718C389.987 266.838 390.207 266.916 390.437 266.947C390.666 266.977 390.9 266.96 391.122 266.895C391.561 266.773 391.937 266.487 392.171 266.095L395.406 260.531C395.628 260.128 395.686 259.655 395.566 259.21C395.447 258.766 395.16 258.385 394.766 258.148C394.494 258.02 394.195 257.959 393.895 257.97Z" fill="#D1D3D4"/>
<path d="M383.461 294.507C392.738 294.507 400.258 286.985 400.258 277.706C400.258 268.426 392.738 260.904 383.461 260.904C374.184 260.904 366.664 268.426 366.664 277.706C366.664 286.985 374.184 294.507 383.461 294.507Z" fill="white"/>
<path d="M383.425 295.395C380.33 295.362 377.298 294.52 374.628 292.954C371.957 291.389 369.742 289.152 368.202 286.467C366.661 283.782 365.848 280.741 365.843 277.645C365.838 274.549 366.642 271.506 368.174 268.816C369.634 266.298 371.692 264.179 374.166 262.647C376.64 261.115 379.453 260.217 382.357 260.033C385.261 259.849 388.166 260.384 390.813 261.592C393.461 262.8 395.77 264.642 397.535 266.955C399.3 269.269 400.467 271.983 400.933 274.856C401.399 277.728 401.149 280.672 400.205 283.425C399.262 286.178 397.653 288.656 395.523 290.639C393.393 292.621 390.807 294.047 387.993 294.791C386.502 295.185 384.967 295.388 383.425 295.395ZM383.425 261.793C382.039 261.795 380.66 261.975 379.319 262.326C377.298 262.857 375.402 263.784 373.742 265.053C372.082 266.323 370.691 267.91 369.65 269.722C367.897 272.75 367.192 276.272 367.644 279.741C368.096 283.211 369.679 286.434 372.15 288.911C374.62 291.389 377.838 292.982 381.305 293.443C384.773 293.905 388.296 293.209 391.327 291.464C394.359 289.719 396.731 287.022 398.074 283.791C399.417 280.56 399.657 276.977 398.757 273.596C397.856 270.215 395.866 267.226 393.094 265.092C390.322 262.958 386.923 261.798 383.425 261.793Z" fill="#D1D3D4"/>
<path d="M384.207 290.186C391.815 290.186 397.983 284.018 397.983 276.408C397.983 268.798 391.815 262.629 384.207 262.629C376.599 262.629 370.432 268.798 370.432 276.408C370.432 284.018 376.599 290.186 384.207 290.186Z" fill="#D1D3D4"/>
</svg>
