<svg width="429" height="321" viewBox="0 0 429 321" fill="none" xmlns="http://www.w3.org/2000/svg">
<path d="M175.669 199.614H19.8848V286.546H175.669V199.614Z" fill="white"/>
<path d="M175.669 287.259H19.8843C19.7912 287.259 19.699 287.241 19.6132 287.205C19.5273 287.169 19.4495 287.116 19.3843 287.049C19.3191 286.983 19.2679 286.904 19.2335 286.818C19.1991 286.731 19.1824 286.639 19.1842 286.546V199.614C19.1824 199.521 19.1991 199.429 19.2335 199.342C19.2679 199.256 19.3191 199.177 19.3843 199.11C19.4495 199.044 19.5273 198.991 19.6132 198.955C19.699 198.919 19.7912 198.9 19.8843 198.9H175.669C175.762 198.9 175.854 198.919 175.94 198.955C176.026 198.991 176.104 199.044 176.169 199.11C176.234 199.177 176.285 199.256 176.32 199.342C176.354 199.429 176.371 199.521 176.369 199.614V286.546C176.371 286.639 176.354 286.731 176.32 286.818C176.285 286.904 176.234 286.983 176.169 287.049C176.104 287.116 176.026 287.169 175.94 287.205C175.854 287.241 175.762 287.259 175.669 287.259ZM20.5569 285.887H174.955V200.314H20.5981L20.5569 285.887Z" fill="#231F20"/>
<path d="M67.5713 276.086C61.46 276.086 55.486 274.274 50.4048 270.878C45.3235 267.483 41.3631 262.657 39.0244 257.011C36.6857 251.365 36.0739 245.153 37.2661 239.159C38.4583 233.165 41.4012 227.659 45.7224 223.338C50.0437 219.017 55.5494 216.074 61.5432 214.882C67.537 213.69 73.7497 214.301 79.3957 216.64C85.0418 218.979 89.8675 222.939 93.2627 228.02C96.6579 233.102 98.4701 239.076 98.4701 245.187C98.4629 253.38 95.2051 261.235 89.412 267.028C83.6189 272.821 75.7639 276.079 67.5713 276.086ZM67.5713 215.688C61.7315 215.688 56.0229 217.42 51.1674 220.664C46.3118 223.909 42.5274 228.52 40.2926 233.915C38.0578 239.31 37.4731 245.247 38.6124 250.975C39.7517 256.702 42.5638 261.963 46.6931 266.093C50.8224 270.222 56.0835 273.034 61.811 274.173C67.5385 275.313 73.4752 274.728 78.8704 272.493C84.2657 270.258 88.877 266.474 92.1214 261.618C95.3658 256.763 97.0975 251.054 97.0975 245.214C97.0975 237.381 93.9876 229.868 88.4511 224.327C82.9147 218.785 75.4046 215.668 67.5713 215.661V215.688Z" fill="#D1D3D4"/>
<path d="M87.0502 268.948C86.9519 268.947 86.8548 268.926 86.765 268.886C86.6753 268.846 86.5948 268.787 86.5286 268.715L67.0641 245.626C66.9662 245.501 66.913 245.346 66.9131 245.187V214.988C66.9131 214.806 66.9854 214.631 67.1141 214.503C67.2428 214.374 67.4174 214.302 67.5994 214.302C67.7804 214.305 67.9529 214.379 68.0809 214.507C68.2088 214.635 68.2822 214.807 68.2858 214.988V244.954L87.6542 267.822C87.7671 267.965 87.8215 268.145 87.8062 268.326C87.7909 268.507 87.707 268.675 87.5718 268.797C87.4993 268.856 87.4158 268.899 87.3262 268.925C87.2367 268.951 87.1428 268.959 87.0502 268.948Z" fill="#D1D3D4"/>
<path d="M165.017 224.378H111.675C111.493 224.378 111.319 224.305 111.19 224.177C111.061 224.048 110.989 223.873 110.989 223.691C110.989 223.509 111.061 223.335 111.19 223.206C111.319 223.077 111.493 223.005 111.675 223.005H165.017C165.199 223.005 165.374 223.077 165.502 223.206C165.631 223.335 165.704 223.509 165.704 223.691C165.704 223.873 165.631 224.048 165.502 224.177C165.374 224.305 165.199 224.378 165.017 224.378Z" fill="#D1D3D4"/>
<path d="M165.017 237.513H111.675C111.493 237.513 111.319 237.441 111.19 237.312C111.061 237.184 110.989 237.009 110.989 236.827C110.992 236.646 111.066 236.474 111.194 236.346C111.322 236.218 111.494 236.144 111.675 236.141H165.017C165.198 236.144 165.371 236.218 165.499 236.346C165.627 236.474 165.7 236.646 165.704 236.827C165.704 237.009 165.631 237.184 165.502 237.312C165.374 237.441 165.199 237.513 165.017 237.513Z" fill="#D1D3D4"/>
<path d="M165.017 250.664H111.675C111.494 250.66 111.322 250.587 111.194 250.459C111.066 250.331 110.992 250.158 110.989 249.977C110.989 249.795 111.061 249.621 111.19 249.492C111.319 249.363 111.493 249.291 111.675 249.291H165.017C165.199 249.291 165.374 249.363 165.502 249.492C165.631 249.621 165.704 249.795 165.704 249.977C165.7 250.158 165.627 250.331 165.499 250.459C165.371 250.587 165.198 250.66 165.017 250.664Z" fill="#D1D3D4"/>
<path d="M138.346 263.8H111.675C111.493 263.8 111.319 263.728 111.19 263.599C111.061 263.471 110.989 263.296 110.989 263.114C110.989 262.932 111.061 262.757 111.19 262.629C111.319 262.5 111.493 262.428 111.675 262.428H138.346C138.528 262.428 138.703 262.5 138.831 262.629C138.96 262.757 139.032 262.932 139.032 263.114C139.032 263.296 138.96 263.471 138.831 263.599C138.703 263.728 138.528 263.8 138.346 263.8Z" fill="#D1D3D4"/>
<path d="M175.271 0.700195H1.17529V163.54H175.271V0.700195Z" fill="white"/>
<path d="M175.271 164.24H1.1748C1.0817 164.24 0.989537 164.222 0.903694 164.186C0.817851 164.15 0.740056 164.097 0.674866 164.031C0.609677 163.964 0.558402 163.885 0.524039 163.799C0.489676 163.712 0.472918 163.62 0.474744 163.527V0.713791C0.472918 0.620708 0.489676 0.528195 0.524039 0.441669C0.558402 0.355143 0.609677 0.27634 0.674866 0.209872C0.740056 0.143404 0.817851 0.0906098 0.903694 0.0545731C0.989537 0.0185363 1.0817 -1.78858e-05 1.1748 1.29375e-08H175.271C175.46 1.29375e-08 175.642 0.0752042 175.776 0.209066C175.91 0.342927 175.985 0.524482 175.985 0.713791V163.527C175.985 163.716 175.91 163.897 175.776 164.031C175.642 164.165 175.46 164.24 175.271 164.24ZM1.8886 162.868H174.571V1.40013H1.8886V162.868Z" fill="#231F20"/>
<path d="M161.929 151.708H14.5311C14.349 151.708 14.1745 151.636 14.0457 151.507C13.917 151.378 13.8447 151.204 13.8447 151.022V23.2669C13.8447 23.0849 13.917 22.9103 14.0457 22.7816C14.1745 22.6529 14.349 22.5806 14.5311 22.5806C14.7131 22.5806 14.8877 22.6529 15.0164 22.7816C15.1451 22.9103 15.2174 23.0849 15.2174 23.2669V150.335H161.929C162.11 150.339 162.282 150.412 162.41 150.54C162.538 150.668 162.612 150.841 162.615 151.022C162.615 151.204 162.543 151.378 162.414 151.507C162.285 151.636 162.111 151.708 161.929 151.708Z" fill="#D1D3D4"/>
<path d="M14.5318 151.708C14.3897 151.707 14.2511 151.664 14.1337 151.585C13.9877 151.48 13.8886 151.322 13.8578 151.145C13.827 150.968 13.8669 150.785 13.969 150.637L64.9363 77.7759C65.0249 77.6471 65.1549 77.5524 65.3046 77.5074C65.4544 77.4625 65.6151 77.47 65.7599 77.5288L108.903 95.5932L150.701 38.943C150.81 38.7974 150.973 38.7011 151.153 38.6754C151.242 38.6626 151.333 38.6676 151.42 38.6899C151.508 38.7123 151.59 38.7516 151.662 38.8057C151.734 38.8598 151.795 38.9276 151.841 39.0051C151.887 39.0827 151.917 39.1685 151.929 39.2577C151.942 39.347 151.937 39.4378 151.915 39.5251C151.893 39.6124 151.853 39.6945 151.799 39.7666L109.685 96.8012C109.593 96.9253 109.461 97.0145 109.312 97.0543C109.162 97.0942 109.004 97.0824 108.862 97.0208L65.6913 78.9564L15.0397 151.42C14.9821 151.503 14.9066 151.572 14.8186 151.622C14.7307 151.672 14.6327 151.701 14.5318 151.708Z" fill="#D1D3D4"/>
<path d="M380.691 163.596L388.351 141.701C388.351 141.701 383.615 130.514 384.521 124.241C385.427 117.968 388.351 106.671 390.904 107.769C393.457 108.867 392.002 113.96 393.828 122.36C393.828 122.36 408.419 95.7168 412.441 96.4443C416.463 97.1718 415.722 100.26 414.624 102.182C414.624 102.182 419.003 98.4622 420.471 101.015C420.885 101.803 421.101 102.679 421.101 103.568C421.101 104.458 420.885 105.334 420.471 106.122C420.471 106.122 423.574 102.649 424.658 105.024C425.743 107.398 423.752 110.322 423.752 110.322C423.752 110.322 427.403 106.849 427.76 109.951C428.117 113.054 399.854 173.808 399.854 173.808" fill="white"/>
<path d="M399.855 174.522C399.75 174.521 399.647 174.497 399.553 174.453C399.468 174.415 399.393 174.36 399.33 174.292C399.267 174.225 399.218 174.145 399.186 174.058C399.155 173.971 399.14 173.879 399.144 173.787C399.148 173.694 399.17 173.604 399.209 173.52C410.424 149.416 427.102 112.614 427.061 110.02C427.061 109.677 426.924 109.43 426.8 109.389C426.361 109.224 425.098 110.02 424.233 110.761C424.104 110.873 423.939 110.934 423.768 110.934C423.597 110.934 423.432 110.873 423.302 110.762C423.173 110.65 423.088 110.496 423.062 110.328C423.036 110.159 423.072 109.986 423.163 109.842C423.163 109.842 424.933 107.22 424.014 105.257C423.849 104.872 423.67 104.845 423.602 104.845C422.957 104.749 421.653 105.792 420.994 106.52C420.877 106.652 420.716 106.736 420.541 106.756C420.366 106.776 420.19 106.731 420.047 106.63C419.908 106.523 419.812 106.37 419.776 106.199C419.741 106.027 419.769 105.849 419.854 105.696C420.211 105.017 420.398 104.261 420.398 103.493C420.398 102.725 420.211 101.969 419.854 101.29C419.786 101.156 419.686 101.041 419.565 100.953C419.443 100.864 419.303 100.806 419.154 100.782C418.042 100.59 416.066 101.825 415.036 102.662C414.906 102.768 414.744 102.826 414.576 102.826C414.409 102.826 414.246 102.768 414.117 102.662C413.99 102.556 413.904 102.409 413.874 102.246C413.844 102.083 413.872 101.915 413.952 101.77C414.283 101.286 414.507 100.737 414.609 100.159C414.711 99.5817 414.688 98.989 414.542 98.4209C414.298 98.0249 413.963 97.6934 413.564 97.4544C413.165 97.2155 412.714 97.0762 412.25 97.0482H412.154C409.834 97.0482 401.172 110.185 394.391 122.607C394.323 122.735 394.218 122.838 394.089 122.903C393.96 122.968 393.814 122.991 393.672 122.97C393.529 122.949 393.396 122.885 393.292 122.785C393.187 122.686 393.116 122.557 393.087 122.415C392.475 119.494 392.098 116.529 391.962 113.548C391.769 110.418 391.605 108.757 390.589 108.318C390.589 108.318 390.493 108.318 390.342 108.318C388.571 109.306 386.155 117.529 385.181 124.213C384.302 130.198 388.914 141.18 388.969 141.29C389.032 141.453 389.032 141.634 388.969 141.797L381.31 163.76C381.248 163.942 381.116 164.092 380.944 164.177C380.771 164.262 380.572 164.275 380.39 164.213C380.208 164.151 380.058 164.02 379.973 163.847C379.888 163.675 379.875 163.475 379.937 163.293L387.514 141.646C386.787 139.903 382.875 130.006 383.739 124.076C384.439 119.231 386.814 108.716 389.614 107.151C389.837 107.016 390.089 106.935 390.349 106.916C390.609 106.897 390.87 106.94 391.111 107.041C392.991 107.851 393.128 110.089 393.348 113.493C393.468 115.756 393.71 118.01 394.076 120.246C398.358 112.532 408.612 94.9892 412.483 95.6893C413.172 95.739 413.837 95.9612 414.418 96.3354C414.998 96.7096 415.475 97.2238 415.805 97.8307C416.128 98.5885 416.205 99.4289 416.025 100.233C416.995 99.5957 418.148 99.2966 419.305 99.3818C419.66 99.4412 419.997 99.5809 420.289 99.7902C420.582 99.9996 420.823 100.273 420.994 100.59C421.591 101.619 421.846 102.811 421.721 103.994C422.303 103.58 423.013 103.385 423.725 103.445C424.059 103.497 424.373 103.636 424.635 103.848C424.898 104.06 425.1 104.338 425.222 104.653C425.693 105.782 425.746 107.043 425.373 108.208C425.928 107.897 426.584 107.818 427.198 107.988C427.553 108.14 427.856 108.392 428.068 108.714C428.281 109.037 428.394 109.414 428.392 109.8C428.749 112.944 405.139 163.87 400.404 174.041C400.366 174.165 400.295 174.276 400.198 174.361C400.101 174.446 399.982 174.502 399.855 174.522Z" fill="#231F20"/>
<path d="M239.609 248.948C239.609 248.948 220.583 305.64 218.799 320.327H347.748C347.748 320.327 336.327 269.882 329.821 251.378L239.609 248.948Z" fill="#231F20"/>
<path d="M347.748 321H218.799C218.702 321.001 218.607 320.98 218.519 320.94C218.431 320.9 218.353 320.841 218.291 320.767C218.226 320.694 218.177 320.61 218.146 320.518C218.116 320.425 218.104 320.328 218.112 320.231C219.897 305.654 238.181 251.049 238.963 248.729C239.003 248.59 239.088 248.469 239.205 248.384C239.322 248.3 239.464 248.257 239.608 248.262L329.834 250.678C329.971 250.682 330.104 250.727 330.214 250.808C330.324 250.889 330.407 251.002 330.452 251.131C336.89 269.47 348.297 319.655 348.407 320.163C348.427 320.263 348.424 320.367 348.4 320.466C348.376 320.566 348.33 320.659 348.266 320.739C348.202 320.819 348.121 320.883 348.029 320.928C347.937 320.974 347.836 320.998 347.734 321H347.748ZM219.581 319.627H346.897C345.387 313.039 335.311 269.305 329.34 252.023L240.116 249.635C238.277 255.084 221.75 304.858 219.581 319.627Z" fill="#231F20"/>
<path d="M131.332 194.26C131.332 194.26 120.653 178.763 113.899 171.597C107.145 164.432 83.7002 125.531 88.9988 121.275C90.193 120.314 92.6638 123.746 93.1168 124.254C95.1895 126.464 99.3899 132.01 101.353 134.302C102.41 135.524 99.8566 137.734 100.914 138.955C101.71 139.875 102.753 140.41 103.508 141.33C105.27 143.216 107.358 144.769 109.671 145.915L117.482 150.403C116.163 145.415 115.313 140.314 114.942 135.167C114.773 133.849 114.862 132.511 115.203 131.227C115.385 130.586 115.736 130.006 116.219 129.548C116.702 129.089 117.299 128.768 117.948 128.619C118.585 128.568 119.225 128.678 119.808 128.94C120.391 129.201 120.899 129.606 121.284 130.115C122.035 131.153 122.619 132.301 123.014 133.52C126.747 143.307 131.963 152.339 136.068 161.893C139.321 169.415 142.409 177.5 147.186 184.24L131.332 194.26Z" fill="white"/>
<path d="M131.346 194.934C131.229 194.935 131.114 194.906 131.011 194.851C130.908 194.796 130.82 194.716 130.756 194.618C130.646 194.467 120.035 179.08 113.378 172.038C106.72 164.996 86.8989 132.23 87.5304 123.02C87.5294 122.58 87.6205 122.146 87.7978 121.744C87.9751 121.342 88.2347 120.981 88.5599 120.686C90.111 119.437 92.2112 121.99 93.3505 123.363C93.4878 123.527 93.5839 123.665 93.6525 123.733C94.9016 125.106 96.8234 127.467 98.6902 129.801C99.9531 131.379 101.134 132.862 101.943 133.795C102.753 134.728 102.245 135.923 101.834 136.87C101.422 137.817 101.285 138.243 101.504 138.448C101.866 138.848 102.266 139.211 102.698 139.533C103.201 139.943 103.661 140.403 104.071 140.906C105.778 142.722 107.795 144.219 110.028 145.326L116.48 148.963C115.379 144.456 114.658 139.864 114.325 135.236C114.15 133.821 114.253 132.385 114.627 131.009C114.825 130.254 115.233 129.572 115.804 129.04C116.374 128.509 117.084 128.15 117.851 128.007C118.617 127.863 119.409 127.94 120.133 128.228C120.858 128.516 121.485 129.005 121.943 129.636C122.726 130.699 123.333 131.881 123.741 133.136C125.924 138.86 128.614 144.337 131.209 149.608C133.117 153.493 135.093 157.501 136.837 161.55C137.317 162.662 137.784 163.788 138.209 164.914C140.955 171.393 143.796 178.091 147.818 183.774C147.873 183.853 147.91 183.943 147.929 184.037C147.948 184.132 147.948 184.229 147.928 184.323C147.913 184.418 147.877 184.508 147.822 184.586C147.768 184.664 147.696 184.729 147.612 184.776L131.703 194.81C131.596 194.881 131.473 194.923 131.346 194.934ZM89.5207 121.77H89.4384C89.0983 122.144 88.9206 122.638 88.9442 123.143C88.354 131.832 108.23 164.529 114.407 171.091C120.406 177.446 129.507 190.445 131.538 193.287L146.253 184.021C142.355 178.352 139.596 171.832 136.919 165.504C136.439 164.378 135.972 163.266 135.546 162.154C133.817 158.146 131.854 154.138 129.96 150.267C127.338 144.941 124.647 139.437 122.465 133.795C122.103 132.65 121.561 131.57 120.859 130.597C120.547 130.17 120.131 129.831 119.65 129.612C119.169 129.394 118.64 129.302 118.114 129.348C117.59 129.472 117.11 129.735 116.723 130.11C116.337 130.484 116.058 130.956 115.917 131.475C115.603 132.675 115.524 133.924 115.684 135.154C116.057 140.254 116.902 145.309 118.21 150.253C118.244 150.389 118.237 150.531 118.191 150.663C118.145 150.795 118.062 150.911 117.951 150.996C117.839 151.08 117.706 151.131 117.567 151.14C117.427 151.15 117.288 151.118 117.166 151.05L109.356 146.561C106.973 145.367 104.821 143.758 103 141.811C102.638 141.4 102.233 141.027 101.792 140.7C101.302 140.321 100.843 139.903 100.42 139.45C99.6099 138.503 100.118 137.323 100.53 136.376C100.941 135.429 101.079 135.003 100.859 134.783C100.035 133.836 98.8412 132.34 97.5646 130.748C95.8076 128.551 93.8172 126.053 92.6093 124.777C92.5269 124.694 92.4034 124.53 92.2386 124.324C90.3992 122.018 89.7266 121.77 89.5207 121.77Z" fill="#231F20"/>
<path d="M121.119 166.341L126.006 163.184L67.9552 76.1289L65.8413 77.5016L121.119 166.341Z" fill="#231F20"/>
<path d="M121.119 167.013H120.968C120.792 166.972 120.639 166.864 120.542 166.711L65.2646 77.8576C65.1742 77.7049 65.1452 77.5236 65.1834 77.3503C65.2217 77.177 65.3242 77.0247 65.4705 76.9242L67.5844 75.5515C67.7357 75.4522 67.9201 75.4167 68.0975 75.4527C68.2749 75.4887 68.4309 75.5933 68.5315 75.7437L126.582 162.799C126.68 162.952 126.713 163.137 126.675 163.315C126.636 163.492 126.529 163.647 126.376 163.746L121.489 166.903C121.378 166.973 121.25 167.011 121.119 167.013ZM66.7745 77.7066L121.338 165.434L125.058 163.046L67.7628 77.0752L66.7745 77.7066Z" fill="#231F20"/>
<path d="M116.796 164.776C115.639 163.951 114.733 162.821 114.178 161.513C113.623 160.205 113.441 158.769 113.652 157.363C114.124 154.562 115.171 151.889 116.727 149.512C118.295 147.149 119.507 144.568 120.323 141.852C120.612 140.617 120.584 139.107 119.5 138.407C118.982 138.207 118.419 138.155 117.874 138.257C117.328 138.359 116.822 138.61 116.411 138.983C112.76 141.55 111.14 146.121 109.905 150.418L111.978 142.786C112.613 140.816 112.941 138.76 112.952 136.691C112.95 135.657 112.709 134.638 112.25 133.712C111.79 132.786 111.124 131.978 110.303 131.351C109.91 131.051 109.424 130.9 108.93 130.926C108.107 131.008 107.558 131.818 107.201 132.559C105.44 136.049 104.404 139.859 104.153 143.76L103.975 131.406C104.041 130.291 103.858 129.175 103.439 128.139C103.216 127.615 102.826 127.179 102.33 126.899C101.833 126.618 101.259 126.509 100.694 126.588C99.3215 126.876 98.7724 128.414 98.4841 129.745C98.0055 131.952 97.7389 134.2 97.688 136.457" fill="white"/>
<path d="M116.781 165.434C116.682 165.457 116.579 165.457 116.479 165.434C115.195 164.553 114.187 163.326 113.573 161.894C112.958 160.463 112.761 158.887 113.006 157.349C113.474 154.446 114.555 151.676 116.177 149.223L116.534 148.592C117.91 146.467 118.973 144.155 119.691 141.728C119.925 140.712 119.925 139.491 119.183 139.065C118.442 138.64 117.22 139.354 116.877 139.601C113.336 142.085 111.798 146.615 110.645 150.582C110.591 150.762 110.469 150.914 110.305 151.006C110.142 151.098 109.949 151.123 109.767 151.076C109.588 151.025 109.436 150.906 109.344 150.744C109.252 150.583 109.226 150.392 109.273 150.211L111.345 142.566C111.957 140.671 112.281 138.695 112.306 136.704C112.311 135.779 112.102 134.865 111.694 134.034C111.287 133.203 110.693 132.477 109.959 131.914C109.719 131.706 109.411 131.593 109.094 131.598C108.71 131.598 108.339 132.051 107.927 132.847C106.208 136.27 105.199 140.005 104.962 143.828C104.92 143.978 104.83 144.109 104.706 144.202C104.582 144.296 104.431 144.346 104.276 144.346C104.121 144.346 103.97 144.296 103.846 144.202C103.722 144.109 103.632 143.978 103.59 143.828L103.398 131.474C103.462 130.465 103.308 129.454 102.945 128.509C102.787 128.14 102.519 127.828 102.177 127.617C101.836 127.406 101.438 127.305 101.037 127.329C100.268 127.507 99.6639 128.386 99.3757 129.951C98.9047 132.113 98.6381 134.314 98.5795 136.526C98.5778 136.619 98.5574 136.711 98.5197 136.796C98.4821 136.881 98.4277 136.958 98.36 137.022C98.2922 137.086 98.2124 137.136 98.1252 137.168C98.0379 137.201 97.9451 137.216 97.852 137.212C97.7601 137.21 97.6694 137.191 97.5851 137.154C97.5009 137.117 97.4247 137.064 97.361 136.997C97.2972 136.931 97.2472 136.853 97.2137 136.767C97.1802 136.682 97.1638 136.59 97.1657 136.498C97.2181 134.189 97.4939 131.891 97.9893 129.635C98.456 127.48 99.3619 126.231 100.735 125.929C101.445 125.834 102.167 125.971 102.793 126.32C103.418 126.668 103.915 127.21 104.207 127.864C104.678 128.998 104.889 130.222 104.825 131.447V136.677C105.311 135.149 105.917 133.662 106.637 132.229C106.823 131.73 107.129 131.284 107.529 130.932C107.929 130.58 108.41 130.332 108.929 130.212C109.574 130.184 110.208 130.378 110.728 130.761C111.641 131.442 112.387 132.323 112.908 133.336C113.429 134.35 113.711 135.469 113.734 136.608C113.759 138.174 113.565 139.736 113.157 141.248C113.972 140.129 114.959 139.147 116.081 138.338C116.594 137.875 117.232 137.573 117.915 137.468C118.598 137.363 119.296 137.46 119.925 137.748C121.105 138.434 121.544 140.012 121.078 141.962C120.338 144.523 119.223 146.961 117.769 149.196L117.413 149.813C115.902 152.1 114.883 154.676 114.42 157.377C114.224 158.644 114.375 159.94 114.859 161.127C115.343 162.314 116.14 163.348 117.166 164.117C117.327 164.214 117.443 164.37 117.49 164.553C117.536 164.736 117.508 164.929 117.413 165.091C117.346 165.198 117.253 165.286 117.142 165.346C117.032 165.406 116.907 165.437 116.781 165.434Z" fill="#231F20"/>
<path d="M341.637 124C341.637 124 352.619 134.46 355.488 138.839C358.357 143.217 361.102 196.491 361.102 196.491L377.684 156.354L405.508 167.198C405.508 167.198 388.5 253.965 370.573 255.79C352.646 257.616 318 223.835 318 223.835L341.637 124Z" fill="#BFDBFE"/>
<path d="M260.24 114.838C260.24 114.838 228.216 121.139 220.433 130.871C212.65 140.603 236.328 228.853 236.781 253.176C236.781 253.176 292.114 262.854 329.876 251.364C329.876 251.364 342.999 204.831 346.348 178.077C349.697 151.324 345.387 127.961 341.489 123.582C337.591 119.203 322.642 116.321 322.642 116.321C322.642 116.321 267.557 116.321 260.24 114.838Z" fill="#BFDBFE"/>
<path d="M348.723 114.124C349.424 111.006 349.793 107.821 349.821 104.625C349.906 102.721 349.617 100.818 348.97 99.0247C346.609 93.1634 338.744 90.5142 337.467 84.3234C336.396 79.121 338.345 74.55 336.987 69.526C335.696 64.7353 334.241 62.4567 334.79 56.6915C335.663 46.4815 334.008 36.2137 329.972 26.7947C326.197 17.9409 320.858 13.8778 314.392 7.16543C312.866 5.67479 311.035 4.53219 309.025 3.81611C291.908 -2.92372 273.171 2.44344 264.551 19.3273C259.76 28.7301 257.687 39.4232 252.087 48.4005C248.175 54.7148 242.478 60.2879 241.023 67.618C239.719 74.0558 242.094 80.1642 240.597 86.6707C240.157 88.8501 239.319 90.9299 238.127 92.8065C236.762 94.667 235.172 96.3501 233.391 97.8168C229.354 101.196 225.794 105.107 222.808 109.443C221.855 110.949 221.041 112.539 220.378 114.193L348.723 114.124Z" fill="white"/>
<path d="M348.722 114.838H220.377C220.262 114.838 220.149 114.809 220.049 114.753C219.948 114.698 219.863 114.619 219.801 114.522C219.733 114.428 219.691 114.318 219.676 114.203C219.662 114.088 219.676 113.971 219.718 113.863C220.399 112.17 221.235 110.543 222.216 109.004C225.235 104.615 228.832 100.654 232.91 97.2263L233.129 97.0204C234.787 95.6547 236.267 94.0868 237.536 92.3533C238.674 90.544 239.479 88.5447 239.91 86.4508C240.483 83.2793 240.566 80.0389 240.157 76.8421C239.765 73.6926 239.825 70.5032 240.336 67.3707C241.406 62.0996 244.619 57.6796 247.721 53.4106C249.011 51.6536 250.329 49.8279 251.482 47.9199C254.413 42.7986 256.81 37.3892 258.633 31.7773C260.132 27.3776 261.897 23.0731 263.918 18.8879C272.347 2.4158 291.001 -4.14558 309.217 3.04723C311.326 3.79266 313.244 4.99763 314.831 6.575C316.08 7.86531 317.288 9.05954 318.441 10.1989C323.273 15.0032 327.446 19.135 330.548 26.4101C334.627 35.9237 336.306 46.2943 335.435 56.6089C335.096 59.8666 335.529 63.1581 336.697 66.2176C336.986 67.1373 337.301 68.1257 337.603 69.2375C338.178 71.8235 338.294 74.4905 337.947 77.1167C337.669 79.4366 337.72 81.7841 338.098 84.0898C338.729 87.1784 341.172 89.3472 343.753 91.6533C346.032 93.6848 348.406 95.7713 349.559 98.6676C350.23 100.546 350.537 102.535 350.465 104.529C350.433 107.762 350.061 110.983 349.353 114.138C349.351 114.311 349.286 114.478 349.17 114.607C349.054 114.736 348.894 114.818 348.722 114.838ZM221.448 113.465H348.159C348.777 110.577 349.099 107.633 349.12 104.68C349.19 102.865 348.915 101.053 348.31 99.3402C347.281 96.7871 345.043 94.7967 342.82 92.8612C340.184 90.514 337.452 88.0706 336.725 84.5291C336.312 82.0979 336.252 79.6199 336.546 77.1716C336.879 74.702 336.776 72.1935 336.244 69.7591C335.956 68.661 335.654 67.7001 335.366 66.7942C334.13 63.5741 333.66 60.1106 333.993 56.6776C334.853 46.5835 333.212 36.4331 329.216 27.1239C326.224 20.0958 322.353 16.2386 317.425 11.3656C316.258 10.2126 315.05 9.00463 313.787 7.70059C312.33 6.28222 310.584 5.19584 308.667 4.51599C291.084 -2.34738 273.17 3.84338 265.085 19.684C263.093 23.8174 261.351 28.0666 259.869 32.4087C258.015 38.1344 255.577 43.6541 252.594 48.8808C251.413 50.7751 250.068 52.6282 248.764 54.3715C245.621 58.7091 242.628 62.7997 241.626 67.7688C241.143 70.7751 241.092 73.8351 241.475 76.8559C241.898 80.1817 241.8 83.553 241.187 86.8489C240.728 89.1113 239.858 91.2702 238.62 93.2181C237.288 95.0545 235.729 96.7149 233.98 98.1597L233.761 98.3519C229.782 101.698 226.268 105.562 223.315 109.841C222.608 110.985 221.985 112.178 221.448 113.41V113.465Z" fill="#231F20"/>
<path d="M307.803 110.116C307.803 110.116 312.141 171.777 290.521 167.645C261.805 161.523 274.873 118.229 274.873 118.229L275.339 110.13L276.437 91.2968L277.467 73.6991L307.666 73.356L308.832 87.7278L309.189 92.3949L307.803 110.116Z" fill="white"/>
<path d="M292.538 168.551C291.82 168.548 291.103 168.479 290.397 168.345C287.318 167.792 284.395 166.58 281.827 164.794C279.259 163.008 277.107 160.689 275.517 157.995C266.924 143.445 273.623 119.917 274.145 118.091L276.725 73.6304C276.736 73.452 276.814 73.2843 276.944 73.1618C277.074 73.0393 277.246 72.9712 277.425 72.9715L307.624 72.6421C307.802 72.6413 307.974 72.707 308.106 72.8263C308.238 72.9457 308.321 73.1101 308.338 73.2873L309.848 92.3262L308.475 110.171C308.654 112.642 311.371 155.112 299.086 166.039C297.291 167.66 294.957 168.555 292.538 168.551ZM278.139 74.3854L275.572 118.311C275.579 118.366 275.579 118.421 275.572 118.476C275.572 118.709 268.324 143.047 276.766 157.336C278.259 159.854 280.276 162.021 282.68 163.691C285.084 165.36 287.819 166.494 290.699 167.013C292.021 167.309 293.396 167.278 294.704 166.924C296.012 166.57 297.214 165.904 298.207 164.982C310.081 154.426 307.157 110.651 307.13 110.212V110.116L308.503 92.3811L307.006 74.0559L278.139 74.3854Z" fill="#231F20"/>
<path d="M309.176 92.3808C306.796 96.5059 303.422 99.9697 299.361 102.456C292.909 106.657 283.795 110.39 275.888 109.1L276.437 91.2552C282.213 92.0371 288.067 92.0371 293.843 91.2552C298.935 90.6924 304.165 90.061 308.819 87.7549L309.176 92.3808Z" fill="#231F20"/>
<path d="M279.114 110.033C277.997 110.038 276.881 109.951 275.779 109.772C275.616 109.743 275.47 109.656 275.367 109.527C275.263 109.399 275.21 109.237 275.216 109.072L275.751 91.2277C275.753 91.1301 275.776 91.0342 275.819 90.9465C275.861 90.8588 275.923 90.7814 275.998 90.7198C276.072 90.6586 276.158 90.6136 276.25 90.5876C276.342 90.5616 276.439 90.5552 276.534 90.5688C282.249 91.3605 288.046 91.3605 293.761 90.5688C298.483 90.0472 303.836 89.4432 308.517 87.1371C308.616 87.083 308.727 87.0547 308.839 87.0547C308.952 87.0547 309.063 87.083 309.162 87.1371C309.257 87.1937 309.337 87.2716 309.396 87.3644C309.456 87.4573 309.493 87.5627 309.505 87.6724L309.848 92.3395C309.86 92.467 309.837 92.5954 309.78 92.7101C307.36 96.9509 303.902 100.508 299.732 103.046C292.827 107.535 285.319 110.033 279.114 110.033ZM276.602 108.51C282.999 109.333 291.317 106.89 298.99 101.88C302.898 99.5108 306.158 96.2092 308.476 92.2709L308.215 88.798C303.561 90.8708 298.455 91.4336 293.912 91.9414C288.337 92.7195 282.685 92.7749 277.096 92.1062L276.602 108.51Z" fill="#231F20"/>
<path d="M293.815 95.5238H290.713C283.687 95.6008 276.918 92.8881 271.89 87.9809C266.862 83.0736 263.985 76.3723 263.891 69.347C263.795 60.9737 266.183 45.0095 266.183 45.0095C266.183 45.0095 278.455 40.5208 288.064 36.9381C304.206 30.8298 308.544 22.1133 308.544 22.1133C309.049 27.9071 310.323 33.608 312.333 39.0658C314.062 43.0465 319.539 50.1433 319.539 50.1433C319.539 50.1433 320.006 63.2248 320.075 68.6881C320.148 75.728 317.423 82.5089 312.499 87.5409C307.575 92.5729 300.855 95.4442 293.815 95.5238Z" fill="white"/>
<path d="M290.425 96.2653C283.257 96.2587 276.38 93.4309 271.281 88.3936C266.182 83.3562 263.271 76.5142 263.177 69.3472C263.081 61.0013 265.456 45.0508 265.483 44.8861C265.504 44.7595 265.559 44.6407 265.641 44.5418C265.723 44.443 265.829 44.3676 265.95 44.3233C266.074 44.3233 278.304 39.8896 287.803 36.2932C303.493 30.3632 307.858 21.9076 307.899 21.8252C307.938 21.6462 308.046 21.4898 308.2 21.3897C308.353 21.2895 308.54 21.2535 308.72 21.2895C308.9 21.3254 309.058 21.4304 309.161 21.5819C309.264 21.7334 309.304 21.9194 309.272 22.0998C309.781 27.8119 311.036 33.4327 313.005 38.8189C314.694 42.6624 320.074 49.663 320.129 49.8003C320.215 49.9208 320.263 50.0642 320.267 50.2121C320.267 50.3356 320.747 63.3623 320.802 68.7844C320.872 76.0065 318.074 82.9614 313.022 88.1234C307.971 93.2855 301.078 96.2333 293.856 96.3202H290.768L290.425 96.2653ZM266.828 45.4764C266.458 48.0433 264.509 61.8112 264.591 69.2923C264.678 76.0903 267.436 82.5812 272.27 87.3615C277.105 92.1418 283.626 94.8274 290.425 94.8377H290.713H293.801C300.644 94.7544 307.174 91.9629 311.962 87.0745C316.75 82.1861 319.406 75.5993 319.347 68.7569C319.347 63.7467 318.88 52.2025 318.825 50.4455C316.117 47.0066 313.724 43.3314 311.674 39.4641C309.858 34.5947 308.632 29.5255 308.022 24.3647C305.867 27.2885 300.294 33.2184 288.297 37.7482C279.828 40.823 269.011 44.639 266.828 45.4901V45.4764Z" fill="#231F20"/>
<path d="M290.576 68.6474C289.434 68.6536 288.293 68.594 287.158 68.4689C286.894 68.4384 286.642 68.3468 286.42 68.2014C286.199 68.056 286.014 67.8609 285.881 67.6316C283.891 64.3921 288.915 50.4183 289.999 47.6455C290.065 47.4634 290.2 47.3149 290.375 47.2325C290.55 47.1501 290.75 47.1407 290.933 47.2062C291.115 47.2717 291.263 47.4069 291.345 47.5819C291.428 47.757 291.437 47.9576 291.372 48.1396C289.093 54.3029 285.881 64.8313 287.254 66.8903C287.336 67.0276 287.418 67.0551 287.487 67.0551C289.99 67.3124 292.513 67.2848 295.009 66.9727C295.197 66.9494 295.386 67.0013 295.535 67.1171C295.684 67.2328 295.782 67.4031 295.806 67.5904C295.829 67.7758 295.779 67.963 295.666 68.1118C295.553 68.2607 295.386 68.3593 295.202 68.3866C293.666 68.569 292.121 68.6561 290.576 68.6474Z" fill="#231F20"/>
<path d="M304.141 56.9636C305.15 56.9525 305.945 54.9279 305.917 52.4414C305.89 49.955 305.051 47.9483 304.042 47.9594C303.034 47.9705 302.239 49.9951 302.266 52.4816C302.294 54.968 303.133 56.9747 304.141 56.9636Z" fill="#231F20"/>
<path d="M279.964 56.3914C280.972 56.3803 281.767 54.3556 281.74 51.8692C281.712 49.3827 280.873 47.3761 279.865 47.3872C278.856 47.3982 278.061 49.4229 278.089 51.9093C278.116 54.3958 278.955 56.4024 279.964 56.3914Z" fill="#231F20"/>
<path d="M275.915 110.116C270.177 107.041 261.132 111.626 260.253 114.838C259.375 118.05 262.93 168.578 275.915 176.361C281.543 179.738 291.66 167.644 291.66 167.644C291.66 167.644 277.178 161.316 275.915 110.116Z" fill="white"/>
<path d="M278.125 177.665C277.218 177.679 276.325 177.442 275.545 176.979C262.504 169.155 258.524 118.476 259.567 114.66C260.034 112.971 262.312 111.05 265.25 109.759C269.258 108.043 273.362 107.934 276.231 109.485C276.34 109.544 276.432 109.631 276.497 109.737C276.562 109.843 276.598 109.964 276.602 110.089C277.851 160.246 291.797 166.931 291.935 167C292.035 167.042 292.123 167.107 292.193 167.191C292.262 167.275 292.31 167.374 292.333 167.48C292.36 167.587 292.362 167.698 292.338 167.805C292.314 167.913 292.265 168.013 292.195 168.098C291.838 168.551 284.124 177.665 278.125 177.665ZM271.495 109.8C269.535 109.835 267.603 110.264 265.813 111.063C263.287 112.148 261.269 113.809 260.94 115.03C260.322 117.24 263.575 168.139 276.272 175.757C280.198 178.118 287.473 171.337 290.576 167.823C287.446 165.668 276.382 154.934 275.215 110.555C274.044 110.041 272.775 109.784 271.495 109.8Z" fill="#231F20"/>
<path d="M307.803 110.116C313.54 107.041 322.586 111.626 323.465 114.838C324.343 118.05 320.72 168.578 307.803 176.361C302.175 179.738 292.058 167.644 292.058 167.644C292.058 167.644 306.54 161.316 307.803 110.116Z" fill="white"/>
<path d="M305.593 177.665C299.594 177.665 291.866 168.551 291.509 168.057C291.439 167.972 291.391 167.871 291.367 167.764C291.343 167.657 291.345 167.545 291.372 167.439C291.395 167.333 291.443 167.233 291.512 167.15C291.581 167.066 291.67 167 291.77 166.958C291.907 166.958 305.867 159.93 307.103 110.047C307.107 109.923 307.143 109.802 307.208 109.696C307.273 109.59 307.364 109.503 307.473 109.443C310.356 107.906 314.46 108.071 318.455 109.718C321.447 111.008 323.685 112.93 324.138 114.618C325.181 118.435 321.186 169.114 308.16 176.938C307.388 177.412 306.499 177.664 305.593 177.665ZM293.143 167.823C296.245 171.337 303.506 178.118 307.446 175.757C320.143 168.139 323.396 117.24 322.792 115.03C322.449 113.781 320.431 112.148 317.906 111.063C316.456 110.341 314.874 109.923 313.257 109.836C311.64 109.749 310.022 109.994 308.503 110.555C307.281 154.934 296.3 165.668 293.143 167.823Z" fill="#231F20"/>
<path d="M277.467 73.685L307.666 73.3418C307.666 73.3418 303.067 89.2785 291.523 87.7137C279.979 86.1488 277.467 73.685 277.467 73.685Z" fill="white"/>
<path d="M293.074 88.5655C292.518 88.5649 291.963 88.5236 291.413 88.442C279.512 86.836 276.794 73.974 276.767 73.8505C276.747 73.7471 276.75 73.6405 276.776 73.5384C276.802 73.4364 276.851 73.3414 276.918 73.2602C276.981 73.1786 277.062 73.1126 277.155 73.0674C277.248 73.0221 277.35 72.9989 277.453 72.9994L307.652 72.67C307.762 72.6599 307.872 72.6802 307.972 72.7286C308.071 72.777 308.155 72.8517 308.215 72.9445C308.281 73.0337 308.327 73.1368 308.349 73.2461C308.37 73.3555 308.366 73.4682 308.338 73.576C308.283 73.6995 303.863 88.5655 293.074 88.5655ZM278.373 74.3721C279.183 77.1175 282.422 85.779 291.605 87.0144C300.789 88.2498 305.483 77.4057 306.705 74.0701L278.373 74.3721Z" fill="#231F20"/>
<path d="M220.377 130.87L181.448 194.26L143.206 172.009L120.474 185.955C120.474 185.955 175.45 259.297 202.368 246.888C214.873 241.123 254.914 179.627 254.914 179.627L220.377 130.87Z" fill="#BFDBFE"/>
<path d="M332.085 243.787H331.879C331.791 243.761 331.708 243.717 331.637 243.658C331.565 243.599 331.506 243.527 331.463 243.445C331.419 243.364 331.393 243.274 331.384 243.182C331.375 243.09 331.385 242.997 331.413 242.909C331.646 242.099 355.366 162.223 344.412 133.273C344.345 133.097 344.35 132.901 344.428 132.728C344.505 132.556 344.647 132.421 344.824 132.354C345 132.29 345.195 132.298 345.366 132.375C345.538 132.451 345.673 132.591 345.743 132.765C350.41 145.12 349.655 167.508 343.465 199.258C338.866 222.854 332.826 243.115 332.758 243.307C332.713 243.449 332.623 243.573 332.502 243.66C332.381 243.746 332.234 243.791 332.085 243.787Z" fill="#231F20"/>
<path d="M236.272 247.548C236.102 247.55 235.937 247.489 235.808 247.378C235.679 247.267 235.595 247.112 235.572 246.944C235.476 246.23 225.785 175.936 222.545 160.081C222.526 159.991 222.524 159.898 222.541 159.807C222.558 159.716 222.593 159.629 222.645 159.552C222.696 159.475 222.762 159.41 222.839 159.359C222.917 159.308 223.004 159.274 223.095 159.258C223.186 159.238 223.28 159.236 223.372 159.253C223.463 159.27 223.551 159.305 223.629 159.356C223.707 159.407 223.774 159.473 223.826 159.551C223.878 159.628 223.914 159.715 223.932 159.807C227.185 175.702 236.876 246.038 236.972 246.752C236.996 246.937 236.946 247.124 236.833 247.273C236.72 247.422 236.553 247.521 236.368 247.548H236.272Z" fill="#231F20"/>
<path d="M352.951 216.127C352.864 216.14 352.776 216.14 352.69 216.127C352.602 216.093 352.522 216.041 352.455 215.975C352.388 215.908 352.335 215.829 352.299 215.742C352.263 215.655 352.245 215.562 352.246 215.467C352.247 215.373 352.267 215.28 352.305 215.194L375.215 159.724C375.242 159.626 375.289 159.534 375.354 159.456C375.419 159.378 375.5 159.314 375.591 159.269C375.683 159.225 375.783 159.2 375.884 159.198C375.986 159.195 376.087 159.214 376.181 159.253C376.275 159.293 376.359 159.352 376.428 159.426C376.497 159.501 376.55 159.59 376.582 159.686C376.614 159.783 376.625 159.885 376.614 159.986C376.603 160.088 376.571 160.185 376.519 160.273L353.609 215.743C353.549 215.864 353.454 215.964 353.337 216.033C353.22 216.101 353.086 216.134 352.951 216.127Z" fill="#231F20"/>
<path d="M405.359 133.698C405.216 133.699 405.076 133.656 404.958 133.575C404.84 133.494 404.75 133.379 404.7 133.245C401.954 126.382 393.65 123.047 393.567 123.019C393.394 122.949 393.254 122.813 393.18 122.641C393.105 122.469 393.102 122.274 393.169 122.099C393.203 122.012 393.253 121.932 393.318 121.865C393.382 121.797 393.46 121.744 393.545 121.707C393.631 121.669 393.723 121.65 393.817 121.649C393.91 121.648 394.003 121.666 394.089 121.701C394.446 121.839 403.053 125.284 406.018 132.683C406.055 132.769 406.074 132.862 406.074 132.956C406.074 133.05 406.055 133.143 406.018 133.229C405.981 133.315 405.926 133.393 405.857 133.457C405.789 133.521 405.708 133.571 405.619 133.602C405.541 133.655 405.452 133.688 405.359 133.698Z" fill="#231F20"/>
<path d="M405.359 118.874C405.234 118.876 405.11 118.843 405.002 118.778C404.839 118.683 404.719 118.527 404.67 118.344C404.621 118.162 404.647 117.967 404.742 117.803L414.021 101.825C414.068 101.746 414.13 101.676 414.203 101.621C414.277 101.565 414.361 101.525 414.45 101.502C414.539 101.479 414.632 101.474 414.723 101.487C414.815 101.5 414.902 101.531 414.982 101.578C415.062 101.624 415.133 101.685 415.19 101.758C415.247 101.831 415.288 101.915 415.313 102.004C415.337 102.093 415.343 102.187 415.331 102.279C415.319 102.37 415.289 102.459 415.242 102.539L405.977 118.517C405.914 118.625 405.824 118.715 405.716 118.778C405.607 118.841 405.484 118.874 405.359 118.874Z" fill="#231F20"/>
<path d="M413.347 121.304C413.243 121.322 413.136 121.322 413.032 121.304C412.866 121.219 412.74 121.072 412.681 120.895C412.622 120.718 412.634 120.525 412.716 120.357L419.84 105.806C419.881 105.723 419.938 105.648 420.008 105.587C420.078 105.526 420.159 105.479 420.248 105.45C420.336 105.421 420.429 105.409 420.521 105.416C420.614 105.423 420.705 105.448 420.787 105.491C420.956 105.574 421.085 105.719 421.146 105.897C421.208 106.074 421.197 106.268 421.117 106.438L414.006 120.906C413.945 121.027 413.85 121.129 413.734 121.199C413.617 121.269 413.483 121.306 413.347 121.304Z" fill="#231F20"/>
<path d="M416.903 126.533C416.813 126.554 416.719 126.554 416.629 126.533C416.459 126.455 416.325 126.314 416.256 126.141C416.187 125.967 416.188 125.773 416.258 125.6L423.121 110.088C423.159 110.003 423.212 109.926 423.28 109.862C423.347 109.798 423.426 109.747 423.513 109.714C423.6 109.681 423.693 109.665 423.786 109.668C423.879 109.671 423.97 109.693 424.055 109.732C424.14 109.767 424.216 109.82 424.28 109.886C424.345 109.952 424.395 110.03 424.428 110.116C424.461 110.202 424.477 110.293 424.474 110.385C424.471 110.477 424.45 110.568 424.412 110.651L417.548 126.162C417.485 126.278 417.392 126.373 417.278 126.439C417.164 126.504 417.034 126.537 416.903 126.533Z" fill="#231F20"/>
<path d="M153.542 51.5027C153.383 51.5027 153.23 51.448 153.107 51.348C152.985 51.2479 152.901 51.1086 152.869 50.9536L150.659 40.0683L140.254 41.6606C140.076 41.6842 139.896 41.6371 139.752 41.5293C139.608 41.4215 139.513 41.2617 139.485 41.0841C139.47 40.9956 139.472 40.9049 139.492 40.8173C139.512 40.7297 139.549 40.647 139.602 40.5741C139.654 40.5012 139.721 40.4395 139.797 40.3927C139.874 40.3459 139.959 40.3149 140.048 40.3016L151.098 38.6133C151.274 38.5886 151.452 38.6315 151.598 38.7335C151.743 38.8354 151.844 38.9887 151.881 39.1623L154.228 50.6791C154.26 50.859 154.221 51.0445 154.118 51.1958C154.016 51.3472 153.858 51.4524 153.679 51.4889L153.542 51.5027Z" fill="#D1D3D4"/>
<path d="M78.5804 58.5997H50.3582C50.1762 58.5997 50.0016 58.5274 49.8729 58.3987C49.7442 58.27 49.6719 58.0954 49.6719 57.9134C49.6719 57.7314 49.7442 57.5568 49.8729 57.4281C50.0016 57.2994 50.1762 57.2271 50.3582 57.2271H78.5804C78.7613 57.2306 78.9338 57.304 79.0618 57.432C79.1898 57.5599 79.2632 57.7325 79.2667 57.9134C79.2667 58.0954 79.1944 58.27 79.0657 58.3987C78.937 58.5274 78.7624 58.5997 78.5804 58.5997Z" fill="#D1D3D4"/>
<path d="M78.5804 48.5787H50.3582C50.1762 48.5787 50.0016 48.5064 49.8729 48.3777C49.7442 48.249 49.6719 48.0744 49.6719 47.8924C49.6719 47.7104 49.7442 47.5358 49.8729 47.4071C50.0016 47.2784 50.1762 47.2061 50.3582 47.2061H78.5804C78.7613 47.2096 78.9338 47.283 79.0618 47.411C79.1898 47.5389 79.2632 47.7115 79.2667 47.8924C79.2667 48.0744 79.1944 48.249 79.0657 48.3777C78.937 48.5064 78.7624 48.5787 78.5804 48.5787Z" fill="#D1D3D4"/>
<path d="M148.697 115.058H120.474C120.293 115.054 120.121 114.981 119.993 114.853C119.865 114.725 119.792 114.552 119.788 114.371C119.788 114.189 119.86 114.015 119.989 113.886C120.118 113.757 120.292 113.685 120.474 113.685H148.697C148.879 113.685 149.053 113.757 149.182 113.886C149.311 114.015 149.383 114.189 149.383 114.371C149.383 114.553 149.311 114.728 149.182 114.857C149.053 114.985 148.879 115.058 148.697 115.058Z" fill="#D1D3D4"/>
<path d="M148.697 105.037H120.474C120.293 105.034 120.121 104.96 119.993 104.832C119.865 104.704 119.792 104.532 119.788 104.351C119.788 104.169 119.86 103.994 119.989 103.866C120.118 103.737 120.292 103.665 120.474 103.665H148.697C148.879 103.665 149.053 103.737 149.182 103.866C149.311 103.994 149.383 104.169 149.383 104.351C149.383 104.533 149.311 104.707 149.182 104.836C149.053 104.965 148.879 105.037 148.697 105.037Z" fill="#D1D3D4"/>
<path d="M139.115 10.9399H37.3589V15.6345H139.115V10.9399Z" fill="#D1D3D4"/>
</svg>
