<svg width="447" height="380" viewBox="0 0 447 380" fill="none" xmlns="http://www.w3.org/2000/svg">
<path d="M413.404 356.494H28.2475C28.0188 356.494 27.7995 356.403 27.6378 356.242C27.4761 356.08 27.3853 355.86 27.3853 355.632C27.3853 355.403 27.4761 355.184 27.6378 355.022C27.7995 354.86 28.0188 354.77 28.2475 354.77H413.404C413.633 354.77 413.852 354.86 414.014 355.022C414.176 355.184 414.266 355.403 414.266 355.632C414.266 355.86 414.176 356.08 414.014 356.242C413.852 356.403 413.633 356.494 413.404 356.494Z" fill="#D1D3D4"/>
<path d="M387.83 97.5225H53.7881C47.6259 97.5225 42.6304 102.518 42.6304 108.68V314.555C42.6304 320.717 47.6259 325.712 53.7881 325.712H387.83C393.992 325.712 398.987 320.717 398.987 314.555V108.68C398.987 102.518 393.992 97.5225 387.83 97.5225Z" fill="white"/>
<path d="M387.847 326.574H53.788C50.5864 326.574 47.5159 325.302 45.252 323.038C42.9882 320.775 41.7163 317.704 41.7163 314.502V108.663C41.7163 105.461 42.9882 102.39 45.252 100.127C47.5159 97.8626 50.5864 96.5908 53.788 96.5908H387.847C391.048 96.5908 394.119 97.8626 396.383 100.127C398.647 102.39 399.918 105.461 399.918 108.663V314.554C399.905 317.747 398.627 320.804 396.365 323.057C394.102 325.309 391.039 326.574 387.847 326.574ZM53.788 98.3843C51.0438 98.3843 48.4119 99.4745 46.4715 101.415C44.531 103.355 43.4408 105.987 43.4408 108.732V314.554C43.4408 317.298 44.531 319.93 46.4715 321.871C48.4119 323.811 51.0438 324.901 53.788 324.901H387.847C390.591 324.901 393.223 323.811 395.163 321.871C397.104 319.93 398.194 317.298 398.194 314.554V108.663C398.194 105.918 397.104 103.286 395.163 101.346C393.223 99.4055 390.591 98.3154 387.847 98.3154L53.788 98.3843Z" fill="#231F20"/>
<path d="M399.022 290.48H42.6303C42.4016 290.48 42.1823 290.39 42.0206 290.228C41.8589 290.066 41.7681 289.847 41.7681 289.618C41.7681 289.389 41.8589 289.17 42.0206 289.008C42.1823 288.847 42.4016 288.756 42.6303 288.756H399.022C399.25 288.756 399.47 288.847 399.631 289.008C399.793 289.17 399.884 289.389 399.884 289.618C399.884 289.847 399.793 290.066 399.631 290.228C399.47 290.39 399.25 290.48 399.022 290.48Z" fill="#231F20"/>
<path d="M266.353 369.808H175.264L192.061 325.712H249.556L266.353 369.808Z" fill="white"/>
<path d="M266.354 370.671H175.264C175.125 370.673 174.989 370.641 174.865 370.578C174.742 370.515 174.636 370.422 174.557 370.308C174.474 370.196 174.421 370.064 174.403 369.925C174.385 369.786 174.402 369.645 174.453 369.515L191.25 325.402C191.313 325.238 191.425 325.098 191.57 324.999C191.714 324.901 191.886 324.849 192.061 324.85H249.557C249.732 324.846 249.905 324.897 250.05 324.996C250.195 325.095 250.306 325.237 250.367 325.402L267.164 369.515C267.228 369.638 267.261 369.774 267.261 369.912C267.261 370.05 267.228 370.186 267.164 370.308C267.071 370.433 266.948 370.531 266.806 370.595C266.664 370.658 266.508 370.684 266.354 370.671ZM176.506 368.946H265.112L248.988 326.574H192.647L176.506 368.946Z" fill="#231F20"/>
<path d="M277.046 367.222H164.589C161.637 367.222 159.243 369.615 159.243 372.568V373.775C159.243 376.727 161.637 379.121 164.589 379.121H277.046C279.998 379.121 282.392 376.727 282.392 373.775V372.568C282.392 369.615 279.998 367.222 277.046 367.222Z" fill="white"/>
<path d="M277.046 380H164.572C162.929 379.996 161.354 379.34 160.194 378.176C159.033 377.012 158.381 375.436 158.381 373.792V372.568C158.381 370.924 159.033 369.348 160.194 368.184C161.354 367.02 162.929 366.364 164.572 366.359H277.046C278.691 366.364 280.268 367.019 281.431 368.183C282.594 369.346 283.25 370.923 283.255 372.568V373.792C283.25 375.437 282.594 377.014 281.431 378.177C280.268 379.34 278.691 379.996 277.046 380ZM164.572 368.084C163.386 368.088 162.25 368.563 161.413 369.403C160.576 370.244 160.106 371.382 160.106 372.568V373.792C160.106 374.978 160.576 376.116 161.413 376.957C162.25 377.797 163.386 378.271 164.572 378.276H277.046C278.234 378.271 279.372 377.797 280.212 376.958C281.052 376.118 281.525 374.98 281.53 373.792V372.568C281.525 371.38 281.052 370.242 280.212 369.402C279.372 368.562 278.234 368.088 277.046 368.084H164.572Z" fill="#231F20"/>
<path d="M386.277 108.267H55.3574V275.65H386.277V108.267Z" fill="#68E1FD"/>
<path d="M386.277 108.267H55.3574V275.65H386.277V108.267Z" fill="#231F20"/>
<path d="M183.749 345.854L251.575 332.679L248.919 325.712H191.423L183.749 345.854Z" fill="#231F20"/>
<path d="M183.749 346.717C183.623 346.717 183.499 346.689 183.386 346.635C183.273 346.582 183.173 346.504 183.093 346.406C182.994 346.289 182.928 346.147 182.901 345.996C182.873 345.845 182.886 345.689 182.938 345.544L190.612 325.402C190.673 325.237 190.784 325.095 190.929 324.996C191.074 324.897 191.247 324.846 191.423 324.85H248.988C249.163 324.849 249.334 324.901 249.479 324.999C249.624 325.098 249.735 325.238 249.798 325.402L252.454 332.3C252.505 332.414 252.532 332.537 252.532 332.662C252.532 332.787 252.505 332.91 252.454 333.024C252.389 333.134 252.302 333.229 252.198 333.304C252.094 333.378 251.975 333.43 251.85 333.455L184.024 346.631L183.749 346.717ZM192.078 326.574L185.18 344.716L250.471 332.024L248.401 326.574H192.078Z" fill="#231F20"/>
<path d="M152.552 123.873C151.932 113.559 149.553 103.428 145.516 93.9175C144.913 92.4861 143.533 90.7961 142.171 91.5376C142.964 95.9007 143.757 100.281 144.568 104.644C136.467 99.288 129.446 92.4548 123.873 84.5015C123.392 83.6781 122.709 82.99 121.89 82.5011C121.474 82.2784 120.987 82.224 120.532 82.3491C120.076 82.4742 119.686 82.7694 119.441 83.1737C119.346 83.5545 119.337 83.9518 119.414 84.3366C119.492 84.7215 119.654 85.0842 119.89 85.3983C122.279 89.6719 125.062 93.7133 128.202 97.47C124.167 91.5376 115.82 81.4836 113.871 83.8635C111.922 86.2433 116.889 95.3661 121.08 100.781L111.026 89.6579C110.094 88.6404 108.594 87.5367 107.577 88.4162C106.559 89.2957 107.214 90.9168 107.973 92.0377L114.958 102.385C111.405 99.2808 106.456 91.7963 103.886 93.5381C101.317 95.2798 109.405 104.989 114.596 108.731C119.786 112.473 125.598 115.457 129.84 120.234C132.391 123.355 134.567 126.764 136.325 130.391" fill="white"/>
<path d="M136.203 131.271C136.059 131.271 135.918 131.233 135.793 131.16C135.669 131.087 135.566 130.983 135.496 130.857C133.776 127.285 131.64 123.927 129.132 120.855C126.029 117.669 122.521 114.904 118.699 112.629C117.147 111.612 115.543 110.56 114.008 109.456C109.421 106.128 102.419 98.1947 102.471 94.6594C102.453 94.3237 102.521 93.9889 102.669 93.6869C102.817 93.385 103.04 93.1261 103.316 92.9349C104.937 91.8312 106.903 93.0901 109.007 95.1423L107.196 92.452C105.869 90.4688 105.782 88.7098 106.972 87.7613C108.162 86.8128 109.938 87.2957 111.559 89.1064L115.164 93.1246C113.094 89.1582 111.715 85.1572 113.198 83.3982C113.38 83.1799 113.61 83.007 113.871 82.8932C114.131 82.7794 114.414 82.728 114.698 82.7429C116.299 83.1215 117.747 83.9751 118.854 85.1917C118.663 84.8318 118.547 84.4364 118.515 84.0301C118.482 83.6237 118.533 83.215 118.665 82.8291C118.783 82.5583 118.957 82.3145 119.173 82.1129C119.389 81.9112 119.645 81.7559 119.923 81.6564C120.288 81.5233 120.676 81.4638 121.063 81.4816C121.451 81.4993 121.832 81.594 122.183 81.7599C123.12 82.295 123.899 83.0684 124.442 84.0018C129.62 91.3745 136.039 97.793 143.412 102.972C142.722 99.2122 142.032 95.4699 141.359 91.7105C141.332 91.5441 141.357 91.3732 141.431 91.2217C141.505 91.0703 141.625 90.9457 141.773 90.8654C142.049 90.7181 142.353 90.6312 142.666 90.6104C142.978 90.5896 143.291 90.6354 143.584 90.7447C144.803 91.3307 145.744 92.3707 146.205 93.6419C150.281 103.234 152.684 113.453 153.31 123.856C153.298 124.048 153.216 124.228 153.08 124.364C152.944 124.5 152.763 124.582 152.571 124.595C152.379 124.607 152.189 124.55 152.037 124.433C151.884 124.316 151.779 124.148 151.741 123.959C151.158 113.739 148.824 103.694 144.843 94.2628C144.529 93.4004 143.918 92.6787 143.118 92.2278C143.866 96.3322 144.619 100.437 145.378 104.541C145.403 104.692 145.384 104.848 145.323 104.989C145.261 105.13 145.161 105.25 145.033 105.334C144.905 105.42 144.755 105.465 144.601 105.465C144.448 105.465 144.298 105.42 144.17 105.334C135.94 99.9156 128.793 93.0085 123.097 84.9675C122.674 84.2583 122.081 83.6656 121.372 83.243C121.044 83.123 120.683 83.123 120.355 83.243C120.19 83.2976 120.053 83.4155 119.975 83.5707C119.803 83.9501 120.096 84.5537 120.389 85.1055C121.527 87.1405 122.752 89.1237 124.045 91.0551C126.011 93.4522 127.718 95.7976 128.65 97.1772C128.712 97.2587 128.757 97.3517 128.784 97.4509C128.81 97.5501 128.817 97.6534 128.803 97.7551C128.789 97.8568 128.756 97.9548 128.704 98.0435C128.653 98.1323 128.585 98.21 128.503 98.2723C128.421 98.3346 128.328 98.3802 128.229 98.4065C128.13 98.4329 128.027 98.4394 127.925 98.4258C127.823 98.4122 127.725 98.3787 127.637 98.3272C127.548 98.2757 127.47 98.2072 127.408 98.1257C125.753 96.1411 124.199 94.0748 122.752 91.9346C119.303 87.8303 115.94 84.5019 114.491 84.4502C114.319 84.4502 114.319 84.4502 114.284 84.4502C112.956 86.0712 116.543 93.9696 121.51 100.385C121.621 100.547 121.668 100.745 121.642 100.94C121.615 101.135 121.518 101.313 121.367 101.44C121.217 101.567 121.024 101.633 120.828 101.626C120.631 101.619 120.444 101.539 120.303 101.402L110.249 90.2101C109.68 89.572 108.524 88.4856 107.817 89.0374C107.11 89.5893 107.817 90.8827 108.369 91.6242L115.353 101.971C115.455 102.13 115.497 102.319 115.471 102.505C115.446 102.692 115.355 102.863 115.215 102.989C115.077 103.124 114.891 103.199 114.698 103.199C114.505 103.199 114.319 103.124 114.181 102.989C112.925 101.835 111.739 100.609 110.628 99.3156C108.386 96.7978 105.282 93.3833 104.058 94.1421C104.058 94.1421 103.92 94.2283 103.92 94.5387C103.92 97.229 110.266 104.765 114.784 108.042C116.285 109.128 117.889 110.163 119.423 111.18C123.364 113.522 126.976 116.375 130.167 119.665C132.763 122.842 134.975 126.316 136.755 130.012C136.805 130.102 136.837 130.202 136.848 130.304C136.858 130.407 136.848 130.51 136.817 130.609C136.787 130.707 136.736 130.798 136.669 130.877C136.602 130.955 136.52 131.019 136.427 131.064C136.368 131.148 136.292 131.219 136.203 131.271Z" fill="#231F20"/>
<path d="M323.746 94.4868L318.141 72.0679C312.071 47.7348 303.707 22.6257 277.097 15.1584C269.216 12.9165 261.197 13.8133 255.972 20.9356C250.591 16.4173 242.175 18.8489 236.605 23.1258C224.154 32.6797 218.498 47.6486 218.204 62.6175C217.86 79.6041 216.083 97.3495 207.064 112.181C203.391 118.216 198.631 123.562 195.458 129.857C192.285 136.151 190.836 143.946 194.165 150.155C196.225 153.574 199.105 156.425 202.546 158.45C219.791 169.711 241.572 170.901 262.076 169.504C283.081 168.073 305.793 163.244 319.176 147.085C324.944 139.953 328.419 131.241 329.143 122.097C330.04 111.68 326.108 103.972 323.746 94.4868Z" fill="white"/>
<path d="M249.16 170.625C234.191 170.625 216.567 168.435 202.115 158.967C198.577 156.844 195.616 153.882 193.492 150.345C190.423 144.637 190.888 136.962 194.769 129.305C196.747 125.624 199.007 122.102 201.529 118.769C203.253 116.44 204.978 114.043 206.392 111.595C215.566 96.5221 217.118 78.2766 217.429 62.4109C217.757 45.8037 224.586 31.1797 236.14 22.3156C241.693 18.0388 250.091 15.5037 255.851 19.6426C260.68 13.5722 268.268 11.6408 277.322 14.2103C304.38 21.8845 312.709 46.8384 318.918 71.7579L324.522 94.1768C325.178 96.7636 325.936 99.2296 326.678 101.609C328.696 108.128 330.593 114.268 329.955 121.821C329.204 131.123 325.664 139.983 319.797 147.241C308.57 160.864 290.256 168.107 262.146 170.022C258.18 170.418 253.799 170.625 249.16 170.625ZM248.884 19.1597C244.576 19.3625 240.443 20.9195 237.071 23.609C225.914 32.2316 219.309 46.3728 218.998 62.4972C218.688 78.6215 217.084 96.9878 207.737 112.509C206.202 115.026 204.478 117.441 202.788 119.786C200.318 123.064 198.099 126.523 196.148 130.133C194.424 133.582 190.871 142.205 194.872 149.707C196.854 153.016 199.643 155.769 202.977 157.708C221.516 169.78 245.556 169.78 262.025 168.625C289.618 166.745 307.639 159.674 318.555 146.413C324.212 139.379 327.614 130.802 328.316 121.804C328.92 114.561 327.057 108.559 325.091 102.196C324.35 99.7987 323.591 97.2982 322.936 94.6769L317.314 72.258C311.226 47.7869 303.069 23.2813 276.822 15.8486C270.682 14.1241 262.18 13.6412 256.558 21.3326C256.496 21.419 256.416 21.4913 256.324 21.5447C256.232 21.5982 256.13 21.6317 256.024 21.643C255.917 21.659 255.808 21.6519 255.703 21.6222C255.599 21.5924 255.503 21.5407 255.42 21.4706C253.586 19.9471 251.269 19.1278 248.884 19.1597Z" fill="#231F20"/>
<path d="M218.344 122.942C211.445 129.34 196.166 153.466 182.215 178.748L153.329 118.165L129.858 125.063C129.858 125.063 151.087 237.157 172.04 241.745C192.993 246.332 221.551 196.39 221.551 196.39L253.576 108.438C253.576 108.438 228.604 113.336 218.344 122.942Z" fill="#1E40AF"/>
<path d="M300.948 275.148C297.827 244.383 291.308 171.59 297.309 152.517C304.966 128.115 304.742 121.32 297.309 118.906C289.877 116.491 269.717 103.626 255.921 118.906C255.921 118.906 224.207 136.72 218.067 167.451C213.566 189.956 218.809 246.538 221.947 275.148H300.948Z" fill="white"/>
<path d="M238.278 275.149C240.589 241.21 243.555 215.084 244.349 204.305C245.487 188.784 249.522 143.947 253.713 124.373C259.266 112.164 256.869 108.628 256.869 108.628C256.869 108.628 225.638 104.248 216.342 150.845C214.066 162.33 208.806 220.154 203.219 275.149H238.278Z" fill="#1E40AF"/>
<path d="M253.627 100.332L253.472 124.321C253.472 124.321 255.903 137.72 270.493 133.633C274.802 132.379 278.777 130.18 282.13 127.197C285.483 124.214 288.129 120.521 289.876 116.388L288.152 74.8611C286.238 67.5967 285.43 60.0854 285.755 52.5802C268.096 52.4077 254.161 39.0254 254.161 39.0254C254.161 39.0254 248.056 48.1826 245.418 51.0971C243.296 53.268 241.454 55.6954 239.934 58.3229C237.468 62.9446 237.571 68.6701 237.675 73.8437C237.705 79.9019 238.282 85.9451 239.399 91.8995C241.814 103.161 253.627 100.332 253.627 100.332Z" fill="white"/>
<path d="M265.302 135.255C262.964 135.327 260.654 134.728 258.645 133.53C255.589 131.427 253.459 128.228 252.696 124.597L252.834 101.402C249.635 101.911 246.358 101.302 243.556 99.6777C242.251 98.8112 241.141 97.6832 240.295 96.3652C239.449 95.0471 238.885 93.5678 238.641 92.0208C237.515 86.0153 236.938 79.9199 236.916 73.8098C236.796 68.8949 236.675 62.79 239.245 57.9441C240.799 55.255 242.681 52.7698 244.849 50.5459C247.419 47.7349 253.472 38.6811 253.472 38.5949C253.533 38.497 253.617 38.4149 253.716 38.355C253.814 38.2951 253.926 38.2592 254.041 38.25C254.153 38.236 254.267 38.2473 254.375 38.2831C254.482 38.3189 254.58 38.3783 254.662 38.4569C254.8 38.5949 268.613 51.6323 285.807 51.9083C285.913 51.9074 286.019 51.9283 286.116 51.9699C286.214 52.0114 286.303 52.0726 286.376 52.1497C286.448 52.2214 286.504 52.3078 286.54 52.403C286.575 52.4983 286.59 52.6001 286.583 52.7015C286.287 59.4978 286.984 66.3009 288.652 72.8958C288.857 73.5587 288.996 74.2404 289.066 74.9307C289.066 74.9307 289.066 75.724 290.791 116.457C290.816 116.559 290.816 116.666 290.791 116.768C289.008 121.019 286.292 124.815 282.844 127.874C279.397 130.934 275.305 133.179 270.872 134.444C269.063 134.974 267.188 135.247 265.302 135.255ZM254.265 124.373C254.988 127.498 256.828 130.252 259.439 132.116C262.25 133.841 265.888 134.151 270.234 132.927C274.389 131.708 278.226 129.592 281.474 126.728C284.722 123.865 287.302 120.323 289.032 116.354C288.911 113.526 287.393 75.2756 287.307 74.9652C287.228 74.3825 287.107 73.8062 286.945 73.2407C285.308 66.7635 284.617 60.0837 284.893 53.4086C269.372 52.8395 257.18 42.8372 254.162 40.1814C252.627 42.4578 248.091 49.1145 245.849 51.5634C243.772 53.6855 241.97 56.061 240.486 58.6339C238.089 63.1177 238.227 68.7569 238.331 73.7236C238.35 79.7367 238.927 85.735 240.055 91.6414C240.256 92.967 240.727 94.2372 241.439 95.3733C242.151 96.5094 243.089 97.4873 244.194 98.2464C246.964 99.7347 250.17 100.199 253.248 99.557C253.364 99.5293 253.485 99.5288 253.602 99.5557C253.719 99.5827 253.828 99.6362 253.92 99.7122C254.012 99.7871 254.087 99.8818 254.137 99.9893C254.188 100.097 254.214 100.214 254.213 100.333L254.075 124.321L254.265 124.373Z" fill="#231F20"/>
<path d="M253.764 112.164C253.764 112.164 263.491 112.578 269.751 106.093C276.011 99.6092 275.08 93.0732 275.08 93.0732C275.08 93.0732 264.508 100.127 253.626 100.334L253.764 112.164Z" fill="#231F20"/>
<path d="M254.161 112.922H253.696C253.598 112.92 253.502 112.898 253.413 112.859C253.324 112.819 253.244 112.763 253.176 112.692C253.109 112.622 253.056 112.539 253.021 112.448C252.986 112.357 252.969 112.26 252.971 112.163L252.868 100.333C252.866 100.233 252.883 100.134 252.919 100.041C252.955 99.9481 253.009 99.8631 253.078 99.7911C253.147 99.719 253.229 99.6612 253.32 99.621C253.412 99.5808 253.51 99.5589 253.609 99.5567C264.181 99.3325 274.562 92.4516 274.666 92.3826C274.778 92.3237 274.902 92.293 275.028 92.293C275.154 92.293 275.279 92.3237 275.39 92.3826C275.509 92.4341 275.612 92.515 275.691 92.6176C275.769 92.7202 275.82 92.8412 275.839 92.969C275.839 93.2449 276.735 99.8671 270.303 106.627C264.595 112.542 256.265 112.922 254.161 112.922ZM254.351 101.109L254.472 111.456C256.783 111.456 264.181 110.783 269.165 105.627C272.202 102.67 274.044 98.698 274.338 94.4693C271.407 96.2111 263.163 100.678 254.385 101.109H254.351Z" fill="#231F20"/>
<path d="M262.111 65.8428C262.111 65.8428 254.403 77.3799 256.231 79.3803C258.059 81.3808 263.129 80.0529 263.129 80.0529" fill="white"/>
<path d="M259.784 81.3637C259.042 81.4254 258.295 81.3382 257.587 81.1072C256.879 80.8762 256.225 80.5061 255.662 80.0186C253.644 77.8112 259.111 69.1541 261.474 65.5498C261.587 65.379 261.762 65.2597 261.962 65.2177C262.163 65.1757 262.371 65.2145 262.543 65.3256C262.707 65.4438 262.82 65.6203 262.859 65.8191C262.897 66.0179 262.858 66.2239 262.75 66.3948C258.818 72.2755 256.042 78.1561 256.8 78.9839C258.042 80.3463 261.698 79.7599 263.009 79.4323C263.106 79.4064 263.208 79.4003 263.307 79.4141C263.407 79.428 263.503 79.4616 263.59 79.5129C263.677 79.5643 263.752 79.6324 263.812 79.7133C263.872 79.7942 263.916 79.8863 263.94 79.9841C263.987 80.1806 263.956 80.3879 263.853 80.5618C263.75 80.7358 263.583 80.8626 263.388 80.9154C262.207 81.1972 260.998 81.3476 259.784 81.3637Z" fill="#231F20"/>
<path d="M248.038 63.7674C248.093 62.3959 247.543 61.2603 246.809 61.231C246.076 61.2017 245.437 62.2897 245.382 63.6612C245.327 65.0327 245.877 66.1683 246.611 66.1976C247.344 66.227 247.983 65.1389 248.038 63.7674Z" fill="#231F20"/>
<path d="M269.41 62.0926C269.464 60.7221 268.914 59.5878 268.181 59.559C267.448 59.5302 266.811 60.6179 266.757 61.9883C266.703 63.3588 267.253 64.4931 267.986 64.5219C268.719 64.5507 269.357 63.463 269.41 62.0926Z" fill="#231F20"/>
<path d="M256.868 86.2099L262.99 84.6406C262.99 84.6406 264.249 93.6082 260.8 94.4015C257.351 95.1947 256.868 86.2099 256.868 86.2099Z" fill="white"/>
<path d="M260.37 95.1598C259.82 95.1511 259.287 94.9634 258.852 94.6252C256.507 92.9006 256.128 86.882 256.093 86.1922C256.085 86.0147 256.139 85.8397 256.246 85.6979C256.353 85.5561 256.506 85.4564 256.68 85.4162L262.802 83.8469C262.907 83.8198 263.016 83.815 263.123 83.8328C263.23 83.8506 263.332 83.8907 263.422 83.9503C263.511 84.0125 263.585 84.092 263.641 84.1839C263.698 84.2758 263.735 84.3782 263.75 84.4849C263.888 85.4679 264.992 94.1768 260.956 95.0908C260.763 95.1318 260.567 95.1549 260.37 95.1598ZM257.611 86.7958C257.818 89.1067 258.49 92.5385 259.715 93.4525C259.832 93.553 259.971 93.6229 260.122 93.656C260.272 93.6891 260.429 93.6844 260.577 93.6422C262.474 93.2111 262.56 88.4686 262.302 85.5886L257.611 86.7958Z" fill="#231F20"/>
<path d="M280.201 62.6516C281.822 58.4438 287.099 56.8917 291.238 57.7022C292.578 57.9178 293.824 58.5237 294.821 59.4439C295.818 60.3641 296.521 61.5579 296.843 62.8758C297.162 64.5218 297.162 66.2137 296.843 67.8597C296.365 70.8874 295.355 73.8067 293.859 76.4823C293.169 77.8636 292.143 79.0495 290.876 79.9314C290.058 80.4227 289.11 80.6529 288.158 80.5912C287.206 80.5296 286.295 80.1791 285.547 79.5865" fill="white"/>
<path d="M288.652 81.5354C287.412 81.5086 286.209 81.1056 285.203 80.3799C285.032 80.2585 284.916 80.0742 284.88 79.8673C284.844 79.6604 284.892 79.4479 285.013 79.2762C285.072 79.192 285.146 79.1203 285.233 79.0651C285.319 79.0099 285.416 78.9724 285.517 78.9548C285.618 78.9372 285.721 78.9397 285.821 78.9623C285.921 78.985 286.016 79.0272 286.1 79.0865C286.728 79.5783 287.488 79.872 288.283 79.9304C289.078 79.9887 289.873 79.809 290.566 79.4142C291.693 78.5676 292.598 77.4612 293.205 76.1893C294.671 73.5698 295.652 70.7072 296.102 67.7391C296.406 66.1962 296.406 64.6086 296.102 63.0657C295.827 61.886 295.206 60.8155 294.317 59.9918C293.429 59.1682 292.315 58.6291 291.118 58.4439C287.272 57.6679 282.495 59.1337 280.978 62.9105C280.901 63.1036 280.751 63.2589 280.561 63.3427C280.37 63.4266 280.155 63.4324 279.96 63.3588C279.863 63.3226 279.774 63.2673 279.699 63.1962C279.624 63.125 279.563 63.0395 279.521 62.9447C279.48 62.8499 279.457 62.7476 279.456 62.644C279.454 62.5404 279.473 62.4375 279.512 62.3414C281.236 57.7886 286.945 55.9951 291.428 56.8918C292.921 57.1329 294.309 57.8126 295.414 58.8444C296.52 59.8762 297.293 61.2135 297.637 62.6863C297.987 64.4337 297.987 66.2332 297.637 67.9806C297.158 71.1316 296.112 74.1698 294.55 76.9481C293.809 78.458 292.692 79.7525 291.308 80.7076C290.517 81.2266 289.597 81.5134 288.652 81.5354Z" fill="#231F20"/>
<path d="M331.351 275.149C331.23 274.132 331.127 273.132 331.041 272.183C328.506 243.763 331.041 147.051 324.988 127.788C322.073 118.596 291.152 111.854 291.152 111.854C291.152 111.854 272.027 213.411 264.508 275.149H331.351Z" fill="#1E40AF"/>
<path d="M284.978 227.242C277.718 226.001 271.062 222.621 264.284 219.758C261.559 218.602 258.766 217.568 255.937 216.688C252.609 215.653 249.436 213.687 245.866 213.584C243.676 213.584 244.245 216.636 245.056 217.792C245.91 218.814 246.937 219.678 248.091 220.344C250.177 221.775 254.558 224.38 255.299 226.88C252.626 227.656 249.695 227.242 246.935 227.553C244.176 227.863 240.968 228.329 238.02 228.898C235.071 229.467 232.242 230.157 229.397 230.967C226.842 231.418 224.332 232.093 221.895 232.985C221.326 233.261 220.705 233.709 220.671 234.347C220.533 236.589 225.586 236.331 226.862 236.193L250.16 233.847C242.005 234.625 233.929 236.085 226.017 238.21C225.245 238.328 224.545 238.727 224.051 239.331C222.119 242.297 230.397 242.453 231.328 242.47C235.64 242.573 239.939 242.47 244.228 242.159L233.76 243.884C231.415 244.281 229.052 244.66 226.758 245.246C225.471 245.49 224.276 246.087 223.309 246.971C223.178 247.085 223.097 247.246 223.085 247.419C223.085 247.661 223.344 247.816 223.551 247.919C225.526 248.718 227.647 249.094 229.776 249.023C234.139 249.107 238.5 248.819 242.814 248.161L229.88 249.54C228.725 249.529 227.605 249.933 226.724 250.679C226.604 251.053 226.615 251.457 226.756 251.824C226.898 252.191 227.16 252.499 227.5 252.696C228.177 253.095 228.94 253.325 229.725 253.369C234.485 253.671 239.26 253.671 244.021 253.369C249.211 253.394 254.396 253.065 259.542 252.386C269.735 251.113 279.643 248.147 288.859 243.608" fill="white"/>
<path d="M234.829 254.403C233.1 254.418 231.372 254.32 229.656 254.11C228.747 254.061 227.865 253.788 227.086 253.317C226.607 253.009 226.243 252.551 226.053 252.014C225.863 251.477 225.856 250.892 226.034 250.351C226.07 250.27 226.116 250.195 226.172 250.126C226.363 249.919 226.578 249.734 226.81 249.575C225.581 249.442 224.381 249.11 223.258 248.592C223.005 248.508 222.782 248.353 222.617 248.145C222.451 247.936 222.35 247.684 222.327 247.419C222.334 247.028 222.495 246.657 222.775 246.384C223.856 245.408 225.188 244.751 226.621 244.487C228.587 243.987 230.604 243.625 232.588 243.297H231.363C226.69 243.194 223.965 242.435 223.223 241.038C223.054 240.704 222.983 240.329 223.02 239.956C223.057 239.583 223.199 239.229 223.43 238.934C224.028 238.169 224.888 237.652 225.845 237.486L227.983 236.917L226.983 237.02C226.19 237.02 222.12 237.434 220.568 235.951C220.35 235.743 220.18 235.491 220.07 235.211C219.959 234.931 219.912 234.63 219.929 234.33C220 233.866 220.2 233.432 220.504 233.075C220.809 232.719 221.207 232.454 221.654 232.312C223.26 231.618 224.946 231.126 226.672 230.846C227.569 230.656 228.397 230.467 229.276 230.243C232.122 229.432 235.036 228.742 237.899 228.173C240.762 227.604 243.9 227.121 246.884 226.794C247.953 226.69 249.04 226.673 250.091 226.656C251.471 226.682 252.851 226.584 254.213 226.362C252.636 224.483 250.746 222.89 248.626 221.654L247.367 220.827C246.252 220.155 245.265 219.291 244.452 218.274C244.02 217.65 243.745 216.931 243.649 216.177C243.553 215.424 243.639 214.659 243.9 213.946C244.088 213.581 244.381 213.281 244.74 213.085C245.1 212.888 245.51 212.804 245.918 212.842C248.382 213.029 250.788 213.685 253.006 214.774C254.11 215.222 255.144 215.636 256.214 215.981C259.069 216.866 261.878 217.896 264.629 219.068L268.372 220.706C273.691 223.31 279.309 225.256 285.099 226.5C285.284 226.556 285.442 226.677 285.544 226.841C285.645 227.005 285.684 227.2 285.652 227.39C285.621 227.58 285.521 227.752 285.371 227.874C285.222 227.996 285.033 228.06 284.841 228.052C278.919 226.79 273.174 224.81 267.733 222.155L264.008 220.43C261.215 219.257 258.438 218.223 255.748 217.395C254.618 217.032 253.507 216.612 252.42 216.136C250.369 215.14 248.154 214.527 245.884 214.325C245.77 214.313 245.655 214.332 245.552 214.381C245.448 214.429 245.36 214.506 245.297 214.601C245.175 215.053 245.151 215.525 245.229 215.987C245.306 216.448 245.482 216.887 245.746 217.274C246.45 218.136 247.303 218.866 248.263 219.43L249.488 220.258C251.833 221.81 255.369 224.155 256.093 226.587C256.171 226.78 256.171 226.997 256.093 227.19C256.044 227.281 255.978 227.362 255.898 227.427C255.818 227.492 255.726 227.54 255.627 227.57C253.845 228.007 252.012 228.198 250.178 228.139C249.126 228.139 248.126 228.139 247.125 228.277C244.176 228.604 241.193 229.053 238.261 229.622C235.33 230.191 232.536 230.881 229.725 231.674C228.845 231.915 228 232.105 227.017 232.295C225.416 232.552 223.853 233.004 222.361 233.64C221.878 233.881 221.585 234.14 221.568 234.33C221.561 234.405 221.573 234.481 221.603 234.55C221.633 234.62 221.68 234.68 221.74 234.726C222.447 235.399 224.931 235.554 226.914 235.364L250.143 233.123C250.339 233.125 250.526 233.199 250.67 233.331C250.814 233.463 250.904 233.643 250.924 233.838C250.943 234.032 250.89 234.227 250.774 234.384C250.659 234.542 250.489 234.651 250.298 234.692C242.201 235.464 234.183 236.912 226.327 239.02C225.751 239.109 225.219 239.381 224.81 239.797C224.586 240.141 224.655 240.279 224.672 240.314C225 240.935 227.241 241.642 231.415 241.745C235.588 241.849 240.037 241.745 244.263 241.418C244.466 241.398 244.669 241.46 244.827 241.589C244.985 241.718 245.086 241.904 245.108 242.107C245.133 242.31 245.078 242.515 244.956 242.679C244.834 242.842 244.654 242.953 244.452 242.987L233.984 244.711C231.691 245.091 229.328 245.487 227.086 246.074C226.056 246.266 225.083 246.691 224.241 247.315C226.055 247.986 227.981 248.302 229.914 248.247C231.949 248.247 233.984 248.247 236.019 248.126L242.917 247.384C243.123 247.365 243.327 247.426 243.488 247.555C243.649 247.683 243.754 247.87 243.78 248.074C243.805 248.277 243.751 248.482 243.629 248.646C243.506 248.809 243.326 248.92 243.124 248.954C240.831 249.299 238.537 249.54 236.226 249.695L230.018 250.368C229.116 250.377 228.236 250.647 227.483 251.144C227.482 251.335 227.53 251.523 227.62 251.692C227.71 251.861 227.841 252.004 228 252.11C228.576 252.419 229.211 252.602 229.863 252.644C232.998 252.955 236.153 253.007 239.296 252.799C240.882 252.799 242.469 252.679 244.073 252.696C249.263 252.715 254.448 252.387 259.594 251.713C269.697 250.475 279.524 247.56 288.669 243.09C288.855 242.999 289.069 242.985 289.265 243.049C289.462 243.113 289.625 243.252 289.721 243.435C289.813 243.624 289.828 243.84 289.764 244.039C289.7 244.239 289.561 244.405 289.376 244.504C280.082 249.089 270.085 252.086 259.801 253.369C254.608 254.039 249.377 254.367 244.142 254.352C242.555 254.352 240.986 254.352 239.417 254.455C237.847 254.558 236.347 254.403 234.829 254.403Z" fill="#231F20"/>
<path d="M324.988 127.787C324.988 127.787 385.795 238.433 363.997 245.883C355.064 248.918 275.132 253.609 275.132 253.609L266.647 219.118L326.592 209.823L324.988 127.787Z" fill="#1E40AF"/>
<path d="M246.366 77.9146C243.597 77.9146 240.89 77.0933 238.587 75.5546C236.284 74.0159 234.489 71.8289 233.429 69.2702C232.369 66.7114 232.092 63.8959 232.632 61.1795C233.173 58.4632 234.506 55.968 236.465 54.0096C238.423 52.0513 240.918 50.7176 243.635 50.1773C246.351 49.637 249.167 49.9143 251.725 50.9741C254.284 52.034 256.471 53.8288 258.01 56.1316C259.548 58.4344 260.37 61.1418 260.37 63.9114C260.365 67.6239 258.888 71.183 256.263 73.8081C253.638 76.4332 250.079 77.91 246.366 77.9146ZM246.366 51.4775C243.907 51.4741 241.501 52.2005 239.454 53.5646C237.407 54.9288 235.811 56.8695 234.867 59.1412C233.923 61.4129 233.674 63.9135 234.152 66.3265C234.63 68.7396 235.813 70.9567 237.551 72.6973C239.289 74.438 241.505 75.6239 243.917 76.1051C246.33 76.5862 248.83 76.341 251.103 75.4004C253.376 74.4598 255.319 72.8662 256.686 70.8211C258.053 68.776 258.783 66.3713 258.783 63.9114C258.788 60.6121 257.483 57.4459 255.155 55.1082C252.826 52.7704 249.666 51.4522 246.366 51.443V51.4775Z" fill="#231F20"/>
<path d="M273.666 75.604C270.896 75.604 268.189 74.7828 265.886 73.2441C263.583 71.7054 261.788 69.5184 260.729 66.9596C259.669 64.4009 259.391 61.5853 259.932 58.869C260.472 56.1526 261.806 53.6575 263.764 51.6991C265.722 49.7407 268.218 48.407 270.934 47.8667C273.65 47.3264 276.466 47.6037 279.025 48.6636C281.583 49.7235 283.77 51.5183 285.309 53.8211C286.848 56.1239 287.669 58.8313 287.669 61.6008C287.664 65.3133 286.188 68.8724 283.562 71.4976C280.937 74.1227 277.378 75.5995 273.666 75.604ZM273.666 49.1842C271.205 49.1808 268.799 49.9076 266.751 51.2725C264.704 52.6375 263.108 54.5792 262.164 56.8519C261.221 59.1246 260.974 61.626 261.453 64.0396C261.932 66.4531 263.117 68.6702 264.856 70.4101C266.596 72.1501 268.814 73.3347 271.227 73.8139C273.641 74.2931 276.142 74.0454 278.415 73.1022C280.687 72.1589 282.629 70.5626 283.994 68.5152C285.359 66.4678 286.086 64.0615 286.082 61.6008C286.078 58.3092 284.768 55.1536 282.441 52.826C280.113 50.4984 276.957 49.1888 273.666 49.1842Z" fill="#231F20"/>
<path d="M266.647 219.877C266.462 219.876 266.283 219.81 266.141 219.69C265.999 219.57 265.904 219.405 265.871 219.222C265.842 219.012 265.895 218.799 266.021 218.628C266.147 218.457 266.334 218.342 266.544 218.308L325.626 209.185L311.382 147.757C311.335 147.554 311.37 147.34 311.48 147.163C311.59 146.985 311.765 146.858 311.968 146.809C312.07 146.784 312.176 146.779 312.28 146.796C312.384 146.813 312.483 146.851 312.572 146.907C312.66 146.964 312.737 147.038 312.796 147.125C312.855 147.211 312.896 147.309 312.917 147.413L327.351 209.651C327.373 209.757 327.374 209.867 327.354 209.974C327.333 210.08 327.291 210.182 327.23 210.272C327.168 210.36 327.088 210.434 326.997 210.491C326.905 210.547 326.802 210.584 326.696 210.599L266.768 219.877H266.647Z" fill="#231F20"/>
<path d="M210.479 208.755C210.271 208.729 210.082 208.622 209.953 208.457C209.824 208.292 209.765 208.083 209.789 207.875C212.462 185.698 217.567 143.55 217.636 142.636H218.412L218.584 141.843C219.308 141.998 219.308 141.998 217.998 152.914L211.341 207.996C211.339 208.104 211.315 208.21 211.27 208.309C211.224 208.407 211.159 208.494 211.078 208.566C210.997 208.637 210.901 208.691 210.798 208.724C210.695 208.756 210.586 208.767 210.479 208.755Z" fill="#231F20"/>
<path d="M193.802 200.356C193.656 200.357 193.513 200.316 193.388 200.24C193.263 200.164 193.162 200.055 193.095 199.925L157.294 128.133C157.203 127.943 157.191 127.725 157.258 127.525C157.326 127.325 157.468 127.16 157.656 127.064C157.844 126.974 158.059 126.962 158.256 127.03C158.453 127.097 158.615 127.24 158.708 127.426L194.509 199.218C194.6 199.404 194.615 199.618 194.551 199.814C194.486 200.011 194.348 200.174 194.164 200.27C194.051 200.323 193.927 200.352 193.802 200.356Z" fill="#231F20"/>
<path d="M286.927 187.525C286.738 187.522 286.556 187.455 286.41 187.335C286.267 187.187 286.187 186.989 286.187 186.783C286.187 186.577 286.267 186.379 286.41 186.231L304.19 165.744L292.118 153.482C291.978 153.326 291.898 153.124 291.894 152.913C291.907 152.703 291.999 152.506 292.153 152.361L304.224 141.1C299.689 134.202 293.067 124.338 292.446 123.665C292.33 123.512 292.273 123.321 292.287 123.129C292.301 122.937 292.385 122.757 292.522 122.622C292.659 122.486 292.841 122.406 293.033 122.395C293.225 122.384 293.415 122.443 293.567 122.562C294.377 123.372 303.914 137.893 305.914 140.79C306.013 140.945 306.055 141.129 306.033 141.312C306.011 141.494 305.927 141.663 305.794 141.79L293.825 152.965L305.776 165.157C305.913 165.302 305.99 165.493 305.99 165.692C305.99 165.891 305.913 166.082 305.776 166.227L287.462 187.249C287.397 187.329 287.316 187.396 287.224 187.443C287.132 187.491 287.031 187.518 286.927 187.525Z" fill="#231F20"/>
<path d="M242.089 182.472C241.963 182.471 241.839 182.439 241.727 182.378C241.616 182.318 241.521 182.232 241.451 182.127L226.568 161.019C226.45 160.855 226.4 160.652 226.429 160.453C226.458 160.253 226.564 160.073 226.724 159.949L241.658 148.067L232.57 138.548C232.495 138.47 232.437 138.378 232.399 138.277C232.36 138.177 232.342 138.069 232.346 137.962C232.359 137.752 232.451 137.554 232.604 137.41L249.022 122.544C249.175 122.405 249.377 122.332 249.584 122.342C249.791 122.351 249.986 122.443 250.126 122.596C250.265 122.749 250.338 122.952 250.328 123.159C250.319 123.366 250.227 123.56 250.074 123.7L234.26 138.031L243.4 147.602C243.474 147.679 243.53 147.772 243.566 147.873C243.602 147.974 243.616 148.081 243.607 148.188C243.599 148.298 243.569 148.405 243.519 148.503C243.468 148.601 243.399 148.687 243.314 148.757L228.293 160.691L242.693 181.196C242.809 181.369 242.855 181.58 242.819 181.786C242.784 181.991 242.671 182.175 242.503 182.299C242.382 182.39 242.239 182.45 242.089 182.472Z" fill="#231F20"/>
<path d="M138.479 114.612C138.283 114.609 138.095 114.533 137.952 114.399C137.809 114.265 137.72 114.083 137.703 113.888C137.168 107.611 143.911 104.093 144.205 103.955C144.295 103.907 144.394 103.877 144.496 103.868C144.598 103.858 144.701 103.869 144.799 103.899C144.897 103.93 144.987 103.979 145.066 104.045C145.144 104.111 145.209 104.191 145.256 104.282C145.354 104.468 145.374 104.684 145.313 104.884C145.252 105.085 145.114 105.253 144.929 105.352C144.929 105.352 138.824 108.542 139.272 113.767C139.287 113.975 139.219 114.18 139.083 114.338C138.948 114.496 138.756 114.595 138.548 114.612H138.479Z" fill="#231F20"/>
<path d="M53.7879 293.998C74.6271 293.998 91.5206 277.104 91.5206 256.265C91.5206 235.426 74.6271 218.532 53.7879 218.532C32.9487 218.532 16.0552 235.426 16.0552 256.265C16.0552 277.104 32.9487 293.998 53.7879 293.998Z" fill="white"/>
<path d="M53.7888 294.86C46.1555 294.86 38.6935 292.596 32.3466 288.355C25.9997 284.115 21.0529 278.087 18.1317 271.035C15.2106 263.982 14.4463 256.222 15.9355 248.735C17.4247 241.249 21.1005 234.372 26.4981 228.974C31.8957 223.577 38.7726 219.901 46.2593 218.412C53.746 216.922 61.5062 217.687 68.5585 220.608C75.6108 223.529 81.6385 228.476 85.8794 234.823C90.1203 241.17 92.3838 248.632 92.3838 256.265C92.3702 266.497 88.2995 276.306 81.0645 283.541C73.8295 290.776 64.0207 294.846 53.7888 294.86ZM53.7888 219.394C46.4966 219.394 39.368 221.557 33.3047 225.608C27.2414 229.66 22.5156 235.418 19.725 242.155C16.9344 248.892 16.2042 256.306 17.6269 263.458C19.0495 270.61 22.5611 277.18 27.7175 282.336C32.8739 287.493 39.4436 291.004 46.5958 292.427C53.748 293.85 61.1614 293.119 67.8986 290.329C74.6358 287.538 80.3941 282.812 84.4455 276.749C88.4969 270.686 90.6593 263.557 90.6593 256.265C90.6639 246.479 86.783 237.091 79.8694 230.164C72.9559 223.238 63.5752 219.339 53.7888 219.325V219.394Z" fill="#D1D3D4"/>
<path d="M52.3916 229.519H55.4096C55.5199 229.563 55.636 229.593 55.7545 229.605C60.3141 229.864 64.7184 231.354 68.4987 233.916C72.6598 236.557 75.9896 240.321 78.1042 244.772C80.2187 249.224 81.0318 254.183 80.4497 259.077C79.9593 265.005 77.3803 270.566 73.1722 274.77C70.3701 277.757 66.9085 280.046 63.0638 281.457C59.2191 282.867 55.0978 283.359 51.0292 282.893C46.7427 282.5 42.6282 281.016 39.0783 278.581C35.9306 276.517 33.2595 273.804 31.2432 270.625C29.227 267.446 27.912 263.874 27.3859 260.146C27.2652 259.387 27.1962 258.611 27.0928 257.835V254.8L27.1962 254.248C27.3514 253.11 27.4377 251.955 27.6791 250.799C28.8015 245.416 31.5562 240.509 35.5679 236.747C39.5796 232.985 44.6533 230.551 50.098 229.777C50.7706 229.674 51.5639 229.674 52.3916 229.519ZM73.4654 271.183C76.5023 267.204 78.2422 262.388 78.4493 257.387H67.8434C67.671 259.301 67.5675 261.164 67.3088 263.026C67.0501 264.889 66.6707 266.717 66.3603 268.458L73.4654 271.183ZM29.2657 257.387C29.4788 262.39 31.2247 267.206 34.2668 271.183L41.4236 268.407C40.5225 264.789 40.0308 261.08 39.9578 257.352L29.2657 257.387ZM78.3975 255.231C78.6217 251.282 75.7418 243.487 73.4137 241.435L66.1879 244.177C67.1035 247.781 67.5955 251.479 67.6537 255.197L78.3975 255.231ZM41.4409 244.212L34.2841 241.435C31.6973 244.16 28.869 251.989 29.3347 255.231H39.9578C40.0078 251.503 40.494 247.793 41.4064 244.177L41.4409 244.212ZM54.9267 266.975C56.5133 267.113 58.0481 267.182 59.5657 267.355C61.0833 267.527 62.6181 267.803 64.1702 268.027C64.1702 267.907 64.1702 267.751 64.2909 267.613C65.0721 264.433 65.5114 261.178 65.6015 257.904C65.6015 257.456 65.4981 257.352 65.0669 257.352H55.4096H54.9267V266.975ZM42.0444 257.352C42.0881 260.915 42.5629 264.459 43.4586 267.907L52.6848 266.855V257.352H42.0444ZM65.5326 255.197C65.4826 251.642 65.0138 248.105 64.1357 244.66L54.875 245.712V255.197H65.5326ZM43.4586 244.66C42.5613 248.102 42.0864 251.64 42.0444 255.197H52.6848V245.712L43.4586 244.66ZM63.4804 242.453C62.7567 240.13 61.6932 237.928 60.3245 235.917C59.4015 234.507 58.1687 233.328 56.7202 232.467C56.1511 232.157 55.5303 231.967 54.875 231.691V243.47C57.7816 243.419 60.6759 243.078 63.5148 242.453H63.4804ZM54.8577 269.148V280.737C56.1514 280.512 57.3506 279.913 58.3068 279.013C60.3036 277.078 61.8416 274.721 62.8078 272.114C63.0492 271.511 63.2562 270.89 63.5148 270.217C60.691 269.599 57.8161 269.241 54.9267 269.148H54.8577ZM52.6676 280.772V269.148C49.769 269.207 46.8823 269.536 44.0449 270.131C44.5623 271.373 44.9934 272.546 45.5452 273.684C46.4449 275.75 47.7802 277.597 49.4599 279.099C50.3806 279.943 51.513 280.521 52.7365 280.772H52.6676ZM44.0449 242.435C46.8831 243.026 49.7693 243.355 52.6676 243.418V231.795C51.7851 231.975 50.9506 232.339 50.2187 232.864C48.4825 234.13 47.0799 235.799 46.1316 237.727C45.4935 239.245 44.752 240.814 44.0277 242.435H44.0449ZM71.9306 272.994C69.9358 271.977 67.8369 271.179 65.6705 270.614C64.6425 274.078 62.8776 277.278 60.4969 279.996C64.8768 278.763 68.8289 276.339 71.9133 272.994H71.9306ZM47.218 232.674C44.5623 232.674 37.1813 237.296 35.7844 239.745L41.9065 242.039C42.6825 240.314 43.3551 238.59 44.1311 237.055C44.9275 235.444 45.9688 233.966 47.218 232.674ZM35.7672 272.994C38.8991 276.365 42.9049 278.8 47.3388 280.03C44.9017 277.32 43.0938 274.105 42.0444 270.614C39.8639 271.17 37.7526 271.968 35.7499 272.994H35.7672ZM60.5659 232.674C61.7534 234.003 62.7622 235.482 63.5666 237.072C64.3254 238.659 64.9979 240.28 65.7395 241.935C67.8784 241.386 69.9491 240.599 71.9133 239.59C68.857 236.254 64.9157 233.856 60.5487 232.674H60.5659Z" fill="#D1D3D4"/>
<path d="M415.698 240.813C431.823 240.813 444.895 227.742 444.895 211.617C444.895 195.493 431.823 182.421 415.698 182.421C399.574 182.421 386.502 195.493 386.502 211.617C386.502 227.742 399.574 240.813 415.698 240.813Z" fill="white"/>
<path d="M415.698 241.745C409.752 241.748 403.938 239.988 398.992 236.686C394.046 233.385 390.191 228.691 387.914 223.197C385.637 217.704 385.04 211.659 386.199 205.827C387.359 199.994 390.222 194.637 394.427 190.432C398.631 186.227 403.989 183.364 409.821 182.205C415.654 181.045 421.699 181.642 427.192 183.919C432.685 186.197 437.38 190.052 440.681 194.998C443.983 199.943 445.743 205.757 445.74 211.704C445.731 219.668 442.563 227.304 436.931 232.936C431.299 238.568 423.663 241.736 415.698 241.745ZM415.698 183.37C410.094 183.366 404.614 185.025 399.952 188.136C395.29 191.248 391.656 195.672 389.509 200.849C387.362 206.026 386.798 211.723 387.889 217.221C388.981 222.718 391.678 227.769 395.64 231.733C399.602 235.697 404.65 238.397 410.147 239.492C415.644 240.587 421.342 240.027 426.52 237.883C431.699 235.739 436.125 232.107 439.239 227.447C442.353 222.787 444.015 217.308 444.015 211.704C444.022 207.978 443.295 204.288 441.876 200.844C440.456 197.399 438.372 194.268 435.743 191.629C433.113 188.99 429.99 186.895 426.551 185.463C423.111 184.031 419.424 183.29 415.698 183.284V183.37Z" fill="#D1D3D4"/>
<path d="M431.202 227.156H400.16C398.379 227.151 396.673 226.441 395.415 225.18C394.158 223.919 393.452 222.211 393.452 220.43V202.788C393.452 201.007 394.158 199.299 395.415 198.038C396.673 196.778 398.379 196.067 400.16 196.062H431.202C432.982 196.067 434.689 196.778 435.946 198.038C437.204 199.299 437.91 201.007 437.91 202.788V220.43C437.91 222.211 437.204 223.919 435.946 225.18C434.689 226.441 432.982 227.151 431.202 227.156ZM400.16 197.839C398.837 197.843 397.569 198.372 396.635 199.31C395.701 200.247 395.176 201.517 395.176 202.84V220.482C395.176 221.805 395.701 223.075 396.635 224.012C397.569 224.95 398.837 225.478 400.16 225.483H431.202C431.858 225.483 432.507 225.354 433.113 225.102C433.719 224.85 434.269 224.482 434.732 224.017C435.195 223.553 435.562 223.001 435.811 222.394C436.061 221.788 436.188 221.138 436.186 220.482V202.788C436.188 202.132 436.061 201.482 435.811 200.876C435.562 200.269 435.195 199.718 434.732 199.253C434.269 198.788 433.719 198.42 433.113 198.168C432.507 197.917 431.858 197.787 431.202 197.787L400.16 197.839Z" fill="#D1D3D4"/>
<path d="M408.558 221.43C408.332 221.422 408.118 221.328 407.958 221.168C407.798 221.008 407.704 220.794 407.696 220.568V202.65C407.696 202.504 407.735 202.36 407.807 202.233C407.88 202.106 407.984 202 408.11 201.926C408.237 201.858 408.379 201.822 408.524 201.822C408.668 201.822 408.81 201.858 408.937 201.926L427.373 210.893C427.519 210.963 427.642 211.073 427.728 211.21C427.814 211.348 427.858 211.507 427.856 211.669C427.854 211.83 427.808 211.988 427.723 212.125C427.638 212.262 427.517 212.373 427.373 212.445L408.937 221.396C408.815 221.433 408.686 221.445 408.558 221.43ZM409.42 204.03V219.188L424.941 211.618L409.42 204.03Z" fill="#D1D3D4"/>
<path d="M53.978 195.89C83.2939 195.89 107.059 172.124 107.059 142.809C107.059 113.493 83.2939 89.7275 53.978 89.7275C24.6622 89.7275 0.896973 113.493 0.896973 142.809C0.896973 172.124 24.6622 195.89 53.978 195.89Z" fill="white"/>
<path d="M53.9778 196.769C43.3047 196.772 32.8703 193.61 23.9942 187.683C15.1182 181.756 8.19926 173.33 4.11247 163.47C0.0256835 153.61 -1.04537 142.76 1.03476 132.292C3.11489 121.823 8.25277 112.207 15.7986 104.658C23.3444 97.1102 32.9593 91.9693 43.4271 89.8858C53.8948 87.8023 64.7454 88.8699 74.6064 92.9535C84.4674 97.0372 92.8959 103.953 98.8259 112.828C104.756 121.702 107.921 132.135 107.921 142.808C107.903 157.111 102.214 170.823 92.1024 180.938C81.9905 191.053 68.2804 196.746 53.9778 196.769ZM53.9778 90.5894C43.645 90.586 33.5434 93.6472 24.9505 99.3856C16.3577 105.124 9.65985 113.282 5.70409 122.828C1.74833 132.373 0.712436 142.878 2.72742 153.012C4.74241 163.146 9.71776 172.456 17.0241 179.762C24.3305 187.068 33.6397 192.044 43.7741 194.059C53.9085 196.074 64.4128 195.038 73.9584 191.082C83.504 187.126 91.662 180.428 97.4004 171.835C103.139 163.243 106.2 153.141 106.197 142.808C106.178 128.965 100.671 115.693 90.8819 105.904C81.0929 96.1152 67.8215 90.6077 53.9778 90.5894Z" fill="#D1D3D4"/>
<path d="M87.8479 167.331H20.1084C19.8797 167.331 19.6604 167.24 19.4986 167.079C19.3369 166.917 19.2461 166.698 19.2461 166.469V119.165C19.2461 118.936 19.3369 118.717 19.4986 118.555C19.6604 118.394 19.8797 118.303 20.1084 118.303H87.8479C88.0766 118.303 88.2959 118.394 88.4576 118.555C88.6193 118.717 88.7102 118.936 88.7102 119.165V166.469C88.7102 166.698 88.6193 166.917 88.4576 167.079C88.2959 167.24 88.0766 167.331 87.8479 167.331ZM20.9706 165.607H86.9856V120.027H20.9706V165.607Z" fill="#D1D3D4"/>
<path d="M20.108 167.331C19.9208 167.335 19.738 167.274 19.5906 167.158C19.4087 167.021 19.2873 166.818 19.2519 166.593C19.2165 166.368 19.2699 166.138 19.4009 165.951L46.1484 129.943C46.2233 129.839 46.3216 129.753 46.4353 129.693C46.5491 129.633 46.6752 129.601 46.8037 129.598C46.9347 129.594 47.0649 129.62 47.1845 129.674C47.304 129.727 47.4097 129.808 47.4935 129.908L68.4121 154.707C68.4857 154.793 68.5416 154.893 68.5767 155.001C68.6117 155.108 68.6252 155.222 68.6164 155.335C68.6076 155.448 68.5767 155.558 68.5253 155.659C68.474 155.76 68.4033 155.849 68.3172 155.923C68.2312 155.997 68.1314 156.053 68.0238 156.088C67.9161 156.123 67.8026 156.136 67.6897 156.127C67.5768 156.119 67.4667 156.088 67.3658 156.036C67.2648 155.985 67.175 155.914 67.1014 155.828L46.8727 131.84L20.7978 166.986C20.7166 167.092 20.6122 167.178 20.4927 167.238C20.3732 167.298 20.2416 167.329 20.108 167.331Z" fill="#D1D3D4"/>
<path d="M62.0145 149.327C61.8418 149.324 61.6739 149.27 61.5317 149.172C61.3454 149.043 61.2175 148.846 61.1756 148.623C61.1336 148.401 61.181 148.17 61.3075 147.982L72.1375 132.324C72.2123 132.219 72.3091 132.132 72.4211 132.069C72.5331 132.005 72.6576 131.968 72.7859 131.958C72.9142 131.948 73.043 131.966 73.1634 132.012C73.2838 132.057 73.3928 132.128 73.4827 132.22L88.4688 147.862C88.5954 148.034 88.655 148.246 88.6367 148.458C88.6183 148.671 88.5233 148.87 88.3692 149.018C88.2151 149.165 88.0124 149.252 87.7991 149.262C87.5859 149.271 87.3764 149.202 87.2099 149.069L72.9653 134.186L62.7388 148.948C62.6568 149.064 62.5484 149.159 62.4224 149.225C62.2965 149.291 62.1567 149.326 62.0145 149.327Z" fill="#D1D3D4"/>
<path d="M63.2044 133.686C62.2043 133.689 61.2257 133.396 60.3925 132.843C59.5593 132.289 58.909 131.502 58.5239 130.579C58.1388 129.656 58.0363 128.639 58.2293 127.658C58.4223 126.676 58.9022 125.775 59.6081 125.066C60.3141 124.358 61.2144 123.875 62.195 123.678C63.1757 123.482 64.1925 123.581 65.1168 123.963C66.0411 124.345 66.8313 124.993 67.3872 125.824C67.9432 126.655 68.24 127.633 68.24 128.633C68.24 129.97 67.71 131.253 66.7662 132.2C65.8223 133.147 64.5415 133.681 63.2044 133.686ZM63.2044 125.305C62.5454 125.301 61.9002 125.493 61.3506 125.857C60.801 126.221 60.3717 126.739 60.1171 127.347C59.8626 127.955 59.7942 128.625 59.9207 129.272C60.0471 129.918 60.3628 130.513 60.8276 130.98C61.2923 131.447 61.8854 131.766 62.5315 131.896C63.1776 132.026 63.8477 131.961 64.4568 131.71C65.066 131.458 65.5869 131.032 65.9533 130.484C66.3198 129.936 66.5155 129.292 66.5155 128.633C66.5155 127.753 66.1672 126.909 65.5468 126.285C64.9263 125.662 64.0841 125.309 63.2044 125.305Z" fill="#D1D3D4"/>
<path d="M285.893 254.403C285.705 254.375 285.533 254.28 285.409 254.136C285.285 253.992 285.216 253.808 285.216 253.618C285.216 253.428 285.285 253.244 285.409 253.1C285.533 252.956 285.705 252.861 285.893 252.833L329.886 249.505C329.99 249.493 330.095 249.503 330.195 249.533C330.294 249.564 330.387 249.615 330.466 249.683C330.546 249.751 330.61 249.834 330.656 249.928C330.701 250.022 330.727 250.125 330.731 250.229C330.74 250.333 330.729 250.437 330.697 250.536C330.666 250.635 330.615 250.726 330.547 250.805C330.48 250.884 330.397 250.948 330.304 250.994C330.211 251.041 330.11 251.068 330.006 251.074L286.014 254.403H285.893Z" fill="#231F20"/>
<path d="M396.624 146.258C423.54 146.258 445.36 124.438 445.36 97.5223C445.36 70.6066 423.54 48.7871 396.624 48.7871C369.709 48.7871 347.889 70.6066 347.889 97.5223C347.889 124.438 369.709 146.258 396.624 146.258Z" fill="white"/>
<path d="M396.625 147.103C386.815 147.103 377.225 144.194 369.068 138.743C360.912 133.293 354.555 125.546 350.801 116.482C347.048 107.418 346.067 97.4448 347.982 87.8234C349.897 78.2019 354.622 69.3645 361.56 62.4289C368.498 55.4932 377.337 50.7709 386.959 48.8591C396.582 46.9473 406.554 47.932 415.617 51.6886C424.679 55.4451 432.424 61.8048 437.872 69.9634C443.32 78.1219 446.226 87.7128 446.222 97.523C446.204 110.67 440.972 123.273 431.674 132.567C422.376 141.862 409.772 147.09 396.625 147.103ZM396.625 49.65C387.156 49.65 377.901 52.4577 370.028 57.7181C362.155 62.9784 356.019 70.4551 352.396 79.2028C348.773 87.9504 347.825 97.5761 349.672 106.863C351.519 116.149 356.078 124.679 362.774 131.374C369.469 138.069 377.999 142.629 387.285 144.476C396.572 146.323 406.197 145.375 414.945 141.752C423.693 138.128 431.169 131.992 436.43 124.12C441.69 116.247 444.498 106.991 444.498 97.523C444.484 84.8305 439.436 72.6617 430.461 63.6868C421.486 54.7118 409.317 49.6637 396.625 49.65Z" fill="#D1D3D4"/>
<path d="M428.425 115.854H364.825C364.596 115.854 364.377 115.763 364.215 115.601C364.053 115.44 363.962 115.22 363.962 114.992V80.0009C363.962 79.7722 364.053 79.5529 364.215 79.3912C364.377 79.2295 364.596 79.1387 364.825 79.1387H428.425C428.654 79.1387 428.873 79.2295 429.035 79.3912C429.197 79.5529 429.288 79.7722 429.288 80.0009V115.043C429.274 115.263 429.178 115.469 429.017 115.62C428.857 115.771 428.645 115.854 428.425 115.854ZM365.687 114.129H427.563V80.8632H365.687V114.129Z" fill="#D1D3D4"/>
<path d="M396.642 102.713C396.466 102.71 396.294 102.663 396.142 102.575L364.341 80.7079C364.152 80.5799 364.02 80.3816 363.977 80.1569C363.933 79.9321 363.981 79.6992 364.109 79.5094C364.237 79.3196 364.435 79.1884 364.66 79.1448C364.884 79.1011 365.117 79.1485 365.307 79.2766L396.642 100.816L427.942 79.2766C428.132 79.1485 428.365 79.1011 428.59 79.1448C428.814 79.1884 429.013 79.3196 429.141 79.5094C429.269 79.6992 429.316 79.9321 429.272 80.1569C429.229 80.3816 429.098 80.5799 428.908 80.7079L397.125 102.575C396.978 102.66 396.812 102.707 396.642 102.713Z" fill="#D1D3D4"/>
<path d="M364.824 115.854C364.684 115.854 364.546 115.82 364.423 115.753C364.299 115.687 364.194 115.591 364.117 115.474C364.052 115.381 364.006 115.275 363.982 115.163C363.958 115.052 363.956 114.936 363.977 114.824C363.998 114.712 364.041 114.605 364.103 114.509C364.166 114.413 364.247 114.331 364.341 114.267L389.83 96.884C390.02 96.7559 390.253 96.7085 390.478 96.7522C390.702 96.7958 390.9 96.927 391.029 97.1168C391.157 97.3066 391.204 97.5395 391.16 97.7643C391.117 97.9891 390.986 98.1873 390.796 98.3154L365.307 115.75C365.161 115.834 364.992 115.87 364.824 115.854Z" fill="#D1D3D4"/>
<path d="M428.425 115.854C428.252 115.855 428.082 115.801 427.942 115.699L402.471 98.2294C402.377 98.166 402.296 98.0847 402.234 97.9902C402.171 97.8956 402.128 97.7897 402.106 97.6784C402.085 97.5671 402.085 97.4526 402.108 97.3415C402.13 97.2304 402.175 97.1249 402.238 97.0309C402.301 96.9369 402.383 96.8563 402.477 96.7938C402.572 96.7312 402.678 96.6879 402.789 96.6662C402.9 96.6446 403.015 96.6451 403.126 96.6677C403.237 96.6904 403.343 96.7346 403.437 96.7981L428.908 114.319C429.002 114.383 429.083 114.465 429.146 114.561C429.209 114.657 429.252 114.764 429.272 114.876C429.293 114.988 429.292 115.104 429.267 115.215C429.243 115.327 429.197 115.433 429.132 115.526C429.049 115.634 428.942 115.72 428.819 115.777C428.695 115.834 428.56 115.86 428.425 115.854Z" fill="#D1D3D4"/>
<path d="M142.032 81.0527C164.167 81.0527 182.11 63.1091 182.11 40.9746C182.11 18.8401 164.167 0.896484 142.032 0.896484C119.898 0.896484 101.954 18.8401 101.954 40.9746C101.954 63.1091 119.898 81.0527 142.032 81.0527Z" fill="white"/>
<path d="M142.067 81.9152C133.965 81.9152 126.046 79.5126 119.31 75.0114C112.574 70.5102 107.324 64.1124 104.225 56.6274C101.125 49.1424 100.315 40.9063 101.897 32.9608C103.479 25.0154 107.381 17.7175 113.111 11.9901C118.841 6.26279 126.141 2.36331 134.087 0.784905C142.033 -0.793504 150.269 0.0200545 157.752 3.12268C165.236 6.22531 171.631 11.4776 176.13 18.2153C180.628 24.953 183.028 32.8735 183.024 40.9749C183.01 51.8317 178.69 62.2397 171.012 69.915C163.333 77.5903 152.923 81.9061 142.067 81.9152ZM142.067 1.7418C134.307 1.7418 126.722 4.04277 120.27 8.35376C113.818 12.6647 108.789 18.7921 105.82 25.961C102.85 33.1299 102.073 41.0184 103.587 48.6288C105.101 56.2393 108.838 63.23 114.325 68.7168C119.811 74.2037 126.802 77.9403 134.413 79.4541C142.023 80.9679 149.911 80.1909 157.08 77.2215C164.249 74.252 170.377 69.2234 174.688 62.7716C178.999 56.3197 181.3 48.7344 181.3 40.9749C181.29 30.5724 177.154 20.5986 169.798 13.243C162.443 5.88733 152.469 1.75093 142.067 1.7418Z" fill="#D1D3D4"/>
<path d="M136.704 47.4416H121.373C119.45 47.4416 117.606 46.6791 116.245 45.3212C114.884 43.9634 114.117 42.1211 114.112 40.1986V38.2499C114.117 36.3273 114.884 34.4851 116.245 33.1272C117.606 31.7694 119.45 31.0068 121.373 31.0068H136.669C136.898 31.0068 137.117 31.0977 137.279 31.2594C137.441 31.4211 137.531 31.6404 137.531 31.8691V46.5793C137.532 46.8022 137.446 47.0164 137.291 47.1772C137.137 47.3379 136.926 47.4327 136.704 47.4416ZM121.373 32.7314C119.907 32.7314 118.502 33.3122 117.464 34.3466C116.427 35.3811 115.841 36.7847 115.837 38.2499V40.1986C115.841 41.6638 116.427 43.0674 117.464 44.1018C118.502 45.1362 119.907 45.7171 121.373 45.7171H135.807V32.7314H121.373Z" fill="#D1D3D4"/>
<path d="M161.382 59.6348C161.25 59.6331 161.121 59.6037 161.002 59.5486L136.324 47.3562C136.179 47.2851 136.057 47.1746 135.971 47.0374C135.886 46.9002 135.841 46.7417 135.841 46.5801V31.4733C135.843 31.3121 135.889 31.1544 135.974 31.0176C136.059 30.8807 136.18 30.7699 136.324 30.6972L161.037 18.522C161.163 18.4494 161.305 18.4111 161.451 18.4111C161.596 18.4111 161.739 18.4494 161.864 18.522C161.99 18.5966 162.094 18.7026 162.167 18.8295C162.24 18.9565 162.278 19.1001 162.278 19.2463V58.7726C162.27 58.9985 162.176 59.2129 162.016 59.3728C161.856 59.5327 161.642 59.6263 161.416 59.6348H161.382ZM137.566 46.0455L160.519 57.3757V20.6777L137.566 32.0079V46.0455Z" fill="#D1D3D4"/>
<path d="M161.381 47.5631C161.153 47.5631 160.933 47.4722 160.772 47.3105C160.61 47.1488 160.519 46.9295 160.519 46.7008C160.519 46.4721 160.61 46.2528 160.772 46.0911C160.933 45.9294 161.153 45.8386 161.381 45.8386C162.367 45.9958 163.374 45.9375 164.335 45.6675C165.296 45.3975 166.186 44.9223 166.945 44.2747C167.705 43.6271 168.314 42.8226 168.732 41.9165C169.15 41.0105 169.367 40.0245 169.367 39.0267C169.367 38.0288 169.15 37.0429 168.732 36.1368C168.314 35.2308 167.705 34.4262 166.945 33.7786C166.186 33.131 165.296 32.6558 164.335 32.3858C163.374 32.1159 162.367 32.0575 161.381 32.2148C161.153 32.2148 160.933 32.1239 160.772 31.9622C160.61 31.8005 160.519 31.5812 160.519 31.3525C160.519 31.1238 160.61 30.9045 160.772 30.7428C160.933 30.5811 161.153 30.4902 161.381 30.4902C162.502 30.4902 163.612 30.711 164.648 31.14C165.684 31.569 166.625 32.1978 167.417 32.9905C168.21 33.7832 168.839 34.7242 169.268 35.7599C169.697 36.7956 169.918 37.9056 169.918 39.0267C169.918 40.1477 169.697 41.2577 169.268 42.2934C168.839 43.3291 168.21 44.2701 167.417 45.0628C166.625 45.8555 165.684 46.4843 164.648 46.9133C163.612 47.3423 162.502 47.5631 161.381 47.5631Z" fill="#D1D3D4"/>
<path d="M128.011 63.5139C127.439 63.5162 126.872 63.4055 126.343 63.1881C125.814 62.9707 125.333 62.651 124.927 62.2472C124.522 61.8434 124.2 61.3636 123.981 60.8352C123.761 60.3068 123.648 59.7403 123.648 59.1681V46.5791C123.648 46.3504 123.739 46.1311 123.901 45.9693C124.063 45.8076 124.282 45.7168 124.511 45.7168H131.512C131.74 45.7212 131.956 45.8135 132.117 45.9742C132.278 46.135 132.37 46.3518 132.375 46.5791V59.1681C132.37 60.3223 131.908 61.4276 131.091 62.2421C130.273 63.0566 129.166 63.514 128.011 63.5139ZM125.373 47.4413V59.1681C125.373 59.8679 125.651 60.539 126.146 61.0339C126.641 61.5287 127.312 61.8067 128.011 61.8067C128.711 61.8067 129.382 61.5287 129.877 61.0339C130.372 60.539 130.65 59.8679 130.65 59.1681V47.4413H125.373Z" fill="#D1D3D4"/>
<path d="M126.546 37.3368H120.079C119.85 37.3368 119.631 37.246 119.469 37.0843C119.308 36.9226 119.217 36.7033 119.217 36.4746C119.217 36.2459 119.308 36.0266 119.469 35.8649C119.631 35.7031 119.85 35.6123 120.079 35.6123H126.546C126.775 35.6123 126.994 35.7031 127.156 35.8649C127.317 36.0266 127.408 36.2459 127.408 36.4746C127.408 36.7033 127.317 36.9226 127.156 37.0843C126.994 37.246 126.775 37.3368 126.546 37.3368Z" fill="#D1D3D4"/>
<path d="M146.671 263.439H102.695C102.467 263.439 102.247 263.349 102.086 263.187C101.924 263.025 101.833 262.806 101.833 262.577C101.833 262.348 101.924 262.129 102.086 261.967C102.247 261.806 102.467 261.715 102.695 261.715H146.671C146.899 261.715 147.119 261.806 147.281 261.967C147.442 262.129 147.533 262.348 147.533 262.577C147.533 262.806 147.442 263.025 147.281 263.187C147.119 263.349 146.899 263.439 146.671 263.439Z" fill="#D1D3D4"/>
<path d="M157.018 252.73H102.695C102.467 252.73 102.247 252.64 102.086 252.478C101.924 252.316 101.833 252.097 101.833 251.868C101.833 251.639 101.924 251.42 102.086 251.258C102.247 251.097 102.467 251.006 102.695 251.006H157.018C157.245 251.01 157.462 251.103 157.623 251.263C157.784 251.424 157.876 251.641 157.88 251.868C157.88 252.097 157.789 252.316 157.628 252.478C157.466 252.64 157.247 252.73 157.018 252.73Z" fill="#D1D3D4"/>
<path d="M154.501 242.176H102.765C102.536 242.176 102.317 242.085 102.155 241.923C101.994 241.761 101.903 241.542 101.903 241.313C101.903 241.085 101.994 240.865 102.155 240.704C102.317 240.542 102.536 240.451 102.765 240.451H154.501C154.73 240.451 154.949 240.542 155.111 240.704C155.272 240.865 155.363 241.085 155.363 241.313C155.363 241.542 155.272 241.761 155.111 241.923C154.949 242.085 154.73 242.176 154.501 242.176Z" fill="#D1D3D4"/>
</svg>
