<svg width="471" height="389" viewBox="0 0 471 389" fill="none" xmlns="http://www.w3.org/2000/svg">
<path d="M326.401 125.235C326.817 123.585 327.218 121.919 327.65 120.269C327.866 119.406 328.128 118.558 328.405 117.725C328.54 117.196 328.852 116.729 329.29 116.403C329.729 116.077 330.266 115.912 330.811 115.936C332.137 115.936 333.448 116.137 334.759 116.229C335.459 116.321 336.166 116.352 336.871 116.322C337.392 116.29 337.886 116.084 338.275 115.736C339.647 114.194 340.958 112.652 342.238 110.955C342.449 110.654 342.584 110.305 342.63 109.939C342.676 109.574 342.631 109.203 342.5 108.858C342.037 107.316 341.513 105.774 341.066 104.232C340.855 103.637 340.74 103.013 340.726 102.382C340.728 101.915 340.91 101.468 341.235 101.133C343.504 99.364 346.025 97.945 348.714 96.9229C349.107 96.756 349.545 96.7246 349.958 96.8334C350.371 96.9423 350.736 97.1853 350.996 97.5243C352.107 98.8041 353.263 100.053 354.342 101.364C354.696 101.861 355.184 102.246 355.75 102.473C356.316 102.7 356.936 102.759 357.534 102.644C359.246 102.366 360.973 102.197 362.685 101.965C363.013 101.932 363.327 101.816 363.597 101.627C363.867 101.438 364.084 101.183 364.227 100.886C364.767 99.9298 365.26 98.9429 365.769 97.9715C366.278 97 366.663 96.3061 367.141 95.4888C367.349 95.0774 367.694 94.7511 368.115 94.5654C368.537 94.3798 369.011 94.3464 369.454 94.471C371.906 95.0879 374.373 95.7201 376.81 96.4294C377.282 96.5574 377.694 96.8462 377.976 97.2461C378.257 97.6459 378.39 98.1316 378.352 98.6191C378.352 99.9607 378.151 101.287 378.059 102.628C378.059 103.245 377.966 103.877 377.966 104.51C377.953 104.915 378.036 105.317 378.207 105.684C378.378 106.051 378.634 106.373 378.953 106.622C380.31 107.702 381.683 108.766 383.009 109.891C383.39 110.238 383.859 110.474 384.365 110.572C384.871 110.669 385.394 110.626 385.877 110.446C387.542 109.922 389.208 109.367 390.873 108.904C391.416 108.663 392.032 108.643 392.588 108.851C393.145 109.059 393.598 109.477 393.849 110.015C395.006 111.958 396.116 113.931 397.195 115.921C397.392 116.186 397.533 116.488 397.61 116.809C397.687 117.129 397.699 117.462 397.644 117.788C397.589 118.113 397.47 118.424 397.292 118.702C397.114 118.98 396.882 119.22 396.609 119.406C395.792 120.177 394.898 120.855 394.05 121.595C393.453 122.14 392.868 122.695 392.292 123.261C392.055 123.499 391.876 123.788 391.766 124.106C391.657 124.424 391.62 124.762 391.66 125.096C391.845 126.885 392.03 128.673 392.261 130.447C392.32 130.93 392.501 131.39 392.787 131.784C393.073 132.178 393.454 132.492 393.895 132.698C394.929 133.191 395.962 133.669 396.98 134.24C397.621 134.547 398.244 134.892 398.845 135.273C399.274 135.507 399.61 135.882 399.795 136.334C399.98 136.786 400.004 137.288 399.863 137.756C399.262 139.976 398.63 142.197 397.997 144.402C397.883 144.741 397.734 145.067 397.55 145.373C397.384 145.732 397.111 146.031 396.769 146.23C396.427 146.429 396.032 146.517 395.638 146.484L390.919 146.098H390.565C389.903 145.978 389.22 146.061 388.606 146.336C387.992 146.611 387.476 147.066 387.126 147.64C386.34 148.75 385.43 149.768 384.582 150.832C384.181 151.298 383.916 151.866 383.816 152.472C383.715 153.078 383.783 153.7 384.011 154.271C384.52 155.813 385.013 157.216 385.461 158.697C385.597 158.976 385.674 159.281 385.687 159.592C385.7 159.902 385.648 160.212 385.535 160.502C385.422 160.792 385.25 161.055 385.03 161.275C384.81 161.495 384.547 161.667 384.258 161.781C382.253 162.968 380.202 164.109 378.09 165.204C377.634 165.503 377.081 165.619 376.543 165.527C376.005 165.436 375.522 165.144 375.191 164.71C374.281 163.739 373.417 162.706 372.554 161.626C370.688 159.437 370.256 159.267 367.403 159.653L364.073 160.131C363.539 160.182 363.029 160.37 362.591 160.679C362.153 160.987 361.802 161.404 361.575 161.889C360.989 163.076 360.433 164.279 359.817 165.451C359.487 166.052 359.1 166.62 358.66 167.147C358.476 167.421 358.209 167.629 357.898 167.74C357.587 167.851 357.249 167.859 356.933 167.764L349.948 165.821C349.63 165.708 349.326 165.564 349.038 165.389C348.673 165.229 348.368 164.958 348.166 164.615C347.964 164.272 347.875 163.873 347.912 163.477C348.036 161.935 348.159 160.393 348.267 158.851C348.267 158.388 348.267 157.91 348.267 157.432C348.279 157.046 348.199 156.662 348.032 156.314C347.866 155.965 347.619 155.661 347.311 155.427C345.985 154.41 344.674 153.377 343.363 152.343C342.989 152.032 342.538 151.828 342.058 151.752C341.578 151.676 341.085 151.731 340.634 151.912C339.169 152.421 337.689 152.868 336.208 153.346H336.039C334.096 153.87 333.433 153.67 332.415 151.927C331.397 150.185 330.241 148.01 329.238 146.006C329.078 145.78 328.965 145.525 328.907 145.254C328.849 144.984 328.847 144.705 328.9 144.433C328.954 144.162 329.062 143.905 329.218 143.677C329.374 143.448 329.575 143.255 329.809 143.107C330.919 142.089 332.076 141.102 333.278 140.177C333.874 139.779 334.338 139.214 334.612 138.552C334.887 137.891 334.959 137.163 334.82 136.461C334.574 134.918 334.404 133.253 334.173 131.649C334.133 131.324 334.013 131.013 333.825 130.744C333.637 130.475 333.386 130.256 333.093 130.107C331.675 129.367 330.256 128.642 328.853 127.887C327.87 127.51 327.054 126.794 326.555 125.867L326.401 125.235ZM378.321 129.861C378.153 127.844 377.586 125.881 376.654 124.085C375.722 122.288 374.444 120.695 372.892 119.396C371.341 118.096 369.547 117.118 367.615 116.516C365.683 115.914 363.651 115.701 361.636 115.89C357.652 116.352 354 118.337 351.446 121.429C348.891 124.522 347.63 128.482 347.928 132.482C348.289 136.494 350.217 140.201 353.295 142.799C356.372 145.397 360.35 146.677 364.366 146.36C366.373 146.208 368.33 145.656 370.121 144.737C371.912 143.819 373.502 142.552 374.798 141.011C376.093 139.47 377.068 137.686 377.665 135.763C378.262 133.84 378.469 131.818 378.275 129.814L378.321 129.861Z" fill="white"/>
<path d="M357.241 168.565C357.017 168.565 356.794 168.534 356.578 168.473L354.944 168.026L349.577 166.484C349.258 166.37 348.949 166.23 348.652 166.067C348.124 165.843 347.68 165.46 347.381 164.97C347.082 164.481 346.944 163.91 346.987 163.338L347.156 161.287L347.341 158.696C347.364 158.25 347.364 157.802 347.341 157.355C347.357 157.084 347.307 156.812 347.194 156.565C347.081 156.318 346.909 156.102 346.694 155.936C345.414 154.965 344.165 153.962 342.9 152.976L342.731 152.837C342.457 152.606 342.125 152.455 341.772 152.4C341.418 152.346 341.056 152.39 340.726 152.528C339.708 152.883 338.675 153.207 337.642 153.546L336.27 153.978H336.069C333.756 154.61 332.754 154.209 331.582 152.205C330.41 150.2 329.207 147.902 328.374 146.252C327.971 145.645 327.822 144.904 327.961 144.189C328.099 143.473 328.514 142.841 329.115 142.428C330.425 141.241 331.551 140.3 332.63 139.452C333.109 139.132 333.481 138.676 333.698 138.143C333.915 137.61 333.967 137.024 333.849 136.46C333.694 135.473 333.556 134.456 333.432 133.376L333.201 131.572C333.183 131.359 333.112 131.154 332.993 130.976C332.874 130.798 332.712 130.653 332.522 130.554L330.826 129.675C329.978 129.228 329.115 128.797 328.266 128.334C327.127 127.883 326.19 127.034 325.63 125.944C325.614 125.862 325.614 125.779 325.63 125.697V125.111C325.614 125.03 325.614 124.946 325.63 124.864L325.938 123.584L326.863 119.884C327.094 119.02 327.357 118.157 327.634 117.293C327.809 116.614 328.21 116.016 328.77 115.595C329.331 115.175 330.018 114.958 330.718 114.98C331.613 114.98 332.492 115.072 333.371 115.165L334.697 115.273H335.252C335.729 115.318 336.209 115.318 336.686 115.273C337.013 115.25 337.328 115.138 337.596 114.949C339.045 113.299 340.402 111.618 341.512 110.2C341.653 109.997 341.74 109.762 341.764 109.516C341.788 109.27 341.749 109.023 341.651 108.796C341.451 108.118 341.235 107.439 341.004 106.745C340.772 106.052 340.464 105.034 340.217 104.17C339.985 103.506 339.86 102.808 339.847 102.104C339.844 101.755 339.915 101.41 340.056 101.091C340.197 100.771 340.404 100.486 340.664 100.254C342.992 98.4142 345.593 96.952 348.374 95.9204C348.91 95.7104 349.499 95.6779 350.054 95.8278C350.609 95.9777 351.102 96.3021 351.459 96.7531L352.63 98.0793C353.371 98.912 354.172 99.7293 354.82 100.593C355.085 100.987 355.461 101.294 355.9 101.475C356.339 101.656 356.822 101.703 357.287 101.611C358.413 101.425 359.523 101.287 360.649 101.148L362.469 100.917C362.665 100.89 362.852 100.814 363.011 100.695C363.17 100.576 363.297 100.419 363.378 100.238L364.304 98.4802L365.167 96.9382C365.537 96.2443 365.907 95.5349 366.324 94.8719C366.609 94.3294 367.068 93.8981 367.627 93.6465C368.186 93.395 368.813 93.3378 369.408 93.484C372.384 94.2396 374.651 94.841 376.779 95.4578C377.405 95.6423 377.949 96.0346 378.322 96.5701C378.695 97.1055 378.874 97.7521 378.83 98.4031C378.83 99.3129 378.737 100.223 378.645 101.102C378.645 101.549 378.567 101.996 378.521 102.443C378.475 102.89 378.444 103.661 378.444 104.278C378.425 104.572 378.478 104.867 378.599 105.136C378.72 105.404 378.905 105.639 379.138 105.82L380.094 106.576C381.143 107.409 382.191 108.241 383.178 109.105C383.462 109.365 383.814 109.54 384.193 109.611C384.571 109.682 384.962 109.645 385.321 109.506L387.758 108.735L390.318 107.917C391.039 107.644 391.836 107.651 392.553 107.936C393.269 108.221 393.853 108.765 394.188 109.459C395.36 111.433 396.486 113.422 397.55 115.381C398.029 116.066 398.219 116.913 398.081 117.737C397.943 118.562 397.486 119.299 396.81 119.791C396.316 120.254 395.807 120.685 395.268 121.117L394.219 122.012C393.633 122.52 393.062 123.076 392.507 123.554C392.346 123.709 392.223 123.901 392.148 124.112C392.073 124.323 392.048 124.549 392.076 124.772L392.184 125.759C392.338 127.208 392.507 128.658 392.692 130.092C392.73 130.45 392.861 130.792 393.072 131.085C393.283 131.377 393.567 131.609 393.895 131.757L395.221 132.389L396.995 133.238C397.596 133.546 398.275 133.901 398.922 134.317C399.494 134.634 399.939 135.138 400.183 135.745C400.427 136.351 400.456 137.023 400.264 137.648C399.668 139.868 399.051 142.089 398.413 144.309C398.291 144.67 398.131 145.016 397.935 145.342C397.694 145.842 397.307 146.257 396.825 146.532C396.344 146.808 395.79 146.93 395.237 146.885L390.518 146.499C390.385 146.511 390.251 146.511 390.117 146.499C389.595 146.406 389.057 146.474 388.575 146.694C388.093 146.915 387.69 147.277 387.419 147.733C386.848 148.534 386.231 149.275 385.614 150.015L384.843 150.955C384.526 151.32 384.316 151.765 384.237 152.241C384.158 152.718 384.213 153.207 384.396 153.654C384.967 155.304 385.445 156.738 385.861 158.126C386.03 158.489 386.123 158.883 386.136 159.284C386.15 159.684 386.083 160.083 385.939 160.457C385.795 160.831 385.577 161.172 385.299 161.46C385.021 161.749 384.688 161.978 384.319 162.135C382.453 163.23 380.449 164.356 378.151 165.574C377.55 165.96 376.826 166.107 376.121 165.988C375.417 165.868 374.782 165.489 374.342 164.926C373.587 164.124 372.877 163.292 372.168 162.444L371.675 161.873C369.978 159.868 369.793 159.807 367.218 160.161L363.872 160.639C363.463 160.675 363.071 160.817 362.735 161.053C362.4 161.289 362.132 161.609 361.96 161.981L361.405 163.138C361.024 163.95 360.623 164.751 360.202 165.543C359.857 166.197 359.444 166.812 358.968 167.378C358.791 167.696 358.543 167.968 358.244 168.174C357.944 168.38 357.601 168.514 357.241 168.565ZM341.559 150.894C342.34 150.901 343.095 151.173 343.702 151.665L343.872 151.804C345.121 152.79 346.385 153.793 347.65 154.764C348.047 155.067 348.367 155.46 348.584 155.91C348.801 156.36 348.909 156.855 348.899 157.355C348.899 157.848 348.899 158.357 348.899 158.897C348.899 159.76 348.775 160.639 348.698 161.503L348.544 163.554C348.523 163.801 348.582 164.049 348.713 164.26C348.843 164.471 349.038 164.634 349.269 164.726H349.408C349.604 164.842 349.81 164.941 350.024 165.019L355.375 166.561L356.994 167.008C357.166 167.058 357.35 167.051 357.517 166.987C357.684 166.923 357.826 166.806 357.92 166.653C358.327 166.174 358.689 165.658 358.999 165.111C359.4 164.34 359.785 163.569 360.171 162.767L360.742 161.58C361.026 160.984 361.459 160.471 361.999 160.09C362.539 159.709 363.168 159.474 363.826 159.406L367.156 158.928C370.24 158.496 370.965 158.774 373.001 161.164L373.494 161.75C374.188 162.567 374.882 163.384 375.622 164.155C375.724 164.311 375.857 164.444 376.012 164.547C376.167 164.65 376.342 164.72 376.525 164.753C376.708 164.786 376.896 164.782 377.078 164.74C377.259 164.698 377.43 164.62 377.581 164.51C379.847 163.307 381.852 162.181 383.749 161.102C384.828 160.47 384.967 160.1 384.597 158.851C384.227 157.602 383.718 156.09 383.163 154.456C382.889 153.762 382.809 153.006 382.931 152.27C383.053 151.534 383.373 150.845 383.857 150.277L384.643 149.321C385.244 148.612 385.846 147.887 386.37 147.131C386.804 146.442 387.433 145.896 388.176 145.564C388.92 145.232 389.746 145.128 390.549 145.265H390.873L395.499 145.635C395.75 145.668 396.004 145.614 396.22 145.482C396.436 145.35 396.6 145.149 396.686 144.911C396.846 144.665 396.976 144.401 397.072 144.124C397.704 141.904 398.321 139.699 398.922 137.478C399.03 137.17 399.021 136.833 398.896 136.531C398.77 136.23 398.538 135.985 398.244 135.844C397.667 135.48 397.07 135.15 396.455 134.857L394.712 134.009L393.386 133.376C392.824 133.121 392.338 132.723 391.976 132.223C391.614 131.723 391.388 131.137 391.32 130.524C391.12 129.074 390.965 127.609 390.811 126.144L390.703 125.173C390.648 124.723 390.696 124.266 390.846 123.838C390.996 123.41 391.243 123.023 391.567 122.705C392.137 122.12 392.739 121.549 393.355 121.009L394.435 120.084C394.928 119.683 395.422 119.267 395.884 118.82C396.856 117.91 396.948 117.416 396.332 116.275C395.268 114.332 394.157 112.358 393.001 110.385C392.918 110.195 392.797 110.024 392.647 109.882C392.496 109.739 392.318 109.629 392.124 109.557C391.929 109.485 391.723 109.453 391.516 109.463C391.309 109.472 391.106 109.524 390.919 109.614L388.375 110.431L385.907 111.217C385.3 111.431 384.646 111.477 384.014 111.352C383.383 111.228 382.796 110.936 382.315 110.508C381.312 109.66 380.279 108.843 379.23 108.025L378.274 107.254C377.863 106.934 377.532 106.522 377.31 106.05C377.087 105.579 376.979 105.062 376.995 104.54C376.995 103.893 376.995 103.245 377.087 102.597C377.18 101.95 377.164 101.672 377.21 101.225C377.21 100.331 377.365 99.498 377.38 98.6344C377.413 98.3256 377.339 98.0147 377.171 97.7537C377.003 97.4927 376.75 97.2974 376.455 97.2003C374.342 96.5835 372.075 95.9821 369.13 95.2419C368.845 95.1601 368.54 95.1837 368.271 95.3083C368.002 95.4329 367.787 95.6502 367.665 95.9204C367.28 96.5681 366.91 97.2466 366.555 97.9251L365.707 99.4671C365.398 100.069 365.075 100.654 364.751 101.256C364.553 101.646 364.263 101.983 363.905 102.235C363.548 102.488 363.134 102.649 362.7 102.705L360.865 102.937C359.77 103.075 358.66 103.214 357.565 103.384C356.833 103.524 356.076 103.454 355.383 103.181C354.689 102.908 354.088 102.444 353.648 101.842C352.97 101.009 352.245 100.192 351.52 99.39C351.119 98.9428 350.718 98.4956 350.333 98.033C350.172 97.8118 349.941 97.6526 349.677 97.5824C349.413 97.5122 349.132 97.5352 348.883 97.6475C346.277 98.6647 343.839 100.068 341.651 101.811C341.523 102.003 341.453 102.228 341.451 102.459C341.474 103.011 341.578 103.556 341.759 104.078C342.006 104.921 342.268 105.769 342.546 106.622L343.193 108.688C343.356 109.154 343.404 109.652 343.334 110.14C343.265 110.629 343.079 111.093 342.792 111.495C341.651 112.929 340.294 114.579 338.814 116.306C338.295 116.803 337.618 117.103 336.902 117.154C336.322 117.208 335.739 117.208 335.159 117.154H334.65L333.293 117.031C332.445 117.031 331.597 116.877 330.749 116.861C330.371 116.849 330 116.966 329.697 117.193C329.394 117.42 329.178 117.744 329.084 118.11C328.822 118.943 328.559 119.776 328.344 120.608C328.02 121.842 327.727 123.06 327.418 124.278L327.141 125.45V125.774C327.59 126.473 328.248 127.013 329.022 127.316L331.582 128.658L333.278 129.537C333.696 129.742 334.056 130.048 334.325 130.428C334.595 130.808 334.765 131.249 334.82 131.711L335.051 133.546C335.19 134.533 335.313 135.52 335.468 136.507C335.625 137.342 335.539 138.205 335.219 138.993C334.899 139.78 334.359 140.459 333.663 140.948C332.615 141.765 331.52 142.69 330.24 143.862C329.454 144.571 329.377 144.926 329.839 145.836C330.672 147.378 331.782 149.598 333.016 151.711C333.818 153.114 334.111 153.253 335.761 152.775L337.303 152.282L340.387 151.295C340.768 151.096 341.18 150.961 341.605 150.894H341.559ZM362.977 147.162C358.975 147.146 355.124 145.635 352.179 142.924C349.235 140.214 347.41 136.5 347.064 132.513C346.88 130.413 347.117 128.298 347.76 126.291C348.403 124.284 349.441 122.426 350.811 120.824C352.829 118.368 355.537 116.573 358.584 115.668C361.631 114.764 364.88 114.792 367.911 115.749C370.943 116.705 373.619 118.547 375.595 121.038C377.571 123.528 378.756 126.552 378.999 129.722C379.229 131.744 379.051 133.791 378.476 135.743C377.901 137.695 376.941 139.512 375.653 141.086C374.283 142.815 372.57 144.242 370.623 145.277C368.675 146.312 366.534 146.933 364.334 147.1C363.899 147.142 363.461 147.163 363.024 147.162H362.977ZM362.87 116.568H361.605C357.843 116.991 354.392 118.86 351.983 121.78C350.133 123.96 348.972 126.64 348.646 129.48C348.32 132.321 348.844 135.194 350.151 137.736C351.459 140.279 353.491 142.376 355.991 143.763C358.491 145.15 361.347 145.764 364.196 145.528C366.187 145.373 368.125 144.81 369.89 143.874C371.654 142.937 373.206 141.647 374.45 140.084C375.619 138.674 376.493 137.045 377.023 135.291C377.553 133.538 377.726 131.697 377.534 129.876C377.245 126.215 375.572 122.803 372.857 120.331C370.142 117.859 366.587 116.514 362.916 116.568H362.87Z" fill="#D1D3D4"/>
<path d="M142.991 39.1737C142.991 39.1737 104.841 37.277 97.1313 62.4429V112.821C97.1313 112.821 126.785 89.4747 142.991 97.2619V39.1737Z" fill="#D1D3D4"/>
<path d="M97.1316 113.592C97.0195 113.614 96.9044 113.614 96.7923 113.592C96.6626 113.529 96.5533 113.43 96.4769 113.307C96.4006 113.185 96.3603 113.043 96.3606 112.898V62.4433C96.3531 62.3715 96.3531 62.2992 96.3606 62.2274C104.163 36.7839 142.621 38.3722 143.007 38.403C143.206 38.411 143.394 38.4957 143.532 38.6395C143.67 38.7832 143.747 38.9748 143.747 39.174V97.2623C143.748 97.3954 143.714 97.5263 143.649 97.6425C143.585 97.7587 143.491 97.8562 143.377 97.9254C143.265 97.9903 143.137 98.0245 143.007 98.0245C142.877 98.0245 142.749 97.9903 142.637 97.9254C127.047 90.4003 97.918 113.161 97.5788 113.346C97.4665 113.482 97.3066 113.57 97.1316 113.592ZM97.9026 62.5666V111.264C103.67 106.962 127.386 90.3077 142.236 96.0903V39.9142C136.962 39.8063 104.842 40.2689 97.9026 62.5666Z" fill="#231F20"/>
<path d="M182.391 306.315C177.163 308.042 171.858 309.569 166.754 311.573C158.242 314.92 151.334 312.607 146.708 305.205C139.46 293.748 129.391 285.76 118.18 278.435C101.727 267.641 90.4239 252.406 85.952 233.161C76.8541 194.41 99.4294 161.549 139.322 152.359C198.181 138.835 234.095 192.452 217.965 243.339C213.601 257.109 209.515 270.463 210.594 285.097C211.196 293.239 206.755 298.466 198.813 300.81C193.293 302.491 187.865 304.48 182.391 306.315Z" fill="white"/>
<path d="M159.537 313.856C154.094 313.856 149.514 311.08 146.075 305.621C138.365 293.516 127.479 285.421 117.764 279.083C101.346 268.685 89.6587 252.264 85.2116 233.346C80.9093 214.981 83.4537 197.54 92.5671 182.906C102.205 167.486 118.782 156.306 139.167 151.619C164.981 145.682 188.08 152.035 204.21 169.522C221.65 188.411 227.202 216.816 218.72 243.632C214.572 256.739 210.286 270.293 211.38 285.097C211.982 293.347 207.726 298.975 199.044 301.612C195.266 302.722 191.457 304.033 187.772 305.297L182.622 307.04L177.841 308.582C174.264 309.723 170.563 310.91 167.047 312.298C164.663 313.28 162.116 313.808 159.537 313.856ZM157.517 150.986C151.453 151.016 145.411 151.73 139.506 153.114C119.46 157.74 103.3 168.535 93.8778 183.724C84.9803 198.003 82.4976 215.042 86.7073 232.992C91.1175 251.773 101.85 266.916 118.612 277.787C128.465 284.218 139.584 292.452 147.371 304.804C151.92 312.005 158.335 314.056 166.461 310.864C170.054 309.461 173.77 308.273 177.379 307.117L182.144 305.575L187.279 303.832C190.964 302.568 194.788 301.242 198.612 300.132C206.508 297.803 210.378 292.653 209.838 285.22C208.713 270.108 213.061 256.415 217.24 243.169C225.567 216.954 220.139 189.059 203.084 170.57C197.31 164.264 190.261 159.258 182.405 155.881C174.55 152.505 166.066 150.837 157.517 150.986Z" fill="#231F20"/>
<path d="M203.356 299.404L161.187 313.481C157.415 314.74 155.377 318.819 156.637 322.592L157.369 324.786C158.628 328.558 162.708 330.596 166.48 329.336L208.649 315.26C212.422 314 214.459 309.921 213.2 306.149L212.467 303.955C211.208 300.182 207.129 298.145 203.356 299.404Z" fill="white"/>
<path d="M164.225 330.463C162.552 330.469 160.92 329.946 159.563 328.968C158.206 327.99 157.193 326.608 156.669 325.02L155.929 322.814C155.264 320.808 155.422 318.621 156.367 316.73C157.312 314.84 158.967 313.402 160.971 312.73L203.13 298.651C205.138 297.986 207.328 298.143 209.221 299.088C211.114 300.033 212.555 301.689 213.23 303.693L213.955 305.883C214.625 307.891 214.469 310.083 213.524 311.977C212.578 313.87 210.92 315.311 208.913 315.983L166.754 330.031C165.94 330.311 165.086 330.456 164.225 330.463ZM205.659 299.792C204.968 299.793 204.281 299.902 203.624 300.116L161.403 314.195C159.8 314.749 158.48 315.913 157.729 317.434C156.979 318.956 156.858 320.711 157.394 322.321L158.134 324.511C158.396 325.314 158.816 326.056 159.37 326.694C159.923 327.332 160.599 327.854 161.357 328.227C162.113 328.608 162.936 328.835 163.781 328.896C164.625 328.957 165.473 328.85 166.276 328.582L208.435 314.503C209.236 314.235 209.976 313.811 210.613 313.257C211.251 312.703 211.773 312.028 212.149 311.272C212.526 310.516 212.75 309.693 212.808 308.851C212.867 308.008 212.759 307.162 212.49 306.361L211.766 304.171C211.333 302.895 210.512 301.785 209.417 301C208.321 300.214 207.007 299.792 205.659 299.792Z" fill="#231F20"/>
<path d="M208.663 315.274L166.493 329.351C162.721 330.61 160.683 334.689 161.943 338.462L162.675 340.656C163.935 344.428 168.014 346.465 171.786 345.206L213.955 331.129C217.728 329.87 219.765 325.791 218.506 322.018L217.773 319.824C216.514 316.052 212.435 314.014 208.663 315.274Z" fill="white"/>
<path d="M169.515 346.331C167.844 346.322 166.217 345.791 164.862 344.812C163.507 343.833 162.492 342.456 161.959 340.872L161.234 338.682C160.887 337.678 160.747 336.614 160.821 335.554C160.895 334.494 161.183 333.46 161.666 332.514C162.124 331.568 162.771 330.726 163.566 330.039C164.362 329.352 165.289 328.836 166.292 328.52L208.451 314.442C210.455 313.795 212.634 313.969 214.51 314.926C216.385 315.883 217.806 317.544 218.459 319.546L219.184 321.751C219.519 322.743 219.655 323.792 219.584 324.837C219.513 325.881 219.236 326.902 218.769 327.839C218.301 328.777 217.653 329.612 216.862 330.298C216.07 330.984 215.151 331.507 214.157 331.836L171.997 345.914C171.197 346.182 170.359 346.323 169.515 346.331ZM210.965 315.644C210.267 315.643 209.574 315.758 208.914 315.984L166.755 330.032C165.137 330.577 163.8 331.742 163.038 333.27C162.656 334.023 162.43 334.845 162.371 335.687C162.313 336.53 162.424 337.375 162.699 338.173L163.424 340.363C163.689 341.167 164.11 341.91 164.663 342.55C165.216 343.19 165.891 343.715 166.648 344.093C167.404 344.471 168.228 344.696 169.073 344.755C169.917 344.813 170.764 344.704 171.566 344.434L213.725 330.355C214.527 330.089 215.269 329.667 215.907 329.113C216.546 328.559 217.068 327.884 217.445 327.127C217.822 326.371 218.046 325.547 218.103 324.704C218.161 323.861 218.051 323.014 217.78 322.213L217.056 320.024C216.79 319.222 216.369 318.481 215.815 317.844C215.262 317.206 214.588 316.684 213.833 316.307C212.94 315.869 211.959 315.642 210.965 315.644Z" fill="#231F20"/>
<path d="M214.542 330.911C216.531 336.894 208.374 344.974 196.5 348.968C184.626 352.962 173.231 351.343 171.242 345.375L214.542 330.911Z" fill="#231F20"/>
<path d="M183.902 351.929C182.607 351.937 181.313 351.849 180.031 351.666C174.958 350.942 171.565 348.798 170.501 345.622C170.442 345.425 170.46 345.213 170.551 345.03C170.643 344.846 170.802 344.705 170.995 344.635L214.295 330.186C214.487 330.122 214.697 330.136 214.879 330.226C215.061 330.315 215.2 330.473 215.267 330.664C216.331 333.856 214.927 337.603 211.304 341.227C207.153 345.112 202.176 348.006 196.747 349.693C192.612 351.118 188.275 351.873 183.902 351.929ZM172.275 345.837C173.4 348.058 176.192 349.569 180.247 350.14C185.658 350.596 191.105 349.945 196.256 348.227C201.408 346.509 206.155 343.76 210.209 340.147C213.092 337.248 214.418 334.365 213.987 331.913L172.275 345.837Z" fill="#231F20"/>
<path d="M169.947 302.367C169.774 302.364 169.608 302.305 169.472 302.199C169.336 302.094 169.237 301.947 169.191 301.781L168.806 300.239C165.721 287.24 162.422 273.886 156.685 261.689C148.381 263.272 139.812 262.741 131.766 260.147C127.061 258.83 122.799 256.268 119.43 252.729C117.727 250.917 116.516 248.698 115.914 246.285C115.312 243.871 115.339 241.344 115.991 238.944C116.695 237.199 117.75 235.617 119.089 234.296C120.429 232.975 122.026 231.943 123.781 231.263C125.535 230.584 127.411 230.272 129.291 230.346C131.171 230.421 133.016 230.88 134.711 231.696C140.263 234.904 146.199 241.38 152.383 250.941C154.269 253.861 155.973 256.894 157.487 260.023C164.305 258.637 170.769 255.877 176.485 251.912C176.361 251.357 176.238 250.817 176.13 250.262L175.853 248.905C173.632 238.389 170.887 225.297 175.436 214.981C176.161 213.315 178.89 207.841 183.254 206.931C184.296 206.736 185.371 206.806 186.378 207.135C187.386 207.464 188.295 208.041 189.022 208.812C191.419 211.169 193.221 214.062 194.28 217.253C195.339 220.443 195.625 223.84 195.113 227.163C194.041 233.727 191.096 239.842 186.631 244.773C184.135 247.662 181.31 250.25 178.212 252.483C181.573 266.614 186.675 280.272 193.401 293.146C193.449 293.237 193.478 293.336 193.486 293.439C193.495 293.541 193.483 293.644 193.452 293.742C193.42 293.839 193.369 293.93 193.302 294.007C193.235 294.085 193.154 294.149 193.062 294.195C192.879 294.282 192.669 294.296 192.477 294.232C192.285 294.169 192.124 294.034 192.028 293.855C185.341 281.053 180.245 267.48 176.855 253.439C171.241 257.244 164.949 259.934 158.32 261.365C164.01 273.562 167.248 286.855 170.378 299.808L170.779 301.35C170.826 301.548 170.792 301.757 170.685 301.93C170.578 302.103 170.407 302.227 170.209 302.275L169.947 302.367ZM129.021 231.712C127.437 231.722 125.869 232.025 124.395 232.606C122.821 233.151 121.386 234.036 120.192 235.198C118.998 236.36 118.074 237.77 117.487 239.329C116.92 241.479 116.906 243.737 117.445 245.893C117.985 248.05 119.06 250.035 120.571 251.665C123.737 254.984 127.737 257.391 132.151 258.635C139.811 261.129 147.969 261.691 155.899 260.27C154.456 257.332 152.845 254.479 151.072 251.727C145.027 242.382 139.26 236.076 133.925 232.976C132.427 232.138 130.738 231.702 129.021 231.712ZM184.534 208.319C184.25 208.322 183.966 208.348 183.686 208.396C180.803 209.013 178.32 212.498 176.963 215.567C172.63 225.389 175.313 238.204 177.472 248.52L177.765 249.861C177.765 250.201 177.904 250.524 177.965 250.864C180.761 248.779 183.316 246.39 185.583 243.739C189.855 239.037 192.677 233.2 193.709 226.931C194.181 223.863 193.919 220.726 192.946 217.778C191.973 214.83 190.317 212.154 188.112 209.969C187.172 208.985 185.893 208.396 184.534 208.319Z" fill="#D1D3D4"/>
<path d="M317.672 77.8941C317.21 77.8941 296.084 137.725 296.084 137.725H353.386L365.383 75.1802L317.672 77.8941Z" fill="white"/>
<path d="M353.386 138.496H296.146C296.025 138.496 295.905 138.466 295.798 138.409C295.691 138.353 295.598 138.272 295.529 138.172C295.455 138.072 295.406 137.954 295.388 137.831C295.369 137.707 295.38 137.581 295.421 137.463C316.408 77.8326 316.902 77.1387 317.642 77.1387L365.352 74.4247C365.468 74.4192 365.584 74.4399 365.691 74.4853C365.797 74.5306 365.893 74.5996 365.969 74.6869C366.043 74.776 366.098 74.8796 366.13 74.9911C366.162 75.1027 366.17 75.2196 366.154 75.3345L354.157 137.864C354.127 138.045 354.033 138.209 353.891 138.325C353.749 138.441 353.569 138.502 353.386 138.496ZM297.241 136.954H352.754L364.443 76.013L318.182 78.6345C316.562 82.3662 305.09 114.672 297.241 136.954Z" fill="#231F20"/>
<path d="M307.557 118.65C307.438 118.652 307.321 118.626 307.214 118.575C307.107 118.525 307.013 118.45 306.94 118.357C306.863 118.255 306.812 118.136 306.79 118.01C306.769 117.883 306.778 117.754 306.816 117.632L313.786 96.7223C313.828 96.5823 313.911 96.4577 314.023 96.3644C314.136 96.2711 314.273 96.2132 314.419 96.198L323.301 95.1186C323.427 95.1002 323.556 95.1147 323.674 95.1606C323.793 95.2065 323.898 95.2823 323.979 95.3807C324.064 95.4789 324.122 95.5967 324.149 95.7234C324.176 95.85 324.171 95.9815 324.133 96.1055L317.672 117.493C317.627 117.645 317.536 117.778 317.412 117.875C317.288 117.971 317.136 118.027 316.978 118.033L307.603 118.65H307.557ZM315.097 97.6629L308.636 117.031L316.346 116.537L322.314 96.7994L315.097 97.6629Z" fill="#D1D3D4"/>
<path d="M347.542 131.865H317.673C317.552 131.868 317.433 131.841 317.326 131.787C317.219 131.734 317.126 131.654 317.056 131.557C316.98 131.463 316.93 131.352 316.908 131.233C316.887 131.115 316.895 130.993 316.932 130.878L331.535 81.9652C331.584 81.8163 331.676 81.6855 331.8 81.5893C331.924 81.4932 332.073 81.4361 332.229 81.4255L359.986 79.4208C360.106 79.4135 360.226 79.4349 360.336 79.4832C360.445 79.5314 360.542 79.6052 360.618 79.6984C360.7 79.7887 360.758 79.898 360.788 80.0163C360.818 80.1347 360.818 80.2586 360.788 80.3769L348.328 131.264C348.286 131.439 348.185 131.594 348.041 131.704C347.898 131.813 347.722 131.87 347.542 131.865ZM318.706 130.323H346.94L358.999 80.9783L332.862 82.8596L318.706 130.323Z" fill="#D1D3D4"/>
<path d="M275.267 112.605C275.267 112.605 281.898 107.039 284.966 104.51C288.035 101.981 290.996 95.0415 293.771 95.0724C296.547 95.1032 291.582 103.353 291.582 103.353C291.582 103.353 301.898 95.4425 305.105 95.2112C308.313 94.9799 310.117 100.392 309.315 102.073C308.513 103.754 299.77 107.856 296.532 111.094C293.293 114.332 282.653 121.58 282.653 121.58" fill="white"/>
<path d="M282.715 122.274C282.547 122.277 282.383 122.225 282.248 122.127C282.112 122.028 282.013 121.888 281.964 121.727C281.915 121.567 281.92 121.395 281.977 121.238C282.035 121.08 282.142 120.946 282.283 120.855C282.391 120.855 292.846 113.623 295.992 110.462C298.326 108.453 300.857 106.686 303.548 105.188C305.38 104.235 307.08 103.048 308.606 101.657C308.724 100.909 308.691 100.144 308.511 99.4084C308.331 98.6725 308.007 97.9796 307.557 97.3701C307.339 96.9182 307.001 96.5352 306.579 96.2631C306.157 95.9911 305.669 95.8406 305.167 95.8281C302.977 95.9823 296.131 100.685 292.06 103.8C291.921 103.916 291.747 103.979 291.566 103.979C291.386 103.979 291.211 103.916 291.073 103.8C290.938 103.681 290.85 103.518 290.824 103.34C290.799 103.162 290.838 102.981 290.934 102.829C292.8 99.7448 294.172 96.337 293.802 95.7201C292.507 95.7201 290.718 98.2028 289.176 100.346C288.11 102.036 286.841 103.59 285.398 104.972C282.314 107.501 275.714 113.068 275.714 113.068L274.712 111.896C274.712 111.896 281.358 106.314 284.411 103.785C285.745 102.495 286.92 101.051 287.912 99.4827C289.824 96.7533 291.643 94.1781 293.694 94.1781C293.974 94.1687 294.251 94.2355 294.495 94.3713C294.74 94.5071 294.942 94.7069 295.082 94.9491C295.699 96.0902 294.866 98.4187 293.864 100.5C297.241 98.0795 302.623 94.4711 304.982 94.3323C305.746 94.3174 306.5 94.5086 307.165 94.8858C307.83 95.2629 308.381 95.8122 308.76 96.4757C309.369 97.2999 309.789 98.2477 309.992 99.2522C310.194 100.257 310.174 101.293 309.932 102.289C309.454 103.276 307.573 104.463 304.288 106.468C301.731 107.924 299.324 109.628 297.102 111.557C293.849 114.81 283.609 121.842 283.224 122.135C283.078 122.244 282.896 122.293 282.715 122.274Z" fill="#231F20"/>
<path d="M279.508 68.2719C282.749 65.9967 286.235 64.0932 289.901 62.5972C294.111 61.2094 299.446 60.2688 298.244 58.48C297.041 56.6913 287.048 59.2819 287.048 59.2819C287.048 59.2819 292.877 50.3535 296.146 48.5802C299.416 46.8068 304.103 46.9456 301.79 45.2494C299.477 43.5532 292.538 43.291 290.055 44.5401C287.573 45.7891 273.602 61.1477 272.893 61.965C272.183 62.7823 279.508 68.2719 279.508 68.2719Z" fill="white"/>
<path d="M279.507 69.043C279.34 69.0441 279.177 68.9899 279.045 68.8888C275.96 66.5757 272.213 63.5225 272.075 62.2272C272.057 62.0896 272.068 61.9499 272.108 61.817C272.148 61.6842 272.215 61.5612 272.306 61.4562C272.445 61.302 287.001 45.234 289.7 43.8616C292.398 42.4892 299.615 42.7051 302.252 44.6326C302.545 44.8485 303.316 45.4191 303.162 46.1747C303.008 46.9303 301.897 47.4083 300.232 47.8555C298.94 48.1552 297.687 48.6055 296.5 49.1971C294.419 50.3227 290.887 55.0105 288.79 57.9866C292.383 57.1848 297.734 56.3058 298.86 57.9866C299.01 58.1896 299.109 58.4266 299.147 58.6767C299.184 58.9268 299.16 59.1823 299.075 59.4207C298.613 60.716 296.531 61.3791 292.907 62.5048C291.982 62.7669 291.026 63.0445 290.116 63.3375C286.531 64.8223 283.118 66.6941 279.939 68.9196C279.81 69.001 279.66 69.0438 279.507 69.043ZM273.709 62.2118C275.473 64.112 277.426 65.8274 279.538 67.3313C282.69 65.1266 286.084 63.2899 289.654 61.8571C290.579 61.5641 291.55 61.2711 292.506 61.009C294.341 60.4693 297.426 59.5749 297.641 58.9581C297.04 58.2179 292.198 58.7422 287.248 60.0221C287.098 60.061 286.94 60.0538 286.794 60.0016C286.649 59.9493 286.522 59.8544 286.431 59.7291C286.343 59.5993 286.297 59.4462 286.297 59.2896C286.297 59.133 286.343 58.98 286.431 58.8502C286.678 58.4801 292.399 49.7368 295.806 47.9017C297.095 47.2357 298.456 46.7183 299.862 46.3597C300.386 46.2209 301.065 46.0359 301.404 45.8817L301.327 45.8046C299.199 44.2626 292.537 44.0621 290.394 45.1569C288.25 46.2518 275.822 59.8371 273.709 62.2118Z" fill="#231F20"/>
<path d="M207.988 81.0402C207.988 81.0402 244.488 86.2369 250.008 84.849L271.597 60.6392L284.257 68.889C284.257 68.889 277.595 88.7812 268.466 100.269C259.338 111.757 199.615 114.24 199.615 114.24L207.988 81.0402Z" fill="#C026D3"/>
<path d="M287.094 291.897C287.094 291.897 282.884 300.995 283.84 304.619C284.797 308.243 301.096 332.299 303.455 329.585C305.814 326.871 302.252 303.37 302.252 303.37L287.094 291.897Z" fill="#231F20"/>
<path d="M302.962 330.571H302.53C298.012 329.507 283.872 307.796 283.1 304.866C282.114 301.072 285.953 292.529 286.4 291.62C286.449 291.517 286.52 291.426 286.608 291.354C286.696 291.283 286.799 291.231 286.909 291.203C287.02 291.174 287.135 291.169 287.247 291.191C287.359 291.212 287.465 291.258 287.557 291.327L302.715 302.738C302.795 302.796 302.862 302.869 302.913 302.954C302.963 303.039 302.995 303.133 303.008 303.231C303.609 307.225 306.493 327.302 304.026 330.14C303.891 330.285 303.726 330.399 303.542 330.473C303.358 330.548 303.16 330.581 302.962 330.571ZM287.403 293.023C286.123 295.984 283.933 301.89 284.581 304.372C285.66 308.459 300.356 328.968 302.931 328.968C304.288 327.426 302.931 313.301 301.512 303.663L287.403 293.023Z" fill="#231F20"/>
<path d="M295.683 273.007L287.094 291.897L302.252 303.308L313.617 281.211L295.683 273.007Z" fill="white"/>
<path d="M302.252 304.079C302.086 304.075 301.925 304.021 301.79 303.925L286.632 292.514C286.491 292.407 286.39 292.257 286.346 292.086C286.301 291.916 286.315 291.735 286.385 291.573L294.974 272.683C295.067 272.498 295.227 272.354 295.421 272.282C295.609 272.205 295.82 272.205 296.007 272.282L313.941 280.486C314.037 280.529 314.123 280.591 314.194 280.668C314.266 280.744 314.321 280.835 314.357 280.933C314.434 281.126 314.434 281.341 314.357 281.535L302.993 303.632C302.943 303.735 302.87 303.826 302.779 303.896C302.688 303.965 302.581 304.012 302.468 304.033L302.252 304.079ZM288.05 291.65L301.929 302.136L312.522 281.565L296.023 274.025L288.05 291.65Z" fill="#231F20"/>
<path d="M250.687 166.314C250.687 166.314 314.08 182.398 326.524 192.529C338.968 202.66 329.408 275.521 314.327 288.937L290.61 276.462C290.61 276.462 303.255 220.64 298.613 216.045C293.972 211.45 241.666 204.711 241.666 204.711L207.464 166.453L250.687 166.314Z" fill="#231F20"/>
<path d="M314.326 289.707C314.202 289.708 314.08 289.676 313.972 289.615L290.255 277.14C290.104 277.062 289.983 276.937 289.911 276.784C289.838 276.63 289.818 276.457 289.854 276.292C294.712 254.873 301.234 219.714 298.073 216.584C294.403 212.96 256.038 207.332 241.573 205.466C241.388 205.448 241.217 205.36 241.095 205.219L206.893 166.962C206.793 166.854 206.726 166.719 206.702 166.574C206.677 166.429 206.695 166.279 206.754 166.144C206.816 166.008 206.916 165.891 207.041 165.809C207.167 165.727 207.314 165.683 207.464 165.682L250.64 165.543H250.841C253.432 166.206 314.542 181.796 326.986 191.912C331.612 195.659 332.784 206.515 332.969 214.965C333.54 240.902 325.568 279.915 314.804 289.491C314.678 289.622 314.507 289.699 314.326 289.707ZM291.489 276.06L314.203 288.026C324.473 278.111 332.013 240.316 331.458 215.042C331.211 203.554 329.284 195.767 326.046 193.13C314.095 183.4 253.37 167.81 250.594 167.085L209.175 167.239L242.051 204.001C248.62 204.849 294.48 210.94 299.106 215.52C300.463 216.862 301.743 221.688 297.056 248.119C294.85 260.84 292.106 273.269 291.489 276.06Z" fill="#231F20"/>
<path d="M244.565 322.954L242.576 340.363L259.384 348.413L263.208 324.388L244.565 322.954Z" fill="white"/>
<path d="M259.384 349.183C259.272 349.205 259.157 349.205 259.045 349.183L242.236 341.134C242.093 341.062 241.975 340.949 241.897 340.808C241.82 340.668 241.788 340.507 241.805 340.347L243.794 322.938C243.801 322.838 243.829 322.74 243.876 322.651C243.922 322.562 243.986 322.483 244.064 322.42C244.142 322.356 244.232 322.309 244.329 322.282C244.426 322.254 244.527 322.247 244.627 322.259L263.27 323.694C263.375 323.701 263.478 323.731 263.571 323.781C263.664 323.832 263.746 323.902 263.809 323.987C263.879 324.069 263.929 324.165 263.956 324.269C263.982 324.374 263.985 324.483 263.964 324.588L260.093 348.536C260.076 348.654 260.03 348.766 259.961 348.862C259.891 348.959 259.799 349.037 259.692 349.091C259.598 349.145 259.492 349.177 259.384 349.183ZM243.393 339.931L258.813 347.302L262.344 325.112L245.274 323.802L243.393 339.931Z" fill="#231F20"/>
<path d="M188.667 182.613C188.667 182.613 246.23 224.742 247.001 244.433C247.772 264.125 240.17 326.346 240.17 326.346L269.099 333.27C269.099 333.27 289.993 250.586 282.977 229.506C275.961 208.427 235.421 164.448 235.421 164.448L188.667 182.613Z" fill="#231F20"/>
<path d="M269.099 334.041H268.914L240.047 327.087C239.863 327.046 239.701 326.938 239.592 326.784C239.484 326.63 239.437 326.441 239.461 326.254C239.461 325.637 247.048 263.848 246.277 244.449C245.536 225.359 188.821 183.647 188.25 183.231C188.142 183.146 188.057 183.035 188.003 182.908C187.949 182.781 187.928 182.643 187.942 182.506C187.964 182.369 188.021 182.241 188.107 182.133C188.194 182.024 188.307 181.941 188.435 181.889L235.174 163.739C235.317 163.679 235.475 163.665 235.627 163.698C235.779 163.731 235.917 163.81 236.022 163.924C237.672 165.729 276.655 208.273 283.686 229.26C290.718 250.247 270.749 330.078 269.808 333.455C269.768 333.616 269.678 333.76 269.55 333.866C269.422 333.971 269.264 334.033 269.099 334.041ZM241.018 325.76L268.528 332.345C270.579 324.095 288.759 249.338 282.19 229.754C275.621 210.17 239.199 169.738 235.189 165.359L190.239 182.814C198.535 188.982 247.048 225.868 247.772 244.403C248.497 262.938 241.836 318.914 241.018 325.76Z" fill="#231F20"/>
<path d="M188.173 61.2557C185.912 60.971 183.757 60.1342 181.897 58.8193C178.396 56.2595 176.592 52.0189 175.034 48.0251C173.809 45.3145 173.118 42.3929 172.999 39.4206C173.107 34.1777 176.592 29.6595 180.169 25.8353C182.853 22.9671 185.906 19.3125 184.626 15.5962C184.241 14.826 183.966 14.006 183.809 13.1598C183.716 11.0472 186.553 9.81358 188.527 10.6154C190.409 11.6467 191.896 13.2739 192.752 15.2415C193.435 14.5265 193.933 13.6552 194.202 12.7037C194.47 11.7522 194.502 10.7494 194.294 9.78274C194.125 8.99631 193.801 8.14819 194.202 7.4697C194.552 7.00598 195.064 6.69193 195.636 6.59074C198.333 5.99319 201.157 6.46199 203.517 7.89905C205.877 9.33611 207.589 11.6301 208.296 14.3009C208.808 13.4294 209.128 12.4584 209.235 11.4531C209.341 10.4479 209.231 9.43144 208.913 8.47202C213.574 10.0844 217.519 13.2856 220.056 17.5147C222.594 21.7439 223.562 26.7311 222.791 31.6025C222.306 35.1913 221.368 38.7043 220 42.0574C219.331 43.1875 218.426 44.1604 217.348 44.9102C210.162 50.9087 206.924 58.48 197.209 60.6851C194.254 61.4088 191.195 61.602 188.173 61.2557Z" fill="white"/>
<path d="M190.964 62.2119C189.994 62.2141 189.026 62.1523 188.065 62.0268C185.678 61.7279 183.404 60.8374 181.449 59.4362C177.826 56.7839 175.944 52.4508 174.325 48.2411C173.037 45.4442 172.314 42.4206 172.197 39.3436C172.321 33.7614 175.991 29.0891 179.584 25.2494C182.436 22.1654 184.95 18.9117 183.87 15.7968C183.778 15.55 183.685 15.3187 183.577 15.0874C183.267 14.476 183.073 13.8118 183.007 13.1291C182.994 12.5858 183.12 12.0481 183.374 11.5675C183.627 11.087 184 10.6796 184.456 10.3842C185.079 9.95184 185.796 9.67565 186.547 9.57902C187.299 9.48239 188.063 9.56818 188.774 9.82912C190.507 10.6749 191.92 12.0601 192.799 13.7767C193.511 12.6035 193.748 11.2023 193.462 9.85996L193.369 9.52071C193.211 9.1132 193.135 8.67785 193.149 8.24069C193.162 7.80352 193.263 7.37351 193.446 6.97636C193.898 6.33392 194.585 5.89604 195.359 5.75816C196.788 5.41245 198.273 5.35715 199.724 5.59554C201.176 5.83393 202.565 6.36115 203.809 7.14599C205.735 8.29236 207.28 9.98218 208.25 12.0034C208.517 10.8804 208.464 9.70503 208.096 8.61091C208.05 8.47407 208.044 8.32717 208.077 8.18689C208.111 8.04662 208.183 7.91861 208.286 7.81741C208.389 7.71621 208.518 7.64589 208.659 7.61442C208.8 7.58296 208.946 7.59163 209.083 7.63944C212.02 8.68682 214.703 10.346 216.951 12.5071C219.2 14.6683 220.965 17.2822 222.128 20.1761C223.566 23.7975 224.003 27.7389 223.393 31.5872C222.962 35.2865 222.055 38.9147 220.694 42.3814C220.025 43.5463 219.116 44.5556 218.026 45.3421L217.841 45.4963C215.715 47.3481 213.716 49.3419 211.858 51.4639C207.926 55.7816 204.148 59.868 197.379 61.4254C195.275 61.9194 193.124 62.1831 190.964 62.2119ZM187.217 11.0782C186.564 11.0775 185.925 11.2707 185.382 11.6333C185.136 11.7837 184.934 11.9946 184.794 12.2457C184.653 12.4968 184.58 12.7797 184.58 13.0674C184.643 13.5583 184.794 14.0337 185.027 14.4706C185.135 14.7482 185.258 15.0103 185.351 15.2879C186.893 19.7135 182.884 24.0004 180.725 26.298C177.332 29.9218 173.863 34.3165 173.755 39.3744C173.87 42.248 174.546 45.0714 175.744 47.6859C177.286 51.8494 179.059 55.797 182.344 58.2026C184.097 59.4469 186.132 60.2364 188.265 60.5002C191.2 60.8369 194.172 60.6437 197.039 59.9297C203.408 58.4802 206.97 54.5788 210.733 50.4308C212.645 48.2364 214.706 46.1755 216.901 44.2626L217.086 44.1084C217.998 43.4571 218.769 42.6284 219.353 41.672C220.614 38.3326 221.468 34.8534 221.897 31.3096C222.459 27.732 222.055 24.0691 220.725 20.7004C218.717 15.7233 214.843 11.7279 209.931 9.56697C210.155 11.2981 209.785 13.054 208.882 14.5477C208.801 14.6764 208.684 14.7784 208.546 14.8409C208.407 14.9034 208.254 14.9235 208.104 14.8988C207.954 14.8741 207.814 14.8056 207.703 14.702C207.592 14.5984 207.514 14.4642 207.479 14.3164C206.817 11.8537 205.231 9.74097 203.051 8.4171C200.872 7.09324 198.266 6.66009 195.775 7.20767C195.4 7.25252 195.054 7.4336 194.803 7.71654C194.618 8.02494 194.803 8.53381 194.896 9.08895L194.988 9.45903C195.235 10.5462 195.211 11.6773 194.918 12.7529C194.625 13.8285 194.072 14.8156 193.308 15.6272C193.229 15.7187 193.128 15.7881 193.014 15.8287C192.901 15.8692 192.779 15.8795 192.66 15.8585C192.54 15.848 192.424 15.8089 192.322 15.7446C192.22 15.6802 192.135 15.5923 192.074 15.4884C191.305 13.6773 189.953 12.1744 188.234 11.2169C187.907 11.1078 187.562 11.0607 187.217 11.0782Z" fill="#231F20"/>
<path d="M221.28 45.8511C221.28 45.8511 226.662 55.7663 225.212 57.6013C223.763 59.4364 219.615 57.771 219.615 57.771" fill="white"/>
<path d="M222.93 59.2357C221.695 59.1922 220.475 58.942 219.322 58.4955C219.135 58.417 218.986 58.2677 218.908 58.08C218.83 57.8923 218.829 57.6814 218.906 57.4932C218.941 57.3995 218.996 57.3139 219.065 57.2414C219.134 57.1688 219.217 57.1107 219.309 57.0706C219.401 57.0304 219.499 57.0089 219.6 57.0073C219.7 57.0057 219.8 57.0241 219.893 57.0614C220.833 57.4315 223.717 58.2488 224.611 57.0614C225.213 56.2904 223.347 51.2017 220.602 46.1593C220.551 46.0707 220.518 45.9728 220.506 45.8713C220.494 45.7699 220.503 45.667 220.532 45.569C220.561 45.471 220.609 45.3798 220.674 45.3011C220.739 45.2223 220.82 45.1575 220.91 45.1107C221.091 45.0161 221.301 44.9954 221.497 45.053C221.693 45.1105 221.858 45.2418 221.959 45.4191C223.64 48.5031 227.418 55.9974 225.814 58.0175C225.46 58.4295 225.016 58.7538 224.515 58.9652C224.015 59.1766 223.472 59.2691 222.93 59.2357Z" fill="#231F20"/>
<path d="M221.018 33.3449C224.688 36.907 222.961 43.6148 222.56 48.0404C221.975 54.2702 221.245 60.4795 220.371 66.6682C219.816 70.6003 209.577 69.7522 207.88 68.4723L207.664 81.6104C207.664 81.6104 204.58 88.6112 196.716 84.0931C188.852 79.5749 187.356 74.0545 187.356 74.0545L189.592 56.1053C189.592 56.1053 196.331 56.7375 201.018 49.0273C205.706 41.3172 206.616 28.981 206.616 28.981C206.616 28.981 217.441 29.8599 221.018 33.3449Z" fill="white"/>
<path d="M201.696 86.3909C199.806 86.3167 197.968 85.7535 196.361 84.7563C188.265 80.1302 186.677 74.5481 186.615 74.3168C186.592 74.2205 186.592 74.1201 186.615 74.0238L188.851 56.0591C188.882 55.8644 188.984 55.6881 189.138 55.5653C189.293 55.4425 189.487 55.3821 189.684 55.3961C189.946 55.3961 196.037 55.8587 200.478 48.6882C205.012 41.2402 205.937 29.0736 205.952 28.9503C205.96 28.8489 205.988 28.7501 206.034 28.6595C206.08 28.5689 206.144 28.4883 206.221 28.4224C206.299 28.3564 206.388 28.3065 206.485 28.2753C206.582 28.2442 206.684 28.2325 206.785 28.2409C207.232 28.2409 217.919 29.1507 221.666 32.867C224.996 36.0899 224.272 41.4715 223.701 45.8047C223.593 46.6373 223.485 47.4546 223.408 48.1948C222.838 54.3629 222.097 60.6852 221.234 66.8534C221.106 67.5094 220.799 68.1173 220.348 68.6099C219.896 69.1025 219.317 69.4605 218.674 69.6444C215.438 70.6374 211.982 70.6695 208.728 69.7369L208.574 81.7031C208.588 81.8002 208.588 81.8989 208.574 81.9961C207.675 83.8973 206.071 85.3739 204.102 86.1133C203.321 86.3392 202.508 86.433 201.696 86.3909ZM188.142 74.0546C188.435 74.8873 190.285 79.5288 197.132 83.4302C198.039 84.0565 199.069 84.4835 200.154 84.6828C201.238 84.8822 202.353 84.8494 203.423 84.5867C204.929 84.0228 206.175 82.9252 206.924 81.5026L207.094 68.5342C207.099 68.3911 207.144 68.2523 207.223 68.1327C207.301 68.0131 207.411 67.9173 207.541 67.8557C207.661 67.7804 207.8 67.7405 207.942 67.7405C208.083 67.7405 208.222 67.7804 208.343 67.8557C209.268 68.5958 214.912 69.3977 217.996 68.1332C218.967 67.7477 219.538 67.208 219.538 66.5912C220.401 60.4231 221.08 54.255 221.712 47.9943C221.712 47.2387 221.897 46.4523 222.005 45.5579C222.529 41.5641 223.192 36.6142 220.463 33.9156C217.734 31.2171 209.777 30.1531 207.294 29.8755C207.016 32.7591 205.752 42.7823 201.666 49.5209C197.579 56.2596 192.228 56.9073 190.255 56.9689L188.142 74.0546Z" fill="#231F20"/>
<path d="M220.601 62.0112C220.601 62.0112 215.528 64.5709 213.385 59.3589L220.601 62.0112Z" fill="white"/>
<path d="M217.842 63.4148C217.184 63.4184 216.531 63.3035 215.914 63.0755C215.163 62.7643 214.485 62.2988 213.924 61.7091C213.364 61.1195 212.933 60.4187 212.661 59.6522C212.584 59.4599 212.587 59.2452 212.667 59.0547C212.748 58.8641 212.901 58.7132 213.092 58.6345C213.186 58.5969 213.287 58.5783 213.388 58.5797C213.49 58.581 213.59 58.6024 213.683 58.6425C213.776 58.6826 213.86 58.7407 213.931 58.8134C214.002 58.8861 214.057 58.972 214.095 59.0662C214.287 59.6342 214.596 60.1555 215.003 60.5964C215.409 61.0373 215.904 61.3881 216.454 61.626C217.718 61.994 219.074 61.8843 220.263 61.3176C220.354 61.2729 220.453 61.2465 220.554 61.2402C220.655 61.2338 220.757 61.2475 220.853 61.2804C220.949 61.3134 221.038 61.3649 221.114 61.4322C221.19 61.4994 221.252 61.581 221.296 61.6723C221.383 61.855 221.397 62.0645 221.334 62.2569C221.27 62.4494 221.135 62.6101 220.957 62.7054C219.979 63.1567 218.918 63.3984 217.842 63.4148Z" fill="#231F20"/>
<path d="M208.99 48.8117C208.947 47.2363 208.466 45.704 207.602 44.386C207.091 43.2642 206.415 42.2247 205.598 41.302C205.182 40.8579 204.673 40.5104 204.108 40.2839C203.544 40.0574 202.936 39.9576 202.328 39.9913C201.794 40.0754 201.283 40.273 200.831 40.5709C200.379 40.8688 199.995 41.26 199.707 41.7183C199.125 42.651 198.771 43.7075 198.674 44.8024C198.372 47.1284 198.688 49.4927 199.59 51.658C200.491 53.8234 201.946 55.7135 203.809 57.1386L203.5 56.7377" fill="white"/>
<path d="M203.809 57.9561C203.646 57.9586 203.488 57.9041 203.362 57.8019C201.386 56.284 199.843 54.2753 198.885 51.9757C197.928 49.6761 197.589 47.1658 197.903 44.6946C198.039 43.5058 198.439 42.3624 199.075 41.3484C199.418 40.8097 199.87 40.348 200.4 39.9923C200.931 39.6367 201.53 39.3949 202.159 39.2821C202.884 39.2244 203.612 39.3334 204.288 39.6007C204.964 39.868 205.571 40.2865 206.06 40.8241C206.938 41.7743 207.662 42.8566 208.204 44.0316C209.14 45.4746 209.648 47.1535 209.668 48.8735C209.645 49.0725 209.549 49.2556 209.397 49.3869C209.246 49.5181 209.051 49.588 208.851 49.5829C208.75 49.577 208.652 49.5511 208.561 49.5066C208.471 49.4621 208.39 49.4 208.324 49.3238C208.258 49.2476 208.208 49.159 208.177 49.0631C208.145 48.9673 208.133 48.8661 208.142 48.7656C208.091 47.3348 207.642 45.9466 206.847 44.7563C206.365 43.7214 205.731 42.7649 204.965 41.919C204.64 41.5501 204.234 41.26 203.78 41.0703C203.326 40.8807 202.835 40.7965 202.344 40.8241C201.922 40.8992 201.52 41.0614 201.164 41.3003C200.809 41.5393 200.507 41.8498 200.277 42.212C199.769 43.0302 199.453 43.9527 199.352 44.9105C199.085 47.0583 199.37 49.2388 200.179 51.2462C200.988 53.2535 202.296 55.0215 203.978 56.3832H204.055L204.379 56.7841C204.47 56.8986 204.526 57.0363 204.541 57.1814C204.556 57.3264 204.53 57.4729 204.466 57.6037C204.401 57.7344 204.301 57.8442 204.176 57.9203C204.052 57.9963 203.908 58.0354 203.762 58.0332L203.809 57.9561Z" fill="#231F20"/>
<path d="M207.865 68.4727C207.865 68.4727 202.714 66.3602 200.555 62.5205C200.555 62.5205 200.093 72.0348 207.988 75.4736L207.865 68.4727Z" fill="#231F20"/>
<path d="M207.988 76.2446C207.881 76.2666 207.771 76.2666 207.664 76.2446C199.383 72.6363 199.784 62.6439 199.784 62.536C199.794 62.3684 199.858 62.2084 199.966 62.0804C200.075 61.9524 200.222 61.8633 200.386 61.8266C200.548 61.7908 200.718 61.8073 200.87 61.8737C201.022 61.9402 201.15 62.0533 201.234 62.1967C203.223 65.7588 208.111 67.7943 208.158 67.8097C208.298 67.8675 208.419 67.9658 208.504 68.092C208.589 68.2182 208.635 68.3668 208.636 68.5191L208.759 75.5353C208.759 75.6643 208.726 75.7912 208.664 75.9043C208.602 76.0175 208.513 76.1133 208.404 76.1829C208.275 76.2461 208.13 76.2677 207.988 76.2446ZM201.496 65.0341C201.677 66.9096 202.286 68.7186 203.275 70.3224C204.264 71.9262 205.607 73.2822 207.202 74.2862L207.124 69.0433C205.024 68.0543 203.117 66.6963 201.496 65.0341Z" fill="#231F20"/>
<path d="M218.865 40.8131C219.174 39.6153 219.043 38.5459 218.572 38.4245C218.101 38.3031 217.469 39.1758 217.16 40.3736C216.851 41.5715 216.983 42.6409 217.454 42.7622C217.925 42.8836 218.557 42.0109 218.865 40.8131Z" fill="#231F20"/>
<path d="M180.617 69.4287C180.617 69.4287 203.424 70.4927 212.584 82.7518C221.743 95.011 229.114 141.904 233.602 144.988C238.089 148.072 250.841 165.435 250.687 166.314C250.533 167.193 185.382 187.903 185.382 187.903C185.382 187.903 181.558 172.868 174.372 153.392C167.186 133.916 161.62 70.7549 180.617 69.4287Z" fill="#C026D3"/>
<path d="M239.738 151.958C239.623 151.955 239.509 151.928 239.406 151.877C239.302 151.827 239.21 151.754 239.137 151.665C231.722 141.796 226.649 130.369 224.303 118.249C220.941 99.3132 214.65 87.8097 214.588 87.7017C214.488 87.5237 214.463 87.3134 214.518 87.1169C214.573 86.9203 214.703 86.7536 214.881 86.6531C214.97 86.6043 215.068 86.5735 215.169 86.5626C215.27 86.5517 215.372 86.5608 215.469 86.5894C215.567 86.6181 215.658 86.6657 215.737 86.7296C215.815 86.7934 215.881 86.8723 215.929 86.9615C215.929 87.0695 222.406 98.7735 225.814 117.972C228.116 129.838 233.083 141.027 240.34 150.694C240.468 150.851 240.528 151.053 240.508 151.256C240.488 151.458 240.388 151.644 240.232 151.773C240.094 151.89 239.919 151.955 239.738 151.958Z" fill="#231F20"/>
<path d="M199.214 88.5038C199.738 89.1515 225.521 130.277 225.521 130.277L276.794 105.605L289.315 120.038C289.315 120.038 246.107 152.698 229.253 158.234C212.398 163.77 173.74 103.569 174.172 96.9541C174.603 90.3388 191.812 79.3287 199.214 88.5038Z" fill="#C026D3"/>
<path d="M225.521 131.11C225.39 131.111 225.26 131.079 225.144 131.017C225.029 130.955 224.93 130.865 224.858 130.755C224.858 130.755 201.851 94.1012 201.496 93.5769C201.399 93.4054 201.37 93.2029 201.417 93.0112C201.464 92.8194 201.583 92.653 201.749 92.5463C201.915 92.4395 202.116 92.4005 202.31 92.4374C202.504 92.4742 202.676 92.584 202.792 92.7442C203.085 93.1914 222.761 124.51 225.737 129.259L252.908 115.057C253.088 114.965 253.297 114.947 253.491 115.007C253.684 115.068 253.846 115.202 253.941 115.381C253.989 115.471 254.019 115.57 254.029 115.671C254.039 115.773 254.028 115.876 253.998 115.973C253.968 116.071 253.919 116.161 253.853 116.24C253.788 116.318 253.708 116.383 253.617 116.43L225.86 130.956C225.762 131.035 225.645 131.088 225.521 131.11Z" fill="#231F20"/>
<path d="M228.112 158.265C217.317 158.265 205.721 149.152 193.478 131.094C193.42 131.012 193.379 130.919 193.357 130.82C193.336 130.721 193.335 130.619 193.353 130.52C193.372 130.421 193.41 130.327 193.466 130.242C193.522 130.158 193.594 130.086 193.678 130.03C193.849 129.917 194.057 129.874 194.259 129.911C194.46 129.949 194.639 130.063 194.758 130.231C208.112 149.938 220.556 158.728 231.766 156.353C242.977 153.978 265.383 136.307 265.598 136.183C265.677 136.119 265.767 136.071 265.864 136.042C265.962 136.013 266.064 136.004 266.164 136.016C266.265 136.027 266.362 136.059 266.451 136.109C266.539 136.159 266.616 136.226 266.678 136.307C266.742 136.385 266.79 136.475 266.819 136.572C266.848 136.67 266.857 136.772 266.845 136.872C266.834 136.973 266.802 137.07 266.752 137.159C266.702 137.247 266.635 137.324 266.554 137.386C265.629 138.126 243.732 155.381 232.075 157.849C230.773 158.13 229.444 158.269 228.112 158.265Z" fill="#231F20"/>
<path d="M208.451 79.6367L207.233 83.3067L210.24 87.2235C210.24 87.2235 204.256 117.756 158.782 93.3916L144.164 98.727L152.845 110.554C152.845 110.554 207.556 131.603 211.812 87.6398L212.583 82.7362L208.451 79.6367Z" fill="#231F20"/>
<path d="M179.723 116.306C176.248 116.288 172.779 116.015 169.345 115.489C163.629 114.611 158.011 113.185 152.567 111.233C152.427 111.188 152.307 111.095 152.228 110.971L143.546 99.1434C143.474 99.0483 143.425 98.9374 143.404 98.8198C143.383 98.7022 143.39 98.5812 143.424 98.4668C143.459 98.3525 143.52 98.2479 143.603 98.1618C143.686 98.0757 143.788 98.0105 143.901 97.9715L158.535 92.7131C158.631 92.6678 158.737 92.6442 158.843 92.6442C158.95 92.6442 159.055 92.6678 159.152 92.7131C176.315 101.965 189.746 104.309 199.044 99.9144C201.562 98.6711 203.787 96.9081 205.573 94.7418C207.359 92.5755 208.666 90.0551 209.407 87.3469L206.631 83.7077C206.554 83.6084 206.503 83.4919 206.481 83.3683C206.46 83.2447 206.469 83.1177 206.508 82.9984L207.726 79.3437C207.764 79.2291 207.829 79.1249 207.915 79.0393C208 78.9537 208.105 78.889 208.219 78.8503C208.336 78.8129 208.461 78.8046 208.581 78.8261C208.702 78.8476 208.816 78.8983 208.913 78.9737L213.03 82.0577C213.143 82.1385 213.232 82.2489 213.286 82.3767C213.341 82.5046 213.359 82.645 213.339 82.7825L212.568 87.6861C211.504 98.7733 207.109 106.792 199.553 111.48C193.632 115.165 186.43 116.306 179.723 116.306ZM153.323 109.876C155.944 110.832 182.622 120.177 198.736 110.2C205.875 105.79 210.023 98.1565 211.072 87.5319L211.781 83.0446L208.882 80.8858L208.127 83.1526L210.871 86.7455C210.939 86.8317 210.986 86.9317 211.01 87.0383C211.034 87.145 211.034 87.2556 211.01 87.3623C210.287 90.38 208.902 93.199 206.955 95.6153C205.008 98.0317 202.548 99.9847 199.753 101.333C190.039 105.959 176.253 103.554 158.751 94.2706L145.412 99.0663L153.323 109.876Z" fill="#231F20"/>
<path d="M242.576 340.363C242.576 340.363 238.474 355.783 239.029 357.125C239.584 358.466 264.874 390.463 267.248 380.563C269.623 370.664 259.384 348.412 259.384 348.412L242.576 340.363Z" fill="#231F20"/>
<path d="M265.197 383.232C257.903 383.232 238.89 358.775 238.32 357.418C237.749 356.061 240.278 346.007 241.835 340.163C241.861 340.054 241.912 339.952 241.984 339.866C242.057 339.78 242.148 339.713 242.252 339.669C242.353 339.623 242.464 339.6 242.576 339.6C242.687 339.6 242.798 339.623 242.899 339.669L259.708 347.719C259.873 347.792 260.005 347.924 260.078 348.089C260.509 348.999 270.394 370.695 267.988 380.734C267.922 381.38 267.631 381.982 267.166 382.436C266.701 382.889 266.091 383.166 265.444 383.216L265.197 383.232ZM243.131 341.458C241.311 348.413 239.615 355.876 239.815 356.878C240.941 359.022 259.862 382.368 265.444 381.69C265.829 381.69 266.307 381.443 266.554 380.379C268.713 371.404 259.97 351.45 258.844 348.983L243.131 341.458Z" fill="#231F20"/>
<path d="M269.777 207.271C269.659 207.272 269.543 207.245 269.438 207.191C269.333 207.137 269.243 207.059 269.176 206.962L247.279 179.129C247.21 179.049 247.157 178.957 247.125 178.857C247.093 178.756 247.081 178.651 247.092 178.546C247.102 178.441 247.133 178.34 247.184 178.247C247.235 178.155 247.304 178.075 247.388 178.01C247.471 177.946 247.567 177.899 247.669 177.873C247.771 177.847 247.877 177.843 247.981 177.859C248.085 177.876 248.184 177.914 248.273 177.97C248.362 178.027 248.438 178.101 248.497 178.188L270.378 206.022C270.505 206.181 270.562 206.384 270.539 206.587C270.516 206.789 270.414 206.974 270.255 207.101C270.119 207.209 269.951 207.268 269.777 207.271Z" fill="white"/>
<path d="M353.386 137.725L354.003 100.809L366.616 41.749L365.383 75.1802L353.386 137.725Z" fill="white"/>
<path d="M353.386 138.496H353.309C353.117 138.473 352.939 138.38 352.811 138.235C352.683 138.09 352.613 137.903 352.615 137.71L353.232 100.793L365.861 41.5794C365.905 41.3931 366.015 41.2293 366.171 41.1186C366.327 41.0078 366.519 40.9579 366.709 40.978C366.902 41.0012 367.08 41.0967 367.206 41.2455C367.332 41.3943 367.397 41.5852 367.387 41.7799L366.154 75.2111L354.157 137.864C354.127 138.045 354.032 138.209 353.89 138.325C353.749 138.441 353.569 138.502 353.386 138.496ZM365.522 50.6003L354.727 101.025L354.28 128.905L364.596 75.0877L365.522 50.6003Z" fill="#231F20"/>
<path d="M65.6121 149.306C65.8588 148.581 66.1055 147.764 66.3677 147.101C66.5065 146.731 66.6453 146.345 66.8149 145.975C66.895 145.741 67.0543 145.542 67.2654 145.412C67.4765 145.283 67.7262 145.231 67.9714 145.266C68.5728 145.266 69.1588 145.451 69.7447 145.559C70.0602 145.622 70.3797 145.663 70.7008 145.682C70.9386 145.679 71.1699 145.604 71.3639 145.466C72.0578 144.819 72.7054 144.14 73.3531 143.446C73.458 143.316 73.5308 143.163 73.5657 143C73.6005 142.837 73.5963 142.667 73.5535 142.506C73.3993 141.796 73.2297 141.072 73.0755 140.362C73.0292 140.076 73.0292 139.785 73.0755 139.499C73.0829 139.395 73.1113 139.293 73.159 139.2C73.2067 139.108 73.2727 139.026 73.3531 138.959C74.457 138.27 75.6576 137.751 76.9152 137.417C77.1019 137.359 77.3026 137.364 77.4864 137.43C77.6702 137.497 77.8271 137.623 77.9329 137.787C78.3801 138.404 78.8581 139.005 79.2899 139.653C79.4387 139.886 79.6474 140.075 79.8943 140.2C80.1412 140.325 80.4171 140.381 80.6931 140.362C81.4796 140.362 82.2352 140.362 83.0525 140.254C83.1971 140.246 83.3376 140.203 83.4613 140.127C83.5851 140.052 83.6883 139.947 83.7618 139.823C84.0548 139.406 84.3169 138.974 84.5945 138.558C84.872 138.142 85.0571 137.833 85.3038 137.494C85.4106 137.31 85.5795 137.17 85.7802 137.1C85.9809 137.029 86.2001 137.032 86.3987 137.109L89.6523 138.281C89.8582 138.363 90.0291 138.513 90.136 138.707C90.2429 138.902 90.279 139.127 90.2383 139.345C90.2383 139.946 90.0533 140.547 89.9453 141.149C89.9453 141.426 89.9453 141.704 89.8374 141.997C89.8152 142.181 89.8372 142.368 89.9016 142.543C89.9659 142.717 90.0708 142.873 90.2075 142.999C90.778 143.539 91.364 144.079 91.9191 144.634C92.0775 144.803 92.2784 144.926 92.5008 144.991C92.7232 145.057 92.959 145.061 93.1836 145.004L95.5275 144.464C95.7832 144.38 96.0617 144.399 96.3036 144.517C96.5455 144.635 96.7318 144.843 96.8228 145.096C97.27 146.022 97.7017 146.962 98.1181 147.903C98.1931 148.03 98.2423 148.171 98.2628 148.318C98.2832 148.465 98.2746 148.614 98.2374 148.757C98.2001 148.9 98.135 149.035 98.0457 149.153C97.9565 149.271 97.8448 149.37 97.7171 149.445C97.3162 149.753 96.8845 150.031 96.4681 150.339C96.0518 150.648 95.8821 150.786 95.6046 151.033C95.4848 151.128 95.3899 151.25 95.3281 151.39C95.2663 151.53 95.2395 151.683 95.2499 151.835C95.2499 152.652 95.2499 153.47 95.2499 154.287C95.2588 154.508 95.3244 154.724 95.4405 154.913C95.5566 155.102 95.7193 155.258 95.913 155.366C96.3447 155.628 96.8074 155.89 97.2391 156.168C97.5205 156.328 97.7933 156.503 98.0564 156.692C98.241 156.817 98.377 157.002 98.4416 157.215C98.5062 157.429 98.4954 157.658 98.4111 157.864C98.0564 158.851 97.6863 159.838 97.3162 160.81C97.2526 160.959 97.1696 161.099 97.0695 161.226C96.9821 161.384 96.8473 161.511 96.6841 161.588C96.5208 161.666 96.3375 161.69 96.1597 161.658L94.0317 161.303H93.8775C93.5943 161.241 93.2994 161.261 93.0266 161.359C92.7539 161.457 92.5143 161.63 92.3355 161.858C91.9345 162.336 91.4719 162.768 91.0556 163.215C90.8547 163.411 90.7112 163.659 90.6405 163.93C90.5699 164.202 90.5748 164.488 90.6547 164.757C90.8243 165.451 90.9939 166.13 91.1327 166.823C91.2715 167.517 91.1327 167.872 90.4696 168.196C89.5136 168.659 88.5421 169.09 87.5552 169.522C87.3377 169.634 87.0864 169.662 86.8499 169.599C86.6134 169.536 86.4086 169.388 86.2753 169.183C85.8898 168.705 85.5505 168.196 85.1959 167.641C84.4249 166.577 84.2398 166.469 82.9291 166.546H81.3871C81.1424 166.55 80.9031 166.618 80.6923 166.742C80.4816 166.867 80.3066 167.043 80.1843 167.255C79.8759 167.764 79.5675 168.288 79.2436 168.797C79.0702 169.056 78.8741 169.298 78.6577 169.522C78.5622 169.636 78.4341 169.718 78.2907 169.756C78.1473 169.795 77.9955 169.788 77.8558 169.738L74.7718 168.581C74.633 168.581 74.5096 168.427 74.3708 168.35C74.2127 168.263 74.086 168.128 74.0086 167.965C73.9311 167.801 73.9068 167.618 73.9391 167.44C74.047 166.731 74.1704 166.037 74.2783 165.343C74.2934 165.128 74.2934 164.911 74.2783 164.695C74.3042 164.521 74.2852 164.344 74.2231 164.179C74.161 164.015 74.0579 163.868 73.9236 163.755L72.2582 162.213C72.1015 162.057 71.9057 161.946 71.6914 161.892C71.477 161.838 71.2521 161.842 71.04 161.904L68.8812 162.413H68.8041C67.8943 162.567 67.6013 162.413 67.2621 161.627C66.9228 160.84 66.4294 159.761 66.0439 158.82C65.9793 158.712 65.9376 158.591 65.9213 158.466C65.905 158.341 65.9145 158.214 65.9492 158.093C65.9838 157.971 66.043 157.858 66.1229 157.761C66.2028 157.663 66.3019 157.583 66.414 157.525C66.9691 157.109 67.5242 156.692 68.1102 156.322C68.3925 156.165 68.6212 155.926 68.7668 155.638C68.9125 155.349 68.9684 155.024 68.9275 154.703C68.9275 153.963 68.9275 153.161 68.8349 152.498C68.8303 152.344 68.7886 152.194 68.7135 152.06C68.6383 151.925 68.5319 151.811 68.4032 151.727C67.7864 151.326 67.1695 150.956 66.5682 150.555C66.1371 150.345 65.7934 149.99 65.5967 149.553L65.6121 149.306ZM88.9276 153.408C88.9276 152.487 88.7454 151.574 88.3915 150.724C88.0375 149.873 87.5188 149.101 86.8653 148.452C86.2117 147.803 85.4362 147.289 84.5833 146.941C83.7305 146.593 82.8172 146.416 81.8959 146.422C80.0724 146.482 78.3423 147.243 77.0666 148.548C75.7909 149.852 75.0682 151.599 75.0493 153.423C74.9859 154.373 75.1184 155.326 75.4384 156.223C75.7584 157.12 76.2593 157.942 76.9098 158.637C77.5604 159.333 78.3468 159.887 79.2204 160.266C80.094 160.645 81.0362 160.841 81.9884 160.841C82.9407 160.841 83.8829 160.645 84.7565 160.266C85.6301 159.887 86.4165 159.333 87.0671 158.637C87.7176 157.942 88.2185 157.12 88.5385 156.223C88.8585 155.326 88.991 154.373 88.9276 153.423V153.408Z" fill="white"/>
<path d="M78.0412 170.601C77.8558 170.603 77.672 170.566 77.5015 170.493L74.4174 169.337C74.2434 169.269 74.0779 169.181 73.924 169.075C73.6313 168.905 73.3967 168.65 73.2508 168.345C73.105 168.04 73.0548 167.697 73.1067 167.363L73.446 165.266C73.4618 165.076 73.4618 164.885 73.446 164.695C73.446 164.495 73.446 164.418 73.3534 164.371L71.9194 163.045L71.6726 162.799C71.6084 162.732 71.5255 162.685 71.4348 162.666C71.3441 162.647 71.2496 162.655 71.1638 162.691L69.6217 163.045L69.0512 163.169C67.6788 163.415 67.0465 163.169 66.5222 161.981C65.998 160.794 65.6741 160.085 65.2886 159.128C65.0946 158.753 65.0504 158.318 65.1649 157.912C65.2794 157.505 65.5441 157.158 65.9054 156.939C66.476 156.507 67.0465 156.091 67.6479 155.705C67.8127 155.618 67.9469 155.483 68.0324 155.318C68.1179 155.152 68.1506 154.965 68.126 154.78C68.126 154.317 68.126 153.839 68.126 153.377V152.559C68.1361 152.535 68.1414 152.509 68.1414 152.482C68.1414 152.456 68.1361 152.43 68.126 152.405L66.2755 151.233C65.696 150.929 65.2466 150.425 65.0111 149.815C64.9965 149.738 64.9965 149.66 65.0111 149.583V149.306C64.9963 149.224 64.9963 149.141 65.0111 149.059L65.1961 148.504C65.3811 147.949 65.5662 147.394 65.7667 146.854C65.9671 146.314 66.0596 146.067 66.2293 145.682C66.3727 145.291 66.6446 144.961 67.0005 144.745C67.3563 144.53 67.7749 144.441 68.1876 144.495C68.5886 144.495 68.9895 144.618 69.4058 144.695L70.2385 144.834H70.8091C70.8752 144.848 70.9435 144.848 71.0095 144.834C71.6264 144.232 72.274 143.569 72.9062 142.891C72.9062 142.891 72.9062 142.737 72.9062 142.629L72.6904 141.704C72.5978 141.287 72.5207 140.886 72.4282 140.485C72.3503 140.131 72.3192 139.768 72.3357 139.406C72.3553 139.182 72.4234 138.966 72.5352 138.772C72.6471 138.577 72.8 138.409 72.9834 138.28C74.0975 137.547 75.3132 136.98 76.5917 136.599C76.9267 136.499 77.285 136.508 77.6148 136.624C77.9447 136.74 78.229 136.959 78.4267 137.247L78.9047 137.879C79.2131 138.296 79.5216 138.712 79.7991 139.144C79.8664 139.27 79.9701 139.372 80.0966 139.438C80.2232 139.504 80.3667 139.531 80.5085 139.514C81.0327 139.514 81.557 139.514 82.0505 139.514H82.8832C83.0928 139.247 83.2884 138.969 83.4691 138.681L83.9472 137.941C84.1476 137.648 84.3327 137.355 84.5486 137.062C84.7528 136.748 85.0581 136.512 85.4141 136.394C85.7701 136.277 86.1555 136.284 86.5069 136.414C87.6018 136.8 88.712 137.185 89.7915 137.602C90.1522 137.741 90.4552 137.998 90.6512 138.331C90.8472 138.664 90.9246 139.054 90.8709 139.437C90.8709 139.869 90.7475 140.285 90.6704 140.701L90.5779 141.303C90.5268 141.562 90.4908 141.825 90.47 142.089C90.454 142.156 90.4571 142.226 90.4789 142.292C90.5007 142.357 90.5403 142.415 90.5933 142.459L91.0251 142.875C91.4569 143.276 91.904 143.693 92.3204 144.125C92.3902 144.203 92.4813 144.259 92.5827 144.287C92.684 144.314 92.7912 144.311 92.8909 144.279L94.0166 144.017L95.2194 143.739C95.6474 143.621 96.1035 143.663 96.5032 143.855C96.903 144.048 97.2193 144.379 97.3937 144.788C97.8409 145.728 98.2726 146.669 98.6736 147.625C98.9055 148.037 98.9709 148.522 98.8562 148.981C98.7415 149.44 98.4554 149.838 98.0567 150.092C97.81 150.293 97.5479 150.462 97.2857 150.647L96.7923 151.002L95.975 151.65C95.9388 151.671 95.9104 151.704 95.8938 151.743C95.8772 151.781 95.8732 151.824 95.8825 151.866V152.39C95.8825 153.022 95.8825 153.654 95.8825 154.287C95.8825 154.382 95.9083 154.475 95.9572 154.556C96.0061 154.638 96.0762 154.704 96.1601 154.749L96.746 155.088L97.517 155.551C97.81 155.736 98.103 155.921 98.3806 156.137C98.6991 156.36 98.9333 156.683 99.0453 157.055C99.1572 157.427 99.1403 157.826 98.9974 158.188C98.6427 159.159 98.2726 160.146 97.8871 161.133C97.8123 161.32 97.7139 161.496 97.5941 161.657C97.4288 161.953 97.1746 162.19 96.8675 162.334C96.5604 162.478 96.2158 162.522 95.8825 162.459L93.7699 162.12H93.554C93.3966 162.077 93.2297 162.086 93.0773 162.144C92.9249 162.202 92.7948 162.307 92.7059 162.444C92.4129 162.783 92.0891 163.107 91.7653 163.431L91.3952 163.816C91.2867 163.919 91.2089 164.05 91.1708 164.194C91.1327 164.339 91.1356 164.491 91.1793 164.634C91.3643 165.327 91.534 166.037 91.6727 166.731C91.8255 167.17 91.7976 167.653 91.5953 168.072C91.3929 168.491 91.0326 168.813 90.5933 168.967C89.6218 169.429 88.6349 169.861 87.648 170.277C87.2749 170.464 86.8471 170.511 86.4425 170.409C86.0378 170.307 85.6831 170.063 85.4429 169.722C85.1345 169.306 84.8261 168.89 84.5331 168.458L84.3481 168.211C83.7621 167.378 83.7621 167.378 82.8061 167.44H81.264C81.1461 167.434 81.0292 167.463 80.9277 167.524C80.8263 167.584 80.7448 167.673 80.6935 167.779L80.3697 168.288C80.1692 168.643 79.9533 168.997 79.7374 169.337C79.5401 169.641 79.3128 169.925 79.0589 170.185C78.7824 170.444 78.4201 170.592 78.0412 170.601ZM71.3796 161.118C71.8924 161.114 72.3858 161.314 72.752 161.673L73.0142 161.92L74.4174 163.23C74.6335 163.421 74.8008 163.66 74.9054 163.928C75.01 164.197 75.0489 164.486 75.0188 164.772C75.0188 165.004 75.0188 165.25 75.0188 165.482L74.6796 167.594C74.6796 167.594 74.6796 167.594 74.7721 167.733L75.0188 167.887L78.1029 169.044C78.2725 168.828 78.4421 168.627 78.5809 168.412C78.7197 168.196 78.9973 167.748 79.1823 167.409L79.5061 166.885C79.6935 166.566 79.9587 166.3 80.2769 166.111C80.5951 165.922 80.9559 165.817 81.3257 165.805H82.8678C83.4447 165.671 84.0502 165.739 84.5833 165.997C85.1165 166.255 85.545 166.688 85.7976 167.224L85.9827 167.486C86.2756 167.887 86.5532 168.288 86.8616 168.658C87.17 169.028 87.0467 168.859 87.2471 168.766C88.2186 168.365 89.1747 167.933 90.1307 167.471C90.2305 167.427 90.3239 167.37 90.4083 167.301C90.4276 167.184 90.4276 167.064 90.4083 166.947C90.2695 166.268 90.1153 165.59 89.9457 164.927C89.8295 164.531 89.8227 164.111 89.9258 163.712C90.029 163.313 90.2384 162.949 90.5316 162.66L90.9172 162.259C91.2156 161.971 91.4987 161.667 91.7653 161.349C92.0389 160.993 92.4118 160.725 92.837 160.58C93.2622 160.434 93.7208 160.418 94.1554 160.532L96.3913 160.902C96.3913 160.902 96.3914 160.902 96.5456 160.794C96.6066 160.713 96.6583 160.625 96.6998 160.532C97.0698 159.56 97.4399 158.589 97.7946 157.602C97.7946 157.509 97.7946 157.448 97.6867 157.309C97.4521 157.127 97.2048 156.962 96.9465 156.815L96.2063 156.384L95.6203 156.029C95.3174 155.854 95.0637 155.606 94.883 155.306C94.7023 155.007 94.6005 154.667 94.5872 154.317C94.5872 153.67 94.5872 153.022 94.5872 152.39V151.85C94.5769 151.583 94.6286 151.318 94.7383 151.074C94.848 150.831 95.0127 150.616 95.2194 150.447C95.5036 150.189 95.8023 149.947 96.1138 149.722L96.6535 149.337L97.3474 148.843C97.6712 148.566 97.6712 148.535 97.517 148.195C97.1007 147.255 96.6843 146.33 96.2371 145.404C96.1292 145.189 96.0829 145.142 95.79 145.204L94.6026 145.482L93.4615 145.728C93.1091 145.818 92.7392 145.813 92.3897 145.712C92.0401 145.612 91.7235 145.421 91.4723 145.158C91.0559 144.741 90.6396 144.34 90.2078 143.955L89.7761 143.539C89.5685 143.342 89.4069 143.101 89.3029 142.835C89.199 142.568 89.1552 142.282 89.1747 141.997C89.1747 141.688 89.1747 141.38 89.298 141.087L89.406 140.455C89.4839 140.083 89.5406 139.707 89.5756 139.329C89.5756 139.113 89.5756 139.082 89.4831 139.067C88.4191 138.65 87.3396 138.28 86.2602 137.895C86.1831 137.895 86.1369 137.895 86.0443 138.003C85.9518 138.111 85.6742 138.542 85.4892 138.82L85.0112 139.545L84.5177 140.316C84.3734 140.537 84.1801 140.721 83.9527 140.855C83.7253 140.989 83.4701 141.068 83.207 141.087H82.3589C81.85 141.087 81.3566 141.087 80.8169 141.087C80.4041 141.127 79.9883 141.05 79.6174 140.864C79.2464 140.679 78.9353 140.392 78.7197 140.038C78.4421 139.637 78.1491 139.236 77.8407 138.835L77.3627 138.188C77.3627 138.095 77.2702 138.08 77.1623 138.188C75.9813 138.533 74.8586 139.053 73.8315 139.73C73.8935 139.926 73.9399 140.127 73.9703 140.331C74.0474 140.717 74.1399 141.118 74.2324 141.519L74.4483 142.475C74.5052 142.745 74.4985 143.025 74.429 143.293C74.3594 143.56 74.2288 143.808 74.0473 144.017C73.3997 144.726 72.7366 145.404 72.0427 146.067C71.7067 146.341 71.2884 146.493 70.8553 146.499C70.5602 146.483 70.2666 146.447 69.9764 146.391L69.1437 146.253C68.7736 146.253 68.4035 146.114 68.0334 146.083C67.6633 146.052 67.7713 146.083 67.6633 146.33C67.5554 146.576 67.3549 147.039 67.2316 147.409L66.6764 149.044L66.5222 149.475C66.6826 149.683 66.8883 149.852 67.1236 149.969L68.8816 151.156C69.1123 151.305 69.3033 151.507 69.4377 151.747C69.5721 151.986 69.6458 152.254 69.6526 152.529V153.361C69.6526 153.808 69.6526 154.271 69.6526 154.718C69.7036 155.178 69.62 155.643 69.412 156.056C69.2039 156.47 68.8804 156.814 68.4806 157.047C67.9101 157.417 67.3704 157.802 66.8306 158.219C66.7627 158.268 66.7006 158.325 66.6456 158.388V158.604C67.0311 159.529 67.4166 160.455 67.8484 161.364C68.0026 161.704 68.0797 161.765 68.0951 161.765C68.2633 161.796 68.4358 161.796 68.604 161.765L69.2208 161.627L70.7628 161.287C70.9595 161.202 71.1671 161.145 71.3796 161.118ZM82.0196 161.118C80.4985 161.111 79.0133 160.655 77.7508 159.807C76.4884 158.958 75.5051 157.755 74.9249 156.349C74.3446 154.943 74.1933 153.396 74.4899 151.904C74.7865 150.412 75.5178 149.041 76.5917 147.964C78.0066 146.536 79.9174 145.707 81.9271 145.651C82.9474 145.639 83.9599 145.829 84.9061 146.211C85.8522 146.593 86.7131 147.159 87.4389 147.876C88.1647 148.594 88.7409 149.448 89.1342 150.389C89.5274 151.331 89.7299 152.341 89.7298 153.361C89.7534 154.342 89.5815 155.317 89.2241 156.231C88.8666 157.144 88.3309 157.977 87.648 158.681C86.9278 159.454 86.0566 160.07 85.0884 160.492C84.1202 160.913 83.0757 161.132 82.0196 161.133V161.118ZM81.9271 147.239C80.327 147.296 78.8095 147.964 77.6865 149.105C77.1111 149.677 76.6542 150.357 76.342 151.106C76.0298 151.855 75.8683 152.658 75.8669 153.469C75.8669 155.105 76.5168 156.674 77.6735 157.831C78.8303 158.988 80.3992 159.637 82.0351 159.637C82.8826 159.645 83.7226 159.477 84.5026 159.146C85.2826 158.814 85.9859 158.325 86.5686 157.71C87.6551 156.58 88.2534 155.068 88.234 153.5C88.2341 152.682 88.0716 151.873 87.7558 151.118C87.4401 150.364 86.9774 149.68 86.3948 149.106C85.8122 148.532 85.1213 148.079 84.3622 147.775C83.6032 147.47 82.7911 147.32 81.9734 147.332L81.9271 147.239Z" fill="#D1D3D4"/>
<path d="M323.44 315.043C323.779 313.701 324.103 312.344 324.458 311.003C324.627 310.293 324.843 309.615 325.059 308.921C325.172 308.49 325.429 308.11 325.789 307.846C326.148 307.582 326.588 307.45 327.033 307.471C328.112 307.471 329.176 307.626 330.256 307.703C330.83 307.757 331.408 307.757 331.983 307.703C332.406 307.674 332.807 307.506 333.124 307.225C334.25 305.96 335.298 304.65 336.347 303.323C336.524 303.079 336.637 302.795 336.675 302.495C336.712 302.196 336.674 301.892 336.563 301.612C336.177 300.347 335.761 299.098 335.391 297.849C335.226 297.351 335.137 296.831 335.129 296.307C335.125 296.119 335.158 295.933 335.227 295.758C335.296 295.583 335.399 295.424 335.529 295.289C337.4 293.838 339.479 292.678 341.698 291.851C342.018 291.708 342.378 291.68 342.717 291.769C343.056 291.859 343.355 292.062 343.563 292.344C344.473 293.393 345.414 294.395 346.293 295.428C346.58 295.835 346.979 296.15 347.442 296.333C347.905 296.517 348.411 296.561 348.899 296.461C350.287 296.245 351.705 296.107 353.093 295.906C353.353 295.877 353.601 295.783 353.814 295.632C354.027 295.481 354.198 295.278 354.311 295.043C354.743 294.256 355.144 293.501 355.576 292.653C356.008 291.804 356.301 291.296 356.702 290.632C356.858 290.286 357.136 290.01 357.483 289.857C357.83 289.703 358.222 289.683 358.583 289.8C360.587 290.309 362.592 290.833 364.566 291.342C364.945 291.451 365.275 291.69 365.497 292.017C365.72 292.343 365.821 292.737 365.784 293.131C365.784 294.21 365.614 295.305 365.537 296.384C365.537 296.893 365.537 297.417 365.537 297.926C365.525 298.257 365.592 298.586 365.731 298.886C365.87 299.186 366.079 299.449 366.339 299.653C367.449 300.532 368.575 301.396 369.639 302.321C369.952 302.602 370.336 302.791 370.749 302.87C371.162 302.949 371.589 302.914 371.983 302.768C373.34 302.352 374.697 301.889 376.069 301.473C376.512 301.278 377.013 301.265 377.465 301.435C377.918 301.605 378.286 301.945 378.49 302.383C379.436 303.966 380.346 305.57 381.22 307.194C381.381 307.409 381.496 307.655 381.56 307.917C381.623 308.178 381.632 308.45 381.588 308.715C381.543 308.98 381.445 309.233 381.3 309.46C381.154 309.686 380.964 309.88 380.742 310.031C380.063 310.663 379.339 311.219 378.66 311.835C377.982 312.452 377.689 312.714 377.226 313.192C377.022 313.389 376.868 313.631 376.776 313.9C376.685 314.168 376.659 314.454 376.702 314.734C376.856 316.184 377.01 317.649 377.195 319.098C377.241 319.492 377.39 319.867 377.625 320.186C377.86 320.505 378.174 320.757 378.537 320.918L381.05 322.136C381.581 322.387 382.096 322.671 382.592 322.984C382.945 323.171 383.221 323.475 383.373 323.844C383.525 324.213 383.543 324.623 383.425 325.004C382.931 326.824 382.423 328.628 381.883 330.432C381.788 330.707 381.664 330.971 381.513 331.219C381.382 331.512 381.164 331.757 380.887 331.92C380.611 332.083 380.29 332.156 379.971 332.129L376.131 331.82H375.838C375.298 331.726 374.741 331.797 374.241 332.022C373.741 332.247 373.319 332.617 373.032 333.085C372.399 333.994 371.659 334.827 370.965 335.691C370.635 336.069 370.416 336.531 370.331 337.027C370.247 337.522 370.301 338.031 370.487 338.497C370.904 339.684 371.32 340.887 371.675 342.105C371.794 342.335 371.863 342.587 371.878 342.845C371.893 343.103 371.854 343.361 371.762 343.603C371.67 343.845 371.529 344.064 371.346 344.247C371.164 344.43 370.945 344.573 370.703 344.665C369.053 345.637 367.388 346.562 365.692 347.456C365.322 347.701 364.873 347.794 364.436 347.716C364 347.639 363.61 347.397 363.348 347.04C362.592 346.254 361.898 345.405 361.189 344.573C359.647 342.784 359.308 342.645 356.979 343.031L354.265 343.416C353.83 343.456 353.413 343.61 353.056 343.862C352.699 344.113 352.414 344.454 352.23 344.85C351.752 345.822 351.304 346.793 350.796 347.749C350.529 348.242 350.214 348.707 349.855 349.137C349.703 349.357 349.486 349.523 349.234 349.612C348.981 349.701 348.708 349.707 348.452 349.631L342.746 348.089C342.487 348.004 342.239 347.89 342.006 347.749C341.713 347.619 341.467 347.4 341.304 347.124C341.141 346.847 341.069 346.527 341.096 346.207L341.374 342.414C341.397 342.029 341.397 341.642 341.374 341.257C341.383 340.943 341.319 340.632 341.185 340.347C341.051 340.063 340.851 339.815 340.603 339.623C339.508 338.79 338.444 337.942 337.364 337.094C337.063 336.842 336.699 336.677 336.311 336.614C335.923 336.552 335.525 336.595 335.159 336.739C333.957 337.156 332.738 337.526 331.536 337.911C331.49 337.918 331.443 337.918 331.397 337.911C329.855 338.343 329.269 338.189 328.452 336.77C327.634 335.351 326.678 333.563 325.846 331.928C325.716 331.744 325.626 331.536 325.579 331.317C325.532 331.097 325.53 330.87 325.574 330.65C325.617 330.429 325.704 330.22 325.83 330.034C325.957 329.848 326.119 329.69 326.308 329.569C327.233 328.736 328.174 327.934 329.145 327.179C329.632 326.843 330.007 326.371 330.224 325.822C330.441 325.273 330.489 324.671 330.364 324.095C330.163 322.799 330.024 321.489 329.839 320.178C329.814 319.903 329.72 319.639 329.567 319.411C329.413 319.182 329.205 318.995 328.96 318.867L325.491 317.063C324.694 316.758 324.032 316.178 323.625 315.428L323.44 315.043ZM365.784 318.775C365.647 317.13 365.184 315.528 364.424 314.064C363.663 312.599 362.619 311.3 361.353 310.241C360.086 309.183 358.622 308.386 357.046 307.897C355.469 307.409 353.811 307.238 352.168 307.394C348.919 307.775 345.942 309.396 343.859 311.918C341.776 314.441 340.747 317.671 340.988 320.933C341.287 324.206 342.861 327.23 345.372 329.351C347.882 331.473 351.127 332.52 354.404 332.267C356.044 332.147 357.644 331.701 359.109 330.954C360.574 330.207 361.875 329.174 362.935 327.917C363.996 326.66 364.794 325.204 365.283 323.634C365.772 322.064 365.943 320.411 365.784 318.775Z" fill="white"/>
<path d="M348.652 350.541C348.459 350.537 348.268 350.511 348.081 350.464L346.539 350.032L342.391 348.876C342.109 348.787 341.84 348.662 341.589 348.505C341.14 348.31 340.763 347.979 340.511 347.559C340.259 347.139 340.146 346.65 340.186 346.162L340.31 344.512C340.31 343.802 340.418 343.077 340.464 342.368C340.487 342.009 340.487 341.648 340.464 341.289C340.477 341.088 340.44 340.887 340.357 340.704C340.273 340.521 340.146 340.362 339.986 340.24C338.958 339.479 337.971 338.708 337.025 337.927L336.747 337.711C336.539 337.529 336.283 337.411 336.009 337.373C335.735 337.334 335.456 337.377 335.205 337.495L332.63 338.328L331.566 338.667H331.412C331.062 338.838 330.679 338.933 330.29 338.947C329.9 338.961 329.512 338.893 329.15 338.748C328.789 338.602 328.461 338.383 328.19 338.104C327.918 337.824 327.708 337.491 327.572 337.125C326.555 335.367 325.645 333.609 324.951 332.252C324.615 331.727 324.495 331.092 324.616 330.48C324.736 329.868 325.088 329.327 325.599 328.968C326.678 327.996 327.588 327.21 328.467 326.532C328.836 326.287 329.123 325.937 329.291 325.528C329.459 325.118 329.499 324.667 329.407 324.234C329.284 323.417 329.176 322.615 329.068 321.797L328.883 320.255C328.871 320.102 328.82 319.954 328.733 319.827C328.647 319.7 328.528 319.598 328.39 319.531L327.002 318.791L324.936 317.727C323.973 317.339 323.185 316.616 322.715 315.691C322.701 315.615 322.701 315.536 322.715 315.46V314.982C322.708 314.894 322.708 314.807 322.715 314.72L323.023 313.486C323.255 312.545 323.486 311.605 323.733 310.664C323.979 309.723 324.134 309.245 324.365 308.551C324.532 307.966 324.89 307.452 325.381 307.092C325.873 306.732 326.47 306.546 327.079 306.562C327.804 306.562 328.528 306.562 329.238 306.701L330.333 306.794H330.78C331.164 306.831 331.552 306.831 331.936 306.794C332.167 306.777 332.389 306.702 332.584 306.578C333.756 305.236 334.851 303.864 335.776 302.707C335.872 302.557 335.929 302.386 335.942 302.208C335.956 302.03 335.925 301.852 335.853 301.689C335.699 301.15 335.514 300.595 335.344 300.055C335.175 299.515 334.897 298.636 334.681 297.927C334.498 297.364 334.399 296.777 334.388 296.184C334.385 295.88 334.447 295.578 334.57 295.299C334.692 295.02 334.872 294.77 335.098 294.565C337.01 293.073 339.136 291.877 341.404 291.019C341.873 290.828 342.39 290.795 342.879 290.922C343.368 291.05 343.803 291.333 344.118 291.728C344.427 292.098 344.766 292.468 345.09 292.823C345.691 293.501 346.277 294.18 346.848 294.874C347.049 295.179 347.337 295.417 347.676 295.554C348.015 295.692 348.387 295.723 348.744 295.645C349.649 295.501 350.559 295.377 351.474 295.275L353.016 295.09C353.152 295.066 353.28 295.011 353.39 294.927C353.5 294.844 353.589 294.736 353.648 294.611L354.388 293.224L355.128 291.836C355.421 291.281 355.73 290.726 356.054 290.186C356.303 289.705 356.71 289.324 357.208 289.107C357.705 288.891 358.261 288.853 358.783 288.999C361.158 289.584 363.07 290.093 364.797 290.541C365.338 290.695 365.809 291.03 366.132 291.491C366.455 291.951 366.61 292.508 366.57 293.069C366.557 293.812 366.506 294.553 366.416 295.29L366.324 296.385C366.324 296.878 366.324 297.372 366.324 297.927C366.313 298.141 366.354 298.355 366.443 298.551C366.531 298.747 366.665 298.919 366.832 299.053L367.557 299.623C368.436 300.317 369.315 301.011 370.163 301.736C370.371 301.918 370.623 302.042 370.894 302.093C371.165 302.145 371.446 302.122 371.705 302.029L373.695 301.396L375.792 300.733C376.401 300.496 377.077 300.493 377.688 300.723C378.3 300.954 378.806 301.402 379.107 301.982C380.053 303.586 380.963 305.205 381.836 306.84C382.241 307.425 382.403 308.144 382.288 308.846C382.173 309.548 381.79 310.177 381.22 310.602C380.819 310.972 380.402 311.327 379.971 311.682L379.122 312.407C378.644 312.838 378.182 313.27 377.735 313.733C377.617 313.841 377.528 313.976 377.474 314.126C377.42 314.277 377.404 314.438 377.426 314.596L377.519 315.537C377.642 316.663 377.765 317.804 377.92 318.945C377.948 319.215 378.047 319.472 378.207 319.691C378.367 319.911 378.581 320.084 378.829 320.194L379.863 320.687L381.405 321.397C381.935 321.666 382.45 321.965 382.947 322.291C383.436 322.568 383.816 323.002 384.026 323.523C384.236 324.044 384.263 324.621 384.103 325.159C383.61 326.979 383.101 328.783 382.561 330.602C382.462 330.905 382.327 331.195 382.16 331.466C381.96 331.91 381.627 332.28 381.207 332.526C380.787 332.772 380.301 332.881 379.816 332.838L375.977 332.545H375.637C375.238 332.466 374.823 332.514 374.453 332.683C374.082 332.851 373.773 333.132 373.571 333.486C373.109 334.149 372.6 334.751 372.029 335.367L371.412 336.123C371.164 336.399 371.001 336.74 370.94 337.106C370.88 337.473 370.926 337.848 371.073 338.189C371.489 339.407 371.89 340.61 372.26 341.844C372.406 342.156 372.486 342.494 372.498 342.838C372.51 343.181 372.452 343.524 372.328 343.845C372.204 344.166 372.017 344.459 371.778 344.706C371.538 344.953 371.251 345.149 370.934 345.283C369.392 346.192 367.758 347.102 365.907 348.089C365.385 348.41 364.765 348.531 364.161 348.429C363.557 348.327 363.01 348.009 362.623 347.534C362.006 346.871 361.42 346.192 360.849 345.498L360.448 345.036C359.091 343.494 358.999 343.401 356.933 343.679L354.219 344.08C353.91 344.105 353.614 344.21 353.359 344.386C353.105 344.562 352.901 344.802 352.769 345.082L352.291 346.038C351.983 346.701 351.659 347.364 351.32 347.997C351.036 348.545 350.695 349.062 350.302 349.539C350.126 349.825 349.885 350.065 349.598 350.239C349.311 350.414 348.987 350.517 348.652 350.541ZM335.869 335.83C336.541 335.835 337.19 336.075 337.704 336.508L337.981 336.724L340.926 339.022C341.266 339.283 341.541 339.619 341.728 340.005C341.916 340.39 342.011 340.814 342.006 341.242C342.029 341.653 342.029 342.065 342.006 342.476C342.006 343.201 341.898 343.91 341.852 344.635L341.713 346.269C341.695 346.447 341.737 346.625 341.832 346.776C341.927 346.927 342.07 347.041 342.237 347.102C342.42 347.219 342.617 347.312 342.823 347.38C344.195 347.781 345.568 348.151 346.956 348.536L348.498 348.968C348.667 348.968 348.852 349.045 349.099 348.737C349.43 348.341 349.72 347.912 349.963 347.457C350.287 346.84 350.595 346.192 350.903 345.56L351.381 344.589C351.622 344.081 351.99 343.644 352.449 343.32C352.909 342.996 353.444 342.795 354.003 342.738L356.717 342.337C359.323 341.983 359.924 342.214 361.62 344.219L362.021 344.681C362.592 345.36 363.147 346.023 363.748 346.655C363.822 346.77 363.92 346.869 364.034 346.944C364.148 347.02 364.276 347.071 364.411 347.094C364.546 347.117 364.684 347.112 364.817 347.079C364.95 347.046 365.074 346.985 365.182 346.902C367.002 345.946 368.637 345.036 370.148 344.141C370.981 343.648 371.058 343.432 370.78 342.461C370.425 341.258 370.024 340.071 369.608 338.883C369.38 338.293 369.315 337.651 369.421 337.027C369.527 336.403 369.799 335.819 370.21 335.337L370.842 334.565C371.335 333.98 371.813 333.409 372.26 332.777C372.633 332.198 373.169 331.743 373.8 331.469C374.431 331.194 375.13 331.113 375.807 331.235H376.038L379.878 331.543C380.053 331.562 380.23 331.522 380.381 331.43C380.531 331.338 380.647 331.199 380.711 331.034C380.83 330.832 380.933 330.62 381.019 330.402C381.528 328.598 382.037 326.794 382.561 324.989C382.641 324.768 382.634 324.524 382.542 324.307C382.451 324.091 382.282 323.916 382.068 323.818C381.602 323.52 381.118 323.253 380.618 323.016L379.184 322.306L378.12 321.797C377.646 321.576 377.235 321.238 376.928 320.814C376.62 320.391 376.426 319.896 376.362 319.376C376.208 318.235 376.085 317.079 375.961 315.922L375.853 314.997C375.806 314.612 375.849 314.221 375.977 313.854C376.105 313.488 376.316 313.156 376.594 312.885C377.072 312.391 377.565 311.928 378.136 311.481L379.015 310.726C379.415 310.402 379.816 310.063 380.186 309.708C380.927 309.014 380.988 308.675 380.526 307.796C379.647 306.254 378.737 304.588 377.812 303C377.751 302.859 377.661 302.733 377.549 302.628C377.437 302.523 377.305 302.442 377.161 302.39C377.016 302.338 376.863 302.316 376.709 302.325C376.556 302.335 376.407 302.376 376.27 302.445C375.576 302.645 374.897 302.877 374.203 303.093L372.199 303.74C371.678 303.926 371.117 303.968 370.574 303.862C370.032 303.756 369.528 303.506 369.115 303.139C368.282 302.43 367.418 301.751 366.555 301.073L365.83 300.487C365.479 300.211 365.197 299.856 365.007 299.452C364.817 299.048 364.724 298.605 364.735 298.158C364.735 297.634 364.735 297.094 364.735 296.616C364.735 296.138 364.735 295.861 364.843 295.475C364.843 294.781 364.982 294.087 364.982 293.393C365.011 293.173 364.963 292.949 364.844 292.76C364.726 292.571 364.546 292.43 364.334 292.36C362.623 291.867 360.726 291.358 358.367 290.818C358.166 290.752 357.948 290.764 357.756 290.853C357.564 290.942 357.413 291.1 357.334 291.296C357.01 291.82 356.732 292.345 356.439 292.838L355.699 294.226C355.452 294.689 355.206 295.167 354.943 295.629C354.771 295.967 354.52 296.258 354.211 296.478C353.903 296.698 353.546 296.841 353.17 296.894L351.628 297.079C350.734 297.202 349.839 297.31 348.96 297.449C348.337 297.568 347.691 297.507 347.101 297.272C346.511 297.037 346.001 296.638 345.63 296.123C345.074 295.444 344.488 294.797 343.903 294.133L342.916 293.023C342.808 292.862 342.646 292.745 342.459 292.693C342.272 292.642 342.072 292.661 341.898 292.746C339.771 293.548 337.779 294.671 335.992 296.076C335.939 296.204 335.908 296.34 335.899 296.477C335.907 296.914 335.985 297.346 336.131 297.757L336.778 299.87C336.963 300.41 337.133 300.965 337.303 301.52C337.449 301.921 337.493 302.352 337.431 302.775C337.369 303.198 337.203 303.598 336.948 303.941C336.023 305.113 334.912 306.501 333.71 307.873C333.258 308.298 332.677 308.559 332.06 308.613C331.578 308.66 331.092 308.66 330.61 308.613H330.194L329.068 308.521C328.39 308.521 327.696 308.397 327.017 308.382C326.741 308.37 326.468 308.454 326.246 308.62C326.024 308.786 325.866 309.023 325.799 309.292C325.583 309.97 325.367 310.649 325.198 311.327C324.951 312.268 324.72 313.193 324.488 314.134L324.211 315.244V315.46C324.564 315.985 325.07 316.389 325.66 316.616L327.742 317.711L329.145 318.436C329.498 318.62 329.801 318.887 330.027 319.215C330.253 319.543 330.395 319.922 330.441 320.317C330.441 320.826 330.564 321.319 330.641 321.859C330.734 322.661 330.842 323.401 330.965 324.249C331.095 324.958 331.019 325.69 330.746 326.357C330.473 327.024 330.013 327.598 329.423 328.012C328.575 328.675 327.68 329.431 326.632 330.371C326.03 330.911 325.984 331.142 326.339 331.821C327.002 333.147 327.881 334.905 328.914 336.616C329.546 337.696 329.7 337.757 330.996 337.403L332.152 337.033C333 336.755 333.864 336.493 334.697 336.2C335.064 336.012 335.46 335.887 335.869 335.83ZM353.355 333.116C350.78 333.119 348.259 332.371 346.101 330.965C343.944 329.559 342.242 327.555 341.204 325.198C340.166 322.841 339.837 320.233 340.257 317.692C340.678 315.151 341.828 312.787 343.57 310.889C345.311 308.991 347.567 307.642 350.062 307.005C352.558 306.368 355.185 306.472 357.622 307.303C360.06 308.134 362.203 309.658 363.789 311.687C365.375 313.716 366.336 316.163 366.555 318.729C366.746 320.397 366.6 322.086 366.126 323.697C365.652 325.307 364.859 326.806 363.795 328.104C362.669 329.538 361.26 330.723 359.654 331.586C358.049 332.448 356.282 332.969 354.465 333.116C354.095 333.116 353.725 333.116 353.355 333.116ZM353.263 308.151H352.229C350.306 308.347 348.461 309.015 346.859 310.097C345.257 311.179 343.947 312.641 343.047 314.352C342.146 316.063 341.683 317.97 341.699 319.903C341.714 321.836 342.208 323.736 343.135 325.432C344.063 327.128 345.395 328.569 347.015 329.625C348.634 330.681 350.489 331.321 352.416 331.486C354.342 331.651 356.279 331.338 358.055 330.573C359.83 329.808 361.389 328.615 362.592 327.102C363.525 325.963 364.221 324.65 364.639 323.238C365.057 321.827 365.19 320.346 365.028 318.883C364.801 315.93 363.459 313.174 361.274 311.175C359.088 309.176 356.224 308.084 353.263 308.12V308.151Z" fill="#D1D3D4"/>
<path d="M405.229 159.283C396.285 169.136 373.417 188.011 326.477 188.689L325.182 272.313C325.182 272.313 370.055 279.206 405.229 247.996V159.283Z" fill="white"/>
<path d="M335.945 273.686C332.307 273.719 328.67 273.513 325.059 273.069C324.875 273.042 324.707 272.949 324.588 272.807C324.468 272.665 324.405 272.483 324.411 272.298L325.706 188.673C325.71 188.474 325.791 188.284 325.932 188.144C326.073 188.003 326.263 187.922 326.462 187.918C372.029 187.255 395.021 169.414 404.658 158.774C404.761 158.656 404.897 158.572 405.049 158.534C405.2 158.495 405.36 158.503 405.506 158.558C405.651 158.616 405.776 158.716 405.863 158.845C405.951 158.974 405.999 159.126 406 159.282V247.995C406.001 248.104 405.978 248.211 405.932 248.31C405.887 248.408 405.821 248.496 405.738 248.566C381.158 270.386 351.566 273.686 335.945 273.686ZM325.953 271.635C331.628 272.298 372.322 275.952 404.458 247.641V161.287C394.003 172.081 370.919 188.673 327.233 189.491L325.953 271.635Z" fill="#231F20"/>
<path d="M336.763 262.475C336.564 262.475 336.372 262.398 336.228 262.26C336.085 262.122 336 261.934 335.992 261.735C335.988 261.531 336.062 261.334 336.2 261.185C336.338 261.035 336.529 260.945 336.732 260.933C351.991 260.646 366.99 256.93 380.618 250.062C385.728 247.492 390.464 244.239 394.697 240.393V183.168C394.697 182.964 394.778 182.768 394.923 182.623C395.067 182.479 395.263 182.397 395.468 182.397C395.672 182.397 395.869 182.479 396.013 182.623C396.158 182.768 396.239 182.964 396.239 183.168V240.717C396.239 240.814 396.22 240.911 396.183 241.001C396.146 241.091 396.092 241.172 396.023 241.241C395.823 241.442 376.486 261.133 336.794 262.475H336.763Z" fill="#D1D3D4"/>
<path d="M341.682 208.828C341.478 208.828 341.282 208.746 341.137 208.602C340.992 208.457 340.911 208.261 340.911 208.057C340.911 207.852 340.992 207.656 341.137 207.511C341.282 207.367 341.478 207.286 341.682 207.286C341.79 207.286 353.386 206.484 359.616 202.197C359.699 202.139 359.792 202.098 359.89 202.077C359.989 202.055 360.091 202.054 360.19 202.073C360.289 202.091 360.384 202.13 360.468 202.185C360.552 202.241 360.624 202.313 360.68 202.397C360.795 202.564 360.839 202.768 360.805 202.967C360.77 203.166 360.659 203.344 360.495 203.461C353.91 207.995 342.268 208.797 341.775 208.828H341.682Z" fill="#D1D3D4"/>
<path d="M341.682 201.627C341.482 201.623 341.29 201.543 341.147 201.402C341.003 201.262 340.919 201.072 340.911 200.871C340.907 200.769 340.924 200.668 340.96 200.573C340.996 200.477 341.051 200.39 341.121 200.317C341.192 200.243 341.277 200.185 341.37 200.145C341.464 200.105 341.565 200.085 341.667 200.085C341.775 200.085 352.631 199.715 359.57 194.981C359.654 194.924 359.748 194.884 359.848 194.864C359.947 194.844 360.049 194.843 360.149 194.863C360.248 194.882 360.343 194.921 360.428 194.977C360.512 195.033 360.585 195.105 360.642 195.189C360.698 195.273 360.738 195.367 360.758 195.467C360.778 195.566 360.779 195.668 360.759 195.768C360.74 195.867 360.701 195.962 360.645 196.047C360.589 196.131 360.517 196.204 360.433 196.261C353.124 201.257 342.16 201.611 341.698 201.627H341.682Z" fill="#D1D3D4"/>
<path d="M338.829 252.436C338.637 252.435 338.455 252.357 338.32 252.221C338.246 252.151 338.188 252.068 338.147 251.975C338.107 251.882 338.086 251.782 338.086 251.681C338.086 251.58 338.107 251.48 338.147 251.387C338.188 251.294 338.246 251.21 338.32 251.141C338.459 250.972 353.216 234.934 359.4 224.927C359.46 224.825 359.543 224.739 359.642 224.675C359.741 224.611 359.853 224.571 359.97 224.557C360.086 224.548 360.202 224.564 360.311 224.604C360.42 224.644 360.519 224.707 360.602 224.788L372.569 237.124C374.82 232.683 384.211 213.839 386.123 202.721L380.587 206.052C380.5 206.105 380.403 206.14 380.303 206.155C380.202 206.171 380.1 206.166 380.001 206.142C379.902 206.117 379.809 206.074 379.727 206.013C379.645 205.953 379.576 205.877 379.523 205.79C379.47 205.703 379.435 205.606 379.42 205.506C379.405 205.405 379.409 205.303 379.434 205.204C379.458 205.105 379.502 205.012 379.562 204.93C379.622 204.848 379.698 204.779 379.785 204.726L386.709 200.563C386.833 200.491 386.974 200.453 387.118 200.453C387.261 200.453 387.402 200.491 387.526 200.563C387.647 200.643 387.743 200.754 387.805 200.884C387.868 201.014 387.894 201.159 387.881 201.303C386.493 213.762 374.003 237.756 373.432 238.774C373.377 238.883 373.296 238.976 373.197 239.046C373.097 239.116 372.982 239.16 372.862 239.175C372.742 239.191 372.62 239.18 372.505 239.143C372.39 239.106 372.286 239.043 372.198 238.959L360.186 226.5C353.648 236.662 339.6 251.943 339.446 252.113C339.374 252.21 339.281 252.289 339.174 252.345C339.068 252.401 338.949 252.432 338.829 252.436Z" fill="#D1D3D4"/>
<path d="M389.377 208.828C389.214 208.83 389.054 208.78 388.921 208.686C388.788 208.592 388.689 208.458 388.636 208.304L386.339 201.534C386.292 201.436 386.266 201.329 386.263 201.22C386.261 201.111 386.281 201.003 386.323 200.902C386.366 200.802 386.429 200.712 386.508 200.637C386.588 200.563 386.683 200.506 386.786 200.471C386.889 200.436 386.998 200.423 387.107 200.434C387.215 200.444 387.32 200.477 387.415 200.531C387.51 200.585 387.592 200.658 387.656 200.746C387.721 200.834 387.766 200.934 387.788 201.041L390.101 207.81C390.166 208.005 390.152 208.217 390.063 208.401C389.973 208.585 389.816 208.727 389.623 208.797L389.377 208.828Z" fill="#D1D3D4"/>
<path d="M97.1313 62.4434C97.1313 62.4434 99.7528 82.9986 112.552 87.4088V132.128C112.552 132.128 102.914 127.795 97.1313 112.868V62.4434Z" fill="white"/>
<path d="M112.552 132.852C112.445 132.874 112.335 132.874 112.228 132.852C111.827 132.667 102.236 128.226 96.4225 113.16C96.4008 113.069 96.4008 112.974 96.4225 112.883V62.4431C96.4223 62.2479 96.4977 62.0603 96.6328 61.9194C96.7679 61.7786 96.9522 61.6955 97.1472 61.6875C97.2445 61.6768 97.343 61.6856 97.4369 61.7132C97.5308 61.7408 97.6182 61.7868 97.6943 61.8485C97.7703 61.9102 97.8333 61.9863 97.8797 62.0725C97.9261 62.1586 97.9549 62.2532 97.9645 62.3506C97.9645 62.5511 100.663 82.4895 112.861 86.6838C113.011 86.737 113.142 86.8349 113.236 86.9644C113.329 87.0939 113.381 87.2488 113.385 87.4086V132.127C113.385 132.256 113.352 132.383 113.29 132.496C113.228 132.61 113.139 132.705 113.03 132.775C112.885 132.857 112.716 132.885 112.552 132.852ZM97.9028 112.682C102.359 124.078 109.144 129.167 111.781 130.77V87.9329C103.793 84.8488 99.7995 75.905 97.9028 69.4285V112.682Z" fill="#231F20"/>
</svg>
