<svg width="468" height="358" viewBox="0 0 468 358" fill="none" xmlns="http://www.w3.org/2000/svg">
<path d="M317.997 344.866L315.091 355.593L269.835 339.209L285.925 335.283" fill="white"/>
<path d="M315.092 356.366C315.005 356.382 314.916 356.382 314.829 356.366L269.573 339.983C269.416 339.926 269.281 339.82 269.189 339.681C269.097 339.542 269.053 339.376 269.063 339.21C269.069 339.043 269.13 338.883 269.236 338.755C269.342 338.626 269.488 338.536 269.65 338.499L285.74 334.588C285.945 334.539 286.161 334.573 286.341 334.684C286.521 334.794 286.649 334.971 286.698 335.176C286.748 335.381 286.713 335.597 286.603 335.776C286.493 335.956 286.316 336.085 286.111 336.134L272.494 339.442L314.566 354.681L317.24 344.759C317.294 344.558 317.426 344.388 317.605 344.284C317.784 344.179 317.998 344.15 318.198 344.202C318.393 344.263 318.558 344.396 318.659 344.574C318.759 344.752 318.788 344.962 318.739 345.16L315.834 355.887C315.774 356.096 315.635 356.273 315.447 356.382C315.329 356.4 315.208 356.395 315.092 356.366Z" fill="#231F20"/>
<path d="M155.274 326.489C155.069 326.489 154.872 326.408 154.727 326.263C154.582 326.118 154.501 325.921 154.501 325.716V1.93883C154.501 1.73387 154.582 1.5373 154.727 1.39237C154.872 1.24744 155.069 1.16602 155.274 1.16602C155.479 1.16602 155.675 1.24744 155.82 1.39237C155.965 1.5373 156.047 1.73387 156.047 1.93883V325.716C156.047 325.921 155.965 326.118 155.82 326.263C155.675 326.408 155.479 326.489 155.274 326.489Z" fill="#D1D3D4"/>
<path d="M184.579 356.66C184.37 356.66 184.17 356.576 184.023 356.428L155.413 326.876L126.804 356.428C126.732 356.501 126.646 356.558 126.552 356.597C126.458 356.637 126.357 356.657 126.255 356.657C126.153 356.657 126.052 356.637 125.958 356.597C125.864 356.558 125.778 356.501 125.706 356.428C125.564 356.281 125.484 356.084 125.484 355.88C125.484 355.675 125.564 355.478 125.706 355.331L154.872 325.222C155.02 325.075 155.22 324.992 155.429 324.992C155.637 324.992 155.837 325.075 155.985 325.222L185.151 355.331C185.223 355.403 185.281 355.488 185.32 355.582C185.359 355.677 185.38 355.778 185.38 355.88C185.38 355.982 185.359 356.083 185.32 356.177C185.281 356.271 185.223 356.356 185.151 356.428C185.077 356.505 184.988 356.565 184.89 356.605C184.791 356.645 184.685 356.664 184.579 356.66Z" fill="#D1D3D4"/>
<path d="M155.274 326.489C155.069 326.489 154.872 326.408 154.727 326.263C154.582 326.118 154.501 325.921 154.501 325.716V1.93883C154.501 1.73387 154.582 1.5373 154.727 1.39237C154.872 1.24744 155.069 1.16602 155.274 1.16602C155.479 1.16602 155.675 1.24744 155.82 1.39237C155.965 1.5373 156.047 1.73387 156.047 1.93883V325.716C156.047 325.921 155.965 326.118 155.82 326.263C155.675 326.408 155.479 326.489 155.274 326.489Z" fill="#231F20"/>
<path d="M184.579 356.66C184.37 356.66 184.17 356.576 184.023 356.428L155.413 326.876L126.804 356.428C126.732 356.501 126.646 356.558 126.552 356.597C126.458 356.637 126.357 356.657 126.255 356.657C126.153 356.657 126.052 356.637 125.958 356.597C125.864 356.558 125.778 356.501 125.706 356.428C125.564 356.281 125.484 356.084 125.484 355.88C125.484 355.675 125.564 355.478 125.706 355.331L154.872 325.222C155.02 325.075 155.22 324.992 155.429 324.992C155.637 324.992 155.837 325.075 155.985 325.222L185.151 355.331C185.223 355.403 185.281 355.488 185.32 355.582C185.359 355.677 185.38 355.778 185.38 355.88C185.38 355.982 185.359 356.083 185.32 356.177C185.281 356.271 185.223 356.356 185.151 356.428C185.077 356.505 184.988 356.565 184.89 356.605C184.791 356.645 184.685 356.664 184.579 356.66Z" fill="#231F20"/>
<path d="M281.489 8.86426H29.3516V195.22H281.489V8.86426Z" fill="white"/>
<path d="M281.474 196.023H29.2896C29.0764 196.023 28.872 195.939 28.7212 195.788C28.5705 195.637 28.4858 195.433 28.4858 195.22V8.86361C28.4858 8.75878 28.5067 8.655 28.5473 8.55834C28.5879 8.46168 28.6473 8.37409 28.7222 8.30069C28.797 8.22729 28.8857 8.16955 28.9832 8.13085C29.0806 8.09216 29.1847 8.07329 29.2896 8.07535H281.474C281.579 8.07329 281.683 8.09216 281.78 8.13085C281.878 8.16955 281.966 8.22729 282.041 8.30069C282.116 8.37409 282.176 8.46168 282.216 8.55834C282.257 8.655 282.278 8.75878 282.278 8.86361V195.22C282.278 195.325 282.257 195.43 282.216 195.527C282.176 195.625 282.117 195.713 282.042 195.788C281.967 195.863 281.879 195.922 281.781 195.962C281.684 196.003 281.579 196.023 281.474 196.023ZM30.1397 194.478H280.686V9.66734H30.1397V194.478Z" fill="#231F20"/>
<path d="M85.0259 93.0382C87.271 93.0382 89.0909 91.2182 89.0909 88.9732C89.0909 86.7282 87.271 84.9082 85.0259 84.9082C82.7809 84.9082 80.9609 86.7282 80.9609 88.9732C80.9609 91.2182 82.7809 93.0382 85.0259 93.0382Z" fill="white"/>
<path d="M132.306 77.6593C134.551 77.6593 136.371 75.8393 136.371 73.5943C136.371 71.3493 134.551 69.5293 132.306 69.5293C130.061 69.5293 128.241 71.3493 128.241 73.5943C128.241 75.8393 130.061 77.6593 132.306 77.6593Z" fill="white"/>
<path d="M161.61 95.9444C163.855 95.9444 165.675 94.1245 165.675 91.8794C165.675 89.6344 163.855 87.8145 161.61 87.8145C159.365 87.8145 157.545 89.6344 157.545 91.8794C157.545 94.1245 159.365 95.9444 161.61 95.9444Z" fill="white"/>
<path d="M110.837 113.348C113.082 113.348 114.902 111.528 114.902 109.283C114.902 107.038 113.082 105.218 110.837 105.218C108.592 105.218 106.772 107.038 106.772 109.283C106.772 111.528 108.592 113.348 110.837 113.348Z" fill="white"/>
<path d="M321.599 156.81C321.599 156.81 294.906 239.207 285.864 335.284L317.92 344.866L361.198 205.606L377.442 346.258L411.369 346.984C411.369 346.984 411.678 262.979 402.976 156.872C385.402 156.501 321.599 156.81 321.599 156.81Z" fill="#231F20"/>
<path d="M237.331 114.291C237.331 114.291 272.123 157.753 288.167 156.362C304.21 154.971 324.102 122.173 324.102 122.173L307.703 93.2236C307.703 93.2236 286.776 118.68 282.973 116.949C279.171 115.218 253.328 96.3613 253.328 96.3613" fill="white"/>
<path d="M287.409 157.166C270.855 157.166 238.134 116.531 236.728 114.769C236.654 114.692 236.598 114.599 236.562 114.498C236.526 114.398 236.511 114.291 236.519 114.184C236.527 114.077 236.556 113.973 236.606 113.878C236.656 113.784 236.725 113.7 236.809 113.634C236.893 113.567 236.989 113.519 237.093 113.492C237.196 113.464 237.304 113.459 237.41 113.475C237.516 113.492 237.617 113.531 237.707 113.588C237.797 113.646 237.874 113.722 237.934 113.811C238.289 114.228 272.664 156.919 288.104 155.543C302.649 154.276 320.903 125.774 323.19 122.111L307.579 94.5216C305.941 96.4846 301.752 101.446 297.316 106.222C285.508 118.927 283.483 118 282.618 117.598C278.753 115.836 253.884 97.7056 252.818 96.9328C252.655 96.8097 252.546 96.628 252.514 96.4262C252.483 96.2243 252.53 96.0181 252.648 95.8509C252.771 95.6869 252.954 95.5785 253.157 95.5495C253.36 95.5205 253.566 95.5733 253.73 95.6963C253.993 95.8818 279.526 114.507 283.251 116.191C284.797 116.887 294.411 108.139 307.1 92.6823C307.179 92.5844 307.281 92.5077 307.397 92.4591C307.513 92.4106 307.64 92.3917 307.765 92.4041C307.89 92.4124 308.011 92.4522 308.116 92.5198C308.221 92.5874 308.308 92.6805 308.368 92.7905L324.767 121.74C324.839 121.859 324.877 121.995 324.877 122.134C324.877 122.273 324.839 122.41 324.767 122.528C323.948 123.889 304.504 155.667 288.244 157.089L287.409 157.166Z" fill="#231F20"/>
<path d="M398.895 107.042L420.333 98.2163C412.713 81.9563 404.135 72.2962 398.215 68.5248C390.657 62.2341 371.939 61.8014 354.737 61.1367C349.244 60.795 343.731 61.3166 338.399 62.6824C318.306 68.2312 299.759 97.2425 299.759 97.2425L317.704 107.938C317.704 107.938 315.71 147.414 318.291 160.768C318.291 160.768 364.83 180.861 403.903 169.871C403.872 169.918 398.432 112.142 398.895 107.042Z" fill="#C026D3"/>
<path d="M357.72 55.8503L355.046 68.7409C355.046 68.7409 357.905 77.3036 366.561 76.469C369.123 76.1751 371.588 75.3154 373.777 73.9521C375.966 72.5889 377.825 70.7561 379.219 68.5863L382.311 44.8919C382.311 44.8919 376.53 40.7341 380.178 27.4727C372.913 29.505 365.236 29.5424 357.952 27.5808C357.952 27.5808 352.171 41.7233 352.31 48.3695C352.449 55.0157 357.72 55.8503 357.72 55.8503Z" fill="white"/>
<path d="M365.309 77.2881C357.148 77.2881 354.319 69.0962 354.288 69.019C354.25 68.8825 354.25 68.7381 354.288 68.6016L356.823 56.4221C355.192 55.8189 353.798 54.7078 352.847 53.2524C351.895 51.797 351.436 50.0744 351.537 48.3385C351.398 41.5996 356.993 27.8126 357.225 27.2252C357.298 27.0456 357.434 26.8989 357.608 26.8134C357.782 26.7279 357.981 26.7094 358.168 26.7616C365.302 28.6626 372.813 28.6306 379.93 26.6688C380.067 26.6222 380.214 26.6135 380.356 26.6434C380.497 26.6733 380.628 26.7408 380.734 26.8388C380.839 26.9379 380.914 27.0637 380.952 27.2027C380.991 27.3417 380.99 27.4885 380.95 27.6271C377.535 40.1158 382.743 44.1653 382.79 44.1962C382.906 44.2825 382.997 44.3981 383.054 44.5311C383.111 44.6641 383.132 44.8099 383.114 44.9536L380.023 68.648C380.009 68.7504 379.977 68.8496 379.93 68.9417C378.48 71.2248 376.535 73.153 374.24 74.5842C371.945 76.0154 369.357 76.913 366.669 77.2108C366.236 77.2571 365.742 77.2881 365.309 77.2881ZM355.865 68.6944C356.344 69.9463 359.173 76.4225 366.483 75.6188C368.896 75.3299 371.217 74.5176 373.283 73.2389C375.349 71.9601 377.112 70.2457 378.447 68.2152L381.445 45.0308C380.193 43.8407 376.468 39.2347 379.034 28.4308C372.253 30.053 365.181 30.0212 358.415 28.3381C357.302 31.1666 352.975 42.5578 353.098 48.153C353.222 54.0264 357.735 54.9074 357.859 54.9383C357.965 54.9568 358.067 54.9965 358.158 55.0551C358.249 55.1137 358.327 55.19 358.387 55.2795C358.448 55.3689 358.49 55.4697 358.51 55.5757C358.531 55.6817 358.53 55.7909 358.508 55.8966L355.865 68.6944Z" fill="#231F20"/>
<path d="M377.426 43.7785C377.864 42.6591 378.657 41.7143 379.683 41.0891C380.648 40.5623 381.692 40.1969 382.774 40.0072C383.369 39.8687 383.988 39.8687 384.583 40.0072C384.997 40.1305 385.385 40.3297 385.726 40.5945C386.574 41.1606 387.193 42.0097 387.473 42.9902C387.594 43.7997 387.52 44.6264 387.257 45.4014C387.03 46.2633 386.698 47.094 386.267 47.8744C385.812 48.6366 385.209 49.3009 384.495 49.829C383.781 50.3571 382.97 50.7385 382.107 50.9512C381.245 51.1639 380.349 51.2037 379.472 51.0682C378.594 50.9327 377.752 50.6247 376.994 50.1619" fill="white"/>
<path d="M380.564 51.863C379.174 51.8649 377.811 51.4853 376.623 50.7656C376.443 50.6538 376.315 50.4761 376.266 50.2707C376.217 50.0654 376.251 49.8489 376.36 49.6682C376.414 49.5779 376.485 49.4993 376.57 49.437C376.655 49.3747 376.751 49.33 376.853 49.3056C376.955 49.2811 377.062 49.2773 377.165 49.2945C377.269 49.3116 377.368 49.3493 377.457 49.4054C378.125 49.8138 378.866 50.0855 379.64 50.2048C380.413 50.324 381.202 50.2884 381.961 50.1C382.721 49.9116 383.435 49.5742 384.063 49.1074C384.69 48.6405 385.219 48.0536 385.618 47.3807C386.026 46.6691 386.333 45.9045 386.53 45.1086C386.755 44.4588 386.824 43.7651 386.731 43.0838C386.494 42.2949 385.985 41.6157 385.294 41.1672C385.045 40.9553 384.756 40.7974 384.443 40.7035C383.965 40.5979 383.469 40.5979 382.991 40.7035C381.979 40.8693 381.002 41.2036 380.1 41.6927C379.226 42.2268 378.548 43.0292 378.168 43.9803C378.092 44.1789 377.94 44.3391 377.746 44.4261C377.552 44.513 377.331 44.5194 377.133 44.444C376.939 44.3617 376.785 44.2084 376.702 44.0157C376.618 43.823 376.612 43.6056 376.684 43.4084C377.188 42.1259 378.093 41.0412 379.266 40.3171C380.325 39.735 381.475 39.3329 382.666 39.127C383.377 38.9564 384.119 38.9564 384.83 39.127C385.348 39.27 385.832 39.5172 386.252 39.8535C387.253 40.531 387.977 41.5459 388.292 42.7129C388.445 43.6503 388.365 44.6109 388.06 45.5104C387.831 46.4422 387.472 47.3372 386.994 48.1689C385.966 49.8866 384.298 51.1262 382.357 51.6157C381.772 51.7753 381.17 51.8584 380.564 51.863Z" fill="#231F20"/>
<path d="M383.486 57.6742C383.309 57.6506 383.145 57.569 383.02 57.4421C382.895 57.3152 382.815 57.1503 382.794 56.9732C382.773 56.7962 382.811 56.6172 382.902 56.4643C382.994 56.3113 383.134 56.1932 383.3 56.1285C385.724 55.5115 387.997 54.4065 389.98 52.8811C391.962 51.3556 393.613 49.4418 394.831 47.2567C398.597 40.6037 399.801 32.8032 398.215 25.3242C397.18 21.1974 395.835 20.0227 394.877 19.76C394.412 19.7001 393.939 19.7469 393.494 19.8969C393.05 20.0468 392.645 20.296 392.311 20.6255C392.195 20.7446 392.045 20.8249 391.882 20.8554C391.719 20.8858 391.55 20.8649 391.399 20.7955C391.253 20.7219 391.132 20.6059 391.052 20.4626C390.972 20.3193 390.937 20.1553 390.951 19.9918C390.951 19.7754 391.399 14.7985 386.314 9.79069C382.527 6.12756 370.131 1.56796 360.749 2.789C355.927 3.42271 352.465 5.44748 350.456 8.80149C348.307 12.4183 347.673 15.7568 348.57 18.7399C349.685 21.7596 351.891 24.2521 354.752 25.7261C354.847 25.7707 354.931 25.8335 355.002 25.9109C355.072 25.9883 355.126 26.0787 355.161 26.177C355.196 26.2753 355.212 26.3796 355.207 26.4839C355.201 26.5882 355.176 26.6905 355.131 26.7848C355.086 26.8792 355.024 26.9639 354.946 27.034C354.869 27.1041 354.779 27.1583 354.68 27.1935C354.482 27.2645 354.263 27.2537 354.072 27.1635C350.781 25.5255 348.251 22.6791 347.009 19.219C345.958 15.7877 346.638 12.0009 349.049 7.9823C351.306 4.19552 355.154 1.908 360.487 1.21247C370.672 -0.132227 383.424 4.79831 387.381 8.64692C390.205 11.2352 392.023 14.7393 392.512 18.5389C393.362 18.0747 394.355 17.9478 395.294 18.1834C397.273 18.7244 398.772 20.981 399.761 24.9069C401.449 32.8115 400.179 41.0608 396.191 48.0913C394.863 50.4543 393.07 52.5242 390.921 54.1764C388.772 55.8286 386.312 57.0289 383.687 57.7051L383.486 57.6742Z" fill="#231F20"/>
<path d="M356.685 62.3113C358.212 62.6936 359.803 62.7452 361.352 62.4627C362.901 62.1801 364.371 61.5699 365.665 60.673C369.838 57.5817 369.792 55.4951 369.792 55.4951C369.792 55.4951 363.393 57.9527 358.045 56.1134L356.685 62.3113Z" fill="#231F20"/>
<path d="M359.42 63.424C358.424 63.4325 357.431 63.3077 356.468 63.0531C356.283 62.9988 356.125 62.8758 356.027 62.7092C355.93 62.5425 355.899 62.3449 355.943 62.1566L357.287 55.9741C357.311 55.8681 357.356 55.7681 357.42 55.6803C357.483 55.5926 357.565 55.5189 357.658 55.464C357.759 55.4219 357.866 55.4003 357.975 55.4003C358.084 55.4003 358.192 55.4219 358.292 55.464C363.3 57.1951 369.451 54.8767 369.513 54.8458C369.629 54.8009 369.755 54.7848 369.879 54.7989C370.003 54.813 370.121 54.8568 370.224 54.9266C370.328 54.9965 370.413 55.0903 370.472 55.2C370.531 55.3097 370.563 55.4321 370.564 55.5568C370.564 55.8041 370.487 58.1534 366.113 61.3683C364.16 62.7527 361.814 63.4733 359.42 63.424ZM357.612 61.7238C360.263 62.1955 362.993 61.5951 365.201 60.0545C366.517 59.1587 367.65 58.0204 368.539 56.7005C365.32 57.6787 361.904 57.817 358.617 57.1024L357.612 61.7238Z" fill="#231F20"/>
<path d="M318.322 161.586C318.126 161.583 317.938 161.507 317.795 161.372C317.652 161.238 317.565 161.055 317.549 160.86C316.76 133.907 318.974 106.95 324.149 80.4873C324.168 80.3885 324.206 80.2943 324.261 80.2103C324.316 80.1263 324.387 80.0541 324.471 79.998C324.554 79.9419 324.648 79.903 324.747 79.8835C324.845 79.864 324.947 79.8644 325.046 79.8846C325.146 79.9031 325.243 79.9415 325.328 79.9975C325.414 80.0535 325.488 80.1261 325.546 80.211C325.603 80.2959 325.643 80.3913 325.664 80.4919C325.684 80.5924 325.684 80.6959 325.664 80.7965C320.519 107.117 318.316 133.929 319.095 160.736C319.101 160.838 319.087 160.94 319.054 161.036C319.021 161.132 318.969 161.221 318.902 161.297C318.834 161.373 318.752 161.435 318.661 161.479C318.569 161.524 318.47 161.549 318.368 161.555L318.322 161.586Z" fill="#231F20"/>
<path d="M360.27 154.353C360.27 153.147 353.902 104.893 353.902 104.893L307.255 102.497L315.23 150.411L360.27 154.353Z" fill="#231F20"/>
<path d="M418.664 93.7646C418.664 93.7646 454.785 157.738 431.725 161.649C415.666 164.384 383.625 157.012 371.662 150.829C359.699 144.647 354.737 140.133 354.737 140.133C354.737 140.133 341.383 139.144 342.975 135.96C343.423 135.063 344.156 134.341 345.06 133.907C345.964 133.473 346.987 133.353 347.967 133.565C347.967 133.565 341.584 132.962 342.388 129.979C343.191 126.996 348.369 127.985 348.369 127.985C348.369 127.985 339.389 124.785 341.785 122.992C344.18 121.2 348.756 122.591 348.756 122.591C348.756 122.591 342.573 121.478 342.789 118.804C343.16 114.275 362.512 119.206 366.298 122.791C370.085 126.377 393.146 129.979 397.335 130.381L386.515 107.32" fill="white"/>
<path d="M423.656 163.008C406.454 163.008 381.708 156.826 371.306 151.462C365.307 148.56 359.646 145.004 354.428 140.859C352.14 140.674 343.732 139.839 342.326 137.335C342.174 137.067 342.094 136.763 342.094 136.454C342.094 136.146 342.174 135.842 342.326 135.573C342.743 134.691 343.409 133.949 344.242 133.44C343.373 133.146 342.607 132.61 342.032 131.895C341.813 131.593 341.665 131.246 341.601 130.879C341.537 130.512 341.557 130.135 341.661 129.777C341.859 129.119 342.241 128.532 342.761 128.083C343.281 127.634 343.918 127.342 344.598 127.242C342.681 126.315 340.842 125.125 340.656 123.904C340.609 123.606 340.65 123.302 340.773 123.027C340.897 122.753 341.098 122.52 341.352 122.358C342.021 121.887 342.787 121.57 343.593 121.431C343.119 121.157 342.726 120.763 342.455 120.287C342.183 119.812 342.042 119.273 342.047 118.726C342.098 118.241 342.295 117.783 342.612 117.413C342.93 117.043 343.353 116.778 343.825 116.655C348.462 114.862 363.331 118.865 366.87 122.219C370.1 125.31 389.374 128.603 396.082 129.437L385.789 107.628C385.744 107.536 385.719 107.436 385.713 107.334C385.708 107.232 385.723 107.129 385.758 107.033C385.792 106.937 385.845 106.848 385.914 106.773C385.983 106.697 386.067 106.636 386.16 106.593C386.346 106.508 386.559 106.499 386.753 106.568C386.946 106.637 387.105 106.779 387.195 106.964L398.014 130.04C398.082 130.157 398.118 130.291 398.118 130.426C398.118 130.562 398.082 130.695 398.014 130.813C397.935 130.921 397.829 131.007 397.708 131.063C397.586 131.12 397.453 131.146 397.319 131.137C393.47 130.766 369.9 127.196 365.819 123.409C362.728 120.442 348.493 116.593 344.381 118.154C343.639 118.448 343.608 118.788 343.593 118.927C343.516 120.009 345.649 121.029 347.643 121.585C348.114 121.659 348.578 121.768 349.034 121.91C349.222 121.964 349.383 122.09 349.481 122.26C349.579 122.43 349.607 122.631 349.559 122.822C349.515 123.014 349.399 123.181 349.235 123.29C349.071 123.399 348.872 123.442 348.678 123.409C348.493 123.409 347.967 123.27 347.287 123.085C345.609 122.658 343.833 122.862 342.295 123.657C342.295 124.414 345.386 126.13 348.663 127.304C348.849 127.365 349.005 127.495 349.097 127.668C349.189 127.841 349.211 128.043 349.157 128.232C349.106 128.421 348.985 128.583 348.819 128.687C348.652 128.79 348.453 128.826 348.261 128.788C348.261 128.788 343.763 128 343.176 130.21C343.128 130.352 343.116 130.504 343.141 130.652C343.165 130.8 343.225 130.94 343.315 131.06C344.443 132.041 345.858 132.631 347.349 132.745C347.629 132.76 347.908 132.796 348.184 132.853C348.388 132.886 348.572 132.999 348.694 133.167C348.815 133.335 348.865 133.545 348.833 133.75C348.8 133.954 348.687 134.138 348.519 134.26C348.351 134.381 348.141 134.431 347.936 134.399L347.256 134.306C346.535 134.229 345.808 134.371 345.168 134.713C344.529 135.054 344.007 135.58 343.67 136.223C343.64 136.268 343.623 136.322 343.623 136.377C343.623 136.432 343.64 136.486 343.67 136.532C344.459 137.923 350.657 138.974 354.799 139.298C354.97 139.303 355.135 139.369 355.262 139.484C355.262 139.484 360.317 144.028 372.017 150.071C383.717 156.115 415.805 163.549 431.585 160.891C432.843 160.739 434.04 160.267 435.063 159.52C436.086 158.773 436.9 157.776 437.428 156.625C444.584 141.57 418.262 94.6143 417.984 94.1351C417.897 93.9579 417.88 93.7539 417.939 93.565C417.997 93.3762 418.126 93.217 418.298 93.12C418.47 93.023 418.673 92.9956 418.865 93.0436C419.056 93.0915 419.222 93.2111 419.329 93.3778C420.442 95.3407 446.331 141.524 438.819 157.289C438.186 158.663 437.215 159.854 435.995 160.749C434.776 161.644 433.349 162.214 431.848 162.405C429.139 162.835 426.399 163.037 423.656 163.008Z" fill="#231F20"/>
<path d="M257.347 99.5605C257.347 99.5605 248.074 74.8305 246.049 75.696C244.024 76.5616 247.594 91.9096 247.594 91.9096C247.594 91.9096 232.772 75.7733 230.855 76.8243C228.939 77.8754 230.144 81.8631 235.724 90.0549C235.724 90.0549 225.878 78.6945 224.317 81.0594C222.756 83.4242 232.416 93.6098 232.416 93.6098C232.416 93.6098 223.143 83.7951 221.829 85.7581C220.515 87.721 230.593 97.9221 230.593 97.9221C230.593 97.9221 221.164 86.9482 220.515 90.3486C219.866 93.7489 238.552 115.882 243.916 121.972" fill="white"/>
<path d="M243.93 122.745C243.821 122.748 243.713 122.726 243.614 122.68C243.515 122.635 243.427 122.567 243.358 122.482C243.111 122.204 218.907 94.6611 219.772 90.1942C219.803 89.9083 219.92 89.6385 220.108 89.4205C220.296 89.2025 220.545 89.0465 220.823 88.9732C221.291 88.8893 221.774 88.9598 222.199 89.1741C221.163 87.5203 220.653 86.0828 221.194 85.3409C221.308 85.1664 221.46 85.0209 221.64 84.9162C221.82 84.8115 222.022 84.7505 222.23 84.7382C223.337 84.8583 224.383 85.3109 225.228 86.0365C223.791 83.7953 222.941 81.7396 223.683 80.6268C223.815 80.4344 223.99 80.2746 224.194 80.1595C224.397 80.0444 224.624 79.9769 224.857 79.9622C226.31 79.8694 228.799 81.8478 231.148 84.089C229.154 80.2867 229.108 78.6484 229.34 77.6901C229.408 77.3635 229.548 77.0559 229.748 76.7889C229.948 76.5219 230.205 76.3019 230.499 76.1445C232.044 75.3098 237.3 79.7303 246.218 89.2668C244.78 82.6361 243.791 75.7117 245.77 74.9698C245.909 74.9098 246.059 74.8789 246.21 74.8789C246.362 74.8789 246.511 74.9098 246.651 74.9698C249.278 76.1599 256.063 93.8573 258.073 99.2516C258.119 99.4357 258.096 99.6306 258.008 99.7989C257.92 99.9672 257.773 100.097 257.596 100.164C257.418 100.231 257.222 100.23 257.045 100.162C256.867 100.093 256.722 99.9617 256.635 99.7925C252.725 89.3441 247.903 78.1538 246.218 76.6082C245.723 78.061 246.852 85.4028 248.366 91.7553C248.406 91.9198 248.39 92.0929 248.32 92.247C248.25 92.4011 248.13 92.5272 247.98 92.6054C247.828 92.689 247.653 92.7193 247.482 92.6913C247.311 92.6632 247.154 92.5785 247.037 92.4508C240.468 85.2173 232.802 77.8447 231.148 77.4892C230.985 77.6143 230.874 77.7964 230.839 77.9992C230.561 79.143 231.287 82.0951 236.372 89.5605C236.483 89.7233 236.527 89.9221 236.496 90.1163C236.465 90.3106 236.361 90.4857 236.205 90.6059C236.049 90.7261 235.853 90.7824 235.658 90.7634C235.462 90.7443 235.281 90.6513 235.151 90.5033C230.731 85.4028 225.97 81.2296 224.935 81.446C224.316 82.4043 228.026 87.783 232.956 92.9763C233.098 93.1259 233.174 93.3256 233.168 93.5314C233.162 93.7372 233.075 93.9323 232.925 94.0737C232.776 94.2152 232.576 94.2913 232.37 94.2855C232.165 94.2797 231.969 94.1924 231.828 94.0428C227.825 89.8078 223.667 86.3147 222.554 86.3147C222.554 87.1802 224.394 89.8387 227.191 93.0072C228.737 94.5529 230.282 96.3303 231.318 97.4586C231.452 97.6041 231.526 97.7944 231.526 97.9919C231.526 98.1894 231.452 98.3797 231.318 98.5251C231.174 98.6667 230.979 98.746 230.777 98.746C230.575 98.746 230.381 98.6667 230.236 98.5251C228.984 97.2423 227.469 95.6503 226.047 94.0119C223.822 91.848 221.967 90.4106 221.411 90.5033C221.04 92.8836 234.718 110.164 244.719 121.509C244.851 121.665 244.917 121.868 244.903 122.073C244.889 122.278 244.795 122.469 244.641 122.606C244.543 122.685 244.427 122.74 244.303 122.764C244.179 122.788 244.051 122.782 243.93 122.745Z" fill="#231F20"/>
<path d="M247.609 91.9092C246.189 92.8207 245.132 94.2012 244.624 95.8108C244.116 97.4204 244.188 99.1572 244.827 100.719" fill="white"/>
<path d="M244.828 101.493C244.667 101.491 244.511 101.442 244.379 101.351C244.247 101.26 244.145 101.132 244.086 100.983C243.395 99.2525 243.326 97.3365 243.89 95.5609C244.453 93.7854 245.615 92.2602 247.177 91.2452C247.264 91.1929 247.361 91.1586 247.461 91.1443C247.561 91.13 247.664 91.136 247.762 91.1619C247.86 91.1879 247.951 91.2332 248.032 91.2953C248.112 91.3574 248.179 91.435 248.228 91.5234C248.331 91.6981 248.361 91.9061 248.312 92.1027C248.263 92.2993 248.138 92.4687 247.965 92.5744C246.693 93.3887 245.749 94.6258 245.3 96.0678C244.85 97.5098 244.924 99.0642 245.508 100.457C245.573 100.652 245.559 100.864 245.469 101.049C245.38 101.234 245.222 101.376 245.029 101.446C244.964 101.472 244.897 101.487 244.828 101.493Z" fill="#231F20"/>
<path d="M377.458 346.32L378.431 356.722H426.794C421.954 353.023 416.779 349.784 411.338 347.047" fill="white"/>
<path d="M426.793 357.495H378.431C378.237 357.492 378.051 357.418 377.909 357.287C377.766 357.156 377.677 356.977 377.658 356.784L376.699 346.382C376.689 346.281 376.699 346.179 376.728 346.082C376.757 345.985 376.806 345.895 376.871 345.817C376.936 345.74 377.016 345.676 377.106 345.629C377.196 345.583 377.294 345.555 377.395 345.547C377.496 345.537 377.598 345.546 377.695 345.576C377.791 345.605 377.882 345.654 377.959 345.719C378.037 345.783 378.101 345.863 378.148 345.953C378.194 346.043 378.222 346.142 378.23 346.243L379.142 355.949H424.49C420.207 352.887 415.708 350.139 411.028 347.726C410.845 347.632 410.708 347.469 410.646 347.274C410.583 347.078 410.601 346.866 410.696 346.683C410.79 346.501 410.953 346.363 411.148 346.301C411.344 346.239 411.556 346.257 411.739 346.351C417.207 349.121 422.407 352.391 427.272 356.119C427.399 356.216 427.492 356.35 427.537 356.503C427.581 356.656 427.575 356.82 427.52 356.969C427.466 357.12 427.368 357.252 427.238 357.345C427.109 357.439 426.953 357.491 426.793 357.495Z" fill="#231F20"/>
<path d="M467.227 357.402H0.772813C0.569089 357.398 0.374814 357.315 0.230732 357.171C0.0866502 357.027 0.00395691 356.833 0 356.629C0 356.424 0.0814205 356.228 0.226351 356.083C0.371282 355.938 0.56785 355.856 0.772813 355.856H467.227C467.432 355.856 467.629 355.938 467.774 356.083C467.919 356.228 468 356.424 468 356.629C468 356.834 467.919 357.031 467.774 357.176C467.629 357.321 467.432 357.402 467.227 357.402Z" fill="#231F20"/>
<path d="M375.139 211.603C375.057 211.618 374.974 211.618 374.892 211.603L350.517 202.886C350.327 202.818 350.171 202.677 350.084 202.495C349.997 202.312 349.986 202.103 350.054 201.912C350.121 201.721 350.262 201.565 350.445 201.478C350.627 201.391 350.837 201.381 351.027 201.448L375.402 210.15C375.503 210.167 375.601 210.204 375.688 210.259C375.775 210.314 375.85 210.385 375.91 210.469C375.969 210.553 376.012 210.648 376.035 210.749C376.058 210.849 376.061 210.953 376.043 211.054C376.026 211.156 375.989 211.253 375.934 211.34C375.879 211.427 375.808 211.503 375.724 211.562C375.64 211.622 375.545 211.664 375.445 211.687C375.345 211.71 375.241 211.713 375.139 211.696V211.603Z" fill="white"/>
<path d="M316.25 187.8C316.045 187.811 315.845 187.739 315.693 187.601C315.54 187.464 315.449 187.271 315.439 187.066C315.429 186.861 315.5 186.661 315.638 186.508C315.776 186.356 315.968 186.265 316.173 186.255C327.07 185.173 329.388 171.942 329.419 171.803C329.453 171.603 329.565 171.424 329.73 171.306C329.895 171.187 330.099 171.138 330.3 171.169C330.502 171.207 330.68 171.322 330.799 171.489C330.917 171.657 330.965 171.863 330.934 172.066C330.934 172.205 328.384 186.579 316.328 187.785L316.25 187.8Z" fill="white"/>
<path d="M402.126 187.801C402.055 187.816 401.981 187.816 401.91 187.801C399.05 187.063 396.523 185.381 394.739 183.027C392.954 180.673 392.017 177.786 392.08 174.833C392.083 174.733 392.107 174.634 392.15 174.543C392.193 174.453 392.254 174.372 392.329 174.305C392.405 174.239 392.492 174.188 392.588 174.157C392.683 174.125 392.783 174.113 392.883 174.122C392.984 174.126 393.083 174.15 393.175 174.192C393.266 174.235 393.348 174.296 393.416 174.371C393.483 174.446 393.535 174.533 393.569 174.629C393.602 174.724 393.616 174.825 393.61 174.925C393.543 177.538 394.373 180.095 395.962 182.171C397.551 184.246 399.803 185.715 402.343 186.332C402.547 186.361 402.733 186.47 402.857 186.635C402.982 186.8 403.036 187.008 403.007 187.213C402.978 187.418 402.87 187.603 402.704 187.728C402.539 187.853 402.331 187.907 402.126 187.878V187.801Z" fill="white"/>
<path d="M365.464 36.5762C365.464 36.5762 359.977 42.3568 360.827 43.6706C361.677 44.9844 364.722 44.7371 364.722 44.7371" fill="white"/>
<path d="M364.088 45.5255C363.367 45.5959 362.64 45.5032 361.961 45.2544C361.281 45.0056 360.666 44.607 360.162 44.0881C359.188 42.5425 362.202 38.8794 364.891 36.0509C364.963 35.9784 365.049 35.9209 365.143 35.8817C365.237 35.8425 365.338 35.8223 365.44 35.8223C365.542 35.8223 365.643 35.8425 365.737 35.8817C365.831 35.9209 365.917 35.9784 365.989 36.0509C366.061 36.1214 366.118 36.2055 366.157 36.2984C366.196 36.3913 366.216 36.4911 366.216 36.5918C366.216 36.6926 366.196 36.7923 366.157 36.8852C366.118 36.9781 366.061 37.0623 365.989 37.1328C363.5 39.7604 361.352 42.6661 361.475 43.3153C361.831 43.8563 363.562 44.0418 364.567 43.949C364.769 43.9318 364.971 43.9952 365.127 44.1254C365.283 44.2556 365.382 44.4421 365.401 44.6445C365.412 44.7453 365.402 44.8471 365.373 44.9441C365.343 45.041 365.295 45.131 365.23 45.2089C365.165 45.2867 365.085 45.3507 364.995 45.3971C364.905 45.4436 364.807 45.4715 364.706 45.4792L364.088 45.5255Z" fill="#231F20"/>
<path d="M362.976 49.2663C362.976 49.2663 367.612 51.6775 369.699 47.1797L362.976 49.2663Z" fill="white"/>
<path d="M365.696 50.6716C364.625 50.6568 363.57 50.4089 362.604 49.9451C362.514 49.8995 362.434 49.8362 362.369 49.759C362.303 49.6818 362.254 49.5924 362.224 49.4958C362.193 49.3993 362.183 49.2977 362.192 49.197C362.202 49.0963 362.232 48.9986 362.28 48.9096C362.373 48.7275 362.533 48.5896 362.728 48.5259C362.922 48.4622 363.133 48.4779 363.315 48.5695C364.407 49.1116 365.656 49.2485 366.839 48.9559C367.322 48.7699 367.761 48.4876 368.13 48.1262C368.5 47.7648 368.791 47.3319 368.988 46.8539C369.087 46.6928 369.243 46.5739 369.424 46.5196C369.605 46.4654 369.801 46.4797 369.972 46.5598C370.144 46.6399 370.28 46.7802 370.355 46.954C370.43 47.1279 370.438 47.3233 370.379 47.503C370.02 48.4403 369.384 49.2458 368.556 49.812C367.727 50.3782 366.746 50.6781 365.742 50.6716H365.696Z" fill="#231F20"/>
<path d="M373.902 38.069C374.221 37.2771 374.023 36.4517 373.461 36.2255C372.899 35.9992 372.185 36.4578 371.866 37.2497C371.547 38.0416 371.745 38.867 372.307 39.0933C372.869 39.3195 373.584 38.861 373.902 38.069Z" fill="#231F20"/>
<path d="M362.519 36.198C362.838 35.406 362.641 34.5807 362.078 34.3544C361.516 34.1281 360.802 34.5867 360.483 35.3786C360.165 36.1705 360.362 36.9959 360.924 37.2222C361.487 37.4484 362.201 36.9899 362.519 36.198Z" fill="#231F20"/>
<path d="M73.9743 327.015H53.8812C53.7478 327.015 53.6165 326.982 53.5 326.917C53.3836 326.852 53.2859 326.758 53.2165 326.644C47.2504 316.628 40.2488 301.156 40.7279 284.294C40.7293 284.167 40.7626 284.042 40.8247 283.931C40.8868 283.821 40.9758 283.727 41.0834 283.66C41.1932 283.603 41.3152 283.573 41.4389 283.573C41.5626 283.573 41.6845 283.603 41.7944 283.66C47.4913 286.216 52.7534 289.648 57.3897 293.83C57.5124 293.972 57.5792 294.154 57.5777 294.341C57.5762 294.529 57.5065 294.71 57.3817 294.85C57.2568 294.99 57.0852 295.079 56.899 295.102C56.7128 295.125 56.5246 295.08 56.3696 294.974C52.1179 291.206 47.3699 288.039 42.2581 285.561C42.1344 301.404 48.657 315.933 54.3139 325.531H73.9434C74.1483 325.531 74.3449 325.612 74.4898 325.757C74.6348 325.902 74.7162 326.099 74.7162 326.304C74.7162 326.509 74.6348 326.705 74.4898 326.85C74.3449 326.995 74.1483 327.076 73.9434 327.076L73.9743 327.015Z" fill="#231F20"/>
<path d="M85.4268 327.015H63.788C63.6279 327.011 63.4726 326.959 63.3428 326.865C63.213 326.771 63.1149 326.64 63.0616 326.489C59.4741 316.107 57.129 305.336 56.0754 294.402C54.716 281.689 55.9785 268.833 59.7849 256.627C59.8241 256.51 59.8909 256.404 59.9797 256.318C60.0684 256.232 60.1765 256.168 60.2949 256.132C60.4138 256.101 60.5383 256.097 60.6589 256.121C60.7794 256.145 60.8929 256.197 60.9905 256.271C61.2068 256.442 81.4236 272.918 86.3542 298.622C86.3724 298.723 86.3705 298.827 86.3486 298.928C86.3266 299.029 86.285 299.124 86.2262 299.209C86.1673 299.294 86.0924 299.366 86.0056 299.421C85.9188 299.477 85.822 299.515 85.7205 299.534C85.619 299.552 85.5149 299.55 85.4141 299.528C85.3134 299.506 85.2179 299.464 85.1333 299.406C85.0486 299.347 84.9763 299.272 84.9206 299.185C84.8649 299.098 84.8268 299.001 84.8085 298.9C80.5735 276.813 64.7154 261.65 60.8668 258.219C57.4179 269.902 56.3045 282.15 57.5901 294.263C58.615 304.89 60.8712 315.363 64.3136 325.469H85.3341C85.539 325.469 85.7356 325.551 85.8805 325.696C86.0255 325.84 86.1069 326.037 86.1069 326.242C86.1069 326.447 86.0255 326.644 85.8805 326.788C85.7356 326.933 85.539 327.015 85.3341 327.015H85.4268Z" fill="#231F20"/>
<path d="M96.3085 327.015H77.2046C77.0048 327.015 76.8128 326.938 76.6687 326.8C76.5247 326.661 76.4397 326.473 76.4317 326.273C76.2617 320.91 77.39 312.084 83.7735 300.538C84.1908 299.796 84.5926 299.07 84.9945 298.375C96.1694 279.472 106.463 279.456 106.865 279.456C107.041 279.46 107.21 279.523 107.345 279.635C107.479 279.747 107.572 279.902 107.607 280.074C111.95 300.167 102.8 317.865 96.9576 326.675C96.886 326.781 96.7892 326.867 96.6759 326.927C96.5626 326.986 96.4364 327.016 96.3085 327.015ZM77.9619 325.469H95.9066C101.548 316.845 110.065 299.997 106.247 281.064C103.959 281.404 95.4275 283.691 86.3392 299.163C85.9373 299.843 85.5355 300.554 85.1182 301.296C79.1984 312.007 77.931 320.245 77.9619 325.469Z" fill="#231F20"/>
<path d="M92.8308 356.537H55.3649L49.3369 326.258H98.8742L92.8308 356.537Z" fill="#231F20"/>
<path d="M53.3862 79.4055C53.6105 91.8235 58.7011 103.657 67.5623 112.36C76.4236 121.063 88.3473 125.939 100.767 125.939C113.187 125.939 125.111 121.063 133.972 112.36C142.834 103.657 147.924 91.8235 148.149 79.4055H100.775V32.0166C88.2081 32.0207 76.1569 37.0148 67.2706 45.901C58.3844 54.7873 53.3903 66.8384 53.3862 79.4055Z" fill="#BAE6FD"/>
<path d="M108.426 25.0303V72.4192H155.815C155.811 59.8521 150.817 47.8009 141.93 38.9147C133.044 30.0284 120.993 25.0344 108.426 25.0303Z" fill="#E6E7E8"/>
<path d="M92.6451 182.715H60.187V211.247H92.6451V182.715Z" fill="#BAE6FD"/>
<path d="M77.8997 179.764H74.1284V185.498H77.8997V179.764Z" fill="#E6E7E8"/>
<path d="M76.0288 191.865H66.1986C65.9936 191.865 65.7971 191.784 65.6521 191.639C65.5072 191.494 65.4258 191.297 65.4258 191.092C65.4258 190.887 65.5072 190.691 65.6521 190.546C65.7971 190.401 65.9936 190.319 66.1986 190.319H76.0288C76.2337 190.319 76.4303 190.401 76.5752 190.546C76.7202 190.691 76.8016 190.887 76.8016 191.092C76.8016 191.297 76.7202 191.494 76.5752 191.639C76.4303 191.784 76.2337 191.865 76.0288 191.865Z" fill="white"/>
<path d="M83.5714 198.048H66.1986C65.9936 198.048 65.7971 197.966 65.6521 197.821C65.5072 197.676 65.4258 197.48 65.4258 197.275C65.4258 197.07 65.5072 196.873 65.6521 196.728C65.7971 196.583 65.9936 196.502 66.1986 196.502H83.5714C83.7764 196.502 83.973 196.583 84.1179 196.728C84.2628 196.873 84.3442 197.07 84.3442 197.275C84.3442 197.48 84.2628 197.676 84.1179 197.821C83.973 197.966 83.7764 198.048 83.5714 198.048Z" fill="white"/>
<path d="M87.637 192.097H80.388C80.1831 192.097 79.9865 192.016 79.8416 191.871C79.6967 191.726 79.6152 191.53 79.6152 191.325C79.6152 191.12 79.6967 190.923 79.8416 190.778C79.9865 190.633 80.1831 190.552 80.388 190.552H87.637C87.842 190.552 88.0386 190.633 88.1835 190.778C88.3284 190.923 88.4098 191.12 88.4098 191.325C88.4098 191.53 88.3284 191.726 88.1835 191.871C88.0386 192.016 87.842 192.097 87.637 192.097Z" fill="white"/>
<path d="M48.5788 18.1836H19.9229V43.3618H48.5788V18.1836Z" fill="#BAE6FD"/>
<path d="M35.534 15.5869H32.2109V20.6566H35.534V15.5869Z" fill="#E6E7E8"/>
<path d="M43.741 26.1428H25.1935C25.0541 26.1428 24.9204 26.0875 24.8219 25.9889C24.7233 25.8904 24.668 25.7567 24.668 25.6173C24.668 25.4779 24.7233 25.3443 24.8219 25.2457C24.9204 25.1472 25.0541 25.0918 25.1935 25.0918H43.741C43.8804 25.0918 44.014 25.1472 44.1126 25.2457C44.2111 25.3443 44.2665 25.4779 44.2665 25.6173C44.2665 25.7567 44.2111 25.8904 44.1126 25.9889C44.014 26.0875 43.8804 26.1428 43.741 26.1428Z" fill="white"/>
<path d="M43.741 31.5527H25.1935C25.0676 31.5312 24.9535 31.4659 24.8711 31.3683C24.7888 31.2707 24.7437 31.1472 24.7437 31.0195C24.7437 30.8918 24.7888 30.7682 24.8711 30.6707C24.9535 30.5731 25.0676 30.5077 25.1935 30.4862H43.741C43.8186 30.473 43.8982 30.4768 43.9742 30.4975C44.0502 30.5182 44.1208 30.5552 44.1809 30.606C44.2411 30.6568 44.2895 30.7201 44.3227 30.7915C44.3559 30.8629 44.3731 30.9407 44.3731 31.0195C44.3731 31.0982 44.3559 31.176 44.3227 31.2475C44.2895 31.3189 44.2411 31.3822 44.1809 31.433C44.1208 31.4837 44.0502 31.5208 43.9742 31.5415C43.8982 31.5621 43.8186 31.566 43.741 31.5527Z" fill="white"/>
<path d="M37.0179 36.9475H25.2247C25.0854 36.9475 24.9517 36.8921 24.8531 36.7936C24.7546 36.695 24.6992 36.5614 24.6992 36.422C24.6992 36.2826 24.7546 36.149 24.8531 36.0504C24.9517 35.9518 25.0854 35.8965 25.2247 35.8965H37.0179C37.1572 35.8965 37.2909 35.9518 37.3895 36.0504C37.488 36.149 37.5434 36.2826 37.5434 36.422C37.5434 36.5614 37.488 36.695 37.3895 36.7936C37.2909 36.8921 37.1572 36.9475 37.0179 36.9475Z" fill="white"/>
<path d="M108.009 146.702H55.5656C55.3931 146.677 55.2355 146.59 55.1215 146.458C55.0075 146.326 54.9448 146.158 54.9448 145.983C54.9448 145.809 55.0075 145.64 55.1215 145.509C55.2355 145.377 55.3931 145.29 55.5656 145.265H108.009C108.181 145.29 108.339 145.377 108.453 145.509C108.567 145.64 108.629 145.809 108.629 145.983C108.629 146.158 108.567 146.326 108.453 146.458C108.339 146.59 108.181 146.677 108.009 146.702Z" fill="#D1D3D4"/>
<path d="M127.777 146.702H117.792C117.62 146.677 117.462 146.59 117.348 146.458C117.234 146.326 117.171 146.158 117.171 145.983C117.171 145.809 117.234 145.64 117.348 145.509C117.462 145.377 117.62 145.29 117.792 145.265H127.777C127.949 145.29 128.107 145.377 128.221 145.509C128.335 145.64 128.398 145.809 128.398 145.983C128.398 146.158 128.335 146.326 128.221 146.458C128.107 146.59 127.949 146.677 127.777 146.702Z" fill="#D1D3D4"/>
<path d="M146.232 145.821H136.263C136.074 145.821 135.893 145.746 135.76 145.613C135.627 145.48 135.552 145.299 135.552 145.11C135.556 144.923 135.632 144.745 135.764 144.612C135.897 144.48 136.075 144.403 136.263 144.399H146.232C146.421 144.399 146.601 144.474 146.735 144.608C146.868 144.741 146.943 144.922 146.943 145.11C146.945 145.204 146.928 145.298 146.893 145.385C146.858 145.472 146.806 145.551 146.739 145.618C146.673 145.684 146.594 145.737 146.507 145.772C146.419 145.807 146.326 145.824 146.232 145.821Z" fill="#D1D3D4"/>
<path d="M132.444 158.882H55.1631C54.9758 158.878 54.7973 158.802 54.6648 158.669C54.5323 158.537 54.4561 158.358 54.4521 158.171C54.4521 157.983 54.5271 157.802 54.6604 157.668C54.7937 157.535 54.9746 157.46 55.1631 157.46H132.444C132.538 157.458 132.632 157.475 132.719 157.51C132.806 157.545 132.885 157.597 132.952 157.664C133.018 157.73 133.071 157.809 133.106 157.897C133.141 157.984 133.158 158.077 133.155 158.171C133.155 158.264 133.137 158.357 133.101 158.443C133.066 158.529 133.013 158.608 132.947 158.674C132.881 158.74 132.803 158.792 132.716 158.828C132.63 158.864 132.538 158.882 132.444 158.882Z" fill="#D1D3D4"/>
<path d="M80.4963 171.062H55.3799C55.1914 171.062 55.0105 170.987 54.8772 170.853C54.7439 170.72 54.6689 170.539 54.6689 170.351C54.6729 170.163 54.7491 169.985 54.8816 169.852C55.014 169.72 55.1926 169.644 55.3799 169.64H80.4963C80.6837 169.644 80.8622 169.72 80.9947 169.852C81.1272 169.985 81.2034 170.163 81.2073 170.351C81.2073 170.539 81.1324 170.72 80.9991 170.853C80.8658 170.987 80.6849 171.062 80.4963 171.062Z" fill="#D1D3D4"/>
<path d="M140.698 170.628H96.0139C95.92 170.63 95.8266 170.613 95.7393 170.578C95.6521 170.543 95.5729 170.491 95.5065 170.424C95.44 170.358 95.3877 170.279 95.3527 170.192C95.3177 170.104 95.3008 170.011 95.3029 169.917C95.3029 169.728 95.3778 169.548 95.5112 169.414C95.6445 169.281 95.8253 169.206 96.0139 169.206H140.698C140.885 169.21 141.064 169.286 141.196 169.419C141.329 169.551 141.405 169.73 141.409 169.917C141.409 170.106 141.334 170.286 141.201 170.42C141.067 170.553 140.887 170.628 140.698 170.628Z" fill="#D1D3D4"/>
<path d="M108.009 146.749H55.5658C55.3608 146.749 55.1643 146.667 55.0193 146.522C54.8744 146.377 54.793 146.181 54.793 145.976C54.7969 145.772 54.8796 145.578 55.0237 145.434C55.1678 145.29 55.3621 145.207 55.5658 145.203H108.009C108.214 145.203 108.41 145.285 108.555 145.429C108.7 145.574 108.782 145.771 108.782 145.976C108.782 146.181 108.7 146.377 108.555 146.522C108.41 146.667 108.214 146.749 108.009 146.749Z" fill="#E6E7E8"/>
<path d="M127.778 146.749H117.793C117.588 146.749 117.391 146.667 117.246 146.522C117.101 146.377 117.02 146.181 117.02 145.976C117.024 145.772 117.107 145.578 117.251 145.434C117.395 145.29 117.589 145.207 117.793 145.203H127.778C127.981 145.207 128.176 145.29 128.32 145.434C128.464 145.578 128.546 145.772 128.55 145.976C128.55 146.181 128.469 146.377 128.324 146.522C128.179 146.667 127.983 146.749 127.778 146.749Z" fill="#E6E7E8"/>
<path d="M146.232 145.883H136.263C136.058 145.883 135.862 145.801 135.717 145.656C135.572 145.511 135.49 145.315 135.49 145.11C135.49 144.905 135.572 144.708 135.717 144.563C135.862 144.418 136.058 144.337 136.263 144.337H146.232C146.437 144.337 146.634 144.418 146.779 144.563C146.924 144.708 147.005 144.905 147.005 145.11C147.005 145.315 146.924 145.511 146.779 145.656C146.634 145.801 146.437 145.883 146.232 145.883Z" fill="#E6E7E8"/>
<path d="M132.445 158.944H55.1639C54.959 158.944 54.7624 158.863 54.6175 158.718C54.4725 158.573 54.3911 158.376 54.3911 158.171C54.3911 157.966 54.4725 157.77 54.6175 157.625C54.7624 157.48 54.959 157.398 55.1639 157.398H132.445C132.65 157.398 132.847 157.48 132.992 157.625C133.137 157.77 133.218 157.966 133.218 158.171C133.218 158.376 133.137 158.573 132.992 158.718C132.847 158.863 132.65 158.944 132.445 158.944Z" fill="#E6E7E8"/>
<path d="M80.4966 171.123H55.3802C55.1753 171.123 54.9787 171.041 54.8338 170.896C54.6888 170.751 54.6074 170.555 54.6074 170.35C54.6114 170.146 54.6941 169.952 54.8382 169.808C54.9822 169.664 55.1765 169.581 55.3802 169.577H80.4966C80.7016 169.577 80.8982 169.659 81.0431 169.803C81.188 169.948 81.2695 170.145 81.2695 170.35C81.2695 170.555 81.188 170.751 81.0431 170.896C80.8982 171.041 80.7016 171.123 80.4966 171.123Z" fill="#E6E7E8"/>
<path d="M140.699 170.69H96.0145C95.8095 170.69 95.613 170.609 95.4681 170.464C95.3231 170.319 95.2417 170.122 95.2417 169.917C95.2417 169.712 95.3231 169.516 95.4681 169.371C95.613 169.226 95.8095 169.145 96.0145 169.145H140.699C140.904 169.145 141.1 169.226 141.245 169.371C141.39 169.516 141.471 169.712 141.471 169.917C141.471 170.122 141.39 170.319 141.245 170.464C141.1 170.609 140.904 170.69 140.699 170.69Z" fill="#E6E7E8"/>
<path d="M191.844 132.344H175.862V177.661H191.844V132.344Z" fill="#BAE6FD"/>
<path d="M219.417 147.738H203.436V177.677H219.417V147.738Z" fill="#E6E7E8"/>
<path d="M246.976 138.975H230.994V177.662H246.976V138.975Z" fill="#E6E7E8"/>
<path d="M253.915 35.0622H170.452C170.247 35.0622 170.05 34.9808 169.905 34.8359C169.76 34.6909 169.679 34.4944 169.679 34.2894C169.679 34.0845 169.76 33.8879 169.905 33.743C170.05 33.598 170.247 33.5166 170.452 33.5166H253.915C254.12 33.5166 254.317 33.598 254.462 33.743C254.607 33.8879 254.688 34.0845 254.688 34.2894C254.684 34.4931 254.601 34.6874 254.457 34.8315C254.313 34.9756 254.119 35.0583 253.915 35.0622Z" fill="#D1D3D4"/>
<path d="M235.909 47.2409H171.704C171.499 47.2409 171.302 47.1595 171.158 47.0146C171.013 46.8697 170.931 46.6731 170.931 46.4681C170.935 46.2644 171.018 46.0701 171.162 45.926C171.306 45.782 171.5 45.6993 171.704 45.6953H235.909C236.114 45.6953 236.311 45.7767 236.456 45.9217C236.601 46.0666 236.682 46.2632 236.682 46.4681C236.682 46.6731 236.601 46.8697 236.456 47.0146C236.311 47.1595 236.114 47.2409 235.909 47.2409Z" fill="#D1D3D4"/>
<path d="M244.92 58.9421H170.483C170.278 58.9421 170.081 58.8607 169.936 58.7158C169.791 58.5708 169.71 58.3743 169.71 58.1693C169.71 57.9643 169.791 57.7678 169.936 57.6228C170.081 57.4779 170.278 57.3965 170.483 57.3965H244.92C245.124 57.4004 245.318 57.4831 245.462 57.6272C245.606 57.7713 245.689 57.9656 245.693 58.1693C245.693 58.3743 245.611 58.5708 245.467 58.7158C245.322 58.8607 245.125 58.9421 244.92 58.9421Z" fill="#D1D3D4"/>
<path d="M256.775 46.6687H244.92C244.715 46.6687 244.518 46.5873 244.373 46.4423C244.228 46.2974 244.147 46.1008 244.147 45.8959C244.147 45.6909 244.228 45.4943 244.373 45.3494C244.518 45.2045 244.715 45.123 244.92 45.123H256.775C256.98 45.123 257.176 45.2045 257.321 45.3494C257.466 45.4943 257.548 45.6909 257.548 45.8959C257.548 46.1008 257.466 46.2974 257.321 46.4423C257.176 46.5873 256.98 46.6687 256.775 46.6687Z" fill="#D1D3D4"/>
<path d="M215.43 118.464H171.905C171.7 118.464 171.504 118.382 171.359 118.237C171.214 118.093 171.132 117.896 171.132 117.691V82.0179C171.132 81.813 171.214 81.6164 171.359 81.4715C171.504 81.3265 171.7 81.2451 171.905 81.2451C172.11 81.2451 172.307 81.3265 172.452 81.4715C172.597 81.6164 172.678 81.813 172.678 82.0179V116.918H215.43C215.635 116.918 215.831 117 215.976 117.145C216.121 117.289 216.203 117.486 216.203 117.691C216.203 117.896 216.121 118.093 215.976 118.237C215.831 118.382 215.635 118.464 215.43 118.464Z" fill="#E6E7E8"/>
<path d="M171.905 118.464C171.752 118.469 171.601 118.428 171.472 118.346C171.343 118.264 171.242 118.145 171.182 118.005C171.122 117.865 171.105 117.709 171.135 117.559C171.165 117.409 171.239 117.272 171.348 117.165L189.618 97.5822C189.701 97.4959 189.802 97.4301 189.915 97.3899C190.028 97.3496 190.148 97.3361 190.267 97.3503C190.383 97.3603 190.496 97.3977 190.595 97.4595C190.695 97.5212 190.778 97.6057 190.839 97.7058L194.672 103.765L207.037 90.1632C207.109 90.0907 207.194 90.0332 207.288 89.994C207.383 89.9548 207.484 89.9346 207.586 89.9346C207.688 89.9346 207.789 89.9548 207.883 89.994C207.977 90.0332 208.062 90.0907 208.134 90.1632C208.206 90.2337 208.263 90.3178 208.302 90.4107C208.342 90.5036 208.362 90.6034 208.362 90.7041C208.362 90.8049 208.342 90.9046 208.302 90.9975C208.263 91.0904 208.206 91.1746 208.134 91.2451L195.089 105.604C195.008 105.694 194.907 105.764 194.795 105.81C194.682 105.855 194.561 105.875 194.44 105.867C194.32 105.856 194.204 105.817 194.101 105.753C193.999 105.688 193.914 105.6 193.853 105.496L190.035 99.3133L172.446 118.154C172.383 118.241 172.302 118.314 172.209 118.367C172.115 118.421 172.012 118.453 171.905 118.464Z" fill="#E6E7E8"/>
<path d="M259.387 178.093H164.517C164.312 178.093 164.115 178.012 163.97 177.867C163.826 177.722 163.744 177.526 163.744 177.321C163.744 177.116 163.826 176.919 163.97 176.774C164.115 176.629 164.312 176.548 164.517 176.548H259.387C259.592 176.548 259.789 176.629 259.934 176.774C260.079 176.919 260.16 177.116 260.16 177.321C260.156 177.524 260.074 177.719 259.93 177.863C259.785 178.007 259.591 178.09 259.387 178.093Z" fill="#E6E7E8"/>
</svg>
