<svg width="78" height="97" viewBox="0 0 78 97" fill="none" xmlns="http://www.w3.org/2000/svg">
<path d="M65.5437 75.512H65.4451C64.9914 75.4876 64.566 75.2843 64.2621 74.9466C63.9582 74.609 63.8007 74.1646 63.8241 73.7109L66.2298 28.6188C66.2543 28.1639 66.4584 27.7373 66.7974 27.4329C67.1364 27.1285 67.5824 26.9712 68.0374 26.9956C68.4923 27.0201 68.9189 27.2243 69.2233 27.5633C69.5277 27.9022 69.685 28.3483 69.6605 28.8032L67.2547 73.891C67.2306 74.3287 67.0399 74.7405 66.7217 75.0419C66.4035 75.3434 65.982 75.5116 65.5437 75.512Z" fill="#231F20"/>
<path d="M8.76553 59.0621C7.9211 59.0761 7.08161 58.9307 6.29114 58.6333C3.16064 57.4068 2.1443 55.3784 1.84412 53.9161C0.746295 48.5299 7.25603 41.9602 8.0022 41.2311C8.16163 41.0672 8.35223 40.9368 8.56279 40.8476C8.77335 40.7584 8.99963 40.7122 9.22831 40.7117C9.45699 40.7112 9.68346 40.7564 9.8944 40.8447C10.1053 40.9331 10.2965 41.0627 10.4566 41.2259C10.6167 41.3892 10.7426 41.5828 10.8268 41.7955C10.911 42.0081 10.9518 42.2354 10.9469 42.464C10.942 42.6926 10.8914 42.918 10.7981 43.1268C10.7048 43.3355 10.5707 43.5236 10.4037 43.6798C8.10083 45.944 4.65299 50.5412 5.20619 53.2343C5.27909 53.5859 5.4978 54.658 7.54335 55.4599C11.2356 56.9094 18.7274 51.0043 22.5826 46.9432C22.9002 46.635 23.3247 46.4614 23.7674 46.4588C24.21 46.4562 24.6364 46.6249 24.9576 46.9294C25.2788 47.234 25.4698 47.6509 25.4907 48.0931C25.5117 48.5352 25.3609 48.9683 25.0699 49.3018C24.0235 50.3696 15.5712 59.0621 8.76553 59.0621Z" fill="#231F20"/>
<path d="M16.9861 22.4393C16.9861 22.4393 13.1266 20.5996 12.136 23.8416C11.1454 27.0836 10.9524 36.7539 10.0432 37.8646C9.07762 38.9092 8.04017 39.885 6.93848 40.7849L11.0982 49.0486L20.3267 44.8975C20.3267 44.8975 17.1105 26.9035 16.9861 22.4393Z" fill="white"/>
<path d="M11.0774 49.2586C11.0357 49.2579 10.995 49.246 10.9595 49.2241C10.924 49.2023 10.8951 49.1712 10.8758 49.1342L6.72041 40.8749C6.69726 40.8303 6.69016 40.7791 6.70031 40.7299C6.71047 40.6807 6.73725 40.6365 6.77616 40.6047C7.8655 39.7106 8.89279 38.7435 9.85091 37.7101C10.2797 37.1869 10.5714 34.1764 10.8501 31.2775C11.1288 28.3786 11.4204 25.3553 11.905 23.7772C12.0047 23.379 12.192 23.008 12.4531 22.6912C12.7142 22.3744 13.0426 22.1199 13.4145 21.946C14.9798 21.2599 16.9782 22.1991 17.0639 22.2419C17.0999 22.2591 17.1305 22.2857 17.1524 22.319C17.1743 22.3522 17.1867 22.3908 17.1883 22.4306C17.3298 26.8305 20.4946 44.6786 20.5246 44.8545C20.5338 44.9037 20.5261 44.9547 20.5027 44.999C20.4794 45.0433 20.4418 45.0785 20.396 45.0989L11.1674 49.2586C11.1377 49.2645 11.1071 49.2645 11.0774 49.2586ZM7.19213 40.832L11.176 48.7483L20.0572 44.7515C19.7356 42.9247 16.9439 26.9806 16.7509 22.5721C16.322 22.392 14.7654 21.8217 13.5904 22.3406C13.2781 22.4894 13.0029 22.706 12.7848 22.9745C12.5667 23.2431 12.4112 23.5568 12.3296 23.893C11.8579 25.4282 11.5705 28.4172 11.2918 31.3075C10.9316 35.0727 10.6743 37.4056 10.194 37.9931C9.26404 39.0154 8.26076 39.9685 7.19213 40.8448V40.832Z" fill="#231F20"/>
<path d="M37.9998 84.9765C37.5868 84.9813 37.1859 84.8369 36.8708 84.5698C36.5556 84.3028 36.3475 83.931 36.2845 83.5227L30.8855 48.2252C30.8166 47.7754 30.9293 47.3167 31.1988 46.95C31.4682 46.5832 31.8722 46.3385 32.3221 46.2697C32.7719 46.2009 33.2306 46.3136 33.5973 46.583C33.9641 46.8525 34.2087 47.2565 34.2776 47.7063L39.7152 83.0038C39.7493 83.2266 39.7392 83.4538 39.6855 83.6727C39.6318 83.8915 39.5354 84.0976 39.402 84.2792C39.2686 84.4608 39.1007 84.6143 38.908 84.731C38.7152 84.8477 38.5013 84.9253 38.2786 84.9593C38.1863 84.9723 38.0931 84.978 37.9998 84.9765Z" fill="#231F20"/>
<path d="M48.1974 84.9766H48.0002C47.7763 84.951 47.5597 84.8816 47.3626 84.7723C47.1656 84.663 46.992 84.5159 46.8518 84.3395C46.7117 84.1631 46.6076 83.9608 46.5456 83.7441C46.4837 83.5275 46.465 83.3007 46.4907 83.0769C47.7472 72.1887 49.6812 54.3963 49.6126 52.2564C49.523 51.8676 49.5718 51.4596 49.7506 51.1028C49.9294 50.7461 50.227 50.4628 50.5921 50.3018C50.9573 50.1408 51.3672 50.1122 51.7512 50.2208C52.1352 50.3294 52.4693 50.5686 52.6959 50.897C53.1934 51.6132 53.3435 51.8276 51.6153 68.0033C50.7962 75.688 49.8999 83.3942 49.8999 83.4714C49.8486 83.8868 49.6473 84.2691 49.3337 84.5464C49.0201 84.8236 48.616 84.9766 48.1974 84.9766Z" fill="#231F20"/>
<path d="M42.391 96.585C57.5558 96.585 69.8493 95.1239 69.8493 93.3215C69.8493 91.5192 57.5558 90.0581 42.391 90.0581C27.2261 90.0581 14.9326 91.5192 14.9326 93.3215C14.9326 95.1239 27.2261 96.585 42.391 96.585Z" fill="#E6E7E8"/>
<path d="M41.683 62.0123C57.1842 62.0123 69.7504 49.4461 69.7504 33.945C69.7504 18.4438 57.1842 5.87769 41.683 5.87769C26.1819 5.87769 13.6157 18.4438 13.6157 33.945C13.6157 49.4461 26.1819 62.0123 41.683 62.0123Z" fill="#68E1FD"/>
<path d="M41.7132 5.86904C48.9283 5.86466 55.8687 8.63521 61.0974 13.607C66.3261 18.5788 69.4425 25.371 69.8013 32.5772C70.1602 39.7834 67.7339 46.8516 63.025 52.3182C58.316 57.7848 51.6851 61.2311 44.5052 61.9435C37.3254 62.6559 30.1465 60.5798 24.4552 56.1451C18.7638 51.7104 14.9959 45.2567 13.9317 38.1205C12.8675 30.9843 14.5885 23.7122 18.7382 17.8098C22.888 11.9075 29.1487 7.82716 36.2241 6.41366C38.0314 6.05238 39.87 5.86996 41.7132 5.86904ZM41.7132 5.4402C34.1498 5.43224 26.8931 8.42913 21.5394 13.7716C16.1857 19.114 13.1735 26.3644 13.1655 33.9278C13.1576 41.4911 16.1545 48.7478 21.4969 54.1015C26.8394 59.4553 34.0898 62.4674 41.6531 62.4754C45.3981 62.4793 49.1072 61.7456 52.5686 60.3161C56.03 58.8866 59.176 56.7893 61.8269 54.144C64.4778 51.4987 66.5817 48.3571 68.0185 44.8987C69.4552 41.4403 70.1968 37.7328 70.2007 33.9878C70.2047 30.2428 69.4709 26.5337 68.0414 23.0723C66.6119 19.6109 64.5147 16.4649 61.8693 13.814C59.224 11.1631 56.0825 9.05925 52.6241 7.62246C49.1657 6.18568 45.4581 5.44414 41.7132 5.4402Z" fill="#231F20"/>
<path d="M31.9589 34.2073C33.1659 33.9733 33.6941 31.4618 33.1388 28.5976C32.5835 25.7335 31.155 23.6013 29.948 23.8353C28.7411 24.0693 28.2128 26.5809 28.7681 29.445C29.3234 32.3092 30.752 34.4413 31.9589 34.2073Z" fill="#231F20"/>
<path d="M50.0825 30.6988C51.2894 30.4648 51.8177 27.9533 51.2624 25.0891C50.7071 22.225 49.2785 20.0928 48.0716 20.3268C46.8646 20.5608 46.3364 23.0723 46.8917 25.9365C47.447 28.8006 48.8755 30.9328 50.0825 30.6988Z" fill="#231F20"/>
<path d="M29.7961 55.0136C29.6472 55.0135 29.503 54.9616 29.388 54.867C29.273 54.7724 29.1945 54.6408 29.1657 54.4947C28.5096 51.1884 29.5945 47.762 32.1675 44.8373C34.7406 41.9127 38.4714 39.9186 42.7169 39.0824C51.5209 37.3327 59.7717 41.4067 61.114 48.1608C61.1469 48.3314 61.1108 48.5081 61.0135 48.6521C60.9162 48.7961 60.7657 48.8955 60.5951 48.9284C60.4245 48.9614 60.2478 48.9253 60.1038 48.828C59.9598 48.7307 59.8604 48.5802 59.8275 48.4096C58.6267 42.3544 51.0535 38.735 42.9442 40.3431C38.986 41.1279 35.4996 43.0277 33.1324 45.6907C30.7652 48.3538 29.8433 51.3428 30.4179 54.246C30.4507 54.4132 30.4158 54.5865 30.3209 54.728C30.2261 54.8695 30.079 54.9676 29.9119 55.0008L29.7961 55.0136Z" fill="#231F20"/>
<path d="M11.8386 48.7917L7.5875 40.2016C7.19777 39.414 6.24343 39.0916 5.45591 39.4813L5.03697 39.6886C4.24946 40.0784 3.92699 41.0327 4.31672 41.8202L8.56783 50.4103C8.95755 51.1979 9.91189 51.5203 10.6994 51.1306L11.1183 50.9233C11.9059 50.5336 12.2283 49.5792 11.8386 48.7917Z" fill="white"/>
<path d="M10.001 51.5188C9.66207 51.5188 9.32987 51.424 9.04192 51.2451C8.75397 51.0663 8.52175 50.8106 8.37145 50.5067L4.12169 41.93C4.01577 41.7166 3.95295 41.4844 3.93679 41.2467C3.92064 41.009 3.95147 40.7704 4.02753 40.5446C4.10359 40.3188 4.22339 40.1102 4.38009 39.9307C4.53678 39.7512 4.7273 39.6044 4.94076 39.4985L5.3696 39.2927C5.5821 39.1864 5.81356 39.1234 6.05058 39.1072C6.2876 39.091 6.52548 39.122 6.75045 39.1983C7.20637 39.3523 7.58264 39.6808 7.79681 40.1117L12.0466 48.6885C12.1525 48.9019 12.2153 49.1341 12.2315 49.3718C12.2476 49.6095 12.2168 49.8481 12.1407 50.0739C12.0647 50.2997 11.9449 50.5083 11.7882 50.6878C11.6315 50.8673 11.441 51.0141 11.2275 51.12L10.7987 51.3258C10.5506 51.4491 10.278 51.515 10.001 51.5188ZM8.77027 50.3138C8.93236 50.6385 9.21649 50.8858 9.56047 51.0015C9.90446 51.1172 10.2803 51.092 10.6057 50.9313L11.0345 50.7254C11.36 50.5641 11.6082 50.2803 11.7248 49.9363C11.8413 49.5922 11.8167 49.216 11.6563 48.89L7.40657 40.3133C7.24317 39.9878 6.95815 39.7398 6.61322 39.6229C6.44259 39.5656 6.26233 39.5425 6.08278 39.5551C5.90322 39.5676 5.7279 39.6154 5.56686 39.6958L5.13803 39.9016C4.97645 39.981 4.83219 40.0916 4.71357 40.227C4.59495 40.3625 4.50432 40.5201 4.44691 40.6907C4.38951 40.8613 4.36645 41.0416 4.37908 41.2212C4.39171 41.4008 4.43978 41.5761 4.5205 41.737L8.77027 50.3138Z" fill="#231F20"/>
<path d="M23.1517 38.4257C25.0009 38.0589 26.311 36.8086 26.0778 35.6331C25.8446 34.4576 24.1565 33.802 22.3073 34.1688C20.4581 34.5356 19.148 35.7859 19.3812 36.9614C19.6144 38.1369 21.3025 38.7925 23.1517 38.4257Z" fill="white"/>
<path d="M61.3831 31.0128C63.2324 30.646 64.5424 29.3957 64.3092 28.2202C64.076 27.0447 62.3879 26.3891 60.5387 26.756C58.6895 27.1228 57.3795 28.3731 57.6126 29.5486C57.8458 30.7241 59.5339 31.3797 61.3831 31.0128Z" fill="white"/>
<path d="M25.6963 26.7064C25.6963 26.7064 31.5542 24.1334 32.2875 20.2139L25.6963 26.7064Z" fill="#68E1FD"/>
<path d="M25.696 27.3496C25.5407 27.3609 25.3865 27.3155 25.2621 27.2218C25.1377 27.1281 25.0515 26.9925 25.0195 26.84C24.9876 26.6876 25.012 26.5287 25.0883 26.3929C25.1646 26.2571 25.2876 26.1537 25.4344 26.1017C25.4902 26.0759 31.0093 23.6016 31.6526 20.0765C31.6683 19.9921 31.7006 19.9115 31.7475 19.8395C31.7944 19.7675 31.855 19.7054 31.9259 19.6568C31.9967 19.6083 32.0765 19.5741 32.1606 19.5564C32.2447 19.5386 32.3314 19.5376 32.4159 19.5533C32.5004 19.5691 32.5809 19.6014 32.6529 19.6483C32.7249 19.6952 32.787 19.7558 32.8356 19.8267C32.8841 19.8975 32.9183 19.9773 32.936 20.0614C32.9538 20.1454 32.9548 20.2322 32.9391 20.3167C32.1543 24.5021 26.2278 27.178 25.9748 27.2767C25.8891 27.3231 25.7935 27.3481 25.696 27.3496Z" fill="#231F20"/>
<path d="M53.4078 21.3846C53.4078 21.3846 47.001 21.2302 44.8311 17.8982L53.4078 21.3846Z" fill="#68E1FD"/>
<path d="M53.4078 22.0232C53.1333 22.0232 46.6408 21.8174 44.3165 18.2452C44.2595 18.1762 44.2176 18.096 44.1934 18.0099C44.1692 17.9237 44.1632 17.8335 44.1759 17.7449C44.1885 17.6563 44.2195 17.5714 44.2669 17.4954C44.3143 17.4195 44.3769 17.3543 44.4509 17.304C44.5249 17.2537 44.6086 17.2193 44.6966 17.2032C44.7846 17.187 44.875 17.1894 44.962 17.2102C45.0491 17.231 45.1308 17.2697 45.2021 17.3239C45.2733 17.378 45.3324 17.4464 45.3757 17.5248C47.3312 20.5266 53.3606 20.7153 53.4249 20.7196C53.5956 20.7196 53.7592 20.7874 53.8798 20.908C54.0004 21.0286 54.0682 21.1922 54.0682 21.3628C54.0682 21.5334 54.0004 21.6971 53.8798 21.8177C53.7592 21.9383 53.5956 22.0061 53.4249 22.0061L53.4078 22.0232Z" fill="#231F20"/>
<path d="M11.4718 38.7866C11.4718 38.7866 11.3175 31.3978 13.0371 28.7047C14.7567 26.0116 18.4962 25.0124 17.69 27.9113C16.8837 30.8103 14.6881 34.2795 14.6881 34.2795C14.6881 34.2795 16.3048 40.4762 14.2936 44.1771" fill="white"/>
<path d="M14.2895 44.4002C14.2522 44.4003 14.2154 44.3915 14.1823 44.3744C14.1308 44.3463 14.0925 44.299 14.0756 44.2428C14.0588 44.1866 14.0647 44.1261 14.0922 44.0742C16.0391 40.4935 14.4867 34.3954 14.4696 34.3354C14.4618 34.3058 14.4601 34.2751 14.4646 34.2449C14.469 34.2146 14.4794 34.1856 14.4953 34.1596C14.521 34.1253 16.691 30.6817 17.4757 27.8514C17.6215 27.3368 17.6859 26.6764 17.197 26.4577C16.3393 26.076 14.3324 27.0923 13.226 28.8248C11.5621 31.4279 11.6907 38.7095 11.6907 38.7824C11.6913 38.8111 11.6862 38.8397 11.6757 38.8664C11.6653 38.8932 11.6496 38.9176 11.6297 38.9383C11.6098 38.959 11.586 38.9756 11.5597 38.9871C11.5334 38.9986 11.505 39.0048 11.4763 39.0054C11.4186 39.0054 11.3632 38.9831 11.3216 38.9432C11.28 38.9032 11.2555 38.8486 11.2533 38.791C11.2533 38.4865 11.1204 31.3035 12.8572 28.589C14.0193 26.7664 16.2192 25.5357 17.3814 26.0546C17.733 26.2089 18.2691 26.6678 17.9088 27.9672C17.1627 30.656 15.2672 33.765 14.907 34.3139C15.1128 35.1373 16.3908 40.7465 14.4782 44.2844C14.4599 44.3187 14.4327 44.3476 14.3996 44.3679C14.3664 44.3883 14.3284 44.3994 14.2895 44.4002Z" fill="#231F20"/>
<path d="M69.8492 66.6009C69.8492 66.6009 68.6785 73.2007 68.5627 75.2548C68.4469 77.309 65.3893 85.3282 61.4354 85.8128C57.4815 86.2974 63.4209 81.8546 63.3309 78.9514C63.2408 76.0482 60.9937 78.6169 60.1489 81.6316C59.3041 84.6463 57.696 81.4901 58.4336 78.7112C59.1712 75.9324 59.5614 75.8938 59.8016 73.5995C60.0417 71.3052 59.6429 63.9421 59.6429 63.9421L69.8492 66.6009Z" fill="white"/>
<path d="M60.9122 86.0658C60.4061 86.0658 60.0931 85.9457 59.943 85.697C59.6085 85.1309 60.2561 84.2218 61.1523 82.9568C62.0486 81.6917 63.1421 80.1522 63.1078 78.9643C63.0821 78.2138 62.9105 77.9265 62.7562 77.9094C62.2416 77.8493 60.9851 79.4446 60.3547 81.696C59.9902 82.9825 59.497 83.1583 59.1368 83.064C58.2791 82.8367 57.683 80.6582 58.2019 78.6598C58.4978 77.532 58.7423 76.8415 58.9395 76.2884C59.2775 75.4212 59.4883 74.5098 59.5656 73.5824C59.8015 71.331 59.407 64.0322 59.4027 63.955C59.4004 63.9206 59.4067 63.8862 59.4209 63.8548C59.4351 63.8234 59.4568 63.796 59.4841 63.7749C59.5112 63.7525 59.5432 63.7368 59.5775 63.7294C59.6119 63.7219 59.6475 63.7228 59.6814 63.732L69.9049 66.3865C69.9587 66.4007 70.0053 66.4346 70.0355 66.4814C70.0656 66.5282 70.0772 66.5846 70.0678 66.6395C70.0678 66.7039 68.8971 73.2522 68.7813 75.2677C68.6655 77.2832 65.5865 85.5255 61.4611 86.0315C61.279 86.0545 61.0957 86.0659 60.9122 86.0658ZM62.7304 77.4676H62.8076C63.2708 77.5234 63.5195 78.0208 63.5495 78.9471C63.5881 80.2808 62.486 81.8375 61.5125 83.2098C60.865 84.1189 60.136 85.1481 60.3247 85.4654C60.3675 85.5341 60.5562 85.6884 61.4053 85.5855C65.2348 85.1181 68.2281 77.0903 68.3396 75.2377C68.4511 73.3851 69.3945 67.9003 69.5961 66.7596L59.8615 64.2295C59.9344 65.6575 60.2217 71.5754 60.0073 73.6253C59.9235 74.5876 59.7041 75.5333 59.3555 76.4342C59.1625 76.9788 58.9267 77.6563 58.6308 78.767C58.1462 80.6239 58.7508 82.4979 59.2526 82.6265C59.4155 82.6694 59.6814 82.4164 59.9301 81.5673C60.4876 79.5947 61.7527 77.4676 62.7304 77.4676Z" fill="#231F20"/>
<path d="M59.5082 65.4438L70.5555 68.4371C71.4676 68.6842 72.4074 68.1451 72.6545 67.233L72.7139 67.0136C72.9611 66.1015 72.422 65.1618 71.5099 64.9147L60.4626 61.9215C59.5505 61.6743 58.6107 62.2134 58.3636 63.1255L58.3042 63.3449C58.057 64.257 58.5961 65.1967 59.5082 65.4438Z" fill="white"/>
<path d="M71.0197 68.7238C70.8488 68.7223 70.6788 68.6993 70.5137 68.6551L59.4583 65.6533C58.9637 65.5188 58.5428 65.1935 58.2879 64.7489C58.033 64.3042 57.965 63.7766 58.0989 63.2818L58.1589 63.0631C58.2917 62.5708 58.6136 62.1508 59.0546 61.8946C59.4955 61.6384 60.0197 61.5667 60.5132 61.6951L71.5643 64.697C71.8091 64.7631 72.0384 64.8768 72.2391 65.0316C72.4399 65.1863 72.6082 65.3791 72.7345 65.5989C72.8607 65.8188 72.9424 66.0613 72.9749 66.3127C73.0074 66.5641 72.99 66.8195 72.9237 67.0642L72.8637 67.2872C72.7522 67.6959 72.5098 68.0568 72.1737 68.3147C71.8376 68.5726 71.4262 68.7133 71.0026 68.7152L71.0197 68.7238ZM60.0244 62.0854C59.6972 62.0862 59.3794 62.1945 59.1198 62.3937C58.8603 62.5928 58.6733 62.8717 58.5878 63.1875L58.5277 63.4062C58.4764 63.5949 58.4627 63.7918 58.4876 63.9857C58.5124 64.1796 58.5752 64.3668 58.6723 64.5364C58.7695 64.7061 58.8992 64.855 59.0539 64.9745C59.2086 65.094 59.3854 65.1819 59.5741 65.233L70.6252 68.2349C70.8138 68.2862 71.0108 68.2999 71.2047 68.2751C71.3986 68.2502 71.5858 68.1875 71.7554 68.0903C71.9251 67.9931 72.0739 67.8634 72.1935 67.7087C72.313 67.554 72.4008 67.3772 72.452 67.1885L72.5121 66.9655C72.5651 66.7749 72.5795 66.5756 72.5545 66.3793C72.5295 66.183 72.4657 65.9937 72.3666 65.8224C72.2676 65.6511 72.1354 65.5012 71.9778 65.3816C71.8201 65.262 71.6402 65.1751 71.4486 65.1258L60.3974 62.124C60.2695 62.0946 60.1384 62.0817 60.0072 62.0854H60.0244Z" fill="#231F20"/>
<path d="M42.3908 77.652C42.3908 77.652 30.2891 75.2891 30.1904 76.4684C30.0918 77.6477 30.585 87.3051 30.585 87.3051C30.585 87.3051 19.0064 93.5275 20.7904 94.3166C22.5743 95.1056 42.3908 91.4434 42.3908 91.4434V77.652Z" fill="white"/>
<path d="M21.7937 94.6425C21.4247 94.6652 21.0546 94.6231 20.7002 94.5181C20.6111 94.4855 20.5336 94.4275 20.4772 94.3513C20.4208 94.2751 20.388 94.184 20.3828 94.0893C20.3828 93.8148 20.3485 93.0987 25.4602 89.9853C27.6259 88.6688 29.8215 87.4681 30.3575 87.1764C30.2932 85.9414 29.8772 77.5705 29.9716 76.4555C29.9778 76.3963 29.9962 76.3391 30.0258 76.2874C30.0553 76.2357 30.0953 76.1908 30.1431 76.1554C31.2624 75.2977 40.581 77.0774 42.4336 77.4419C42.4847 77.451 42.5308 77.478 42.5638 77.5181C42.5968 77.5582 42.6145 77.6087 42.6137 77.6606V91.4519C42.6136 91.5036 42.5957 91.5537 42.5628 91.5936C42.53 91.6335 42.4843 91.6607 42.4336 91.6706C40.6153 91.9966 26.1507 94.6425 21.7937 94.6425ZM31.4082 76.3483C30.8507 76.3483 30.4991 76.3998 30.4047 76.5113C30.3147 77.6434 30.8035 87.1979 30.8078 87.2965C30.8088 87.3381 30.7985 87.3791 30.7781 87.4153C30.7578 87.4515 30.728 87.4816 30.692 87.5024C25.8205 90.1225 20.7988 93.2959 20.8288 94.0721C20.8288 94.0721 20.8288 94.0979 20.8803 94.115C22.2697 94.7325 36.5414 92.2925 42.172 91.259V77.8364C37.8922 77.0045 33.3808 76.3483 31.4082 76.3483Z" fill="#231F20"/>
<path d="M43.7197 77.652C43.7197 77.652 55.8215 75.2891 55.9201 76.4684C56.0187 77.6477 55.5256 87.3051 55.5256 87.3051C55.5256 87.3051 67.1041 93.5275 65.3202 94.3166C63.5362 95.1056 43.7197 91.4434 43.7197 91.4434V77.652Z" fill="white"/>
<path d="M64.317 94.6424C59.9644 94.6424 45.4954 91.9965 43.6772 91.662C43.6265 91.652 43.5808 91.6248 43.5479 91.5849C43.5151 91.545 43.4971 91.4949 43.4971 91.4433V77.6519C43.4971 77.6002 43.5151 77.5502 43.5479 77.5103C43.5808 77.4704 43.6265 77.4431 43.6772 77.4332C45.534 77.073 54.8269 75.289 55.9676 76.1467C56.0167 76.1809 56.0575 76.2255 56.0872 76.2775C56.1169 76.3294 56.1346 76.3872 56.1392 76.4469C56.2335 77.5661 55.8175 85.937 55.7532 87.1678C57.7001 88.2184 65.7794 92.6697 65.7279 94.0806C65.7228 94.1753 65.69 94.2664 65.6336 94.3426C65.5772 94.4189 65.4996 94.4768 65.4106 94.5094C65.0567 94.6173 64.6865 94.6623 64.317 94.6424ZM43.9388 91.2589C49.5694 92.2924 63.841 94.7282 65.2305 94.1149C65.2648 94.1149 65.2862 94.0849 65.2862 94.072C65.3162 93.2958 60.2946 90.1224 55.423 87.5023C55.3864 87.4822 55.3561 87.4523 55.3356 87.4159C55.3151 87.3795 55.3053 87.3381 55.3072 87.2964C55.3072 87.1978 55.7961 77.6433 55.7017 76.4898C55.2729 75.9923 49.4193 76.7728 43.9388 77.8363V91.2589Z" fill="#231F20"/>
<path d="M12.0592 3.12886C11.3516 1.91526 9.71349 1.49071 8.34979 1.84235C6.98609 2.194 5.85825 3.12886 4.87622 4.13234C4.55586 4.4006 4.33901 4.77212 4.26298 5.18299C4.23725 5.61182 4.63178 6.04066 5.02202 5.90343C3.13943 5.56894 1.59133 7.38292 0.763679 9.10255C0.334843 9.96022 0.00464161 10.9465 0.390594 11.7999C0.776546 12.6533 1.8229 13.0864 2.7835 13.1894C4.61268 13.3838 6.44513 12.8526 7.88664 11.7099C8.45996 12.2679 9.16579 12.671 9.93776 12.8811C10.7097 13.0913 11.5225 13.1017 12.2996 12.9113C13.0766 12.7209 13.7925 12.3359 14.3799 11.7927C14.9672 11.2494 15.4068 10.5657 15.6571 9.80584C15.2969 10.0331 15.863 10.492 16.2833 10.5134C17.3082 10.5735 18.3674 10.6292 19.3237 10.2518C21.4936 9.39416 21.7509 4.17093 20.3014 2.46845C18.7662 0.654479 13.0541 0.748823 12.0592 3.12886Z" fill="white"/>
<path d="M3.54684 13.4423C3.28322 13.443 3.01978 13.4287 2.75778 13.3995C1.49272 13.2579 0.557856 12.7047 0.184769 11.8814C-0.244067 10.9122 0.154751 9.83154 0.557857 8.9996C0.960963 8.16765 2.2003 5.942 4.1515 5.65897C4.06883 5.50518 4.03024 5.33155 4.04 5.15723C4.11658 4.694 4.35519 4.27302 4.71328 3.96935C5.57095 3.07308 6.78027 1.99242 8.28977 1.61504C9.54197 1.30628 11.1587 1.61504 12.0335 2.7C12.5524 1.89807 13.6502 1.31914 15.1125 1.09186C17.0037 0.795965 19.4481 1.11759 20.4644 2.30976C21.3778 3.38185 21.6952 5.82621 21.1849 7.88462C20.8504 9.21402 20.22 10.1274 19.4009 10.4576C18.3846 10.8565 17.2567 10.7921 16.2661 10.7364C16.0307 10.7151 15.8061 10.6273 15.6186 10.4834C15.2887 11.1764 14.8012 11.7827 14.1951 12.2536C13.589 12.7246 12.8811 13.0471 12.128 13.1955C11.3749 13.3439 10.5975 13.3139 9.85807 13.1081C9.11862 12.9022 8.43761 12.5262 7.86951 12.01C6.62166 12.9428 5.10479 13.4454 3.54684 13.4423ZM4.58034 6.07493C3.03653 6.07493 1.71571 7.6359 0.960961 9.19257C0.600738 9.93875 0.231939 10.9079 0.592161 11.7013C1.021 12.6576 2.30751 12.902 2.80925 12.9578C4.58122 13.1518 6.35781 12.6351 7.74943 11.5212C7.78994 11.4861 7.8417 11.4669 7.89524 11.4669C7.94878 11.4669 8.00053 11.4861 8.04104 11.5212C8.56465 12.0389 9.20798 12.4193 9.91391 12.6287C10.6199 12.8381 11.3666 12.87 12.0878 12.7215C12.809 12.573 13.4824 12.2488 14.0482 11.7775C14.614 11.3063 15.0547 10.7027 15.3313 10.0202C15.3202 9.93552 15.3347 9.84945 15.3729 9.77304C15.4111 9.69664 15.4713 9.63339 15.5457 9.59139C15.5824 9.56456 15.6267 9.55009 15.6722 9.55009C15.7177 9.55009 15.762 9.56456 15.7987 9.59139C15.8345 9.61869 15.8609 9.65658 15.8739 9.69968C15.887 9.74279 15.8862 9.78893 15.8716 9.83154C15.8716 9.89158 15.833 9.95161 15.8115 10.0116C15.9419 10.1457 16.1146 10.2305 16.3004 10.2518C17.2481 10.3075 18.3202 10.3676 19.2465 10.0031C19.9284 9.73291 20.4687 8.93098 20.7646 7.74311C21.2363 5.85194 20.9533 3.52765 20.1342 2.57135C19.3151 1.61504 17.2181 1.22909 15.1855 1.52927C13.6759 1.76513 12.6124 2.38695 12.2651 3.21031C12.2495 3.2493 12.223 3.28297 12.1888 3.3073C12.1545 3.33163 12.114 3.3456 12.0721 3.34754C12.0313 3.35028 11.9904 3.34173 11.9541 3.32282C11.9178 3.30391 11.8874 3.27537 11.8663 3.24033C11.1801 2.06103 9.602 1.74798 8.40126 2.04817C6.99897 2.39552 5.86684 3.42473 5.0349 4.27811C4.75504 4.51092 4.56169 4.83116 4.48599 5.18724C4.48549 5.2701 4.5042 5.35195 4.54066 5.42635C4.57712 5.50076 4.63034 5.5657 4.69612 5.61608C4.81191 5.61608 4.93198 5.61608 5.05635 5.65897C5.10394 5.66733 5.14743 5.69122 5.18001 5.7269C5.2126 5.76259 5.23245 5.80807 5.23646 5.85623C5.24035 5.90485 5.2282 5.9534 5.20187 5.99445C5.17553 6.0355 5.13647 6.06678 5.09065 6.08351C4.92249 6.14351 4.73739 6.13425 4.57605 6.05778L4.58034 6.07493Z" fill="#D1D3D4"/>
<path d="M15.5754 10.0331C15.3328 10.0291 15.0906 10.009 14.8507 9.97304C13.9715 9.84439 12.8566 9.48846 12.5392 8.50642C12.5216 8.45068 12.5265 8.39024 12.553 8.3381C12.5794 8.28596 12.6253 8.24631 12.6807 8.22768C12.7365 8.21001 12.7969 8.21494 12.8491 8.24141C12.9012 8.26788 12.9409 8.31377 12.9595 8.36919C13.2168 9.17541 14.2975 9.44557 14.915 9.53563C15.375 9.62794 15.8506 9.60585 16.3001 9.4713C16.6611 9.31117 16.9766 9.06355 17.2178 8.75086C17.5915 8.30129 17.8819 7.78866 18.0755 7.23707C18.0948 7.1802 18.136 7.13334 18.1899 7.1068C18.2437 7.08026 18.306 7.07622 18.3628 7.09555C18.4197 7.11489 18.4665 7.15602 18.4931 7.2099C18.5196 7.26379 18.5237 7.326 18.5043 7.38287C18.2949 7.98602 17.9766 8.54563 17.5652 9.03389C17.2779 9.40823 16.9001 9.70336 16.4674 9.89156C16.1815 9.99422 15.879 10.0422 15.5754 10.0331Z" fill="#D1D3D4"/>
<path d="M61.8944 2.5156C61.1832 2.35719 60.4387 2.46552 59.8022 2.82001C59.1657 3.17451 58.6816 3.75046 58.4419 4.43844C58.2021 5.12642 58.2235 5.8785 58.5018 6.55178C58.7802 7.22507 59.2962 7.77264 59.9517 8.09047C60.2925 8.19515 60.614 8.35446 60.9038 8.56219C61.094 8.76984 61.2555 9.00205 61.3841 9.25262C62.2846 10.6935 64.2058 11.2681 65.8697 10.9294C67.5336 10.5906 68.9573 9.48419 70.0637 8.19339C69.9239 8.32265 69.8406 8.50172 69.8318 8.69189C69.823 8.88207 69.8893 9.06809 70.0165 9.20973C70.2879 9.4874 70.6383 9.67459 71.02 9.74578C72.1907 10.0588 73.4901 10.1746 74.5708 9.62142C75.1074 9.36759 75.5397 8.93603 75.7945 8.39987C76.0493 7.86372 76.1109 7.25596 75.9688 6.6796C76.1832 7.41291 77.1095 7.10844 77.4268 6.77823C77.8556 6.3494 77.8128 5.11006 77.7399 4.57402C77.5254 2.91871 75.9773 1.18621 74.1677 1.32773C73.808 1.40075 73.4396 1.42097 73.0741 1.38776C72.478 1.25911 72.1007 0.675898 71.556 0.397155C71.2288 0.254843 70.8708 0.197518 70.5155 0.230505C70.1601 0.263491 69.8189 0.385719 69.5234 0.585842C68.9309 0.986127 68.4201 1.4955 68.0181 2.08677C67.7694 1.47782 66.9847 1.33202 66.3285 1.34059C64.6132 1.36203 63.6397 1.71368 62.469 2.82437C62.2912 2.69776 62.0981 2.59402 61.8944 2.5156Z" fill="white"/>
<path d="M64.9091 11.2596C64.1821 11.2807 63.4615 11.1195 62.8128 10.7906C62.1641 10.4618 61.6081 9.97582 61.1954 9.37701C61.1568 9.32126 61.1225 9.26123 61.0882 9.20119C61.0007 9.0046 60.8688 8.83101 60.7029 8.69408C60.5369 8.55715 60.3415 8.46063 60.1319 8.41213L59.8703 8.30492C59.1426 7.97783 58.5638 7.38997 58.2482 6.65726C57.9325 5.92454 57.9028 5.10015 58.1649 4.34661C58.427 3.59308 58.962 2.96509 59.6642 2.58647C60.3665 2.20786 61.1851 2.10608 61.9587 2.30122C62.1306 2.35779 62.2916 2.44336 62.4347 2.55423C63.5797 1.51645 64.5789 1.15623 66.3242 1.13478C67.1305 1.13478 67.7094 1.32347 68.0396 1.70942C68.4078 1.19186 68.8688 0.74695 69.399 0.397187C69.7271 0.176993 70.1057 0.043429 70.4993 0.008937C70.893 -0.025555 71.289 0.0401461 71.6504 0.199921C71.8869 0.330764 72.1071 0.489103 72.3065 0.671642C72.4828 0.888928 72.7189 1.0498 72.9857 1.1344C73.2524 1.21899 73.5381 1.2236 73.8074 1.14765L74.1419 1.10905C76.1017 0.950385 77.727 2.79438 77.9586 4.53974C77.9586 4.61264 78.1859 6.32799 77.5769 6.92836C77.411 7.08461 77.2114 7.20067 76.9936 7.26759C76.7757 7.3345 76.5454 7.35049 76.3204 7.31431H76.2732C76.2577 7.83782 76.0987 8.34701 75.8136 8.78637C75.5285 9.22572 75.1283 9.57836 74.6565 9.80585C73.6745 10.2947 72.4266 10.3419 70.9514 9.94736C70.5345 9.87382 70.15 9.67485 69.8493 9.37701C69.7577 9.26327 69.6906 9.13189 69.652 8.99106C68.6472 10.0704 67.3465 10.8297 65.9126 11.1738C65.5818 11.2363 65.2456 11.265 64.9091 11.2596ZM61.2211 2.64429C60.6429 2.64845 60.0791 2.82545 59.6023 3.15251C59.1254 3.47958 58.7573 3.94178 58.5452 4.47971C58.3433 5.13554 58.3827 5.84197 58.6564 6.47122C58.9302 7.10047 59.4201 7.61098 60.0375 7.91039L60.2905 8.00902C60.5472 8.07603 60.7859 8.19877 60.9897 8.3685C61.1935 8.53823 61.3575 8.75079 61.4698 8.99106L61.5685 9.15402C62.3704 10.4405 64.1415 11.0838 65.8268 10.7364C67.3604 10.3489 68.7296 9.4802 69.7335 8.25775C69.7859 8.16619 69.8576 8.08716 69.9436 8.02618C69.988 7.99735 70.0412 7.98526 70.0937 7.99206C70.1462 7.99887 70.1946 8.02412 70.2302 8.06331C70.2657 8.10251 70.2862 8.15308 70.2879 8.20598C70.2897 8.25889 70.2725 8.31068 70.2395 8.35209L70.098 8.51076C70.083 8.5479 70.0729 8.58682 70.068 8.62655C70.0489 8.78913 70.0952 8.95263 70.1966 9.08111C70.4418 9.30635 70.7473 9.45535 71.0758 9.50995C72.4437 9.87875 73.5887 9.84015 74.4678 9.40274C74.9594 9.17404 75.3564 8.78181 75.5911 8.29301C75.8257 7.80421 75.8834 7.24913 75.7544 6.72252C75.7379 6.66565 75.7446 6.60456 75.7732 6.55269C75.8017 6.50082 75.8497 6.46241 75.9066 6.44592C75.9634 6.42943 76.0245 6.4362 76.0764 6.46475C76.1283 6.4933 76.1667 6.54129 76.1832 6.59815C76.1959 6.663 76.2269 6.72286 76.2725 6.77071C76.3181 6.81857 76.3763 6.85243 76.4405 6.86832C76.5911 6.8852 76.7435 6.86983 76.8877 6.82325C77.0319 6.77667 77.1645 6.69994 77.2767 6.59815C77.5898 6.2851 77.6112 5.23017 77.5254 4.58262C77.3239 3.03024 75.853 1.39637 74.1891 1.52931L73.876 1.56362C73.545 1.64854 73.1968 1.63977 72.8705 1.5383C72.5441 1.43683 72.2523 1.24664 72.0278 0.988979C71.8562 0.824709 71.6663 0.680809 71.4617 0.560143C71.1667 0.437242 70.8458 0.389367 70.5278 0.420797C70.2097 0.452228 69.9044 0.561985 69.6391 0.740255C69.0764 1.13296 68.592 1.62748 68.2111 2.1983C68.1872 2.22901 68.1556 2.25291 68.1195 2.26761C68.0834 2.28232 68.0441 2.28731 68.0055 2.28211C67.9669 2.2769 67.9304 2.26168 67.8995 2.23794C67.8686 2.21421 67.8444 2.1828 67.8295 2.14684C67.6065 1.6065 66.8002 1.5336 66.35 1.54218C64.6561 1.54218 63.7512 1.90669 62.632 2.96163C62.5965 2.99411 62.5517 3.01451 62.5039 3.01991C62.4561 3.0253 62.4079 3.0154 62.3661 2.99164L62.1903 2.87586C62.0888 2.79658 61.9761 2.73298 61.8558 2.68717C61.6469 2.64605 61.4336 2.63164 61.2211 2.64429Z" fill="#D1D3D4"/>
<path d="M70.5093 8.54511C70.3659 8.54301 70.2228 8.53299 70.0805 8.51509C69.3856 8.41039 68.7357 8.10752 68.2086 7.64279C67.6815 7.17806 67.2996 6.57118 67.1086 5.8949C67.1009 5.86703 67.0987 5.83788 67.1022 5.80916C67.1058 5.78043 67.115 5.7527 67.1294 5.72757C67.1438 5.70244 67.163 5.68041 67.1859 5.66276C67.2088 5.64511 67.2351 5.63218 67.263 5.62474C67.3199 5.61035 67.3801 5.61893 67.4307 5.64863C67.4812 5.67833 67.5181 5.72675 67.5332 5.78341C67.6923 6.38099 68.0248 6.91807 68.4888 7.32688C68.9528 7.7357 69.5275 7.99794 70.1403 8.08051C70.7532 8.16308 71.3768 8.06228 71.9324 7.79085C72.4881 7.51941 72.9509 7.08948 73.2624 6.55531C73.277 6.52991 73.2966 6.50769 73.3199 6.48999C73.3433 6.47229 73.3699 6.45945 73.3983 6.45226C73.4267 6.44506 73.4563 6.44364 73.4853 6.44808C73.5142 6.45252 73.542 6.46274 73.5669 6.47812C73.6162 6.50838 73.6518 6.5566 73.6662 6.61261C73.6806 6.66862 73.6727 6.72803 73.6441 6.77831C73.3166 7.31657 72.8563 7.76171 72.3074 8.07107C71.7585 8.38044 71.1394 8.54366 70.5093 8.54511Z" fill="#D1D3D4"/>
<path d="M61.5125 4.88716C61.4585 4.57865 61.49 4.26123 61.6036 3.96934C61.7171 3.67745 61.9084 3.42222 62.1568 3.23134C62.4051 3.04046 62.7009 2.92121 63.0122 2.88653C63.3235 2.85184 63.6383 2.90305 63.9226 3.03459" fill="white"/>
<path d="M61.5126 5.08874C61.4607 5.08955 61.4102 5.07188 61.3702 5.03889C61.3301 5.00589 61.3031 4.95972 61.2939 4.90863C61.2315 4.55975 61.2661 4.20042 61.394 3.86987C61.5219 3.53933 61.7382 3.2503 62.0192 3.03433C62.3002 2.81836 62.6352 2.68376 62.9875 2.64525C63.3399 2.60673 63.696 2.66576 64.017 2.81591C64.0667 2.84316 64.1042 2.88832 64.1218 2.9422C64.1394 2.99608 64.1358 3.05463 64.1118 3.10597C64.0878 3.1573 64.0451 3.19756 63.9924 3.21856C63.9398 3.23956 63.8811 3.23972 63.8284 3.21901C63.5811 3.10282 63.3066 3.05694 63.0349 3.08642C62.7633 3.11591 62.505 3.2196 62.2885 3.38615C62.0719 3.55269 61.9053 3.77565 61.807 4.03059C61.7088 4.28553 61.6826 4.5626 61.7313 4.83144C61.7413 4.88941 61.728 4.94898 61.6943 4.99718C61.6605 5.04537 61.6091 5.07828 61.5512 5.08874H61.5126Z" fill="#D1D3D4"/>
<path d="M8.43567 14.8704C8.43457 14.8139 8.41163 14.76 8.37166 14.72C8.33168 14.68 8.27778 14.6571 8.22125 14.656C8.16439 14.656 8.10985 14.6786 8.06964 14.7188C8.02943 14.759 8.00684 14.8136 8.00684 14.8704C8.07974 15.518 8.15693 16.1569 8.22983 16.8131C8.23093 16.8696 8.25387 16.9235 8.29385 16.9635C8.33382 17.0034 8.38773 17.0264 8.44425 17.0275C8.50077 17.0264 8.55468 17.0034 8.59465 16.9635C8.63463 16.9235 8.65757 16.8696 8.65867 16.8131C8.58577 16.1655 8.50857 15.518 8.43567 14.8704Z" fill="#D1D3D4"/>
<path d="M12.6981 17.6707C12.684 17.6462 12.6652 17.6247 12.6429 17.6075C12.6205 17.5902 12.5949 17.5776 12.5676 17.5702C12.5404 17.5628 12.5119 17.5609 12.4839 17.5645C12.4559 17.5682 12.4288 17.5773 12.4043 17.5914C12.3798 17.6054 12.3583 17.6242 12.3411 17.6466C12.3239 17.669 12.3112 17.6945 12.3038 17.7218C12.2965 17.7491 12.2945 17.7775 12.2982 17.8056C12.3018 17.8336 12.3109 17.8606 12.325 17.8851C12.3804 17.9661 12.4278 18.0522 12.4665 18.1424V18.1767V18.2282C12.4665 18.2754 12.5008 18.3225 12.5137 18.3697C12.5403 18.4596 12.5603 18.5513 12.5737 18.6442V18.6827C12.5737 18.6827 12.5737 18.7213 12.5737 18.7385C12.5737 18.7556 12.5737 18.8457 12.5737 18.8972C12.5737 18.954 12.5963 19.0086 12.6365 19.0488C12.6767 19.089 12.7313 19.1116 12.7881 19.1116C12.845 19.1116 12.8995 19.089 12.9398 19.0488C12.98 19.0086 13.0026 18.954 13.0026 18.8972C13.0132 18.4684 12.908 18.0447 12.6981 17.6707Z" fill="#D1D3D4"/>
<path d="M16.1289 15.9424C16.0731 15.6208 16.0217 15.2992 15.9659 14.9776C15.9509 14.9231 15.915 14.8769 15.866 14.8488C15.817 14.8207 15.7589 14.813 15.7043 14.8275C15.6502 14.8444 15.6045 14.8813 15.5767 14.9307C15.5488 14.9801 15.5408 15.0383 15.5543 15.0933C15.6057 15.415 15.6615 15.7366 15.7129 16.0582C15.7289 16.113 15.7657 16.1593 15.8153 16.1873C15.865 16.2154 15.9237 16.2229 15.9788 16.2083C16.0329 16.1914 16.0786 16.1545 16.1065 16.1051C16.1344 16.0557 16.1424 15.9975 16.1289 15.9424Z" fill="#D1D3D4"/>
<path d="M65.7067 14.8188L65.3808 13.6909C65.3735 13.6628 65.3607 13.6363 65.3431 13.6131C65.3256 13.5899 65.3037 13.5704 65.2786 13.5557C65.2535 13.5409 65.2257 13.5313 65.1969 13.5273C65.1681 13.5233 65.1388 13.525 65.1106 13.5323C65.0825 13.5396 65.056 13.5524 65.0328 13.5699C65.0096 13.5875 64.9901 13.6094 64.9753 13.6345C64.9606 13.6596 64.951 13.6873 64.9469 13.7161C64.9429 13.745 64.9446 13.7743 64.952 13.8024L65.2736 14.9303C65.2884 14.9871 65.3251 15.0358 65.3758 15.0656C65.4265 15.0953 65.4869 15.1037 65.5437 15.0889C65.6006 15.0742 65.6493 15.0374 65.679 14.9867C65.7088 14.9361 65.7172 14.8757 65.7024 14.8188H65.7067Z" fill="#D1D3D4"/>
<path d="M70.1622 16.1099C70.1056 16.111 70.0518 16.1339 70.0118 16.1739C69.9718 16.2139 69.9489 16.2678 69.9478 16.3243V17.6108C69.9478 17.6677 69.9703 17.7222 70.0106 17.7624C70.0508 17.8026 70.1053 17.8252 70.1622 17.8252C70.2187 17.8241 70.2726 17.8012 70.3126 17.7612C70.3525 17.7212 70.3755 17.6673 70.3766 17.6108V16.3243C70.3755 16.2678 70.3525 16.2139 70.3126 16.1739C70.2726 16.1339 70.2187 16.111 70.1622 16.1099Z" fill="#D1D3D4"/>
<path d="M74.4202 16.3243C74.4181 16.2681 74.3948 16.2148 74.355 16.175C74.3153 16.1353 74.262 16.112 74.2058 16.1099C74.0986 16.1099 73.9742 16.2085 73.9913 16.3243L74.2358 18.2626C74.2358 18.3195 74.2584 18.374 74.2986 18.4142C74.3388 18.4544 74.3933 18.477 74.4502 18.477C74.5071 18.477 74.5616 18.4544 74.6018 18.4142C74.642 18.374 74.6646 18.3195 74.6646 18.2626L74.4202 16.3243Z" fill="#D1D3D4"/>
<path d="M72.4136 25.7712C72.3571 25.7723 72.3032 25.7953 72.2632 25.8353C72.2233 25.8752 72.2003 25.9291 72.1992 25.9857V26.7876C72.1992 26.8444 72.2218 26.899 72.262 26.9392C72.3022 26.9794 72.3568 27.002 72.4136 27.002C72.4705 27.002 72.525 26.9794 72.5653 26.9392C72.6055 26.899 72.6281 26.8444 72.6281 26.7876V25.9857C72.6281 25.9288 72.6055 25.8743 72.5653 25.834C72.525 25.7938 72.4705 25.7712 72.4136 25.7712Z" fill="#D1D3D4"/>
<path d="M76.8173 30.2698C76.6543 29.7337 76.4957 29.1977 76.3327 28.6616C76.3158 28.6075 76.2789 28.5618 76.2295 28.5339C76.1801 28.506 76.1219 28.498 76.0668 28.5115C76.0132 28.5275 75.9679 28.5638 75.9407 28.6126C75.9135 28.6615 75.9064 28.7191 75.921 28.7731C76.0797 29.3134 76.2427 29.8495 76.4056 30.3855C76.4132 30.4137 76.4263 30.4401 76.4441 30.4632C76.4619 30.4863 76.4841 30.5057 76.5094 30.5202C76.5347 30.5347 76.5625 30.5441 76.5915 30.5479C76.6204 30.5516 76.6498 30.5497 76.6779 30.5421C76.7061 30.5345 76.7325 30.5214 76.7556 30.5036C76.7787 30.4858 76.7981 30.4636 76.8126 30.4383C76.8271 30.413 76.8365 30.3851 76.8403 30.3562C76.844 30.3273 76.8421 30.2979 76.8345 30.2698H76.8173Z" fill="#D1D3D4"/>
<path d="M5.30481 19.8707C5.30371 19.8141 5.28077 19.7602 5.24079 19.7203C5.20082 19.6803 5.14692 19.6573 5.09039 19.6562C5.03353 19.6562 4.97899 19.6788 4.93878 19.7191C4.89857 19.7593 4.87598 19.8138 4.87598 19.8707C4.92744 20.351 4.9789 20.8355 5.03464 21.3201C5.03464 21.377 5.05723 21.4315 5.09745 21.4717C5.13766 21.512 5.19219 21.5346 5.24906 21.5346C5.30559 21.5335 5.35949 21.5105 5.39946 21.4705C5.43944 21.4306 5.46238 21.3767 5.46348 21.3201C5.40773 20.8355 5.35627 20.351 5.30481 19.8707Z" fill="#D1D3D4"/>
<path d="M7.40641 29.1506C7.24384 28.5385 7.20016 27.9008 7.27776 27.2723C7.27776 27.2154 7.25517 27.1609 7.21496 27.1207C7.17475 27.0805 7.12021 27.0579 7.06334 27.0579C7.00648 27.0579 6.95194 27.0805 6.91173 27.1207C6.87152 27.1609 6.84893 27.2154 6.84893 27.2723C6.76919 27.9399 6.81721 28.6167 6.99044 29.2664C7.0058 29.3215 7.04243 29.3683 7.09229 29.3965C7.14216 29.4246 7.20116 29.4318 7.25632 29.4165C7.31148 29.4011 7.35828 29.3645 7.38643 29.3146C7.41458 29.2647 7.42177 29.2057 7.40641 29.1506Z" fill="#D1D3D4"/>
<path d="M9.6275 21.7446C9.57098 21.7457 9.51708 21.7687 9.4771 21.8086C9.43713 21.8486 9.41418 21.9025 9.41309 21.959V22.9239C9.41309 22.9808 9.43568 23.0353 9.47589 23.0755C9.5161 23.1158 9.57064 23.1383 9.6275 23.1383C9.68437 23.1383 9.73891 23.1158 9.77912 23.0755C9.81933 23.0353 9.84192 22.9808 9.84192 22.9239V21.959C9.84082 21.9025 9.81788 21.8486 9.77791 21.8086C9.73793 21.7687 9.68403 21.7457 9.6275 21.7446Z" fill="#D1D3D4"/>
</svg>
