<svg width="151" height="40" viewBox="0 0 151 40" fill="none" xmlns="http://www.w3.org/2000/svg">
<path d="M49.82 29V15.08H52.96V29H49.82ZM45.4 17.62V14.88H57.38V17.62H45.4ZM60.5892 29.2C59.6959 29.2 58.8959 28.98 58.1892 28.54C57.4959 28.1 56.9426 27.5 56.5292 26.74C56.1292 25.98 55.9292 25.1133 55.9292 24.14C55.9292 23.1667 56.1292 22.3 56.5292 21.54C56.9426 20.78 57.4959 20.18 58.1892 19.74C58.8959 19.3 59.6959 19.08 60.5892 19.08C61.2426 19.08 61.8292 19.2067 62.3492 19.46C62.8826 19.7133 63.3159 20.0667 63.6492 20.52C63.9826 20.96 64.1692 21.4667 64.2092 22.04V26.24C64.1692 26.8133 63.9826 27.3267 63.6492 27.78C63.3292 28.22 62.9026 28.5667 62.3692 28.82C61.8359 29.0733 61.2426 29.2 60.5892 29.2ZM61.2092 26.44C61.8626 26.44 62.3892 26.2267 62.7892 25.8C63.1892 25.36 63.3892 24.8067 63.3892 24.14C63.3892 23.6867 63.2959 23.2867 63.1092 22.94C62.9359 22.5933 62.6826 22.3267 62.3492 22.14C62.0292 21.94 61.6559 21.84 61.2292 21.84C60.8026 21.84 60.4226 21.94 60.0892 22.14C59.7692 22.3267 59.5092 22.5933 59.3092 22.94C59.1226 23.2867 59.0292 23.6867 59.0292 24.14C59.0292 24.58 59.1226 24.9733 59.3092 25.32C59.4959 25.6667 59.7559 25.94 60.0892 26.14C60.4226 26.34 60.7959 26.44 61.2092 26.44ZM63.2692 29V26.38L63.7292 24.02L63.2692 21.66V19.28H66.2692V29H63.2692ZM72.4837 29.2C71.5904 29.2 70.7904 28.98 70.0838 28.54C69.3904 28.1 68.8371 27.5 68.4238 26.74C68.0238 25.98 67.8238 25.1133 67.8238 24.14C67.8238 23.1667 68.0238 22.3 68.4238 21.54C68.8371 20.78 69.3904 20.18 70.0838 19.74C70.7904 19.3 71.5904 19.08 72.4837 19.08C73.1371 19.08 73.7238 19.2067 74.2438 19.46C74.7771 19.7133 75.2104 20.0667 75.5438 20.52C75.8771 20.96 76.0638 21.4667 76.1038 22.04V26.24C76.0638 26.8133 75.8771 27.3267 75.5438 27.78C75.2238 28.22 74.7971 28.5667 74.2638 28.82C73.7304 29.0733 73.1371 29.2 72.4837 29.2ZM73.1038 26.44C73.7571 26.44 74.2838 26.2267 74.6838 25.8C75.0838 25.36 75.2838 24.8067 75.2838 24.14C75.2838 23.6867 75.1904 23.2867 75.0038 22.94C74.8304 22.5933 74.5771 22.3267 74.2438 22.14C73.9238 21.94 73.5504 21.84 73.1238 21.84C72.6971 21.84 72.3171 21.94 71.9838 22.14C71.6638 22.3267 71.4038 22.5933 71.2038 22.94C71.0171 23.2867 70.9238 23.6867 70.9238 24.14C70.9238 24.58 71.0171 24.9733 71.2038 25.32C71.3904 25.6667 71.6504 25.94 71.9838 26.14C72.3171 26.34 72.6904 26.44 73.1038 26.44ZM75.1638 33.1V26.5L75.6238 24.14L75.1638 21.78V19.28H78.1638V33.1H75.1638ZM84.4583 29.2C83.5383 29.2 82.7183 28.98 81.9983 28.54C81.2916 28.1 80.7316 27.5 80.3183 26.74C79.9183 25.98 79.7183 25.1133 79.7183 24.14C79.7183 23.1667 79.9183 22.3 80.3183 21.54C80.7316 20.78 81.2916 20.18 81.9983 19.74C82.7183 19.3 83.5383 19.08 84.4583 19.08C85.1249 19.08 85.7249 19.2067 86.2583 19.46C86.8049 19.7133 87.2516 20.0667 87.5983 20.52C87.9583 20.96 88.1583 21.4667 88.1983 22.04V26.14C88.1583 26.7133 87.9649 27.2333 87.6183 27.7C87.2716 28.1533 86.8249 28.52 86.2783 28.8C85.7316 29.0667 85.1249 29.2 84.4583 29.2ZM84.9983 26.44C85.4383 26.44 85.8183 26.3467 86.1383 26.16C86.4583 25.96 86.7116 25.6867 86.8983 25.34C87.0849 24.9933 87.1783 24.5933 87.1783 24.14C87.1783 23.6867 87.0849 23.2933 86.8983 22.96C86.7249 22.6133 86.4716 22.34 86.1383 22.14C85.8183 21.94 85.4449 21.84 85.0183 21.84C84.5916 21.84 84.2116 21.94 83.8783 22.14C83.5583 22.34 83.2983 22.6133 83.0983 22.96C82.9116 23.3067 82.8183 23.7 82.8183 24.14C82.8183 24.58 82.9116 24.9733 83.0983 25.32C83.2849 25.6667 83.5449 25.94 83.8783 26.14C84.2116 26.34 84.5849 26.44 84.9983 26.44ZM90.0583 29H87.0583V26.38L87.5183 24.02L86.9983 21.66V14.48H90.0583V29ZM92.2128 29V19.28H95.2728V29H92.2128ZM93.7528 17.94C93.2728 17.94 92.8728 17.78 92.5528 17.46C92.2461 17.1267 92.0928 16.7267 92.0928 16.26C92.0928 15.78 92.2461 15.38 92.5528 15.06C92.8728 14.74 93.2728 14.58 93.7528 14.58C94.2328 14.58 94.6261 14.74 94.9328 15.06C95.2395 15.38 95.3928 15.78 95.3928 16.26C95.3928 16.7267 95.2395 17.1267 94.9328 17.46C94.6261 17.78 94.2328 17.94 93.7528 17.94ZM97.4277 29V19.28H100.488V29H97.4277ZM103.648 29V23.32C103.648 22.8267 103.494 22.4467 103.188 22.18C102.894 21.9 102.528 21.76 102.088 21.76C101.781 21.76 101.508 21.8267 101.268 21.96C101.028 22.08 100.834 22.2533 100.688 22.48C100.554 22.7067 100.488 22.9867 100.488 23.32L99.3077 22.8C99.3077 22.0267 99.4743 21.3667 99.8077 20.82C100.141 20.26 100.594 19.8333 101.168 19.54C101.741 19.2333 102.388 19.08 103.108 19.08C103.788 19.08 104.394 19.2333 104.928 19.54C105.474 19.8467 105.908 20.2733 106.228 20.82C106.548 21.3667 106.708 22.02 106.708 22.78V29H103.648ZM109.868 29V23.32C109.868 22.8267 109.714 22.4467 109.408 22.18C109.114 21.9 108.748 21.76 108.308 21.76C108.001 21.76 107.728 21.8267 107.488 21.96C107.248 22.08 107.054 22.2533 106.908 22.48C106.774 22.7067 106.708 22.9867 106.708 23.32L104.948 23.08C104.974 22.2533 105.168 21.5467 105.528 20.96C105.901 20.36 106.388 19.9 106.988 19.58C107.601 19.2467 108.288 19.08 109.048 19.08C109.794 19.08 110.454 19.24 111.028 19.56C111.614 19.8667 112.074 20.3133 112.408 20.9C112.754 21.4733 112.928 22.1667 112.928 22.98V29H109.868ZM114.889 29V14.48H117.949V29H114.889ZM123.103 29.04L119.103 19.28H122.403L124.943 27.02H123.723L126.323 19.28H129.623L125.463 29.04H123.103ZM120.603 33.1L123.523 26.8L125.463 29.04L123.743 33.1H120.603ZM132.607 29.2C132.234 29.2 131.92 29.0733 131.667 28.82C131.427 28.5533 131.307 28.24 131.307 27.88C131.307 27.5067 131.427 27.2 131.667 26.96C131.92 26.7067 132.234 26.58 132.607 26.58C132.98 26.58 133.287 26.7067 133.527 26.96C133.78 27.2 133.907 27.5067 133.907 27.88C133.907 28.24 133.78 28.5533 133.527 28.82C133.287 29.0733 132.98 29.2 132.607 29.2ZM140.477 29.2C139.611 29.2 138.824 28.9867 138.117 28.56C137.411 28.12 136.851 27.5267 136.437 26.78C136.037 26.0333 135.837 25.1933 135.837 24.26C135.837 23.3267 136.037 22.4867 136.437 21.74C136.851 20.9933 137.404 20.4 138.097 19.96C138.804 19.52 139.597 19.3 140.477 19.3C141.197 19.3 141.837 19.4533 142.397 19.76C142.971 20.0533 143.431 20.4667 143.777 21C144.124 21.52 144.317 22.1267 144.357 22.82V25.68C144.317 26.36 144.124 26.9667 143.777 27.5C143.444 28.0333 142.991 28.4533 142.417 28.76C141.857 29.0533 141.211 29.2 140.477 29.2ZM140.777 27.5C141.671 27.5 142.391 27.2 142.937 26.6C143.484 25.9867 143.757 25.2067 143.757 24.26C143.757 23.6067 143.631 23.04 143.377 22.56C143.137 22.0667 142.791 21.6867 142.337 21.42C141.884 21.14 141.357 21 140.757 21C140.157 21 139.624 21.14 139.157 21.42C138.704 21.7 138.344 22.0867 138.077 22.58C137.824 23.06 137.697 23.6133 137.697 24.24C137.697 24.88 137.824 25.4467 138.077 25.94C138.344 26.42 138.711 26.8 139.177 27.08C139.644 27.36 140.177 27.5 140.777 27.5ZM143.637 29V26.44L143.977 24.12L143.637 21.82V19.5H145.457V29H143.637ZM148.098 29V19.5H149.898V29H148.098ZM148.998 17.6C148.664 17.6 148.391 17.4933 148.178 17.28C147.964 17.0533 147.858 16.7733 147.858 16.44C147.858 16.12 147.964 15.8533 148.178 15.64C148.391 15.4133 148.664 15.3 148.998 15.3C149.331 15.3 149.604 15.4133 149.818 15.64C150.031 15.8533 150.138 16.12 150.138 16.44C150.138 16.7733 150.031 17.0533 149.818 17.28C149.604 17.4933 149.331 17.6 148.998 17.6Z" fill="white"/>
<mask id="mask0_39_867" style="mask-type:luminance" maskUnits="userSpaceOnUse" x="7" y="26" width="13" height="14">
<path d="M7.10754 26.3467H19.0934V39.5058H7.10754V26.3467Z" fill="white"/>
</mask>
<g mask="url(#mask0_39_867)">
<path fill-rule="evenodd" clip-rule="evenodd" d="M19.0363 39.503V29.4042L13.8463 26.408L7.10754 30.3009V32.6134L13.5475 36.3334L19.0363 39.503Z" fill="#9333EA"/>
</g>
<mask id="mask1_39_867" style="mask-type:luminance" maskUnits="userSpaceOnUse" x="7" y="10" width="13" height="19">
<path d="M7.10754 10.7733H19.0934V28.16H7.10754V10.7733Z" fill="white"/>
</mask>
<g mask="url(#mask1_39_867)">
<path fill-rule="evenodd" clip-rule="evenodd" d="M7.10754 28.1066L11.9513 25.3066L13.5475 24.3862L15.0338 23.5291L19.0363 21.2166V10.8429L13.5475 14.0125L7.10754 17.7325V28.1066Z" fill="#9333EA"/>
</g>
<mask id="mask2_39_867" style="mask-type:luminance" maskUnits="userSpaceOnUse" x="20" y="0" width="13" height="25">
<path d="M20.9066 0.46582H32.8674V24.4267H20.9066V0.46582Z" fill="white"/>
</mask>
<g mask="url(#mask2_39_867)">
<path fill-rule="evenodd" clip-rule="evenodd" d="M32.8674 7.63412V0.469116L26.6633 4.05537L20.9391 7.3587V21.2166L26.4274 24.3862L26.4745 24.41L32.8674 20.7212V7.63412Z" fill="#D946EF"/>
</g>
<mask id="mask3_39_867" style="mask-type:luminance" maskUnits="userSpaceOnUse" x="20" y="22" width="13" height="18">
<path d="M20.9066 22.5067H32.8674V39.5059H20.9066V22.5067Z" fill="white"/>
</mask>
<g mask="url(#mask3_39_867)">
<path fill-rule="evenodd" clip-rule="evenodd" d="M26.4274 26.2346L20.9391 29.4042V39.503L26.4274 36.3334L32.8674 32.6134V22.5146L28.0316 25.3067L26.4274 26.2346Z" fill="#D946EF"/>
</g>
</svg>
